<svg xmlns="http://www.w3.org/2000/svg" fill="currentColor" viewBox="0 0 24 24">
  <defs/>
  <path d="M9.246 10.098c.824.789 1.684 1.219 2.58 1.326 1.075.108 2.043-.537 2.723-1.218 1.649-1.577 1.04-3.655-.465-5.088C12.9 4.007 11.324 3.54 9.89 4.58a4.113 4.113 0 00-1.54 2.186c-.144.61-.18 1.254 0 1.9.143.608.43 1.002.895 1.432zm8.761 5.393c.036.153.072.305.126.448 1.11 3.242.458 3.151-.578 3.007a5.41 5.41 0 00-.748-.068c-.44 0-.794.009-1.142.018-.333.009-.658.017-1.044.017l-.348.006c-.565.01-1.68.03-2.375.03-.435.016-1.391-.01-2.387-.04-1.22-.034-2.499-.07-2.952-.031-.146.009-.29.027-.428.044-.942.117-1.594.198-.719-2.803.02-.069.036-.134.053-.197.043-.17.084-.328.162-.484.21-.495.323-.984.43-1.45.299-1.289.555-2.396 2.688-2.922.895.752 1.863 1.218 2.866 1.326.108.036.251.036.359.036 1.039 0 2.042-.502 3.045-1.434 1.885.44 2.096 1.306 2.388 2.506.113.466.239.982.48 1.543.053.144.089.296.125.448z" clip-rule="evenodd"/>
</svg>
