<svg xmlns="http://www.w3.org/2000/svg" fill="currentColor" viewBox="0 0 24 24">
  <defs/>
  <path d="M10.222 4.245c.27-.045.54-.135.855-.135.315-.045.63-.045.9-.09.316 0 .586-.045.81 0 .226 0 .45.045.586.045 0 .225-.045.45-.045.63v.63c0 .54 0 1.216-.045 1.981-.045.81 0 1.666.09 2.521.225 0 .495-.045.765-.045h.856c.72 0 1.44 0 2.16.045.72.045 1.306.18 1.801.405.045.18.045.405.045.585v.496c0 .405 0 .765-.045 1.035-.045.27-.09.495-.135.765-.225 0-.45-.045-.675-.045h-.675c-.45 0-.99 0-1.711.045h-2.296l.81 6.213c-.36 0-.855.044-1.485.044-.63 0-1.35.046-2.251.046 0 0-.045-.136-.135-.45-.09-.316-.18-.81-.27-1.531-.09-.855-.135-1.62-.18-2.206 0-.63-.045-1.17-.045-1.666-.856.09-1.666.226-2.476.316s-1.576.18-2.341.27v-.63c0-.226-.045-.45-.045-.72 0-.271-.045-.541-.045-.901.045-.27.045-.675.045-1.17.99-.18 1.71-.316 2.25-.36.586-.046 1.126-.09 1.621-.136.45-.045.9-.045 1.26-.045v-.45c0-.54 0-1.08-.044-1.666 0-.585-.045-1.08-.045-1.62V5.1c0-.406.045-.676.135-.856z"/>
</svg>
