<svg xmlns="http://www.w3.org/2000/svg"  fill="currentColor" viewBox="0 0 47 20">
    <g data-name="Apple Pay">
        <path data-name="Path 282477" d="M8.916 2.578A3.6 3.6 0 0 0 9.737 0a3.713 3.713 0 0 0-2.383 1.211 3.4 3.4 0 0 0-.859 2.461 2.805 2.805 0 0 0 2.421-1.094m.82 1.328c-1.328-.078-2.461.742-3.086.742s-1.6-.7-2.656-.7a3.919 3.919 0 0 0-3.32 2.029C-.732 8.437.283 12.07 1.69 14.063c.664.977 1.484 2.07 2.539 2.031 1.016-.039 1.406-.664 2.617-.664s1.563.664 2.656.625 1.8-.977 2.461-1.992a7.867 7.867 0 0 0 1.094-2.263 3.539 3.539 0 0 1-.43-6.289 3.637 3.637 0 0 0-2.891-1.6"/>
        <g data-name="Group 103686">
            <path data-name="Path 282478" d="M21.221 1.133a4.645 4.645 0 0 1 4.883 4.844 4.7 4.7 0 0 1-4.961 4.883h-3.169v5.039h-2.3V1.133Zm-3.247 7.812h2.617c1.992 0 3.125-1.094 3.125-2.93 0-1.875-1.133-2.93-3.125-2.93H17.94v5.859Zm8.711 3.945c0-1.875 1.445-3.047 4.023-3.2l2.969-.156v-.82c0-1.211-.82-1.914-2.148-1.914a2.06 2.06 0 0 0-2.266 1.562h-2.105c.117-1.953 1.8-3.4 4.453-3.4 2.617 0 4.3 1.367 4.3 3.555v7.416h-2.112V14.18h-.039a3.828 3.828 0 0 1-3.4 1.953c-2.186 0-3.67-1.328-3.67-3.242Zm6.992-.977v-.859l-2.656.156c-1.328.078-2.07.664-2.07 1.6s.781 1.563 1.953 1.563a2.582 2.582 0 0 0 2.778-2.459Zm4.18 8.008v-1.8a4.246 4.246 0 0 0 .7.039 1.807 1.807 0 0 0 1.917-1.519c0-.039.2-.664.2-.664L36.768 5.195h2.383l2.734 8.789h.039l2.734-8.789h2.344l-4.028 11.368c-.937 2.617-1.992 3.438-4.219 3.438-.156-.039-.7-.039-.9-.078Z"/>
        </g>
    </g>
</svg>
