<svg xmlns="http://www.w3.org/2000/svg" fill="currentColor" viewBox="0 0 24 24">
  <defs/>
  <path d="M18.848 9.857c-.492-.265-3.41-.417-4.13-.455-.758-.038-1.478-.076-2.198-.076v-.303c0-.568-.303-1.705-.34-2.084-.038-.265-.076-.53-.114-.758-.038-.151-.19-.227-.303-.151-.19.076-.417.227-.569.303-.91.568-1.743 1.137-2.539 1.857-.644.492-1.136.833-1.629 1.364a30.61 30.61 0 00-1.099 1.136l-.833.986c-.152.19-.114.454.075.568.228.152.455.265.682.417.455.265.91.568 1.364.834a66.52 66.52 0 002.805 1.553c.378.19.795.417 1.288.644.34.19 1.06.569 1.402.72.076.038.151-.038.151-.113l.038-1.933c0-.493 0-.91-.038-1.288h.493c.72-.038 1.288-.038 1.743-.038h.682c.227 0 2.766 0 2.994.038.038-.265.075-.569.151-.872.038-.303.076-.682.076-1.175v-.568a2.837 2.837 0 01-.152-.606z"/>
</svg>
