<svg xmlns="http://www.w3.org/2000/svg" viewBox="0 0 140.3 140.3" style="enable-background:new 0 0 140.3 140.3" xml:space="preserve">
    <path d="M138.8 45.3c-1.5-7.5-3.9-14.8-7.2-21.8-2.1-4.9-7.1-10.6-15.2-14.9-8-4.3-19.4-6.9-34-8-2.5-.2-4.9-.3-7.2-.4-.4 0-.8-.1-1.1-.2-1.6-.4-17.2.3-22.7 1-5.6.7-10.9 2.2-16 4.5s-9.5 6.3-13.3 9.9-7.2 7.8-10.2 12.5C5 38.6 1.1 50 .2 62.2c-.9 12.6 1.6 25.2 7.4 37.9 4.8 10.2 10.8 18.5 17.8 24.8 9.9 9.1 28.7 14.2 56.6 15.3 7.1.4 13.6-.7 19.7-3 6.1-2.4 11.4-5.6 16.2-9.7 4.7-4.1 8.7-8.9 11.9-14.4s5.5-11.3 6.8-17.5c1.7-7.9 2.8-15.9 3.4-24 .7-10 .3-18.8-1.2-26.3z" style="fill:#f3f2f1"/>
    <path fill="#000000" style="fill:none" d="M-240.3 35.6h110v83.9h-110z"/>
    <path fill="#000000" d="M48.5 31.2h21.7c5.3 0 12.2 0 15.8 2.2 3.9 2.4 7 6.6 7 12.5 0 6.3-3.3 11.2-8.9 13.3v.3c7.3 1.6 11.3 7 11.3 14.3 0 8.7-6.3 17.1-18.1 17.1H48.5V31.2zm8 25.5h15.9c9 0 12.6-3.3 12.6-9.5 0-8.2-5.9-9.5-12.6-9.5H56.5v19zm0 27.3h19.9c6.7 0 11.2-4.2 11.2-10.8 0-7.7-6.3-9.9-12.9-9.9H56.5V84z"/>
    <path fill="#000000" d="M115.6 61c0 24.9-20.4 45.3-45.3 45.3S25.1 86 25.1 61s20.4-45.3 45.3-45.3 45.2 20.4 45.2 45.3zM70.3 8.8c-28.8 0-52 23.2-52 52.2s23.4 52.2 52.2 52.2 52.2-23.4 52.2-52.2S99.1 8.8 70.3 8.8zM18.2 124h104v6.7h-104zM119 116.5h.3c.1 0 .3 0 .3-.1.1 0 .3-.1.3-.3.1-.1.1-.3.1-.3s0-.3-.1-.3c0-.1-.1-.1-.3-.3-.1 0-.1-.1-.3-.1h-1v1.1l.7.3zm.3-1.7c.4 0 .7.1 1 .3.3.3.3.4.3.7s-.1.6-.3.7c-.3.1-.4.3-.7.3l1.1 1.6h-.7l-1-1.6h-.7v1.6h-.6v-3.7h1.6v.1zm-2.7 3c.1.3.3.7.6.9.3.3.6.4.9.6.3.1.7.3 1 .3s.7-.1 1-.3c.3-.1.6-.3.9-.6.3-.3.4-.6.6-.9.1-.3.3-.7.3-1.1 0-.4-.1-.7-.3-1.1-.1-.4-.3-.7-.6-.9-.3-.1-.6-.4-.9-.6-.3-.1-.7-.3-1-.3s-.7.1-1 .3c-.3.1-.6.3-.9.6-.3.3-.4.6-.6.9-.1.3-.3.7-.3 1.1.3.4.3.7.3 1.1m-.5-2.3c.3-.3.4-.7.7-1s.7-.6 1-.7c.3-.1.7-.3 1.1-.3.4 0 .9.1 1.1.3.3.3.7.3 1 .7.3.3.6.7.7 1 .3.4.3.7.3 1.1s-.1.9-.3 1.1c-.1.4-.4.7-.7 1s-.7.6-1 .7c-.4.1-.7.3-1.1.3-.4 0-.9-.1-1.1-.3-.4-.1-.7-.3-1-.7-.3-.3-.6-.7-.7-1-.3-.3-.3-.7-.3-1.1.1-.4.2-.8.3-1.1"/>
</svg>