<svg data-name="Notification Pip" xmlns="http://www.w3.org/2000/svg" viewBox="0 0 24 24">
  <path data-name="Bounding box" fill="none" d="M0 0h24v24H0z"/>
  <g data-name="Group 103374">
    <path data-name="Path 283353" d="M12.724 7.27a5.476 5.476 0 0 1 1.352-3.6c-.256-.415-.057-1.4-1.236-1.4-1.473-.008-1.051 1.329-1.545 1.555a7.827 7.827 0 0 0-1.994 1.109C7.175 6.611 6.935 9.093 6.895 12.13c.1 1.962-1.609 3.142-2.7 4.529-.708 1.22 1.2 1.013 1.917.971 2.895.012 2.692-.164 5.6-.036l3.358.049c1.246-.13 7.3 1.117 4.866-1.422-.728-.912-1.674-1.749-1.772-3-.027-.151-.05-.306-.071-.461a5.5 5.5 0 0 1-5.369-5.49" fill="#3c3c3b"/>
    <path data-name="Path 283354" d="M13.913 18.725a1.441 1.441 0 0 0-.845-.223 14.322 14.322 0 0 0-2.019.025c-1.047.1-.7 1.65-.2 2.157a1.963 1.963 0 0 0 1.827.533 2.084 2.084 0 0 0 1.44-1.261 1.1 1.1 0 0 0-.151-1.186l-.052-.044" fill="currentColor"/>
    <path data-name="Path 283355" d="M22.224 7.27a4 4 0 0 0-.314-1.56 4 4 0 0 1 .314 1.56" fill="#fff"/>
    <path data-name="Path 283356" d="M15.987 3.95a4.082 4.082 0 0 0-.477.393 3.992 3.992 0 0 1 .477-.394" fill="#fff"/>
    <path data-name="Path 283357" d="M20.46 3.95a4 4 0 0 0-4.473 0 4 4 0 0 1 4.473 0" fill="#fff"/>
    <path data-name="Path 283358" d="M21.909 5.71a4.017 4.017 0 0 0-1.449-1.76 4.017 4.017 0 0 1 1.449 1.76" fill="#fff"/>
    <path data-name="Path 283359" d="M22.222 7.152a4 4 0 1 1-4.113-3.882 4 4 0 0 1 4.113 3.884" fill="#d71342"/>
  </g>
</svg>
