<svg xmlns="http://www.w3.org/2000/svg" viewBox="0 0 24 24">
  <path data-name="Bounding box" fill="none" d="M0 0h24v24H0z"/>
  <g fill="currentColor">
    <path data-name="Path 283335" d="M15.029 17.643c1.246-.13 7.3 1.117 4.866-1.422-.728-.912-1.674-1.749-1.772-3-.506-2.781.188-6.268-1.973-8.416a5.194 5.194 0 0 0-1.969-1c-.49-.243-.032-1.535-1.381-1.535-1.474-.008-1.052 1.329-1.546 1.555A7.8 7.8 0 0 0 9.26 4.934C7.134 6.611 6.894 9.093 6.854 12.13c.1 1.962-1.609 3.142-2.7 4.529-.708 1.22 1.2 1.013 1.917.971 2.895.012 2.692-.164 5.6-.036Z"/>
    <path data-name="Path 283336" d="M13.868 18.73a1.444 1.444 0 0 0-.845-.223 14.421 14.421 0 0 0-2.019.025c-1.047.1-.7 1.65-.2 2.157a1.964 1.964 0 0 0 1.827.533 2.084 2.084 0 0 0 1.44-1.261 1.1 1.1 0 0 0-.147-1.192l-.052-.044"/>
  </g>
</svg>
