<svg xmlns="http://www.w3.org/2000/svg" fill="currentColor" viewBox="0 0 24 24">
  <defs/>
  <path d="M17.06 8.565H6.938c-.004.086-.012.172-.012.25v2.427c0 1.763-.003 3.528.002 5.293v-.001a2.058 2.058 0 001.563 2c.111.03.223.05.335.075h6.349a.605.605 0 01.094-.029 2.062 2.062 0 001.804-2.03c.004-2.586.004-5.174 0-7.763 0-.07-.008-.136-.013-.222zm-7.364 4.242V16.2a.847.847 0 01-.017.198c-.06.25-.266.41-.495.388-.229-.023-.413-.234-.419-.488-.006-.229-.002-.457-.002-.685V10.909c0-.314.225-.542.502-.522.242.019.427.238.428.524.004.632.003 1.264.003 1.896zm2.77.795v2.623a.782.782 0 01-.01.156c-.05.254-.265.426-.497.404-.227-.02-.419-.23-.423-.485-.007-.394-.002-.788-.002-1.183v-4.133a.99.99 0 01.008-.185c.049-.255.258-.428.492-.411.235.017.428.232.43.492.005.475.003.95.003 1.427v1.296zm2.771-.016v2.637a.832.832 0 01-.012.17c-.058.257-.271.42-.506.392-.234-.027-.412-.242-.413-.509-.002-.731 0-1.463 0-2.195v-3.079c-.002-.057 0-.114.004-.171.029-.26.237-.45.478-.443.23.007.43.209.447.46.009.133.004.268.004.4-.002.78-.002 1.569-.002 2.34v-.002zM17.999 6.7c.002-.552-.316-.869-.873-.87H14.62a.714.714 0 00.034-.22v-.88c0-.404-.33-.73-.738-.73h-3.834a.734.734 0 00-.738.73v.88c0 .075.011.15.034.22H6.818c-.418 0-.737.257-.806.653-.018.097-.01.2-.01.299 0 .553.315.865.874.865H17.192c.42 0 .738-.27.799-.677.008-.09.011-.18.008-.27z"/>
</svg>
