<svg fill="none" xmlns="http://www.w3.org/2000/svg" viewBox="0 0 24 24">
    <path fill-rule="evenodd" clip-rule="evenodd" d="M8.164 3.495a2.422 2.422 0 01-.302-.2C7.667 3.152 7.457 3 7.299 3c-.31 0-.866.618-1.175 1.546-.31.927-.804 2.967.185 4.637.473.816 1.602 1.512 2.537 2.09.411.254.785.484 1.05.692.061.155.139.371.216.587.059.165.117.329.169.466l-.014-.002s-.99 5.44-.31 6.615c.68 1.175 2.288.372 2.412-.247.04-.197-.022-.779-.1-1.515-.165-1.571-.405-3.848.1-4.606l-.035-.004.035-.057c.498-.28.902-.294 1.371-.31.46-.015.984-.033 1.72-.309.68-.247 1.237-.68 1.979-2.102a2.05 2.05 0 01.153-.261c.32-.502.945-1.48.341-2.336-.433-.556-3.895-.742-5.626.742-.171.149-.318.294-.444.437-.007-.627-.12-1.264-.36-1.982-.556-1.67-1.67-2.659-3.339-3.586z" fill="#217542"/>
</svg>