<svg xmlns="http://www.w3.org/2000/svg" fill="currentColor" viewBox="0 0 24 24">
  <defs/>
  <path d="M17.215 4.16c-.03-.27-1.822-.132-2.383-.063-.066.28-.037.825-.004 1.284l-1.865.026-.033-.439c-.019-.243-.038-.505-.066-.827-.83-.025-1.875.02-2.513.07 0 .114-.003.235-.005.362-.006.273-.012.57.005.871l-1.525.022c-.016-.342-.06-.675-.11-1.057l-.026-.198c-.684-.107-1.637-.114-2.383.044-.004.266.032.692.066 1.101l.012.142-.625.005c-1.055 0-1.6.554-1.652 2.206-.027.862-.013 1.9 0 2.936.012.972.025 1.942.004 2.76l.049 1.353a92.861 92.861 0 01-.103 2.543c-.043.87-.076 1.516-.047 1.904.044.703.308 1.318 1.345 1.398.351.026 1.846.035 3.7.035 3.639 0 8.666-.044 9.202-.132.897-.15 1.354-.554 1.354-1.45-.002-.203 0-.472.001-.782.006-1.065.016-2.615-.107-3.622l.053-1.248c.053-2.601-.053-5.045-.15-6.196-.103-1.135-.976-1.835-2.104-1.854a16.44 16.44 0 00-.09-1.194zM8.71 11.313c-.545.084-2.283.252-2.313-.077-.074-.948-.112-1.491-.074-2.202.992-.085 1.634 0 2.357.137l.019.325c.036.596.086 1.422.011 1.817zm8.274-.192c-.724.192-1.649.184-2.313.054l-.025-.241c-.071-.68-.13-1.233-.11-1.877.284-.027.693-.027 1.118-.027.425 0 .867 0 1.218-.027.01.228.03.5.048.78.034.497.069 1.015.064 1.338zm-6.427-.867c-.022-.37-.042-.7-.071-1.083 0 0 1.574-.26 2.522-.114.074.565.065 1.159.056 1.677-.002.155-.004.303-.004.441-.62.061-1.634.115-2.44.084-.027-.39-.046-.71-.063-1.005zm-1.683 4.823c-.649.1-1.604.161-2.26-.053a15.183 15.183 0 01.022-2.18c.679-.13 1.753-.023 2.26.03.113.551.053 1.515-.022 2.203zm8.349-.107c-.828.107-1.395.138-2.253.107 0-.396-.012-.793-.03-1.396l-.023-.806c.724-.054 1.5-.084 2.224.053 0 .414.02.827.05 1.406l.032.636zm-4.14.077c-.74.145-1.538.268-2.276.084-.123-.96-.103-1.293-.064-1.938l.011-.204c.358 0 .75.006 1.142.012.392.006.783.011 1.141.011.101.453.08 1 .06 1.523a19.39 19.39 0 00-.015.512zm2.963 3.824c-.302-.014-.616-.029-.92-.029-.079-.434-.088-.862-.099-1.33-.006-.283-.012-.58-.035-.903.233.005.492.001.761-.003.498-.008 1.03-.016 1.5.033.052.635.082 1.24.022 2.234-.31.042-.753.02-1.23-.002zm-2.863-.054c-.778.125-1.104.177-2.085.163-.163-.487-.163-1.242-.163-1.88 0-.123 0-.242-.002-.354.664-.068 1.627-.13 2.261.085.164.665.164 1.239.164 1.957l-.175.029zm-5.878.151c-.135-.007-.267-.014-.393-.019 0-.355-.009-.66-.016-.925-.015-.512-.025-.881.038-1.193.594-.03 1.426.012 2.163.05l.068.003c.101.41.09.833.077 1.244-.007.255-.015.505.005.745-.516.172-1.27.131-1.942.095z" clip-rule="evenodd"/>
</svg>
