<svg width="25" height="73" viewBox="0 0 32 134" fill="none" xmlns="http://www.w3.org/2000/svg">
    <path d="M30.0164 23.2546C28.1464 18.9276 22.9536 20.0757 18.1871 20.317C13.4206 20.5582 12.9662 17.5625 6.40644 21.2781C2.01207 23.7651 1.95597 40.6713 3.81656 52.1322C4.96284 59.2399 4.48787 69.001 5.16105 79.0239C5.86976 89.7237 7.65743 100.902 7.07214 115.359C6.90571 119.473 8.10061 131.826 12.4632 132.138C16.8258 132.45 24.586 101.041 24.7824 85.694C24.9694 71.243 28.8738 64.5486 29.6125 50.1052C29.9491 43.5267 33.6123 31.6021 30.0164 23.2546Z" fill="#F07E26"/>
    <path fill-rule="evenodd" clip-rule="evenodd" d="M14.8605 16.923C14.8141 18.3732 14.5918 19.8123 14.1985 21.2089C13.8376 19.7111 13.6506 18.6808 13.6955 16.8875C13.6993 16.7985 13.703 16.6932 13.7075 16.5629L13.7075 16.5626C13.7185 16.2467 13.7345 15.7843 13.7703 15.0549C13.7983 14.4154 13.8563 13.3477 13.9236 12.437C13.9909 11.5263 14.047 10.7784 14.047 10.7784C14.047 10.7784 14.0956 10.1519 14.1592 9.34973C14.2228 8.54752 14.3107 7.57328 14.378 6.87953C14.5053 5.53096 14.5944 4.69018 14.6416 4.24408L14.6435 4.22608C14.8361 2.44028 15.1466 1.45108 15.6739 0C15.9148 1.43528 15.9588 2.89671 15.8048 4.34388L15.5467 6.98986C15.5258 7.22467 15.5012 7.49135 15.4753 7.77238C15.4248 8.31939 15.3693 8.92072 15.3261 9.44697C15.2606 10.2436 15.2101 10.8663 15.2101 10.8663L15.0942 12.5155C15.0344 13.4243 14.9745 14.479 14.9427 15.1073C14.9111 15.7256 14.8938 16.1498 14.8813 16.4552L14.8813 16.4553L14.8813 16.4555C14.8732 16.6551 14.8671 16.804 14.8605 16.923ZM11.7002 21.2089C12.02 19.6999 12.2182 18.6938 12.2238 16.908V15.0848V13.5889V12.1958C12.2145 10.8214 12.2033 9.97054 12.192 9.5255C12.1528 7.72848 11.9228 6.72058 11.4908 5.22462C11.1767 6.74115 11.0046 7.75653 11.0327 9.53672C11.0327 9.82948 11.0376 10.2977 11.0447 10.9764V10.9764L11.0447 10.9785L11.0447 10.9794C11.0483 11.3274 11.0525 11.7307 11.057 12.1939V13.5665V15.0624V16.8875C11.0435 18.3528 11.2605 19.8111 11.7002 21.2089ZM6.85148 18.6359C7.73578 18.6573 8.61447 18.7829 9.4694 19.0099L9.29947 19.0555L9.29926 19.0555C8.44171 19.2858 7.71937 19.4797 7.00856 19.6868C6.62522 19.8027 6.24001 19.9224 5.84919 20.0739C5.43729 20.2249 5.04343 20.4212 4.67486 20.6592L4.50096 20.7807L4.31396 20.9415C4.27429 20.9758 4.23523 21.0144 4.19467 21.0545C4.1645 21.0844 4.1335 21.115 4.10079 21.1453L3.87079 21.4034C3.84397 21.4396 3.81547 21.4751 3.78658 21.511C3.73489 21.5754 3.68196 21.6413 3.63517 21.7157C3.60833 21.7584 3.57946 21.8003 3.55014 21.8428L3.55011 21.8429L3.5501 21.8429C3.49979 21.9159 3.44819 21.9908 3.4033 22.0747L3.3285 22.2C3.28549 22.2711 3.24436 22.3458 3.20696 22.4206C3.12468 22.5702 3.04988 22.7273 2.97695 22.8881C2.82761 23.2164 2.69712 23.5529 2.58613 23.896C2.34445 24.6293 2.15695 25.3793 2.02515 26.14C1.74641 27.7942 1.58953 29.4667 1.55579 31.1439C1.55096 31.3342 1.54577 31.5207 1.54054 31.7088C1.53364 31.9571 1.52665 32.2084 1.52027 32.4753C1.51628 32.6419 1.51089 32.8028 1.50559 32.961L1.50559 32.961C1.49594 33.2486 1.48661 33.5271 1.48661 33.8142C1.481 34.6987 1.5184 35.6 1.56514 36.5163C1.58486 36.9188 1.60755 37.3239 1.63038 37.7317C1.71151 39.1805 1.79446 40.6617 1.75214 42.1691C1.73799 42.611 1.71348 43.0333 1.68947 43.4468C1.65953 43.9625 1.63038 44.4645 1.62311 44.9741C1.62311 45.1269 1.62062 45.2798 1.61812 45.4325C1.61314 45.7375 1.60816 46.0419 1.62311 46.3447L1.64368 47.0273C1.6472 47.1703 1.65806 47.3125 1.6689 47.4545L1.6689 47.4545C1.67536 47.5391 1.68181 47.6235 1.68669 47.7079C1.82269 49.5028 2.07252 51.2872 2.43467 53.0504C2.46999 53.2336 2.50572 53.4169 2.54144 53.6001L2.54154 53.6006C2.67602 54.2904 2.81046 54.9799 2.92272 55.6683C3.06484 56.5397 3.20135 57.4036 3.27614 58.2638C3.28282 58.3399 3.29069 58.416 3.29856 58.4922C3.31273 58.6292 3.3269 58.7662 3.33411 58.9033C3.33988 59.0129 3.34614 59.1219 3.35239 59.2308L3.3524 59.231L3.3524 59.231C3.3583 59.3339 3.36419 59.4365 3.36964 59.5391C3.39266 59.8451 3.39509 60.1462 3.39752 60.4474C3.39844 60.5622 3.39937 60.6769 3.40143 60.7919C3.40891 61.2089 3.39956 61.6016 3.39021 61.9943C3.38727 62.118 3.38358 62.2416 3.37991 62.3647C3.37193 62.6325 3.36403 62.8975 3.36403 63.1537C3.32996 64.4758 3.28323 65.7233 3.2397 66.8853L3.22005 67.4115C3.1172 70.0276 3.06858 72.1649 3.07793 73.6516C3.0816 74.3824 3.09249 74.9564 3.09996 75.3505L3.10037 75.3719C3.10785 75.7665 3.1172 75.9759 3.1172 75.9759C3.1172 75.9759 3.12094 76.1853 3.13777 76.5799C3.14101 76.6559 3.14432 76.739 3.14791 76.8288C3.16292 77.2051 3.18267 77.7002 3.22192 78.2965C3.30793 79.77 3.52859 81.8849 3.86892 84.4767C4.03196 85.7183 4.22977 87.0634 4.44035 88.4953L4.44039 88.4956L4.44042 88.4958L4.44049 88.4963C4.66941 90.0529 4.91341 91.7121 5.14422 93.4524C5.36674 95.1241 5.57618 96.8707 5.71642 98.677C5.874 100.528 5.92582 102.386 5.87163 104.242C5.7426 107.95 5.64911 111.727 5.95204 115.359C6.1003 117.142 6.33808 118.916 6.66449 120.675C6.67855 120.752 6.69165 120.829 6.70473 120.906L6.70474 120.906C6.7282 121.044 6.75162 121.182 6.78042 121.318C6.80021 121.412 6.81963 121.506 6.83901 121.599L6.83916 121.6C6.86369 121.718 6.88815 121.836 6.91319 121.954C6.9936 122.377 7.08148 122.797 7.18059 123.211L7.43864 124.437C7.4698 124.562 7.50116 124.687 7.53252 124.811C7.59528 125.061 7.65804 125.31 7.71913 125.559C8.08377 126.982 8.40541 128.149 8.56996 128.723C8.71904 129.239 8.84338 129.698 8.95758 130.12L8.95777 130.121L8.95781 130.121C9.07843 130.566 9.18775 130.97 9.30298 131.354C9.40147 131.718 9.5427 132.069 9.72372 132.4C9.82268 132.563 9.94922 132.708 10.0977 132.828C10.2721 132.964 10.4756 133.058 10.6923 133.103C10.3329 133.201 9.95048 133.169 9.61152 133.015C9.50138 132.959 9.39461 132.896 9.29176 132.828C8.91992 132.552 8.60281 132.21 8.35679 131.818C7.85564 131.064 7.51157 130.212 7.1862 129.125C7.00856 128.531 6.68506 127.358 6.31107 125.913C6.24883 125.678 6.19029 125.442 6.13126 125.203C6.09629 125.062 6.06114 124.92 6.02496 124.778L5.73699 123.525C5.66291 123.216 5.59889 122.902 5.5346 122.587L5.53459 122.587C5.51125 122.473 5.48788 122.358 5.46398 122.244C5.44902 122.172 5.43344 122.1 5.41785 122.027L5.41783 122.027C5.38667 121.883 5.35552 121.739 5.32934 121.593C5.31135 121.493 5.29297 121.393 5.27455 121.292C5.25277 121.174 5.23095 121.055 5.20967 120.935C4.8747 119.128 4.63068 117.306 4.47852 115.475C4.16811 111.739 4.26722 107.901 4.39624 104.186C4.44842 102.385 4.39785 100.583 4.24478 98.7874C4.11014 97.0203 3.90445 95.2962 3.68379 93.6394C3.42991 91.7114 3.16218 89.876 2.91274 88.1659L2.91273 88.1659C2.73226 86.9287 2.56137 85.7571 2.41223 84.6637C2.05694 82.0588 1.84003 79.8934 1.75775 78.3732C1.72321 77.855 1.70529 77.4156 1.69084 77.061C1.68416 76.8974 1.67823 76.7517 1.67173 76.6248C1.65116 76.2227 1.65116 76.0096 1.65116 76.0096C1.65116 76.0096 1.64368 75.7982 1.63433 75.3962L1.63282 75.3316C1.62346 74.9313 1.61002 74.3567 1.61002 73.6478C1.60067 72.1369 1.64929 69.9659 1.75214 67.348L1.76189 67.0857C1.80789 65.8499 1.85747 64.5175 1.89238 63.1069C1.89623 62.9515 1.89944 62.7949 1.90268 62.6374L1.90268 62.6373C1.9073 62.4119 1.91196 62.1847 1.91856 61.9569C1.92978 61.5698 1.93539 61.1734 1.92978 60.7845C1.92843 60.6908 1.92773 60.5968 1.92703 60.5025C1.92482 60.2052 1.92258 59.905 1.89986 59.6026L1.86621 59.0024C1.85758 58.8693 1.84407 58.7361 1.83051 58.6025L1.83051 58.6024C1.8235 58.5333 1.81648 58.4641 1.81011 58.3947C1.73905 57.5887 1.62124 56.7528 1.47165 55.9058C1.32205 55.0587 1.1575 54.1966 0.987331 53.3122C0.610304 51.4924 0.349233 49.6505 0.205694 47.7977C0.200708 47.7185 0.194061 47.6394 0.187414 47.5602L0.18741 47.5602C0.174113 47.4019 0.160815 47.2436 0.160815 47.0852L0.140246 46.369C0.126536 46.0512 0.131102 45.7326 0.135672 45.4136C0.137958 45.2541 0.140246 45.0944 0.140246 44.9348C0.147746 44.3916 0.179799 43.8367 0.211084 43.2952C0.234403 42.8916 0.257294 42.4953 0.269272 42.1168C0.314401 40.6516 0.228835 39.1646 0.143023 37.6734C0.122165 37.3109 0.101292 36.9482 0.0822776 36.5855C0.033659 35.6561 0 34.7305 0 33.7955C0 33.4817 0.011131 33.1619 0.0218052 32.8552C0.0269055 32.7087 0.0319014 32.5652 0.035529 32.4267C0.0467486 31.9779 0.0585916 31.531 0.0710579 31.086C0.106159 29.3372 0.270539 27.5934 0.562854 25.8688C0.707179 25.0449 0.910911 24.2325 1.17246 23.4379C1.29997 23.0466 1.44917 22.6626 1.61937 22.2879C1.70165 22.1009 1.79141 21.9251 1.88865 21.7381C1.93539 21.6465 1.98401 21.5586 2.03824 21.4707L2.128 21.3193C2.21589 21.1603 2.31873 21.0107 2.41784 20.8723C2.48328 20.781 2.55198 20.6929 2.61856 20.6075L2.61858 20.6074L2.61864 20.6074L2.6187 20.6073L2.61884 20.6071L2.61921 20.6066C2.65324 20.563 2.68671 20.5201 2.7189 20.4778L3.0237 20.1356C3.05896 20.1021 3.09362 20.0685 3.12762 20.0355C3.19823 19.967 3.266 19.9013 3.33037 19.8457C3.42574 19.7635 3.52485 19.6849 3.61273 19.6176L3.85957 19.4474C4.34806 19.1336 4.88896 18.91 5.4565 18.7873C5.91404 18.6829 6.38218 18.632 6.85148 18.6359ZM12.1023 132.869C11.6765 133.097 11.1877 133.178 10.7111 133.101C11.1159 132.968 11.4711 132.715 11.7302 132.377C11.9655 132.077 12.1703 131.753 12.3417 131.412C12.7405 130.616 13.0975 129.8 13.4113 128.966C13.4655 128.822 13.5328 128.647 13.6132 128.448C13.6796 128.285 13.7459 128.096 13.8175 127.892L13.8638 127.76C13.924 127.59 13.9834 127.403 14.0459 127.207L14.0459 127.207C14.0765 127.11 14.1079 127.012 14.1405 126.911C14.1673 126.815 14.195 126.718 14.223 126.62L14.2565 126.502C14.307 126.33 14.3537 126.161 14.4005 125.974C14.494 125.617 14.5781 125.255 14.6641 124.881C14.8324 124.136 14.982 123.36 15.1316 122.56C15.1653 122.379 15.1992 122.198 15.2332 122.015L15.2333 122.014L15.2336 122.013L15.2337 122.012C15.3505 121.384 15.47 120.742 15.5972 120.092C15.7618 119.25 15.9581 118.379 16.1732 117.526C16.4406 116.437 16.7298 115.341 17.0222 114.233L17.0225 114.232L17.0225 114.231L17.0226 114.231C17.1921 113.589 17.3627 112.942 17.5308 112.29C17.9889 110.514 18.4358 108.702 18.7855 106.905C19.1352 105.108 19.3427 103.268 19.5092 101.454C19.5884 100.59 19.6584 99.7237 19.7281 98.8605L19.7281 98.8603L19.7281 98.8601L19.7281 98.8599L19.7281 98.8597L19.7281 98.8597L19.7282 98.8592C19.8048 97.9107 19.8811 96.9658 19.9692 96.0311C20.1375 94.2453 20.3768 92.4744 20.6984 90.8363C21.0201 89.1983 21.3062 87.6518 21.4894 86.1821C21.6727 84.7123 21.7643 83.3154 21.8279 82.0326C21.8852 80.8759 21.9 79.8058 21.9133 78.8403L21.9176 78.5284C21.9227 78.1781 21.9285 77.8436 21.9341 77.5255L21.9341 77.5247C21.9451 76.8937 21.955 76.3272 21.955 75.83C21.9812 74.3378 22.0168 73.4889 22.0168 73.4889C22.0168 73.4889 22.0261 73.2757 22.0429 72.8755C22.0523 72.6736 22.0672 72.423 22.0878 72.1275L22.172 71.1234C22.2505 70.3698 22.3552 69.4516 22.5272 68.4007C22.6993 67.3498 22.9461 66.1718 23.249 64.8965C23.3589 64.4339 23.4764 63.9586 23.5968 63.4716L23.5969 63.4713C23.8084 62.6155 24.0289 61.7236 24.2326 60.8013C24.5524 59.3539 24.846 57.7851 25.1134 56.1563C25.3808 54.5276 25.6052 52.8278 25.7249 51.085C25.7847 50.2136 25.8034 49.331 25.8034 48.4447C25.8015 48.0015 25.781 47.5583 25.7585 47.1133C25.751 47.0021 25.7431 46.8909 25.7352 46.7797C25.7272 46.6683 25.7192 46.557 25.7118 46.4457L25.6669 45.7239C25.5902 43.7885 25.8595 41.8681 26.1998 40.0243C26.3056 39.451 26.418 38.8816 26.5296 38.3156L26.5297 38.3152L26.5298 38.3148L26.5298 38.3144L26.5299 38.3141C26.7772 37.0603 27.0211 35.8238 27.1834 34.6015C27.2325 34.2399 27.283 33.8809 27.3332 33.5244L27.3332 33.524L27.3333 33.5237L27.3333 33.5234L27.3334 33.5227C27.5374 32.0727 27.7356 30.6645 27.8061 29.302C27.8552 28.4789 27.8333 27.6531 27.7407 26.8337C27.7251 26.6488 27.692 26.4655 27.6605 26.2911L27.6528 26.2484L27.6023 25.9586L27.5331 25.6781C27.4919 25.4916 27.4407 25.3075 27.3798 25.1265L27.2881 24.8591L27.2451 24.7263L27.2339 24.6926V24.6833V24.6702C27.1151 24.3732 26.9777 24.0841 26.8225 23.8044C26.689 23.553 26.541 23.3095 26.3793 23.0751C25.9107 22.3664 25.3192 21.7471 24.6328 21.2463C24.308 21.0179 23.9709 20.8075 23.623 20.6162C22.8746 20.2176 22.1042 19.8617 21.3155 19.5503C22.2026 19.4303 23.1029 19.4498 23.9839 19.6083C24.4538 19.7091 24.9083 19.8713 25.3359 20.0907C25.8399 20.3611 26.2976 20.7102 26.6916 21.1248C27.0229 21.4724 27.3238 21.8478 27.5911 22.2467C27.7783 22.5189 27.9506 22.8011 28.1072 23.092C28.2952 23.4278 28.4608 23.7757 28.6027 24.1335V24.1503V24.1616L28.6158 24.2008L28.67 24.3579L28.7766 24.6758C28.8503 24.8887 28.9127 25.1052 28.9636 25.3247L29.044 25.6538L29.1038 25.9848L29.1114 26.0276C29.1483 26.2361 29.1855 26.4461 29.203 26.6561C29.3055 27.5573 29.3305 28.4657 29.2778 29.3712C29.2047 30.763 29.0111 32.1459 28.8178 33.5268C28.7586 33.9494 28.6995 34.3717 28.6438 34.7941C28.4807 36.0252 28.2407 37.2416 28.0028 38.4476C27.8808 39.0661 27.7593 39.6819 27.649 40.2955C27.3237 42.1056 27.0656 43.9101 27.1367 45.6697C27.1516 45.8885 27.1647 46.1073 27.1778 46.326L27.2283 47.031C27.2507 47.5004 27.2732 47.9697 27.2732 48.4353C27.2819 49.3666 27.2545 50.2847 27.1909 51.1898C27.0675 52.9961 26.8412 54.737 26.5645 56.3976C26.2877 58.0581 25.9979 59.64 25.665 61.1248C25.4488 62.0891 25.2224 63.0077 25.0083 63.8764L25.0082 63.8764L25.0082 63.8764L25.0082 63.8765L25.0082 63.8765L25.0079 63.8777L25.0076 63.8792C24.8922 64.347 24.7805 64.8004 24.6758 65.2387C24.3766 66.4915 24.141 67.6378 23.9727 68.6438C23.8044 69.6499 23.7053 70.5343 23.6286 71.2618C23.6167 71.4072 23.6042 71.547 23.5922 71.6802C23.5743 71.8809 23.5576 72.0667 23.5464 72.2341C23.5409 72.315 23.535 72.3931 23.5294 72.4678L23.5294 72.4678C23.5156 72.6502 23.5034 72.812 23.5034 72.9447C23.4772 73.3355 23.4772 73.5412 23.4772 73.5412C23.4772 73.5412 23.4435 74.3677 23.4192 75.8506C23.4107 76.5296 23.399 77.3425 23.3857 78.2736L23.3857 78.274L23.3818 78.5452L23.3783 78.7946C23.3645 79.7797 23.3489 80.8921 23.2921 82.0981C23.2303 83.4071 23.1331 84.8394 22.9461 86.3616C22.7591 87.8837 22.4543 89.5049 22.142 91.1131C21.8298 92.7213 21.6054 94.4154 21.4333 96.1713C21.3434 97.0894 21.2698 98.0238 21.1952 98.9711C21.1271 99.8356 21.0582 100.711 20.9752 101.594C20.8013 103.445 20.5769 105.325 20.2272 107.185C19.8775 109.046 19.425 110.865 18.9631 112.646C18.803 113.263 18.6413 113.875 18.4809 114.483C18.1786 115.628 17.8811 116.756 17.6074 117.863C17.3924 118.715 17.211 119.536 17.0464 120.363C16.9428 120.883 16.8473 121.4 16.7525 121.913C16.6968 122.215 16.6413 122.515 16.5846 122.814C16.4312 123.622 16.2798 124.415 16.104 125.187C16.0142 125.58 15.9282 125.954 15.8272 126.328C15.7805 126.515 15.73 126.702 15.6776 126.889C15.6346 127.035 15.5935 127.179 15.5524 127.323C15.4964 127.491 15.4449 127.65 15.395 127.804L15.3949 127.805L15.3944 127.806C15.3479 127.95 15.3028 128.09 15.2569 128.228C15.1615 128.514 15.0718 128.763 14.9858 128.976L14.7726 129.509C14.4207 130.452 13.8856 131.316 13.1981 132.052C12.8807 132.383 12.5104 132.659 12.1023 132.869ZM18.9781 21.3959C19.4831 20.0343 19.8142 18.6144 19.9636 17.1698C19.9875 16.9667 20.0209 16.6783 20.0762 16.1997L20.173 15.3635C20.2347 14.8679 20.3787 13.6936 20.3787 13.6936C20.3787 13.6936 20.5189 12.7138 20.5956 12.1696C20.7957 10.8214 20.9341 9.98925 21.007 9.55168C21.2556 8.12741 21.3421 6.67958 21.265 5.23584C20.5788 6.61773 20.1767 7.58824 19.857 9.36468C19.7784 9.80225 19.6344 10.6437 19.4344 12.0069C19.3502 12.5567 19.2231 13.5478 19.2231 13.5478C19.2231 13.5478 19.0604 14.7314 19.008 15.2307C18.9006 16.1223 18.8499 16.6119 18.8176 16.9236L18.8042 17.052C18.6228 18.836 18.7331 19.8719 18.9781 21.3959ZM17.4017 17.4541C17.2484 19.2361 16.9772 20.2309 16.5135 21.7045C16.233 20.1954 16.1021 19.152 16.2293 17.368C16.2321 17.3329 16.235 17.2952 16.2383 17.2544C16.263 16.9422 16.3018 16.4513 16.3845 15.5449C16.4068 15.3376 16.4335 15.0654 16.4626 14.7694C16.4967 14.4217 16.5341 14.041 16.5715 13.6936C16.6406 13.0503 16.6967 12.5193 16.6967 12.5193C16.6967 12.5193 16.8819 10.7391 17.0053 9.7555C17.1595 8.47652 17.271 7.65553 17.3336 7.1941C17.3379 7.16304 17.3418 7.13361 17.3456 7.10579C17.5943 5.31625 17.9515 4.33266 18.5405 2.90963C18.7125 4.35268 18.6999 5.81177 18.5031 7.25164C18.4926 7.33386 18.4801 7.43027 18.4656 7.54164C18.4031 8.02301 18.3043 8.7839 18.1721 9.8864L17.8561 12.6333C17.8561 12.6333 17.7981 13.1607 17.7383 13.8021C17.689 14.3305 17.6308 14.9338 17.5878 15.3798C17.5786 15.4752 17.5701 15.5634 17.5625 15.6421C17.5112 16.2252 17.4745 16.6356 17.4476 16.9365C17.4275 17.1615 17.4129 17.3253 17.4017 17.4541Z" fill="#1D1D1B"/>
</svg>
