<svg xmlns="http://www.w3.org/2000/svg" fill="currentColor" viewBox="0 0 24 24">
  <defs/>
  <path d="M9.68 15.237l-.33-.332a29.616 29.616 0 00-1.232-1.183 24.956 24.956 0 00-1.23-1.136c-.426-.379-.758-.71-1.042-1.042-.284-.331-1.799-1.893-1.846-2.13.142-.236.331-.52.52-.757.19-.237.474-.426.71-.663.19-.237.38-.426.569-.615.19-.19.331-.284.473-.379.142.19 1.562 1.61 1.752 1.799l.473.473c.379.379.9.9 1.467 1.515.569.615 1.231 1.23 1.941 1.799.142-.19.332-.426.568-.616.19-.236.426-.426.616-.662.52-.521 1.088-1.042 1.657-1.562.568-.521 2.792-2.51 3.313-2.699.19.095.331.237.473.379l.38.379c.236.331.473.615.615.852.142.236.331.426.473.663-.19.142-2.035 1.988-2.177 2.13l-.474.473c-.331.331-.757.758-1.23 1.278a28.81 28.81 0 01-1.705 1.704s-1.467 1.42-2.509 2.415L9.68 15.237z"/>
</svg>
