<svg xmlns="http://www.w3.org/2000/svg" fill="currentColor" viewBox="0 0 24 24">
  <defs/>
  <path d="M14.326 9.015l.345.334c.398.385.815.77 1.25 1.163.437.39.849.765 1.228 1.112.378.353.71.678.99.985.279.302 1.795 1.845 1.861 2.037a6.693 6.693 0 01-.53.733c-.209.247-.484.421-.687.65a6.78 6.78 0 01-.597.6c-.19.17-.341.293-.46.371-.146-.174-1.572-1.57-1.728-1.722a48.317 48.317 0 01-1.933-1.941 18.393 18.393 0 00-1.947-1.763 17.917 17.917 0 01-1.165 1.223c-.53.512-1.08 1.012-1.648 1.502-.568.485-2.785 2.435-3.297 2.61a2.556 2.556 0 01-.473-.358l-.37-.357a6.663 6.663 0 01-.706-.783c-.156-.215-.312-.426-.459-.632.18-.142 2.032-1.914 2.193-2.074.161-.16.332-.32.497-.48.332-.321.744-.738 1.241-1.246a40.827 40.827 0 011.71-1.653L12.133 7l2.193 2.015z"/>
</svg>
