<svg xmlns="http://www.w3.org/2000/svg" fill="currentColor" viewBox="0 0 24 24">
  <defs/>
  <path d="M15.214 14.35l-.333.332c-.38.38-.807.808-1.187 1.235-.427.427-.807.854-1.14 1.234l-.996.997c-.332.285-1.9 1.805-2.137 1.852a7.227 7.227 0 01-.76-.522c-.237-.19-.427-.475-.664-.712-.237-.19-.427-.428-.617-.618s-.285-.332-.38-.474c.19-.143 1.614-1.567 1.804-1.757l.475-.475c.38-.38.902-.902 1.52-1.472a17.856 17.856 0 001.803-1.946 3.37 3.37 0 01-.617-.57c-.237-.19-.427-.427-.665-.617-.522-.522-1.044-1.092-1.566-1.662-.523-.57-2.517-2.801-2.707-3.323.095-.19.238-.333.38-.475.143.047.238-.095.38-.19.285-.332.57-.57.807-.712.238-.143.428-.333.665-.475.142.19 1.947 2.042 2.136 2.184.19.142.333.332.475.475.333.332.76.76 1.282 1.234a28.892 28.892 0 011.71 1.71s1.424 1.471 2.42 2.516l-2.088 2.231z"/>
</svg>
