<svg xmlns="http://www.w3.org/2000/svg" fill="currentColor" viewBox="0 0 24 24">
  <defs/>
  <path d="M9.015 14.326l.334.345c.385.398.77.815 1.163 1.25.39.437.765.849 1.112 1.228.353.378.678.71.985.99.302.279 1.845 1.795 2.037 1.861.239-.147.486-.327.733-.53.247-.209.421-.484.65-.687a6.78 6.78 0 00.6-.597c.17-.19.293-.341.371-.46-.174-.146-1.57-1.572-1.722-1.728a48.317 48.317 0 00-1.941-1.933 18.393 18.393 0 01-1.763-1.947 17.917 17.917 0 001.223-1.165c.512-.53 1.012-1.08 1.502-1.648.485-.568 2.435-2.785 2.61-3.297a2.556 2.556 0 00-.358-.473l-.357-.37a6.663 6.663 0 00-.783-.706c-.215-.156-.426-.312-.632-.459-.142.18-1.914 2.032-2.074 2.193-.16.161-.32.332-.48.497-.321.332-.738.744-1.246 1.241a40.827 40.827 0 00-1.653 1.71L7 12.133l2.015 2.193z"/>
</svg>
