<svg width="22" height="22" viewBox="0 0 22 22" fill="currentColor" xmlns="http://www.w3.org/2000/svg">
    <path d="M21.059 16.629C19.288 15.0269 16.6277 12.0956 14.8566 10.4863C16.3819 8.75488 17.8855 7.00907 19.3675 5.23452C19.5482 5.01899 19.6783 4.79627 19.794 4.56637C18.9916 3.68269 18.1819 2.81338 17.3289 1.9728C16.8229 1.49145 16.3241 0.995724 15.8325 0.5C15.6084 0.650872 15.3843 0.830482 15.1747 1.07475C13.6422 2.91396 12.0735 4.71724 10.4976 6.51334C8.58916 4.68851 6.69518 2.79901 4.68554 1.22562C3.78916 2.48289 1.79398 3.91977 1.02048 5.70151C1.11446 5.74461 4.56988 9.12128 5.56747 10.0265C5.89277 10.3211 6.21807 10.6156 6.54337 10.9102C4.74337 12.8644 2.92892 14.8041 1.07108 16.708C0.810843 16.9666 0.637349 17.2468 0.5 17.527C1.80843 18.8346 3.08795 20.1637 4.36747 21.5C4.67108 21.3563 4.9747 21.1623 5.25663 20.8678C7.17952 18.8992 9.05904 16.8948 10.9169 14.8688L16.8735 20.7887C17.0325 20.9324 17.1988 21.0474 17.3651 21.1551C18.1169 20.3936 18.8904 19.6464 19.7 18.928C20.2855 18.3101 20.8928 17.7066 21.5 17.1103C21.3699 16.9451 21.2325 16.7799 21.059 16.629Z"/>
</svg>
