<svg xmlns="http://www.w3.org/2000/svg" fill="currentColor" viewBox="0 0 24 24">
  <defs/>
  <path d="M18.816 15.821c-1.207-1.063-2.947-3.043-4.154-4.106 1.014-1.16 2.029-2.319 2.995-3.527l.29-.434c-.532-.58-1.063-1.16-1.643-1.74L15.29 5c-.145.097-.29.242-.435.386-1.015 1.256-2.077 2.464-3.14 3.672-1.256-1.208-2.56-2.512-3.865-3.575-.58.87-1.932 1.836-2.464 2.995.049.049 2.368 2.319 3.044 2.899.193.193.435.386.628.58-1.208 1.304-2.416 2.608-3.672 3.912-.193.194-.29.338-.386.532.87.87 1.74 1.787 2.56 2.657a2.27 2.27 0 00.58-.435 97.594 97.594 0 003.768-4.01l3.961 3.962c.097.096.194.193.338.241.484-.531 1.015-1.014 1.546-1.497.387-.435.773-.822 1.208-1.208.097-.048 0-.145-.145-.29z"/>
</svg>
