<svg fill="none" xmlns="http://www.w3.org/2000/svg" viewBox="0 0 24 24">
    <path fill-rule="evenodd" clip-rule="evenodd" d="M13.688 3.395c-.393-.063-1.299-.207-1.89-.54-.175-.087-.088-.48.043-.697a.103.103 0 00.013-.02c.043-.072.152-.258 1.206-.023.13.043.828.217 1.394.348l.74.174c.74.174.958.436.915.653-.087.349-.262.61-.523.567a8.051 8.051 0 01-1.097-.262c-.217-.063-.43-.124-.645-.174l-.156-.026zm2.646 7.236l-.051.28c-.13.698-2.352 10.061-2.395 10.105-.349 1.306-.697 1.698-3.44 1.132h-.088c-3.092-.61-4.18-1.176-4.312-1.394-.217-.348-.174-1.045 0-1.611.044-.13 1.96-9.233 1.96-9.32.42-1.887.597-2.24.765-2.574l.02-.039c.086-.218.565-1.132.957-1.48a7.706 7.706 0 011.481-1.046c.305-.218.435-.61.523-1.045 0-.087.087-.13.174-.13.416.095.838.203 1.264.312.733.187 1.476.377 2.22.515.087.043.174.13.13.261-.13.48-.174.915 0 1.263.175.348.567 1.132.697 1.48.262.785.305 1.612.262 2.004l-.044.566c-.034.238-.068.423-.123.72z" fill="#D8D7BC"/>
    <path d="M4.54 3.501L3 5.041l15.89 15.89 1.54-1.54L4.54 3.502z" fill="#3F6B37"/>
</svg>