<svg xmlns="http://www.w3.org/2000/svg" fill="currentColor" viewBox="0 0 24 24">
  <defs/>
  <path d="M7.07 9.515c-1.343 2.844-3.735 7.382-2.896 8.48.829 1.098 4.395.837 7.018.941 3.2.136 7.374.136 8.402-.857 1.028-.983-.137-3.148-.84-4.455C17.235 10.78 12.923 3 12.273 3c-.86 0-3.996 3.963-5.203 6.515zm4.227-1.987c.482-.094 1.185-.073 1.73-.042-.125 1.83.032 3.43-.115 5.417-.42-.021-1.196-.021-1.794-.021.063-2.29.147-3.367.179-5.354zm.723 6.671c1.05 0 1.312.555 1.312 1.318 0 .711-.556 1.276-1.228 1.276-.713 0-1.405-.398-1.405-1.182 0-.763.23-1.412 1.321-1.412z"/>
</svg>
