<svg xmlns="http://www.w3.org/2000/svg" width="24" height="24" viewBox="0 0 24 24"><rect width="24" height="24" fill="rgba(255,255,255,0)"/><g transform="translate(2.998 5.5)"><path d="M17.89,7.01s-3.75,4.45-8.86,4.45a9.515,9.515,0,0,1-2.86-.45L7.18,9.84a3.653,3.653,0,0,0,1.85.49,3.783,3.783,0,0,0,3.78-3.78A3.723,3.723,0,0,0,12,4.22l1.33-1.56a15,15,0,0,1,4.56,3.43A.75.75,0,0,1,17.89,7.01Z" fill="#636462" fill-rule="evenodd"/><path d="M12.63,0l-1.6,1.86a9.356,9.356,0,0,0-2-.22C3.92,1.64.16,6.09.16,6.09a.75.75,0,0,0,0,.92,15.073,15.073,0,0,0,3.83,3.05L2.98,11.24l.88.76,1.21-1.41L6.3,9.16,7.33,7.95l2.69-3.12h0l1.17-1.37,1.07-1.25L13.51.76,12.63,0ZM8.88,4.37a2.032,2.032,0,0,0-.69.15A2.192,2.192,0,0,0,6.84,6.74L5.62,8.16a3.627,3.627,0,0,1-.37-1.61A3.739,3.739,0,0,1,6.36,3.88a3.755,3.755,0,0,1,3.75-.95L8.88,4.37Z" fill="#3c3c3b" fill-rule="evenodd"/><path d="M9.85,8.57a2.111,2.111,0,0,1-1.6.01l2.44-2.83a1.042,1.042,0,0,0,.11.01.637.637,0,0,0,.24-.04A2.183,2.183,0,0,1,9.85,8.57Z" fill="#636462" fill-rule="evenodd"/></g></svg>