<svg fill="none" xmlns="http://www.w3.org/2000/svg" viewBox="0 0 24 24">
    <path d="M11.5 19a7.5 7.5 0 100-15 7.5 7.5 0 000 15z" fill="#0D0802"/>
    <path d="M4.3 11.5c0-1.9.75-3.6 1.95-4.9-.15.4-.35 1.1-.35 1.95 0 .95.3 2.1 1.25 3.1l.2.2C8.75 13.3 10 14.65 10 16.4c0 .6-.15 1.25-.5 1.95-3-.85-5.2-3.6-5.2-6.85z" fill="#CCD626"/>
    <path d="M18.55 11.5v-.2c0-3.8-3.1-6.95-6.9-6.95h-.2c-.55 0-1.1.1-1.55.25-.2.05-.95.35-1.55.9-.6.65-.95 1.45-.95 2.35 0 1.5.9 2.6 2.3 3.2.6.25 1.25.4 1.7.5.8.2 2.55.5 4 1.45l.05.05c.9.6 1.45 1.5 1.45 2.95v.1c1.05-1.3 1.65-2.85 1.65-4.6zm-6-.6a1.9 1.9 0 110-3.8c1.05 0 1.9.85 1.9 1.9-.05 1.05-.9 1.9-1.9 1.9z" fill="#00B1E1"/>
</svg>