<svg version="1.1" id="Layer_1" xmlns="http://www.w3.org/2000/svg" x="0" y="0" viewBox="0 0 140.3 140.3" style="enable-background:new 0 0 140.3 140.3" xml:space="preserve">
    <style>.st1{fill:#fff}</style>
    <path d="M140 13.3c-.2-7.4-6.9-13.4-15.1-13.4H15.4C7.2-.1.4 6 .3 13.5v113.1C.5 134 7.2 140 15.4 140h109.4c8.3 0 15-6.1 15.1-13.6V13.7l.1-.4z" style="fill:#ee7621"/>
    <path class="st1" d="m39 23.3-3.2 6c-4.7-2.4-8.5-1.8-9.5 1.2v9.2h10.5l-2.6 6.1H26v35.8h-8.8V45.7h-3.9v-5.9h4.1V29c2.5-9.4 14.3-10.1 21.6-5.7zM28.3 95.1l-1.6 3.2c-2.5-1.2-4.5-.9-4.9.6v4.7h5.5l-1.4 3.2h-4.2v18.6h-4.2v-18.6H15v-3.1h2.5V98c1.2-4.8 7.1-5.2 10.8-2.9zM108.5 95.1l-1.6 3.2c-2.5-1.2-4.5-.9-4.9.6v4.7h5.5l-1.4 3.2h-4.2v18.6h-4.2v-18.6h-2.4v-3.1h2.5V98c1-4.8 6.9-5.2 10.7-2.9zM72.3 71.9V46.7c-1.8-9.4-12.9-8.7-14-8.7-1.2 0-7.2.7-16.2 6.3l4.1 6.3c11.2-6.6 15.2-5.1 17.4-1.8v6.5c-7.9-.8-14.2.5-18 3.4-3.8 2.9-5.1 7.1-4.9 12.9.1 5.9 5.9 10.1 11.3 10.3 5.4.2 10.3-.8 14-5.3 1.5 4.6 5.8 5.8 5.8 5.8l4.7-6.1c-3.3-1.1-4.2-4.4-4.2-4.4zm-8.6-1.6c-1.8 4.7-6.6 5.6-9.9 4.6s-4-5.8-3.1-8.1c.9-2.4 2.9-6.1 12.9-5.5v9zM94 38.8v42.1h-8.9V40.4zM84.7 33.1c13.7.1 18.2-5.3 20.3-8.2 2.1-2.9 2.7-14.5 2.1-16.6-5.4 3.8-11.9 2.8-16.9 8-5 5.2-5.8 10.4-5.5 16.8zM104.9 40.8l8.2-2.5c.8 1.8 1.5 4.1 1.3 6.6 4-6 7.8-7.9 13.7-6.1-.1 0-2.8 8.7-2.8 8.7-4.6-2.1-8 .1-10.2 4.5v28.9h-8.8v-34c-.1-4.1-1.4-6.1-1.4-6.1zM51.2 104.6l3.9-1.3c.5.9.8 2.1.7 3.4 2-3.1 4-4 7.1-3.2l-1.4 4.5c-2.4-1.1-4.1.1-5.3 2.2V125H52v-17.3c-.2-2.2-.8-3.1-.8-3.1zM37.6 103.1c-5.2 0-9.6 4.3-9.6 11.5s4.5 11.4 9.3 11.4 9.8-4.2 9.8-11.6c-.1-7.6-4.8-11.3-9.5-11.3zm-.2 19.5c-2.8 0-4.7-2-4.7-8.2 0-6.2 2.7-8.1 4.5-8.1 2.6 0 4.8 2.1 4.8 8 0 5.8-1.8 8.3-4.6 8.3zM82 124.7c-3.4 1.8-6.5-.2-6.5-1.9V95.1l4.1-.8v27.5c0 .6 1.5 1.1 2 1.1l.4 1.8zM86.5 125.3h4.1v-21.7l-4.2.5c.1-.3.1 21.2.1 21.2zM88.6 100.1c1.5 0 2.9-1.6 2.9-2.9 0-1.4-.9-2.8-2.9-2.8-2.1 0-2.8 1.6-2.8 2.8 0 1.2 1.3 2.9 2.8 2.9zM117.9 122.1c-3.8 0-5.2-3.4-5.2-6.9H126c0-8.5-3.1-12-8.7-12-5.8 0-9 4.9-9 11.8s4.7 10.8 9.8 10.8c5.1 0 7.5-3.4 7.5-3.4l-2.1-2.5c-.1 0-1.9 2.2-5.6 2.2zm-.7-15.6c2.9 0 4.9 2.9 4.7 5.8h-9.3c.1-2.8 1.7-5.8 4.6-5.8z"/>
</svg>