<svg fill="none" xmlns="http://www.w3.org/2000/svg" viewBox="0 0 24 24">
    <path d="M13.766 1.32c-.215 0-.43-.026-.653-.043l-.3-.025c-.026 0-.052-.009-.086-.009-.086-.008-.19-.025-.3-.008l-.224.034c-.344.051-.696.102-1.048.188-.318.077-.567.103-.799.077a2.07 2.07 0 00-1.04.128c-.18.077-.351.154-.515.231l-.137.06-.163.077c-.026.017-.06.026-.086.043a.318.318 0 01-.095.043 6.931 6.931 0 00-.704.273c-.223.103-.438.223-.653.334l-.335.18c-.197.102-.36.248-.507.376-.146.137-.292.282-.43.419a8.74 8.74 0 01-.575.556c-.412.342-.781.735-1.142 1.12l-.06.06c-.189.197-.37.402-.541.608-.146.17-.292.342-.447.504-.37.394-.61.881-.773 1.514-.069.282-.155.582-.283.967-.095.29-.19.573-.292.855-.078.23-.164.462-.24.701a1.04 1.04 0 00-.07.402c.018.54.043 1.06.078 1.583.017.222.051.444.086.658.008.069.025.137.034.214.043.29.094.582.137.873l.052.342c.017.094.026.196.034.29.026.24.052.48.146.727.24.693.55 1.36.833 1.985.19.41.378.804.679 1.163.206.248.438.47.636.642.086.076.171.162.249.239.197.197.412.41.678.573.172.103.344.214.507.325.258.188.507.342.747.47.284.146.567.334.8.497.085.06.18.12.265.18.421.299.868.607 1.41.769.291.086.583.188.867.3l.206.076c.42.154.859.197 1.271.231l.275.026c1.125.12 2.233.103 3.29-.043a6.711 6.711 0 002.465-.872l.232-.128c.086-.043.172-.095.266-.137.19-.095.395-.197.584-.317.292-.188.576-.393.842-.59l.086-.06c.189-.145.36-.282.507-.419.163-.154.326-.325.48-.488l.207-.205.258-.256c.18-.189.369-.385.566-.565.481-.445.773-1.01 1.023-1.548.034-.069.06-.137.094-.205.077-.163.155-.325.223-.496.078-.197.146-.402.206-.6.026-.076.043-.145.07-.213.016-.043.016-.085.025-.111v-.026l.052-.256c.034-.189.068-.36.12-.522.172-.573.232-1.19.197-1.882a3.598 3.598 0 01.009-.539c.026-.273.06-.547.094-.82l.078-.642a5.38 5.38 0 00-.086-1.754c-.112-.496-.24-.983-.352-1.437a2.32 2.32 0 00-.155-.402c-.283-.598-.687-1.112-1.014-1.488-.171-.205-.343-.402-.515-.607-.154-.188-.31-.368-.464-.556l-.12-.137c-.206-.24-.42-.496-.644-.736-.318-.333-.679-.607-1.03-.872l-.448-.342c-.73-.59-1.597-.898-2.37-1.163a.479.479 0 00-.13-.026h-.016c-.13-.026-.267-.043-.395-.068-.31-.052-.627-.103-.945-.163a2.197 2.197 0 00-.782-.137z" fill="#ADC157"/>
    <path d="M9.546 16.283c.127.114.317.17.57.17h.589c.152 0 .342.007.57.02.24.013.52.025.836.038.393.152.81.228 1.254.228h.437c.215-.013.507-.044.874-.095h.418a.806.806 0 00.323-.095c.038-.177.076-.33.114-.456.038-.127.057-.291.057-.494a17.337 17.337 0 00-.057-.95c.165-.038.323-.057.475-.057a7.1 7.1 0 01.57-.02c.05 0 .14.014.266.039.14.013.228.025.266.038.05.013.108.025.171.038-.013.101-.025.215-.038.342a4.821 4.821 0 01-.057.342c-.013.127-.032.26-.057.399a6.365 6.365 0 00-.076.74l-.038.837c0 .279-.006.557-.019.836a7.068 7.068 0 01-.076.779c-.405.05-.741.082-1.007.095a5.439 5.439 0 01-.646 0c-.177-.013-.33-.025-.456-.038a4.243 4.243 0 00-.418-.02c-.203 0-.424-.024-.665-.075-.33-.063-.602-.12-.817-.171a9.18 9.18 0 01-.513-.133 1.048 1.048 0 00-.551-.038c-.165.038-.348.05-.551.038-.494-.025-.88-.032-1.159-.02a10.53 10.53 0 00-.741.058 9.91 9.91 0 00-.608.057c-.203.013-.475.019-.817.019-.152 0-.272-.14-.361-.418-.101-.24-.152-.443-.152-.608 0-.203.057-.469.171-.798.14-.418.215-.69.228-.817.14-.785.589-1.57 1.349-2.356.279-.253.576-.494.893-.722.317-.228.652-.443 1.007-.646l1.9-.855c.76-.418 1.178-.912 1.254-1.482.05-.418.089-.722.114-.912.025-.19.038-.266.038-.228 0-.317-.114-.602-.342-.855-.342-.38-.583-.614-.722-.703-.33-.228-.671-.317-1.026-.266l-1.178.17c-.215.052-.418.109-.608.172-.19.05-.355.12-.494.209-.203.114-.304.24-.304.38s.184.412.551.817c.38.405.545.747.494 1.026-.19 1.064-.697 1.596-1.52 1.596-.71 0-1.305-.412-1.786-1.235a4.378 4.378 0 01-.076-.855c0-1.317.526-2.318 1.577-3.002.887-.583 1.976-.874 3.268-.874 1.127 0 2.115.24 2.964.722.925.545 1.482 1.305 1.672 2.28.063.355.095.665.095.93 0 1.293-.633 2.363-1.9 3.212-.228.152-.887.532-1.976 1.14-1.28.697-2.084 1.09-2.413 1.178a3.627 3.627 0 00-.703.57c-.19.19-.336.45-.437.779z" fill="#fff"/>
</svg>