<svg fill="none" xmlns="http://www.w3.org/2000/svg" viewBox="0 0 24 24">
    <path d="M13.766 1.32c-.215 0-.43-.026-.653-.043l-.3-.025c-.026 0-.052-.009-.086-.009-.086-.008-.19-.025-.3-.008l-.224.034c-.344.051-.696.102-1.048.188-.318.077-.567.103-.799.077a2.07 2.07 0 00-1.04.128c-.18.077-.351.154-.515.231l-.137.06-.163.077c-.026.017-.06.026-.086.043a.318.318 0 01-.095.043 6.931 6.931 0 00-.704.273c-.223.103-.438.223-.653.334l-.335.18c-.197.102-.36.248-.507.376-.146.137-.292.282-.43.419a8.74 8.74 0 01-.575.556c-.412.342-.781.735-1.142 1.12l-.06.06c-.189.197-.37.402-.541.608-.146.17-.292.342-.447.504-.37.394-.61.881-.773 1.514-.069.282-.155.582-.283.967-.095.29-.19.573-.292.855-.078.23-.164.462-.24.701a1.04 1.04 0 00-.07.402c.018.54.043 1.06.078 1.583.017.222.051.444.086.658.008.069.025.137.034.214.043.29.094.582.137.873l.052.342c.017.094.026.196.034.29.026.24.052.48.146.727.24.693.55 1.36.833 1.985.19.41.378.804.679 1.163.206.248.438.47.636.642.086.076.171.162.249.239.197.197.412.41.678.573.172.103.344.214.507.325.258.188.507.342.747.47.284.146.567.334.8.497.085.06.18.12.265.18.421.299.868.607 1.41.769.291.086.583.188.867.3l.206.076c.42.154.859.197 1.271.231l.275.026c1.125.12 2.233.103 3.29-.043a6.711 6.711 0 002.465-.872l.232-.128c.086-.043.172-.095.266-.137.19-.095.395-.197.584-.317.292-.188.576-.393.842-.59l.086-.06c.189-.145.36-.282.507-.419.163-.154.326-.325.48-.488l.207-.205.258-.256c.18-.189.369-.385.566-.565.481-.445.773-1.01 1.023-1.548.034-.069.06-.137.094-.205.077-.163.155-.325.223-.496.078-.197.146-.402.206-.6.026-.076.043-.145.07-.213.016-.043.016-.085.025-.111v-.026l.052-.256c.034-.189.068-.36.12-.522.172-.573.232-1.19.197-1.882a3.598 3.598 0 01.009-.539c.026-.273.06-.547.094-.82l.078-.642a5.38 5.38 0 00-.086-1.754c-.112-.496-.24-.983-.352-1.437a2.32 2.32 0 00-.155-.402c-.283-.598-.687-1.112-1.014-1.488-.171-.205-.343-.402-.515-.607-.154-.188-.31-.368-.464-.556l-.12-.137c-.206-.24-.42-.496-.644-.736-.318-.333-.679-.607-1.03-.872l-.448-.342c-.73-.59-1.597-.898-2.37-1.163a.479.479 0 00-.13-.026h-.016c-.13-.026-.267-.043-.395-.068-.31-.052-.627-.103-.945-.163a2.197 2.197 0 00-.782-.137z" fill="#F9CE48"/>
    <path d="M16.566 8.721c-.038.608-.202 1.134-.494 1.577-.291.43-.715.83-1.273 1.197.444.152.843.355 1.197.608.684.52 1.026 1.343 1.026 2.47 0 1.33-.513 2.432-1.539 3.306-.278.24-.468.386-.57.437-.19.101-.418.19-.684.266-.532.127-1.02.222-1.463.285a8.892 8.892 0 01-1.254.095c-.43 0-.855-.038-1.273-.114-.785-.127-1.38-.317-1.786-.57-.456-.291-.855-.773-1.197-1.444-.291-.557-.437-1.032-.437-1.425 0-.405.152-.81.456-1.216.418-.545.931-.817 1.54-.817.341 0 .658.108.95.323.215.367.322.766.322 1.197 0 .317-.095.583-.285.798-.19.215-.506.393-.95.532.317.405.69.703 1.121.893.431.177.957.266 1.577.266.786 0 1.476-.209 2.071-.627.608-.494.912-1.153.912-1.976 0-.481-.139-.88-.418-1.197-.266-.33-.665-.475-1.197-.437a2.66 2.66 0 01-.969-.095 14.234 14.234 0 00-.266-.057 1.82 1.82 0 01-.133-.038l-.114-.076-.114-.171v-.266-.437c.013-.165.02-.323.02-.475.012-.165.018-.304.018-.418a.795.795 0 00.247 0c.064-.013.184-.019.361-.019.089 0 .216-.006.38-.019.178-.025.298-.038.361-.038.317-.025.583-.114.798-.266a2.16 2.16 0 00.59-.665c.227-.418.341-.906.341-1.463 0-.215-.044-.405-.133-.57a2.437 2.437 0 00-.266-.475c-.468-.279-1.038-.418-1.71-.418-.329 0-.665.057-1.007.171a3.55 3.55 0 00-1.045.532c.279.545.418 1.039.418 1.482 0 .494-.202.868-.608 1.121-.443.266-.836.399-1.178.399-.456 0-.905-.26-1.349-.779a3.415 3.415 0 01-.152-.969c0-.963.406-1.773 1.216-2.432.76-.633 1.66-.975 2.698-1.026.064 0 .19-.006.38-.019.19-.025.431-.05.722-.076.254-.025.475-.044.665-.057.203-.013.38-.019.532-.019 1.216 0 2.027.393 2.432 1.178.089.165.165.291.228.38.064.089.114.19.152.304.051.114.083.272.095.475.026.203.038.494.038.874z" fill="#fff"/>
</svg>