<svg fill="none" xmlns="http://www.w3.org/2000/svg" viewBox="0 0 24 24">
    <path d="M13.5 1.093c-.215 0-.43-.026-.653-.043l-.301-.026c-.026 0-.052-.008-.086-.008-.086-.009-.189-.026-.3-.009l-.224.035c-.344.05-.696.102-1.048.188-.318.077-.567.102-.799.077a2.07 2.07 0 00-1.039.128c-.18.077-.352.154-.515.23l-.138.06-.163.078c-.026.017-.06.025-.086.043a.318.318 0 01-.094.042 6.933 6.933 0 00-.705.274c-.223.103-.438.222-.653.334l-.335.18c-.197.102-.36.247-.506.376-.146.136-.292.282-.43.419a8.745 8.745 0 01-.575.556c-.413.342-.782.735-1.143 1.12l-.06.06c-.189.197-.37.402-.54.607-.147.171-.293.342-.448.505-.369.393-.61.88-.773 1.514-.068.282-.154.581-.283.966-.095.291-.19.573-.292.856-.077.23-.163.462-.24.701a1.04 1.04 0 00-.07.402c.018.539.044 1.06.078 1.582.017.223.051.445.086.659.008.068.026.137.034.214.043.29.095.581.138.872l.051.342c.017.094.026.197.035.291.025.24.051.48.146.727.24.693.55 1.36.833 1.985.189.41.378.803.678 1.163.206.248.438.47.636.641.086.077.172.163.249.24.198.197.412.41.679.573.171.102.343.214.506.325.258.188.507.342.748.47.283.146.567.334.798.496.086.06.18.12.267.18.42.3.867.607 1.408.77.292.085.585.188.868.3l.206.076c.421.154.86.197 1.271.231l.275.026c1.125.12 2.234.102 3.29-.043a6.712 6.712 0 002.465-.872l.232-.129c.086-.043.172-.094.266-.137.19-.094.396-.196.584-.316.293-.188.576-.394.842-.59l.086-.06c.19-.146.36-.282.507-.42.163-.153.326-.324.48-.487l.207-.205.258-.257c.18-.188.37-.385.567-.564.48-.445.773-1.01 1.022-1.548.034-.069.06-.137.094-.206.078-.162.155-.325.224-.496a8.27 8.27 0 00.206-.598c.025-.077.043-.146.069-.214.017-.043.017-.086.025-.111v-.026l.052-.257c.034-.188.069-.359.12-.521.172-.574.232-1.19.198-1.882a3.598 3.598 0 01.008-.539c.026-.274.06-.547.095-.821l.077-.642a5.382 5.382 0 00-.086-1.753c-.112-.496-.24-.984-.352-1.437a2.328 2.328 0 00-.155-.402c-.283-.599-.687-1.112-1.013-1.488-.172-.206-.344-.402-.516-.608-.154-.188-.309-.367-.463-.555l-.12-.137c-.207-.24-.422-.496-.645-.736-.318-.333-.678-.607-1.03-.872l-.447-.342c-.73-.59-1.598-.899-2.371-1.164a.48.48 0 00-.129-.025h-.017c-.129-.026-.266-.043-.395-.069-.31-.051-.627-.102-.945-.162a2.197 2.197 0 00-.782-.137z" fill="#6C8E49"/>
    <path d="M13.916 5.757c-.14.418-.24 1.59-.304 3.515l-.038 1.805a87.72 87.72 0 01-.057 1.805 11.311 11.311 0 000 1.615c.127 1.305.165 2.115.114 2.432 0 .013.184-.013.551-.076.203-.026.38-.045.532-.057a2.74 2.74 0 01.4-.038c.088 0 .22-.02.398-.057.178-.038.292-.044.342-.02.05.229.095.419.133.57.038.153.057.368.057.647 0 .14-.025.304-.076.494a3.99 3.99 0 01-.095.38 3.853 3.853 0 01-.55.076c-.19 0-.412-.006-.666-.02-.405-.024-.981.014-1.729.115a8.432 8.432 0 01-.532.038c-.253 0-.595-.007-1.026-.02.026 0-.14.007-.494.02-.354 0-.912.006-1.672.019-.215 0-.373-.006-.475-.02-.101-.012-.202-.075-.304-.19a6.59 6.59 0 01-.076-.417 6.439 6.439 0 01-.019-.494c0-.165.007-.31.02-.437a.905.905 0 01.056-.285c.102-.038.222-.064.361-.076.14-.026.336-.026.59 0 .873.114 1.291.17 1.253.17.292 0 .475-.132.551-.398.05-.114.083-.374.095-.78.026-.164.05-.36.076-.588.026-.24.05-.526.076-.855.038-.494.057-.995.057-1.501a28.48 28.48 0 00-.095-2.432c-.025-.33-.05-.62-.076-.874a1.25 1.25 0 00-.266-.171c-.063-.038-.196-.063-.399-.076-.24.013-.52.025-.836.038-.316 0-.677-.006-1.083-.02l-.323-.056c-.101-.038-.152-.114-.152-.228a7.463 7.463 0 01-.019-.532c0-.19.013-.374.038-.551a.966.966 0 01.19-.02h.21c.075 0 .151-.005.227-.018.178-.013.336-.025.475-.038.14-.013.26-.032.361-.057.178-.025.336-.05.475-.076a1.48 1.48 0 00.342-.133c.178-.101.488-.526.931-1.273a.834.834 0 00.133-.285c.026-.101.057-.203.095-.304l.095-.285a1.62 1.62 0 01.532-.133c.24-.038.418-.057.532-.057.33 0 .684.07 1.064.209z" fill="#fff"/>
</svg>