<svg fill="none" xmlns="http://www.w3.org/2000/svg" viewBox="0 0 24 24">
    <path d="M13.766 1.32c-.215 0-.43-.026-.653-.043l-.3-.025c-.026 0-.052-.009-.086-.009-.086-.008-.19-.025-.3-.008l-.224.034c-.344.051-.696.102-1.048.188-.318.077-.567.103-.799.077a2.07 2.07 0 00-1.04.128c-.18.077-.351.154-.515.231l-.137.06-.163.077c-.026.017-.06.026-.086.043a.318.318 0 01-.095.043 6.931 6.931 0 00-.704.273c-.223.103-.438.223-.653.334l-.335.18c-.197.102-.36.248-.507.376-.146.137-.292.282-.43.419a8.74 8.74 0 01-.575.556c-.412.342-.781.735-1.142 1.12l-.06.06c-.189.197-.37.402-.541.608-.146.17-.292.342-.447.504-.37.394-.61.881-.773 1.514-.069.282-.155.582-.283.967-.095.29-.19.573-.292.855-.078.23-.164.462-.24.701a1.04 1.04 0 00-.07.402c.018.54.043 1.06.078 1.583.017.222.051.444.086.658.008.069.025.137.034.214.043.29.094.582.137.873l.052.342c.017.094.026.196.034.29.026.24.052.48.146.727.24.693.55 1.36.833 1.985.19.41.378.804.679 1.163.206.248.438.47.636.642.086.076.171.162.249.239.197.197.412.41.678.573.172.103.344.214.507.325.258.188.507.342.747.47.284.146.567.334.8.497.085.06.18.12.265.18.421.299.868.607 1.41.769.291.086.583.188.867.3l.206.076c.42.154.859.197 1.271.231l.275.026c1.125.12 2.233.103 3.29-.043a6.711 6.711 0 002.465-.872l.232-.128c.086-.043.172-.095.266-.137.19-.095.395-.197.584-.317.292-.188.576-.393.842-.59l.086-.06c.189-.145.36-.282.507-.419.163-.154.326-.325.48-.488l.207-.205.258-.256c.18-.189.369-.385.566-.565.481-.445.773-1.01 1.023-1.548.034-.069.06-.137.094-.205.077-.163.155-.325.223-.496.078-.197.146-.402.206-.6.026-.076.043-.145.07-.213.016-.043.016-.085.025-.111v-.026l.052-.256c.034-.189.068-.36.12-.522.172-.573.232-1.19.197-1.882a3.598 3.598 0 01.009-.539c.026-.273.06-.547.094-.82l.078-.642a5.38 5.38 0 00-.086-1.754c-.112-.496-.24-.983-.352-1.437a2.32 2.32 0 00-.155-.402c-.283-.598-.687-1.112-1.014-1.488-.171-.205-.343-.402-.515-.607-.154-.188-.31-.368-.464-.556l-.12-.137c-.206-.24-.42-.496-.644-.736-.318-.333-.679-.607-1.03-.872l-.448-.342c-.73-.59-1.597-.898-2.37-1.163a.479.479 0 00-.13-.026h-.016c-.13-.026-.267-.043-.395-.068-.31-.052-.627-.103-.945-.163a2.197 2.197 0 00-.782-.137z" fill="#57BFE8"/>
    <path d="M4.56 16.665a.734.734 0 00.998.268l1.323-.764v1.528a.73.73 0 00.731.73.73.73 0 00.73-.73v-2.371l1.69-.976 1.687.976v1.949L9.666 18.46a.73.73 0 10.73 1.265l1.323-.763v1.527a.73.73 0 101.462 0v-1.528l1.323.764a.731.731 0 10.73-1.265l-2.053-1.186v-1.95l1.688-.975 1.69.976v2.37a.729.729 0 00.73.732.732.732 0 00.73-.731v-1.528l1.324.764a.727.727 0 00.998-.267.734.734 0 00-.268-1l-1.322-.763 1.322-.763a.736.736 0 00.36-.729.734.734 0 00-.28-.483.738.738 0 00-.81-.053l-2.054 1.185-1.689-.975v-1.95l1.689-.974 2.054 1.186a.724.724 0 00.554.073.737.737 0 00.535-.61.72.72 0 00-.144-.541.745.745 0 00-.215-.188l-1.322-.764 1.322-.763a.73.73 0 10-.73-1.266l-1.323.764V6.524a.731.731 0 00-1.462 0v2.371l-1.69.975-1.687-.975V6.946l2.054-1.186a.721.721 0 00.34-.443.723.723 0 00-.072-.555.735.735 0 00-.729-.36.726.726 0 00-.27.093l-1.323.763V3.731a.73.73 0 10-1.461 0v1.527l-1.323-.763a.731.731 0 10-.731 1.265l2.054 1.186v1.949l-1.689.975-1.688-.975V6.524a.73.73 0 00-.731-.731.73.73 0 00-.731.73v1.528l-1.324-.763a.726.726 0 00-.998.267.731.731 0 00.268.999l1.323.763-1.323.763a.734.734 0 00-.268 1 .73.73 0 00.998.267l2.055-1.186 1.688.976v1.948l-1.688.974-2.055-1.185a.728.728 0 00-.998.267.733.733 0 00.268 1l1.323.762-1.323.764a.736.736 0 00-.36.729.74.74 0 00.093.27zm6.202-5.53l1.688-.974 1.689.975v1.949l-1.689.974-1.688-.974v-1.95z" fill="#fff"/>
</svg>