<svg version="1.1" id="Layer_1" xmlns="http://www.w3.org/2000/svg" x="0" y="0" viewBox="0 0 140.3 140.3" style="enable-background:new 0 0 140.3 140.3" xml:space="preserve">
    <style>.st3{fill:#3c3c3b;stroke:#3c3c3b;stroke-width:.7845;stroke-miterlimit:10}</style>
    <path d="M28.3 12.2C10.5 23.5.1 41.2.5 62.5s-1.7 42.2 24.4 62.2 61.5 19.6 84.2 4.3 30.9-23.3 30.7-50 0-41.3-12.2-55.9-57.9-36.9-99.3-10.9z" style="fill:#6a0f5a"/>
    <path d="M87.8 111.8c-.2-.3.1-.3.6-.5 2.5-1.3 2.4-6.6.1-11.1-1.4-2.5-7 1.3-19.1-.3-3.9-.5-12.7-.8-13.2.2-1.4 2.5-1.4 5.5.2 6.7l.8.4c-2.3 2.7-2.1 4.7-1.3 6.3.4.7-.3.8-.6 1.3-1.9 2.4.1 5.1 1.7 6 .8.4.5.2.3 2-.3 2.9 3 5.3 5.3 6.2.9.3 2 .5 3.2.5.3 4.2 3.2 5.5 5.5 5.5 2.4 0 5.4-1.5 6-5.5 2-.1 4-.4 5.1-1.2 2.5-1.5 2.1-1.3 2.5-2.7.3-.8 0-1 .9-1.4 1.5-.5 2.2-1.5 1.6-4.5-.1-.7-.6-.5.6-1.4 1.5-.9 1.3-4 0-6 .1-.1-.2-.4-.2-.5z" style="fill:#fdc400"/>
    <path d="M56.1 95.3c2 2.3 20.6 2.9 25.9 1.4 5.3-1.6 5-3.8 4.8-8.9-.2-5.1 1.6-15.2 6.9-18.7 5.3-3.6 13.7-14.3 12-28.1-1.5-13.9-11.2-25.8-21.7-28.5s-22-3.3-34.2 2.9-16.4 22.2-13.7 34.2 6.2 16.9 9.7 20.8c3.6 3.9 8.9 8.1 8.7 15.6-.2 7.6.5 8 1.6 9.3z" style="fill:#fff"/>
    <path class="st3" d="M69.6 99.1c-2.3-.5-3.9-.7-6.6-.7h-3.6c-.4 0-.8 0-1.4-.1-.8-.1-1.8-.2-2.5-.4-.2 0-.4-.1-.5-.2-.2-.1-.3-.2-.4-.2-.3-.2-.4-.4-.6-.7-.3-.6-.4-1.6-.4-2.5 0-1.9.1-4 0-6.1 0-1-.1-2.1-.4-3.2-.2-1-.5-2.2-.9-3.1-1.5-4.1-3.8-8.1-6.7-11.4-1.5-1.7-3-3.2-4.3-5-1.3-1.8-2.4-3.7-3.3-5.6-.9-2-1.7-4.1-2.2-6.2-.5-2.1-.9-4.3-1.2-6.5-.4-4.3-.3-8.7.3-12.9.7-4.1 2.3-7.9 4.4-11.2 4.2-6.6 10.5-10.8 16.2-13 2.8-1.2 5.5-1.7 7.9-2.2 1.3-.1 2.4-.3 3.5-.4 1 0 2-.1 2.9-.1 1.8.1 3.1.1 4.1.2.9.1 1.5.2 1.5.2s.5 0 1.4.2c.9.2 2.3.4 4 .9 3.3 1 8.1 2.9 12.8 6.8 2.3 2 4.6 4.4 6.6 7.3 2 2.9 3.5 6.4 4.5 10.1.1.5.2.9.4 1.5.1.5.2.9.3 1.5.2.9.3 2 .5 3 .2 2 .4 4.1.3 6.2-.1 4.2-.8 8.5-2.5 12.4-.9 2-1.9 3.9-3.1 5.6s-2.7 3.5-4.3 5c-.7.8-1.6 1.6-2.4 2.4-.4.4-.8.9-1.2 1.4-.3.4-.6.9-.9 1.5-1.3 1.9-2.3 4.1-2.9 6.3-.3 1.2-.5 2.2-.7 3.3-.1 1.2-.1 2.3-.1 3.3 0 2.2.1 4.3 0 6.4-.1 1-.2 2-.5 2.8-.1.2-.2.4-.2.5-.1.1-.2.3-.3.4-.1.1-.3.2-.4.3-.2.1-.3.2-.6.2-.8.3-1.8.5-2.7.5-.5 0-.9.1-1.5.1-.4 0-.8 0-1.3.1-1.8.1-3.2 0-4 0-3.1.5-4.7.7-7 1.3 2.3.5 3.8.9 6.5.9h4.1c.4 0 .8 0 1.3-.1.5 0 1-.1 1.6-.1 1-.1 2.1-.3 3.1-.6.3-.1.5-.2.8-.4.3-.1.5-.3.8-.5.2-.2.4-.5.6-.8.1-.3.3-.6.4-.8.4-1.2.5-2.3.6-3.3.1-2.2 0-4.4 0-6.5 0-1 0-2.2.1-3.1.1-1 .4-2.1.7-3.1.6-2 1.6-4 2.7-5.8.3-.4.6-.9.9-1.4.3-.4.6-.8 1-1.2.7-.8 1.6-1.6 2.3-2.4 1.6-1.7 3.1-3.3 4.4-5.2 1.4-1.9 2.4-3.9 3.3-6 1.8-4.2 2.6-8.7 2.7-13.1.1-2.2-.1-4.3-.3-6.5-.2-1-.3-2.1-.5-3.1-.1-.5-.2-1-.3-1.6-.1-.5-.2-1-.4-1.5-1.2-4-2.7-7.6-4.8-10.7-2.1-3-4.4-5.6-6.9-7.7-4.9-4.1-9.9-6.2-13.4-7.2-1.8-.6-3.1-.8-4.1-1C76 6 75.6 6 75.6 6s-.5-.1-1.5-.2c-.9-.2-2.4-.2-4.2-.3-.9 0-1.9.1-3 .1-1.3.1-2.4.3-3.7.4-2.5.5-5.4 1-8.4 2.3-2.9 1.2-6.2 2.7-9.1 5s-5.8 5.1-7.9 8.6c-2.2 3.5-3.9 7.5-4.6 11.8-.7 4.4-.7 8.8-.3 13.3.2 2.3.6 4.5 1.2 6.7s1.4 4.4 2.3 6.5c.9 2.1 2.2 4.1 3.6 5.9 1.4 1.9 2.9 3.6 4.3 5.1 2.8 3.2 5 6.9 6.4 10.9.7 2 1.2 3.9 1.2 5.9.1 2 0 4 0 6 0 1 .1 2.1.5 3.2.1.3.3.5.5.8.2.2.4.5.7.6.2.2.5.3.7.4.2.1.5.2.7.3 1 .3 2 .4 2.9.5.4 0 .9.1 1.4.1H63.2c2.7.1 4.2-.3 6.4-.8zM87 118.3c.6-.1 1-.5 1.4-1 .3-.5.4-1 .5-1.7.1-1.2-.1-2.5-1.3-3.8-.4-.3-.7-.5-1.2-.6-.4-.2-1-.3-1.8-.5-4.1-1-13.7-2.4-13.7-2.4s-8.1-1.2-12.6-1.8c-.5-.1-.9-.1-1.4-.2-.4-.1-.7-.1-.9-.2-.4-.1-.6-.4-.8-.5-.6-.7-.7-1.8-.7-2.6 0-.9 0-1.9.4-2.9-.8.8-1.4 1.8-1.7 2.8-.1.5-.2 1.2-.1 1.8s.3 1.4.8 2.1c.2.3.7.8 1.6 1.2.4.2.8.2 1.3.3.4.1.9.1 1.5.2 4.5.6 12.6 1.8 12.6 1.8s2.4.3 5.3.8c2.9.4 6.3 1 8.3 1.6.7.2 1.3.3 1.7.4.2.1.3.1.4.2h.1l.2-.2-.2.2.1.1.1.1c.1.1.1.2.2.3l.3.6c.2.4.3.8.4 1.3.1.4.1.8.1 1.4-.3.4-.4.8-.9 1.2z"/>
    <path class="st3" d="M86.4 98.9c-.2.8-.3 1.3 0 2 .1.3.6 1.5.8 2.5.3 1 .4 2 .4 2s.1.9.1 2c0 1-.3 2.1-.4 2.4-.2.6-.1.9-.2 1.8.8 0 1.5-.3 1.9-1.2.2-.4.6-1.8.6-3 0-1.3-.1-2.3-.1-2.3s-.1-1-.4-2.2c-.3-1.2-.7-2.3-.9-2.7-.6-.8-1-1.1-1.8-1.3zM55.8 107c-.9.7-1.7 1.4-2.2 2.4-.2.5-.4 1-.5 1.8 0 .7.1 1.5.5 2.2.1.1.1.2.4.5.1.1.2.2.4.3.1.1.3.1.4.2.5.2 1 .3 1.9.4 1.9.4 5.1.8 7.8 1.2 2.7.3 4.9.6 4.9.6s7.5.9 11.5 1.8c2 .4 3.2.8 3.8 1 .3.1.5.2.7.3.1 0 .2.1.1.1 0 0 .1-.1.2-.1h.3c-.1.1.3-.1-.3.1l.1.2c.2.4.4.9.5 1.3.1.4.2.7 0 1.2-.2.4-.5.7-.9 1.2.5-.2 1-.3 1.6-.7.5-.4.7-1.2.7-1.8s-.1-1.2-.3-1.8c0-.1-.1-.3-.3-.5-.2-.3-.3-.4-.5-.5-.2-.1-.3-.2-.5-.3-.2-.1-.3-.2-.5-.2-.7-.3-2-.7-4.1-1.2-4.2-.8-11.6-1.9-11.6-1.9s-2.2-.3-4.9-.6-5.9-.8-7.7-1.2c-.7-.1-1.3-.3-1.6-.4-.1 0-.1-.1-.1-.1l-.1-.1c-.5-.8-.5-1.8-.3-2.6-.2-.8.2-1.6.6-2.8z"/>
    <path class="st3" d="M54.7 113.4c-.8.8-1.4 1.8-1.7 2.8-.2 1-.2 2.5.8 3.9.2.2.4.5.8.8.2.2.5.3.8.5.4.2.7.3 1.2.4 1 .3 3.6.8 3.6.8s2.1.4 3.2.6c2.1.3 3.3.5 4 .6 2.7.4 4.3.3 6.6-.1-2.2-.7-3.7-1.3-6.4-1.7-.6-.1-1.9-.3-4-.6-1.2-.2-3.2-.6-3.2-.6l-3.5-.7c-.7-.2-1-.3-1.3-.5l-.5-.5c-.6-.8-.8-1.8-.9-2.6.1-1.1.2-2 .5-3.1z"/>
    <path class="st3" d="M56 122.6c-.4 1.2-.2 2.3.3 3.2.5 1 1.4 1.9 2.6 2.7.4.2 1 .7 2.7 1.3 1.2.3 2.9.5 4.5.5H75.5c2.1-.1 3.5-.3 4.2-.5.7-.2 1.4-.4 1.9-.7.5-.3.9-.6 1.4-1 .4-.4.7-.8 1-1.4.2-.5.3-1 .5-1.6-.4.4-.7.8-1.2 1.2-.3.3-.7.5-1.2.7-.5.2-.9.4-1.4.6-.4.2-.9.3-1.6.5-.6.1-1.8.4-3.9.4-1.2.1-2.7.1-4.1 0H66c-1.5 0-3.2-.2-4.1-.4-1.4-.4-1.9-.8-2.3-1-1-.6-1.8-1.3-2.5-1.9-.3-.7-.9-1.4-1.1-2.6z"/>
    <path class="st3" d="M64.6 129.4c-.5.8-.8 1.6-.4 2.7.1.3.4.9.9 1.5s1.3 1.2 2.1 1.6c.8.3 1.6.5 2.2.5.6.1.9 0 .9 0s1.6 0 3.1-.7c.7-.3 1.6-.9 2.1-1.5s.8-1.2.9-1.5c.4-1 .2-1.9-.2-2.7-.6.8-1 1.3-1.4 2-.1.2-.3.6-.6 1s-.9.8-1.5 1c-.6.3-1.2.4-1.7.5-.4.1-.7.1-.7.1h-.7c-.4 0-1-.2-1.7-.4-.6-.2-1-.6-1.5-1-.3-.4-.5-.8-.6-1-.2-.8-.7-1.2-1.2-2.1zM76.5 69.6c-.6 0-1-.3-1.3-.6-.2-.3-.4-.7-.4-1.2-.1-.8.1-1.5.8-2.5.1-.2.3-.4.5-.6.3-.3.6-.6 1.2-.8.4-.2.8-.3 1.3-.2.4.1.8.4 1.2.9.6 1.2.7 2.8.5 4.3-.2 1.5-.7 2.6-1.3 3.3-.6.8-1 1.4-1 1.4s-.3.4-.8 1.3c-.5.8-1 2-1.6 3.3-.5 1.4-.9 2.9-1 4.5-.2 1.6-.2 3-.3 4.3-.1 2.1-.1 3.3-.1 4.1 0 2.7.3 4.3 1 6.6.3-2.3.7-3.8.7-6.5 0-.6 0-2 .1-4 0-1.2.1-2.6.3-4.1.1-1.4.5-2.9.9-4.1.4-1.3 1-2.3 1.5-3 .4-.7.7-1.2.7-1.2s.4-.5.9-1.4c.7-.9 1.4-2.5 1.6-4.2.2-1.7.1-3.7-.7-5.3-.4-.8-1.4-1.7-2.3-1.9-.9-.2-1.9 0-2.4.3-.8.4-1.4.8-1.7 1.3-.3.3-.5.6-.7.8-.4.6-.7 1.3-.9 2-.1.7 0 1.4.2 2 .2.5.6 1 1.2 1.4.7 0 1.4.1 1.9-.2z"/>
    <path class="st3" d="M69.7 69.9c-.5-.2-.8-.6-1-1-.2-.4-.2-.8-.2-1.2 0-.4.1-.5.4-1 .2-.4.5-.9.8-1.5.2-.3.6-.9 1.7-1.5.2-.1.6-.2.6-.2H72.6c.8-.1 1.6.1 2.1.3.2.1.4.2.5.3.2.1.3.2.3.3.4.4.6.8.8 1.3s.3.8.4 1.3.1.9.1 1.4-.1.9-.5 1.4c.6-.1 1-.6 1.3-1.2.2-.5.4-1 .4-1.6 0-.5 0-1.2-.2-1.8-.2-.6-.5-1.4-1-1.9l-.5-.5c-.2-.2-.5-.4-.9-.5-.7-.3-1.7-.5-2.9-.5-.2 0-.4 0-.6.1-.2 0-.3.1-.3.1s-.2 0-.4.1-.4.2-.6.2c-.8.4-1.4.8-1.7 1.3-.3.3-.5.6-.7.8-.4.6-.7 1.3-.9 1.8-.1.3-.2.5-.3.9-.1.4 0 .7.1 1 .2.6.5 1.2.9 1.5.6.1 1.1.4 1.7.3z"/>
    <path class="st3" d="M65.8 69.7c-.4.4-1 .4-1.3.2-.3-.2-.4-.5-.5-.9-.2-.8-.2-1.7.2-2.8.1-.3.3-1 1.3-2 .3-.4 1.5-1 1.5-.9 0 0 .2-.1.5-.2s.7-.1.9-.1c.2 0 .4.1.5.1.1.1.2.1.4.2s.4.4.6.6c.3.4.5.8.6 1 .4 1 .6 2 .6 2.9 0 .4-.1.8-.3 1.3-.2.4-.5.8-1.2.9 1.3.3 2.3-.8 2.6-1.9.4-1.2.3-2.4-.3-3.9-.1-.3-.4-.8-.8-1.5-.2-.3-.5-.6-1-.9-.2-.2-.5-.3-.8-.4-.3-.1-.6-.2-.9-.2-.4-.1-1 0-1.5.1s-.8.2-.8.2l-.8.4c-.4.3-.9.6-1.2.9-1.3 1.3-1.5 2.2-1.7 2.7-.5 1.5-.3 2.9.3 3.9.3.5.8 1 1.5 1.2.8 0 1.4-.4 1.6-.9z"/>
    <path class="st3" d="M65.7 97.6c.6-2.3.9-3.8.9-6.6 0-.4 0-1.3-.1-2.8-.1-2.1-.5-5.8-1.6-8.7-.5-1.5-1.2-2.7-1.5-3.7-.4-.9-.6-1.5-.6-1.5s-.3-.4-.6-1.3c-.3-.7-.8-1.9-1.3-3-.4-1.3-.9-2.6-1-3.9-.1-.6 0-1.3.2-1.7.2-.4.4-.6.8-.8 1.5-.7 2.3.2 2.6.5.7.8 1.3 1.7 1.7 2.5.3.8.8 1.7.4 2.8.4-.4.6-.9.7-1.6.1-.5.1-1.2 0-1.7-.2-1-.5-2.3-1.7-3.5-.3-.3-.7-.7-1.5-1s-2.1-.4-3.2.2c-.6.2-1.4.9-1.7 1.8-.3.8-.4 1.7-.3 2.5.1 1.6.6 3 1.2 4.3.5 1.3.9 2.4 1.3 3.1.3 1 .6 1.5.6 1.5l.6 1.5c.4.9.9 2.2 1.5 3.6.9 2.7 1.4 6.2 1.5 8.3.1 1.6.1 2.3.1 2.7.2 2.8.4 4.2 1 6.5z"/>
</svg>