<svg fill="none" xmlns="http://www.w3.org/2000/svg" viewBox="0 0 24 24">
    <path fill-rule="evenodd" clip-rule="evenodd" d="M13.145 3.44c.086-.17 1.111-1.196 1.282-1.281.812-.641.556.812.171 1.624-.192.278-.395.555-.598.833-.203.278-.406.556-.598.833-.684 1.026-.983.77-1.24-.427-.086-.288-.25-1.256-.374-1.987-.06-.354-.11-.651-.138-.79-.129-.77 1.239.512 1.495 1.196zm-.47 4.274a1.79 1.79 0 00-.342.513c-.042-.17-.128-.342-.213-.513-.214-.512-1.496-1.965-2.137-2.008-1.068 0 .684 4.145.983 4.829 0 .043.684 1.24 1.154.726.406-.406.8-.812 1.196-1.218.395-.406.79-.812 1.197-1.218l.118-.135c.58-.664 1.54-1.762 1.42-2.6-.128-.47-1.923-.042-3.376 1.624zm-.427 4.103c.726-.598 2.265-1.581 3.205-1.197.236.158-.107.75-.297 1.076l-.045.078c-.77 1.71-2.393 2.906-4.017 3.675-.684.385-1.026 0-1.111-.427a10.645 10.645 0 01-1.238-2.408c-.244-.66-.651-1.757-.386-2.25.214-.342.897.085 1.368.385.47.427.812.982 1.11 1.623.098.13.17.284.237.425.021.046.042.09.063.131.299-.427.726-.812 1.11-1.111zm-2.18 5.256c1.112-1.154 4.317-2.692 5-1.923.684.812-3.675 3.846-5.299 4.36-.11.246-.255.511-.378.737-.07.125-.131.239-.177.33-.342.813-1.581.342-1.24-.47.096-.167.246-.59.374-.951.1-.284.187-.53.225-.587a1.188 1.188 0 00-.032-.059c-.032-.056-.064-.112-.097-.24-.089-.312-.247-.624-.41-.942a6.65 6.65 0 01-.401-.896c-.3-.769-1.069-2.777-.086-3.205.128-.064.494.374.743.67.084.1.154.184.197.228.77.726 1.282 1.837 1.581 2.948z" fill="#DA9220"/>
    <path d="M4.51 2.929L3 4.439l15.592 15.593 1.511-1.511L4.511 2.928z" fill="#3F6B37"/>
</svg>