<svg data-name="Google Pay" xmlns="http://www.w3.org/2000/svg" viewBox="0,0,50,20">
  <g data-name="Group 103682">
    <path data-name="Path 282472" d="M23.846 2.937v5.054h3.119a2.458 2.458 0 0 0 1.842-.748 2.427 2.427 0 0 0 .748-1.779 2.386 2.386 0 0 0-.748-1.76 2.433 2.433 0 0 0-1.842-.768h-3.118Zm0 6.835v5.863h-1.861V1.158h4.938a4.469 4.469 0 0 1 3.2 1.253 4.02 4.02 0 0 1 1.337 3.053 4.041 4.041 0 0 1-1.337 3.072 4.453 4.453 0 0 1-3.2 1.233h-3.077Zm9.492 2.828a1.482 1.482 0 0 0 .618 1.214 2.279 2.279 0 0 0 1.447.485 2.968 2.968 0 0 0 2.094-.869 2.722 2.722 0 0 0 .921-2.041 3.82 3.82 0 0 0-2.429-.687 3.155 3.155 0 0 0-1.891.546 1.62 1.62 0 0 0-.76 1.352m2.409-7.2a4.616 4.616 0 0 1 3.259 1.1 3.907 3.907 0 0 1 1.192 3.021v6.107h-1.781v-1.37h-.081a3.552 3.552 0 0 1-3.075 1.7 4 4 0 0 1-2.743-.969 3.1 3.1 0 0 1-1.1-2.427 2.936 2.936 0 0 1 1.163-2.444 4.908 4.908 0 0 1 3.106-.91 5.5 5.5 0 0 1 2.731.607v-.427a2.115 2.115 0 0 0-.768-1.647 2.633 2.633 0 0 0-1.8-.678 2.85 2.85 0 0 0-2.468 1.314l-1.641-1.031a4.575 4.575 0 0 1 4.009-1.941m14.673.321-6.214 14.273h-1.922l2.307-4.993-4.088-9.279h2.024l2.955 7.116h.04l2.874-7.116Z" fill="#5f6368"/>
  </g>
  <path data-name="Path 282473" d="M16.322 8.507a9.938 9.938 0 0 0-.143-1.692H8.326v3.2h4.5a3.85 3.85 0 0 1-1.662 2.528v2.081h2.685a8.132 8.132 0 0 0 2.477-6.119" fill="#4285f4"/>
  <path data-name="Path 282474" d="M8.326 16.636a7.973 7.973 0 0 0 5.519-2.009l-2.684-2.077a5.051 5.051 0 0 1-7.51-2.637H.887v2.137a8.33 8.33 0 0 0 7.44 4.584" fill="#34a853"/>
  <path data-name="Path 282475" d="M3.652 9.909a4.969 4.969 0 0 1 0-3.183V4.583H.887a8.305 8.305 0 0 0 0 7.469Z" fill="#fabb05"/>
  <path data-name="Path 282476" d="M8.326 3.292a4.523 4.523 0 0 1 3.191 1.247c.867.826 2.376-2.374 2.376-2.374A8.008 8.008 0 0 0 8.326 0 8.328 8.328 0 0 0 .887 4.583l2.765 2.143a4.98 4.98 0 0 1 4.675-3.433" fill="#e94235"/>
</svg>
