<svg xmlns="http://www.w3.org/2000/svg" width="24" height="24"><path fill="none" d="M0 0h24v24H0z" data-name="Bounding box"/><g fill="currentColor" fill-rule="evenodd" data-name="Grid"><path d="M7.722 19.816a178.34 178.34 0 0 0-3.067.192 27.044 27.044 0 0 1-.325-6.827 33.949 33.949 0 0 1 4.751-.154h1.248a52.509 52.509 0 0 1 .238 6.605c-1.107.086-2.013.138-2.845.184Z" data-name="Path 282958"/><path d="M10.368 4.011a15.449 15.449 0 0 1 .152 6.433l-.68.07a37.813 37.813 0 0 1-5.297.106c-.076-.787-.076-1.728-.076-2.91s0-2.411-.076-3.387c.643-.031 1.411-.081 2.2-.133 1.4-.095 2.867-.192 3.776-.178" data-name="Path 282959"/><path d="M19.291 13.054a15.6 15.6 0 0 1 .246 6.68 24.266 24.266 0 0 1-5.687.187c-.188 0-.387-.023-.587-.035 0-1.051.018-2.2.035-3.351s.032-2.3.032-3.348a41.661 41.661 0 0 1 5.96-.132" data-name="Path 282960"/><path d="M19.461 4.008a32.593 32.593 0 0 1 .313 6.293c-1.17 0-2.322.034-4.094.081-.684.02-1.462.042-2.357.064a23 23 0 0 1 .158-6.209c1.208 0 2.418-.059 4.111-.142.567-.025 1.181-.056 1.866-.087Z" data-name="Path 282961"/></g></svg>
