<svg width="127" height="98" viewBox="0 0 127 98" fill="none" xmlns="http://www.w3.org/2000/svg">
<g clip-path="url(#clip0)">
<path d="M126.941 44.537C126.836 39.604 125.22 31.9373 122.524 27.5621C120.858 24.8585 119.117 22.2011 117.013 19.7141C114.909 17.2272 110.614 12.7721 107.764 11.0135C97.6562 4.80694 87.9689 0.946906 76.1504 0.159978C69.7302 -0.266348 63.4706 0.113793 57.3785 1.85463C50.3217 3.87257 44.5239 7.57628 39.2041 11.8022C31.4232 18.0035 24.814 25.6987 20.3698 33.9286C16.0344 41.9524 13.6072 51.4062 15.6938 60.2844C15.8971 61.1501 16.1271 62.0022 16.3839 62.8406L5.9333 80.4106L25.324 77.691C27.7851 80.1575 30.5255 82.331 33.4901 84.1676C42.9545 90.0456 54.1167 93.092 65.7301 93.211C70.6273 93.2608 77.1438 92.4117 81.8769 91.2286C86.4405 90.7064 89.376 89.9745 93.6472 88.6494C99.0722 86.9654 104.399 84.6206 108.936 81.6167C113.866 78.3991 118.121 74.2588 121.466 69.4256C127.062 61.368 127.155 54.5894 126.941 44.537Z" fill="#FDC500"/>
<path d="M13.732 65.0804C13.7463 64.734 13.7499 64.4125 13.7766 64.0928C13.7855 63.9365 13.7962 63.7801 13.8052 63.6274C13.8141 63.4746 13.8283 63.3218 13.8408 63.1726C13.8604 62.8724 13.8818 62.5775 13.9015 62.2844C13.9211 61.9913 13.93 61.6982 13.946 61.3963C13.9924 60.0594 13.9656 58.721 13.8658 57.387C13.839 56.9589 13.798 56.3212 13.7463 55.5165C13.7231 55.1168 13.6999 54.6798 13.6732 54.2109C13.6554 53.8396 13.6357 53.4648 13.6179 53.0864C13.5965 52.5908 13.5733 52.0899 13.559 51.5872C13.5448 51.0845 13.5287 50.5782 13.5216 50.0755C13.5145 49.5728 13.5412 49.0665 13.5501 48.5567C13.6021 46.4658 13.8192 44.3822 14.1993 42.3253C14.3099 41.8018 14.4204 41.2742 14.531 40.7425L14.613 40.3446L14.72 39.952L14.934 39.1616C15.1908 38.0957 15.5761 37.0566 15.9202 35.9961C16.7117 33.8646 17.6601 31.7943 18.7576 29.8019C19.9119 27.7654 21.2124 25.8147 22.6489 23.9648C24.1423 22.0884 25.7631 20.3162 27.4997 18.6606C29.2888 16.9989 31.1831 15.4533 33.1709 14.0332C35.1882 12.6238 37.2906 11.3395 39.4662 10.1874C40.0102 9.89604 40.5719 9.63847 41.123 9.36313L41.9541 8.95457L42.8012 8.58331C43.3683 8.33995 43.9283 8.0806 44.5007 7.84967L46.227 7.18354C48.5315 6.32803 50.8871 5.61611 53.2803 5.05191L54.172 4.83519C54.4698 4.76236 54.7712 4.7144 55.0637 4.65755L56.856 4.30228C57.4552 4.20103 58.058 4.11576 58.6554 4.02339L59.5471 3.88484C59.845 3.84398 60.1463 3.81734 60.4388 3.78359L62.24 3.57753C62.8393 3.52601 63.4385 3.49582 64.0341 3.45496C65.2254 3.35193 66.4167 3.36259 67.6009 3.32706C67.8969 3.31463 68.1912 3.32706 68.4926 3.32706L69.3753 3.3466L70.2546 3.36436C70.547 3.36436 70.8377 3.37325 71.1284 3.39634L72.8672 3.50825C73.1561 3.52957 73.445 3.53845 73.7322 3.57042L74.59 3.66279L76.2949 3.84043L77.9748 4.09445L78.8094 4.22057C79.0876 4.25787 79.3605 4.3236 79.6351 4.37511L81.2723 4.69486C81.4078 4.72328 81.5434 4.74637 81.6771 4.77657L82.0784 4.87427L82.8791 5.06612L83.6745 5.25796C83.9384 5.32369 84.2095 5.37876 84.4628 5.46047L86.0143 5.90634L86.7829 6.12838L87.532 6.39483L89.0247 6.89577C89.5169 7.06275 89.9966 7.26347 90.4781 7.44289L91.1915 7.72C91.4286 7.81059 91.6676 7.89763 91.9048 8.00422L93.2869 8.6064L93.9718 8.90483L94.637 9.22813L95.946 9.86584L96.2723 10.0239L96.588 10.2016L97.2157 10.5444L98.4641 11.2194L99.65 11.93C100.039 12.1698 100.435 12.3954 100.809 12.6405L101.915 13.3813L102.461 13.7365L102.73 13.9142L102.99 14.106C105.526 15.9092 107.895 17.9347 110.069 20.1581C111.708 21.8697 113.231 23.6892 114.625 25.6044L115.403 26.7537L115.759 27.2777C115.875 27.4554 115.986 27.6081 116.079 27.7733L117.07 29.4182C117.329 29.8694 117.503 30.2265 117.634 30.461L117.823 30.8162C117.823 30.8162 117.889 30.937 118.014 31.1715L118.247 31.6103L118.534 32.2338C118.645 32.4706 118.764 32.7341 118.891 33.0242C119.021 33.3156 119.185 33.6264 119.317 33.9817L119.767 35.1132C119.847 35.3157 119.929 35.5236 120.014 35.7367C120.1 35.9499 120.166 36.1808 120.246 36.4118C120.4 36.8736 120.564 37.3621 120.735 37.8755C120.906 38.3888 121.029 38.9413 121.188 39.5097C121.261 39.7957 121.352 40.0835 121.418 40.3837C121.484 40.6839 121.545 40.9912 121.611 41.3039C121.741 41.9309 121.892 42.5757 121.976 43.2579C122.472 46.3053 122.607 49.4001 122.379 52.4789C122.101 56.1621 121.326 59.7913 120.075 63.2685C119.897 63.7286 119.718 64.1922 119.526 64.6594L119.248 65.3611C119.15 65.5938 119.037 65.8212 118.932 66.0539L118.288 67.4501C118.055 67.9102 117.805 68.3667 117.562 68.8303L117.193 69.5267C117.065 69.754 116.924 69.9796 116.788 70.207C116.516 70.6618 116.242 71.1189 115.966 71.5784L115.062 72.9213C114.907 73.1433 114.762 73.3743 114.602 73.5945L114.108 74.25C112.776 76.0497 111.315 77.7512 109.737 79.341L108.513 80.5472C108.094 80.9398 107.657 81.3181 107.228 81.7072L106.577 82.2862L105.899 82.8387L105.22 83.4107C104.989 83.5883 104.77 83.789 104.529 83.9578L103.103 85.0094L102.746 85.2741L102.377 85.521L101.637 86.0184C100.661 86.7023 99.6179 87.2938 98.5943 87.9244L97.0089 88.7948C96.7414 88.9387 96.4738 89.0915 96.2099 89.2247L95.3931 89.6262L94.5745 90.0276C94.3017 90.1609 94.0306 90.2994 93.7488 90.4166L92.0707 91.1503C83.0468 94.9339 72.869 96.4794 63.1549 95.7155L62.2454 95.6534C61.9404 95.6391 61.6408 95.5894 61.3394 95.5592L59.5346 95.3496L59.0852 95.2963L58.6394 95.2235L57.7477 95.0778L56.856 94.9339C56.5617 94.8824 56.2639 94.8451 55.9643 94.7776L54.2148 94.4081C53.9241 94.3459 53.6334 94.2873 53.3445 94.2216L52.4849 93.9978L50.7747 93.5519C50.2111 93.3921 49.6547 93.2091 49.0965 93.0386C47.9765 92.7153 46.8958 92.296 45.8151 91.9088C45.2711 91.7312 44.7451 91.4878 44.2243 91.2729C43.7036 91.0579 43.1739 90.8412 42.6567 90.6138L41.1355 89.8944L40.3793 89.5391C40.1297 89.4183 39.8889 89.2816 39.6446 89.1537L38.1876 88.3774C37.9432 88.253 37.7096 88.1127 37.4742 87.9724L36.9998 87.6899L35.7283 86.9314C35.3306 86.6898 34.9757 86.4394 34.644 86.2209L33.7523 85.6329L33.3956 85.3949C33.2868 85.3203 33.1923 85.2474 33.1049 85.1853C32.4718 84.7216 31.8922 84.3273 31.3412 83.9773C30.7901 83.6274 30.2997 83.2792 29.786 82.979C29.5328 82.8274 29.2766 82.6806 29.0174 82.5385C28.7588 82.3946 28.5109 82.2365 28.2488 82.0873C27.7245 81.7853 27.1787 81.4833 26.5617 81.1547C26.9415 81.7231 27.3 82.2472 27.6603 82.7445C27.8386 82.9932 28.0169 83.2419 28.2095 83.4729C28.4021 83.7038 28.6019 83.9276 28.807 84.1514C29.2338 84.6238 29.6844 85.0744 30.157 85.5015C30.6706 85.9384 31.2413 86.3896 31.8958 86.8781C31.985 86.9439 32.0741 87.0202 32.1954 87.0984L32.5681 87.3489L33.4883 87.9617C33.8325 88.1873 34.2017 88.4467 34.6137 88.6989L35.9316 89.4876L36.4238 89.7807C36.6663 89.9264 36.9089 90.072 37.1621 90.2017L38.6709 91.0064C38.9259 91.1396 39.1756 91.2817 39.4341 91.4079L40.217 91.7773L41.7953 92.5252C42.3304 92.7597 42.8743 92.9782 43.4182 93.2073C43.9622 93.4365 44.5025 93.6745 45.0661 93.8663C46.1842 94.2678 47.3024 94.6994 48.4545 95.0352C49.0305 95.2128 49.6066 95.4011 50.1897 95.5681L51.9588 96.0299L52.8505 96.2609C53.1501 96.3284 53.4515 96.3888 53.7511 96.4527L55.5613 96.8346C55.8627 96.9057 56.1694 96.9448 56.4744 96.9963L57.3928 97.1473L58.3148 97.2965L58.7749 97.3729L59.2404 97.4279L61.104 97.6429C61.4161 97.6749 61.7264 97.7246 62.0403 97.7406L62.9801 97.8063C73.0277 98.5879 83.5407 96.9998 92.8875 93.0812L94.6262 92.3209C94.9169 92.2001 95.1987 92.0562 95.4823 91.9177L96.3294 91.502L97.1765 91.0863C97.4583 90.9478 97.7276 90.7879 98.004 90.6405L99.65 89.7363C100.72 89.0826 101.79 88.468 102.807 87.7574L103.577 87.2423L103.96 86.9847L104.331 86.7094L105.81 85.6169C106.06 85.4393 106.288 85.2368 106.523 85.0467L107.237 84.4712L107.95 83.8974C108.178 83.6984 108.401 83.4942 108.626 83.2952C109.073 82.8902 109.528 82.4959 109.965 82.0855L111.24 80.8296C112.887 79.1697 114.412 77.3934 115.802 75.5148L116.318 74.8291C116.485 74.5982 116.639 74.3584 116.799 74.1185L117.744 72.7134C118.033 72.2315 118.321 71.753 118.607 71.2782C118.748 71.0383 118.895 70.8039 119.03 70.5676C119.166 70.3314 119.289 70.0809 119.417 69.8375C119.672 69.3526 119.932 68.873 120.177 68.3898C120.421 67.9066 120.63 67.411 120.854 66.9243C120.963 66.6809 121.081 66.4429 121.184 66.1978C121.288 65.9526 121.381 65.7057 121.477 65.4606C121.671 64.9703 121.862 64.4836 122.053 64.0004C123.368 60.3427 124.182 56.5254 124.475 52.6512C124.712 49.4122 124.569 46.1565 124.048 42.9505C123.959 42.24 123.801 41.5543 123.663 40.8971C123.594 40.5678 123.527 40.2451 123.46 39.929C123.389 39.6128 123.296 39.309 123.217 39.0088C123.052 38.4102 122.909 37.8328 122.741 37.2893L122.228 35.751C122.144 35.5094 122.072 35.2696 121.983 35.0404L121.723 34.3849C121.555 33.9604 121.397 33.5643 121.25 33.1965C121.104 32.8288 120.94 32.4984 120.805 32.1911L120.421 31.3633L120.118 30.7096L119.874 30.2478L119.665 29.873L119.465 29.4982C119.331 29.253 119.146 28.8782 118.875 28.4057C118.604 27.9332 118.247 27.3612 117.839 26.6809C117.739 26.5032 117.625 26.3398 117.503 26.1639C117.382 25.9881 117.261 25.8087 117.134 25.615L116.321 24.4124C114.866 22.4132 113.277 20.5141 111.565 18.7281C109.304 16.4158 106.839 14.3096 104.201 12.4345L103.932 12.2337L103.652 12.0454L103.079 11.6582L101.931 10.889C101.542 10.6332 101.134 10.4005 100.729 10.1501L99.502 9.41465L98.2162 8.7041L97.5653 8.34883L97.2371 8.17119L96.9001 8.00599L95.5393 7.33986L94.8492 7.0059L94.1358 6.69682L92.7091 6.07154C92.4701 5.9614 92.2223 5.87258 91.9761 5.77666L91.2325 5.49067C90.7349 5.30415 90.2391 5.09809 89.7291 4.92223L88.1847 4.40531L87.4053 4.14419L86.61 3.90793L85.0049 3.44608C84.7374 3.36436 84.4699 3.30574 84.1899 3.23824L83.3678 3.03929L82.5403 2.84212L82.1247 2.74086C81.9856 2.71066 81.8448 2.6858 81.7056 2.65737L80.0132 2.32519C79.7297 2.27368 79.4479 2.20618 79.1608 2.16532L78.2905 2.04098L76.5606 1.7763L74.8004 1.58623L73.9087 1.49031C73.6127 1.45655 73.3148 1.44767 73.017 1.42458L71.2211 1.31089C70.9215 1.28602 70.6184 1.28247 70.317 1.27537L69.4092 1.2576L68.5051 1.24339C68.2001 1.23451 67.8969 1.22918 67.592 1.24339C66.3721 1.27892 65.1434 1.27181 63.9128 1.37484C63.2958 1.41925 62.6787 1.44945 62.0599 1.50274L60.2052 1.70524C59.8949 1.74077 59.5846 1.76742 59.2743 1.81005L58.3469 1.95216C57.7281 2.04986 57.1075 2.12979 56.4868 2.24171L54.6339 2.60764C54.3254 2.67158 54.0133 2.7231 53.7065 2.79771L52.7881 3.01975C50.3101 3.60178 47.871 4.33744 45.4852 5.22244L43.7018 5.91344C43.1097 6.15147 42.5283 6.4197 41.9416 6.67195L41.0624 7.05742L40.201 7.48019C39.6285 7.76618 39.0471 8.03441 38.4836 8.33462C36.2229 9.52972 34.0388 10.8634 31.9439 12.3279C29.8805 13.8044 27.9147 15.4118 26.0588 17.14C24.247 18.868 22.556 20.7174 20.9975 22.6752C19.4915 24.6118 18.1283 26.6546 16.9189 28.7876C15.7661 30.8782 14.7712 33.0513 13.9425 35.2891C13.5858 36.4047 13.1756 37.4971 12.9028 38.6162C12.8279 38.8951 12.753 39.1722 12.6798 39.4493L12.5675 39.8632L12.4837 40.2824C12.3648 40.8402 12.2459 41.395 12.127 41.9469C11.7261 44.1116 11.4977 46.3046 11.444 48.5052C11.4333 49.0381 11.4012 49.571 11.4154 50.1039C11.4297 50.6368 11.435 51.1484 11.4529 51.6618C11.4707 52.1752 11.4903 52.6814 11.5117 53.1859C11.5319 53.5696 11.551 53.9498 11.5688 54.3263C11.5973 54.8006 11.6223 55.2447 11.6455 55.6497C11.6954 56.458 11.7454 57.1081 11.7775 57.5433C11.8681 58.9015 12.0817 60.2487 12.4159 61.5686C12.4908 61.8617 12.5764 62.1494 12.6656 62.4354C12.7547 62.7214 12.8439 63.0092 12.9581 63.2987C13.0133 63.4426 13.0668 63.5865 13.1221 63.7339L13.3005 64.1763C13.4306 64.4711 13.5822 64.7731 13.732 65.0804Z" fill="#1B1B1B"/>
<path d="M26.5724 81.1548C23.8527 80.6752 22.0141 80.4443 18.8147 80.6432L15.5582 80.8617L4.05006 81.6558L5.13436 80.0162L7.76663 76.0283L10.3739 72.0599C12.127 69.3865 12.8172 67.6794 13.732 65.0806C11.7043 66.9457 10.4043 68.2638 8.63157 70.9248L6.01 74.8861L0.659851 83.0076L0.249674 83.6364L0.0570682 83.9277L0.0124837 83.997L0 84.0219C0 84.0219 0.0107003 84.0219 0.0160504 84.0219H0.0570682L0.219356 84.0112L1.35537 83.9331L2.87125 83.8283L3.76294 83.7661L15.7045 82.9561L18.9609 82.7269C22.1585 82.4818 23.949 82.0004 26.5724 81.1548Z" fill="#1B1B1B"/>
<path d="M38.1769 36.7529C38.3366 36.9687 38.4329 37.2246 38.4551 37.4918C38.4281 37.7332 38.3767 37.9713 38.3017 38.2024C38.2285 38.3879 38.1689 38.5785 38.1234 38.7726C38.0823 38.9502 38.0395 39.1172 37.9985 39.2806C37.4635 39.3428 36.9731 39.405 36.5308 39.4583C36.1058 39.5124 35.7044 39.6834 35.3716 39.9521C34.8645 42.2463 34.8749 44.624 35.4019 46.9137C36.6396 46.8509 37.7423 46.7994 38.7101 46.7591C39.6779 46.7189 40.5957 46.6981 41.4636 46.697C42.492 46.697 43.4093 46.7277 44.2154 46.7893C44.2154 46.4601 44.1999 46.0083 44.169 45.434C44.1162 44.7079 44.0077 43.987 43.8444 43.2775C43.7022 42.6634 43.5985 42.041 43.5341 41.4141C43.4937 40.9333 43.4527 40.4252 43.4111 39.8899C43.2452 39.8278 43.0401 39.762 42.7923 39.6892C42.5305 39.6162 42.2597 39.5804 41.9879 39.5826C41.7953 39.5786 41.6038 39.5524 41.4173 39.5045C41.3359 39.4952 41.2571 39.4701 41.1855 39.4304C41.1139 39.3908 41.0508 39.3375 41 39.2735V37.8524C41.0392 37.2769 41.142 36.9068 41.3085 36.7422C41.658 36.7849 42.0854 36.821 42.5907 36.8506C43.0972 36.8808 43.6608 36.8968 44.3081 36.8968C44.6987 36.8968 45.1017 36.8968 45.5137 36.8808C45.9257 36.8648 46.3697 36.8559 46.8441 36.8346C47.1526 36.8151 47.4522 36.8044 47.7358 36.8044H48.6007C49.2606 36.8044 49.8687 36.8198 50.4251 36.8506C50.9149 36.8716 51.4015 36.9388 51.8786 37.0513C51.8376 37.5025 51.8126 37.904 51.8019 38.2521C51.789 38.549 51.8045 38.8464 51.8483 39.1403C51.6004 39.1599 51.1634 39.206 50.5339 39.2789C49.9044 39.3517 49.0127 39.4689 47.8588 39.6341C47.4059 41.4212 47.1794 43.7932 47.1794 46.7502C47.1772 50.0209 47.4252 53.2871 47.9213 56.5202C49.1305 56.5103 50.323 56.2368 51.4149 55.7191C51.5087 55.8464 51.57 55.9945 51.5932 56.1507C51.6137 56.283 51.6245 56.4166 51.6253 56.5504C51.6253 56.6535 51.62 56.8903 51.6093 57.261C51.5986 57.6305 51.5932 57.9911 51.5932 58.3392C50.9401 58.5053 50.2724 58.6082 49.5994 58.6465C48.7838 58.7093 47.8327 58.7507 46.746 58.7709H43.8391C42.888 58.7709 41.9083 58.7602 40.9001 58.7389C40.8782 58.4198 40.7997 58.107 40.6682 57.8152C40.5272 57.4953 40.459 57.1483 40.4685 56.7991L42.3856 56.6765C42.6677 56.6487 42.947 56.597 43.2203 56.522C43.5572 56.4303 43.8878 56.317 44.21 56.1827C44.1482 55.8132 44.1173 54.7557 44.1173 53.0101C44.1577 51.5891 44.0032 50.4907 43.6536 49.715C42.4778 49.4059 40.635 49.2519 38.1251 49.2531C37.5257 49.2402 36.9261 49.2705 36.3311 49.3437C35.9974 49.398 35.667 49.4703 35.3413 49.5604C35.3413 49.9157 35.3252 50.2834 35.2949 50.6849C35.2646 51.0863 35.2075 51.5216 35.1166 51.9941C35.0738 52.4453 35.0345 52.8307 34.9917 53.1487C34.9572 53.3889 34.9369 53.6309 34.9311 53.8734C34.93 54.4627 35.0344 55.0474 35.2396 55.6001C35.9411 55.9897 36.9309 56.2265 38.209 56.3106C38.2348 56.432 38.245 56.5562 38.2393 56.6801C38.2282 57.0523 38.187 57.423 38.1162 57.7886C38.0128 58.2806 37.9825 58.5897 38.0235 58.7123C37.5479 58.7312 36.0945 58.7004 33.6631 58.6199C32.2186 58.5796 31.0433 58.5435 30.1374 58.5115C29.2314 58.4796 28.5817 58.4642 28.1881 58.4653C27.8377 58.4553 27.4869 58.4659 27.1377 58.4973C26.8803 58.1964 26.7381 57.8144 26.7365 57.4191C26.7599 56.9755 26.8538 56.5384 27.0147 56.1241C27.8386 56.1454 29.0549 56.1146 30.6635 56.0317C30.6635 55.9713 30.7229 53.9486 30.8418 49.9637C30.8834 48.179 30.9143 46.6443 30.9345 45.3594C30.9548 44.0745 30.9649 43.0223 30.9649 42.2028C30.9649 41.69 30.9595 41.2583 30.9488 40.9078C30.9381 40.5525 30.9238 40.2825 30.9042 40.0765C29.1708 39.8514 27.9747 39.6667 27.3161 39.5222L27.1912 38.0745C27.1598 37.6548 27.2238 37.2334 27.3785 36.8417C27.9545 36.9252 28.527 36.9803 29.0941 37.0193C29.6612 37.0584 30.2123 37.0655 30.7491 37.0655C31.51 37.0655 32.7161 37.0063 34.3676 36.8879C35.1297 36.8476 35.8252 36.8115 36.4541 36.7795C37.0943 36.7387 37.6615 36.7333 38.1769 36.7529Z" fill="#3C3C3B"/>
<path d="M54.8461 50.0934C54.6383 50.5271 54.5223 50.9987 54.5055 51.479C54.5055 52.6703 55.0316 53.6663 56.0838 54.4668C57.0056 55.197 58.1519 55.5885 59.3295 55.5753C60.1702 55.6028 60.9965 55.353 61.68 54.8647C61.8755 54.7131 62.0474 54.5335 62.1901 54.3318C62.3755 54.0645 62.5361 53.7809 62.6698 53.4845C62.7995 53.4431 62.9349 53.4227 63.0711 53.4241C63.4254 53.41 63.7784 53.4744 64.1046 53.6127C64.4309 53.7509 64.7223 53.9595 64.9579 54.2235C64.6904 55.2514 64.3296 56.0117 63.8754 56.5043C63.4437 56.9587 62.9559 57.3568 62.4237 57.6891C61.8869 58.0153 61.2849 58.2202 60.66 58.2895C60.2676 58.3322 59.9288 58.3624 59.6399 58.3819C59.351 58.4015 59.1048 58.4139 58.898 58.4139C57.9372 58.4022 56.9894 58.1923 56.1141 57.7975C55.3294 57.2634 54.6957 56.8217 54.213 56.4723C53.7279 56.1171 53.3927 55.8666 53.2072 55.7032C52.4028 55.0141 51.8038 54.1182 51.4755 53.1132C51.1726 52.1458 51.0163 51.1388 51.0119 50.1254C51.0119 47.8872 51.7746 46.0593 53.2999 44.6418C54.7421 43.287 56.5564 42.6096 58.7428 42.6096C59.0217 42.6094 59.3003 42.6248 59.5774 42.6558C59.8449 42.686 60.1232 42.7233 60.4121 42.7642C61.6699 42.9679 62.8452 43.666 63.9378 44.8585C65.072 46.1114 65.6391 47.4461 65.6391 48.8624C65.6416 49.2041 65.6051 49.545 65.5304 49.8785C65.4496 50.2099 65.3298 50.5307 65.1737 50.8342L54.8461 50.0934ZM55.3722 48.5213C55.7617 48.467 56.1542 48.4361 56.5475 48.429C57.1039 48.4088 57.8357 48.3887 58.7428 48.3686C60.3086 48.3473 61.5148 48.2342 62.3613 48.0293C62.4433 47.0819 62.1752 46.3423 61.557 45.8106C61.0006 45.3807 60.2581 45.1652 59.3295 45.164C58.3614 45.153 57.4091 45.4088 56.5778 45.903C55.7158 46.4572 55.2848 47.1139 55.2848 47.873C55.2816 48.0916 55.3111 48.3095 55.3722 48.5196V48.5213Z" fill="#3C3C3B"/>
<path d="M72.9065 37.3996C72.6806 41.1584 72.5106 44.1314 72.3964 46.3187C72.2823 48.506 72.2228 49.9271 72.2181 50.5819C72.2181 51.5293 72.2335 52.3921 72.2645 53.1701C72.2966 53.9499 72.3518 54.6782 72.4428 55.3568C72.7299 55.4598 73.1169 55.5717 73.602 55.6961C74.0871 55.8204 74.6274 55.9412 75.2249 56.0656C75.3815 56.4162 75.4756 56.7913 75.5031 57.174C75.4924 57.5758 75.4091 57.9724 75.257 58.3446C75.1321 58.366 75.0037 58.3802 74.87 58.3908C74.7362 58.4015 74.5864 58.4068 74.4206 58.4068C74.1941 58.4068 73.8748 58.3908 73.4629 58.3606C73.0509 58.3304 72.5444 58.2736 71.947 58.183C71.3906 58.1226 70.896 58.0817 70.4632 58.0604C70.0926 58.0407 69.7211 58.0407 69.3504 58.0604C69.206 58.0817 69.0151 58.1173 68.7779 58.1688C68.5408 58.2203 68.2572 58.2967 67.9273 58.3997C67.6075 58.5088 67.2747 58.5756 66.9375 58.5987C66.5665 58.6306 66.3187 58.6448 66.1956 58.6448C65.9263 58.6448 65.7729 58.6093 65.7319 58.5383C65.6743 58.3436 65.6532 58.1401 65.6695 57.9379C65.6701 57.7627 65.6808 57.5877 65.7016 57.4138C65.7016 57.2486 65.7016 57.0586 65.7159 56.8596C65.7301 56.6607 65.7319 56.4386 65.7319 56.213C66.0321 56.2224 66.3321 56.1908 66.6236 56.1189C66.8244 56.0586 67.0328 56.0274 67.2424 56.0265C67.4919 56.0168 67.7401 55.9859 67.9843 55.9341C68.3143 55.8737 68.6335 55.8009 68.942 55.7192C69.0871 54.1797 69.1905 52.7266 69.2523 51.36C69.3141 49.9934 69.3451 48.7564 69.3451 47.6492C69.3459 44.9933 69.1904 42.3396 68.8796 39.7017C68.42 39.6059 67.9557 39.5342 67.4886 39.4868C66.8941 39.424 66.5232 39.2594 66.3757 38.993C66.4053 38.5278 66.4649 38.065 66.5541 37.6074C66.7181 37.1337 66.9654 36.8377 67.296 36.7192C67.6039 36.8637 68.511 36.9354 70.0174 36.9342C70.6142 36.9433 71.2098 36.9896 71.8008 37.0727C72.1834 37.1271 72.556 37.2373 72.9065 37.3996Z" fill="#3C3C3B"/>
<path d="M83.5746 37.3996C83.3488 41.1584 83.1787 44.1314 83.0646 46.3187C82.9505 48.506 82.891 49.9271 82.8863 50.5819C82.8863 51.5293 82.9023 52.3921 82.9344 53.1701C82.9665 53.9482 83.023 54.677 83.1038 55.3568C83.3927 55.4598 83.7779 55.5717 84.263 55.6961C84.7481 55.8204 85.2885 55.9412 85.8877 56.0656C86.0443 56.4162 86.1385 56.7913 86.1659 57.174C86.1546 57.5759 86.0706 57.9724 85.918 58.3446C85.795 58.366 85.6648 58.3802 85.531 58.3908C85.3973 58.4015 85.2475 58.4068 85.0834 58.4068C84.8551 58.4068 84.5359 58.3908 84.1239 58.3606C83.712 58.3304 83.2073 58.2736 82.608 58.183C82.0516 58.1226 81.557 58.0817 81.1243 58.0604C80.7536 58.0407 80.3821 58.0407 80.0114 58.0604C79.867 58.0817 79.6762 58.1173 79.439 58.1688C79.2018 58.2203 78.9182 58.2967 78.5883 58.3997C78.2685 58.5088 77.9358 58.5756 77.5985 58.5987C77.2276 58.6306 76.9797 58.6448 76.8566 58.6448C76.5891 58.6448 76.434 58.6093 76.393 58.5383C76.3353 58.3436 76.3142 58.1401 76.3305 57.9379C76.3312 57.7627 76.3419 57.5877 76.3626 57.4138C76.3626 57.2486 76.3626 57.0586 76.3769 56.8596C76.3912 56.6607 76.393 56.4386 76.393 56.213C76.6931 56.2226 76.9932 56.1909 77.2846 56.1189C77.4854 56.0586 77.6938 56.0274 77.9035 56.0265C78.153 56.0168 78.4012 55.9859 78.6454 55.9341C78.9753 55.8737 79.2945 55.8009 79.603 55.7192C79.7469 54.1797 79.8503 52.7266 79.9134 51.36C79.9764 49.9934 80.0073 48.7564 80.0061 47.6492C80.0066 44.9933 79.8518 42.3397 79.5424 39.7017C79.0822 39.6062 78.6173 39.5344 78.1496 39.4868C77.5551 39.424 77.1842 39.2594 77.0368 38.993C77.0663 38.5278 77.1259 38.065 77.2151 37.6074C77.381 37.1349 77.6271 36.8365 77.957 36.7192C78.2673 36.8637 79.1744 36.9354 80.6784 36.9342C81.2752 36.9431 81.8709 36.9894 82.4618 37.0727C82.8469 37.1265 83.2219 37.2366 83.5746 37.3996Z" fill="#3C3C3B"/>
<path d="M100.151 44.8549C100.83 45.633 101.299 46.5709 101.512 47.5798C101.719 48.5888 101.822 49.616 101.82 50.6458C101.82 52.8437 101.202 54.7125 99.9657 56.252C98.3761 57.8306 96.3449 58.6199 93.8719 58.6199C93.583 58.6199 93.2852 58.6092 92.9802 58.5897C92.6753 58.5701 92.3721 58.5382 92.0885 58.4973C90.3135 58.2309 88.7982 57.3273 87.5427 55.7866C87.0707 55.0101 86.7066 54.1735 86.4602 53.2997C86.2064 52.3816 86.0816 51.4328 86.0892 50.4806C86.0855 49.4943 86.2527 48.5148 86.5832 47.5851C87.0196 46.1023 87.9742 44.8239 89.2743 43.9809C90.6761 43.1602 92.3049 42.7499 94.1608 42.7499C95.2932 42.7448 96.4212 42.8893 97.5154 43.1798C98.5462 43.4544 99.4667 44.0394 100.151 44.8549ZM96.069 45.1622C95.7759 44.9971 95.457 44.8825 95.1256 44.8229C94.8145 44.7647 94.4988 44.7338 94.1822 44.7305C92.6961 44.7305 91.5725 45.6957 90.8116 47.626C90.4437 48.5391 90.1892 49.4936 90.0537 50.4682C89.9206 51.3942 89.9813 52.3377 90.232 53.2393C90.5209 54.2056 90.99 54.8889 91.6391 55.2892C92.325 55.6989 93.1133 55.9071 93.9129 55.8896C94.2625 55.8896 94.6435 55.8689 95.0561 55.8274C95.5395 55.7579 95.9973 55.5672 96.3865 55.2732C96.9502 54.8652 97.3587 54.2792 97.5457 53.6105C97.7931 52.8019 97.9135 51.96 97.9023 51.1148C97.9005 50.5165 97.854 49.9192 97.7632 49.3277C97.676 48.7404 97.5521 48.159 97.3923 47.5869C97.254 47.0859 97.0621 46.6011 96.8198 46.141C96.6329 45.771 96.3783 45.439 96.069 45.1622Z" fill="#3C3C3B"/>
<path d="M105.253 55.4813C105.582 54.8655 106.065 54.5576 106.705 54.5576C106.934 54.5619 107.159 54.6089 107.37 54.6961C107.643 54.8055 107.907 54.9343 108.16 55.0816C108.433 55.4644 108.661 55.8768 108.84 56.3108C109.001 56.7014 109.086 57.1194 109.088 57.5419C109.093 57.7844 109.029 58.0235 108.903 58.231C108.776 58.4384 108.593 58.6055 108.374 58.7125C108.178 58.8303 107.971 58.9284 107.756 59.0056C107.559 59.0871 107.349 59.134 107.137 59.1441C106.797 59.1459 106.461 59.0776 106.149 58.9434C105.851 58.8185 105.579 58.641 105.344 58.4194C105.118 58.2115 104.936 57.9601 104.809 57.6804C104.688 57.4039 104.627 57.1047 104.631 56.8029C104.637 56.5531 104.706 56.3088 104.831 56.0923C104.949 55.8738 105.09 55.6689 105.253 55.4813ZM107.393 36.0142C107.603 36.0183 107.811 36.0493 108.012 36.1065C108.239 36.1691 108.45 36.2794 108.631 36.4298C108.825 36.5964 108.983 36.8007 109.095 37.0302C109.225 37.321 109.286 37.6377 109.273 37.9557C109.251 38.6718 109.191 39.3863 109.095 40.0962C108.983 41.072 108.839 42.2065 108.663 43.4997C108.487 44.7929 108.309 46.1838 108.128 47.6724C107.943 49.1622 107.778 50.6561 107.634 52.1542H105.717C105.161 46.1595 104.882 41.8886 104.882 39.3413C104.882 38.9309 104.882 38.5917 104.897 38.3252C104.899 38.1396 104.915 37.9544 104.943 37.771C105.02 37.4749 105.145 37.1934 105.314 36.9379C105.479 36.672 105.701 36.4462 105.965 36.2771C106.233 36.1012 106.705 36.0142 107.386 36.0142H107.393Z" fill="#3C3C3B"/>
</g>
<defs>
<clipPath id="clip0">
<rect width="127" height="98" fill="white"/>
</clipPath>
</defs>
</svg>
