<svg xmlns="http://www.w3.org/2000/svg" width="197.515" height="140" data-name="Speech Graphic"><defs><clipPath id="a"><path fill="none" d="M0 0h197.515v140H0z" data-name="Rectangle 1455"/></clipPath></defs><g clip-path="url(#a)" data-name="Group 101909"><path fill="#525251" d="M185.591 53.1a16.769 16.769 0 0 0 1.238-3.358 21.564 21.564 0 0 0 .586-3.848l.113-1.81.06-1.266.037-.966.027-1.291a50.336 50.336 0 0 0-.09-2.668 35.475 35.475 0 0 0-.844-5.489 35.95 35.95 0 0 0-4.612-10.829 41.389 41.389 0 0 0-8.168-9.358A51.7 51.7 0 0 0 151.127 1.23a59 59 0 0 0-24.2.049 52.714 52.714 0 0 0-18.876 8.073 45.929 45.929 0 0 0-6.244 5.194 45.189 45.189 0 0 0-4.064 4.71c-.5.7-.935 1.332-1.308 1.883l-.889 1.437a28.097 28.097 0 0 0-.683 1.223l-.171.314c-.114.206-.285.512-.475.93s-.449.921-.718 1.531c-.243.622-.566 1.321-.846 2.137a34.167 34.167 0 0 0-1.942 14.212 35.025 35.025 0 0 0 2.124 9.532 37.726 37.726 0 0 0 5.409 9.587 46.7 46.7 0 0 0 19.411 14.445 57.988 57.988 0 0 0 37.186 1.986 53.766 53.766 0 0 0 5.632-1.948c.912-.352 1.789-.765 2.66-1.169.439-.193.865-.409 1.284-.632l1.06-.55c.908-.481 1.7-.977 2.384-1.364l1.543-1a17.464 17.464 0 0 0 5.21-5.34 60.371 60.371 0 0 0-6.309 3.688l-1.484.951c-.656.369-1.419.844-2.292 1.305l-1.019.528c-.4.215-.811.422-1.235.608-.837.387-1.679.786-2.558 1.123a51.746 51.746 0 0 1-5.423 1.876 56 56 0 0 1-35.881-1.911 44.721 44.721 0 0 1-18.591-13.814 35.721 35.721 0 0 1-5.122-9.073 32.978 32.978 0 0 1-2-8.978 32.168 32.168 0 0 1 1.826-13.385c.263-.771.57-1.43.8-2.018.255-.577.5-1.055.679-1.448s.341-.685.449-.88l.161-.3s.209-.41.647-1.158l.842-1.363 1.242-1.787a43.246 43.246 0 0 1 3.871-4.484 43.951 43.951 0 0 1 5.975-4.966 50.746 50.746 0 0 1 18.161-7.759 57.04 57.04 0 0 1 23.367-.044 49.728 49.728 0 0 1 21.92 10.559 39.412 39.412 0 0 1 7.777 8.908 33.953 33.953 0 0 1 4.357 10.226 33.373 33.373 0 0 1 .8 5.165c.056.848.072 1.686.086 2.512l-.027 1.243-.034.945-.057 1.245c-.044.761-.078 1.375-.1 1.784a35.072 35.072 0 0 0-.055 3.827c.042 1.134.177 2.2.211 3.51" data-name="Path 290766"/><path fill="#525251" d="M174.615 66.471a25.812 25.812 0 0 0 6.962 1.41l2.975.2 9.151.592.931.061 1.464.1 1.07.07.307.02h.04a.274.274 0 0 0-.02-.031l-.045-.066-.092-.136-.393-.577-4.17-6.132-2.454-3.592a25.785 25.785 0 0 0-4.75-5.282 25.836 25.836 0 0 0 3.174 6.355l2.443 3.6 1.891 2.782.462.678.168.246-9.061-.6-2.976-.189a25.807 25.807 0 0 0-7.086.493" data-name="Path 290767"/><path fill="#fdc400" d="M142.863 79.597c-.119-5.575-1.938-14.238-4.972-19.182a71.961 71.961 0 0 0-6.2-8.87c-2.368-2.811-7.2-7.846-10.411-9.825-11.388-7.022-22.288-11.385-35.588-12.274a61.136 61.136 0 0 0-21.131 1.915c-7.944 2.28-14.47 6.465-20.458 11.248a83.042 83.042 0 0 0-21.208 25c-4.88 9.07-7.613 19.754-5.268 29.787q.342 1.465.778 2.888L6.641 120.14l21.832-3.073a50.8 50.8 0 0 0 9.193 7.32 69.755 69.755 0 0 0 36.292 10.218 79.857 79.857 0 0 0 18.175-2.239 64.278 64.278 0 0 0 13.248-2.915 67.852 67.852 0 0 0 17.21-7.948 51.23 51.23 0 0 0 14.1-13.777c6.3-9.107 6.408-16.767 6.166-28.128" data-name="Path 290768"/><path fill="#525251" d="M15.422 102.81c.045-1.527.192-2.776.235-4.1a41.07 41.07 0 0 0-.091-4.466l-.134-2.083-.083-1.454-.133-2.969c-.038-1.142-.075-2.281-.02-3.432a45.653 45.653 0 0 1 .7-7.059 49.4 49.4 0 0 1 1.923-7.169 50.259 50.259 0 0 1 3.18-7.012 53.108 53.108 0 0 1 4.377-6.623 57.766 57.766 0 0 1 5.454-6.016 63.662 63.662 0 0 1 29.022-15.453 72.073 72.073 0 0 1 31.558-.418 65.714 65.714 0 0 1 24.489 10.646 55.634 55.634 0 0 1 13.116 13.016c.613.922 1.182 1.729 1.635 2.456l1.117 1.862.849 1.586.215.406c.149.264.347.667.587 1.2a45.7 45.7 0 0 1 4.325 22.916 46.522 46.522 0 0 1-2.612 12.21 49.327 49.327 0 0 1-6.747 12.419 59.371 59.371 0 0 1-24.873 19.065 70.746 70.746 0 0 1-32.61 5.1 68.926 68.926 0 0 1-15.828-3.07c-1.265-.364-2.475-.856-3.7-1.287a91.467 91.467 0 0 1-3.553-1.481c-1.141-.562-2.306-1.051-3.393-1.666l-1.642-.879c-.274-.142-.531-.312-.8-.466l-.534-.32-1.412-.844-1.2-.8c-.729-.492-1.332-.866-1.7-1.158-.7-.516-1.346-.956-1.958-1.345-.6-.408-1.154-.78-1.722-1.116-1.152-.653-2.211-1.316-3.577-2.035a25.5 25.5 0 0 0 2.49 3.339c.457.5.938 1 1.494 1.507.57.487 1.2.99 1.928 1.534.384.306 1.007.7 1.763 1.211l1.243.829 1.463.877.554.332c.275.16.543.335.826.484l1.7.911c1.126.636 2.332 1.145 3.515 1.726a96.377 96.377 0 0 0 3.678 1.534c1.263.447 2.517.955 3.825 1.332a71.164 71.164 0 0 0 16.356 3.173 73.057 73.057 0 0 0 33.689-5.278 61.686 61.686 0 0 0 25.84-19.828 51.636 51.636 0 0 0 7.063-13.011 48.834 48.834 0 0 0 2.743-12.834 48.014 48.014 0 0 0-4.547-24.078c-.252-.563-.46-.986-.616-1.262l-.224-.425-.889-1.662-1.168-1.95c-.474-.76-1.067-1.6-1.709-2.567a57.952 57.952 0 0 0-13.653-13.555 68.035 68.035 0 0 0-25.353-11.028 74.379 74.379 0 0 0-32.587.427 65.98 65.98 0 0 0-30.083 16.028 60.105 60.105 0 0 0-5.688 6.273 55.408 55.408 0 0 0-4.577 6.927 52.645 52.645 0 0 0-3.331 7.363 51.689 51.689 0 0 0-2.02 7.535 47.981 47.981 0 0 0-.741 7.423c-.056 1.214-.017 2.41.021 3.565l.136 3.013.087 1.473.147 2.109a25.13 25.13 0 0 0 .712 4.483 20.385 20.385 0 0 0 1.454 3.912" data-name="Path 290769"/><path fill="#525251" d="M29.882 120.981a31.352 31.352 0 0 0-8.606-.569l-3.612.242-13.164.908 1.284-1.95 3.023-4.6 2.893-4.42a31.308 31.308 0 0 0 3.723-7.78 31.347 31.347 0 0 0-5.658 6.509l-2.906 4.412-6.1 9.306-.466.711-.215.327-.052.08a.229.229 0 0 0-.023.037h.046l.182-.013 1.276-.088 1.7-.117 1-.069 13.618-.93 3.612-.255a31.361 31.361 0 0 0 8.447-1.741" data-name="Path 290770"/><path fill="#3c3c3b" d="M41.953 70.583a1.637 1.637 0 0 1 .313.835 4.145 4.145 0 0 1-.174.8 4.62 4.62 0 0 0-.209.644c-.046.2-.093.389-.138.574q-.906.1-1.655.208a2.6 2.6 0 0 0-1.3.558 17.988 17.988 0 0 0 .034 7.867q2.089-.1 3.725-.174t3.1-.069q1.74 0 3.1.1 0-.557-.053-1.532a16.063 16.063 0 0 0-.366-2.436 17.2 17.2 0 0 1-.355-2.104q-.07-.817-.139-1.723a9.394 9.394 0 0 0-.7-.226 3.226 3.226 0 0 0-.905-.122 2.811 2.811 0 0 1-.644-.087.716.716 0 0 1-.47-.261v-1.6a2.112 2.112 0 0 1 .348-1.254q.592.07 1.445.122t1.932.052q.661 0 1.358-.017t1.5-.052q.521-.035 1.009-.035h.974q1.114 0 2.054.052a8.84 8.84 0 0 1 1.636.227q-.069.766-.087 1.358a5.167 5.167 0 0 0 .053 1.009q-.419.035-1.48.157t-3.011.4a33.961 33.961 0 0 0-.766 8.041 72.94 72.94 0 0 0 .835 11.035 9.315 9.315 0 0 0 3.934-.905 1.122 1.122 0 0 1 .208.488 3.237 3.237 0 0 1 .035.453c0 .116-.006.383-.018.8s-.017.823-.017 1.218a11.875 11.875 0 0 1-2.246.348q-1.376.1-3.22.139h-3.269q-1.6 0-3.307-.035a3.067 3.067 0 0 0-.261-1.044 2.676 2.676 0 0 1-.232-1.147l2.159-.139a5.4 5.4 0 0 0 .939-.174 9.029 9.029 0 0 0 1.114-.383 33.369 33.369 0 0 1-.1-3.586 8.765 8.765 0 0 0-.523-3.725 26.834 26.834 0 0 0-6.232-.522 13.8 13.8 0 0 0-2.019.1 10.366 10.366 0 0 0-1.114.244q0 .592-.053 1.27t-.191 1.48q-.07.766-.14 1.305a7 7 0 0 0-.069.819 5.577 5.577 0 0 0 .348 1.949 8 8 0 0 0 3.342.8 1.547 1.547 0 0 1 .036.418 7.875 7.875 0 0 1-.14 1.253 2.8 2.8 0 0 0-.1 1.044q-.8.035-4.909-.1-2.436-.069-3.969-.122t-2.193-.053a10.339 10.339 0 0 0-1.183.035 1.887 1.887 0 0 1-.453-1.219 4.746 4.746 0 0 1 .313-1.462q1.392.036 4.109-.1 0-.1.208-6.858.069-3.028.1-5.2t.034-3.568q0-.87-.018-1.462t-.052-.939q-2.924-.383-4.039-.627l-.139-1.636a3.138 3.138 0 0 1 .209-1.392q.975.14 1.932.191t1.862.053q1.287 0 4.073-.209 1.287-.069 2.35-.122t1.932-.017" data-name="Path 290771"/><path fill="#3c3c3b" d="M60.716 85.656a3.96 3.96 0 0 0-.383 1.566 4.105 4.105 0 0 0 1.775 3.377 5.771 5.771 0 0 0 3.656 1.254 4.319 4.319 0 0 0 2.646-.8 2.913 2.913 0 0 0 .574-.609 6.2 6.2 0 0 0 .539-.957 1.44 1.44 0 0 1 .453-.07 2.7 2.7 0 0 1 2.123.905 6.059 6.059 0 0 1-1.218 2.576 8.408 8.408 0 0 1-1.636 1.341 4.861 4.861 0 0 1-1.984.679q-.662.07-1.149.1c-.325.024-.6.035-.835.035a7.806 7.806 0 0 1-3.133-.7q-1.323-.9-2.141-1.5t-1.132-.87a6.511 6.511 0 0 1-1.95-2.925 11.5 11.5 0 0 1-.522-3.376 8.087 8.087 0 0 1 2.576-6.2 8.576 8.576 0 0 1 6.127-2.3 8.174 8.174 0 0 1 .94.052q.451.053.939.122a6.936 6.936 0 0 1 3.969 2.367 6.672 6.672 0 0 1 1.915 4.525 5.1 5.1 0 0 1-.122 1.149 4.884 4.884 0 0 1-.4 1.079Zm.593-1.775a10.878 10.878 0 0 1 1.323-.105q.939-.033 2.471-.069a19.273 19.273 0 0 0 4.073-.383 2.793 2.793 0 0 0-.905-2.506 3.97 3.97 0 0 0-2.506-.731 5.91 5.91 0 0 0-3.1.835 2.669 2.669 0 0 0-1.46 2.227 2.514 2.514 0 0 0 .1.731" data-name="Path 290772"/><path fill="#3c3c3b" d="M81.046 71.313q-.383 6.37-.574 10.078t-.192 4.822q0 1.6.052 2.924t.192 2.471q.487.174 1.305.383t1.828.418a2.951 2.951 0 0 1 .034 2.576c-.139.023-.285.041-.435.052s-.319.018-.505.018q-.383 0-1.079-.052t-1.705-.192q-.94-.105-1.671-.139a11.283 11.283 0 0 0-1.254 0c-.162.023-.377.064-.644.122s-.586.146-.958.261a4.364 4.364 0 0 1-1.114.227c-.418.034-.7.052-.836.052q-.452 0-.522-.123a1.874 1.874 0 0 1-.069-.679 5.224 5.224 0 0 1 .035-.592q0-.278.017-.627t.017-.731a3.749 3.749 0 0 0 1.01-.1 2.394 2.394 0 0 1 .7-.1 4.966 4.966 0 0 0 .835-.105c.371-.069.731-.15 1.079-.243q.243-2.611.348-4.925t.1-4.2a77.05 77.05 0 0 0-.522-8.981 15.053 15.053 0 0 0-1.566-.243q-1.011-.1-1.254-.557a12.1 12.1 0 0 1 .209-1.567 1.51 1.51 0 0 1 .835-1.009 10.51 10.51 0 0 0 3.063.244 15.744 15.744 0 0 1 2 .156 4.373 4.373 0 0 1 1.236.366" data-name="Path 290773"/><path fill="#3c3c3b" d="M93.055 71.313q-.383 6.37-.574 10.078t-.192 4.822q0 1.6.053 2.924t.192 2.471q.487.174 1.305.383t1.828.418a2.951 2.951 0 0 1 .034 2.576c-.139.023-.285.041-.435.052s-.319.018-.505.018q-.383 0-1.079-.052t-1.705-.192q-.94-.105-1.671-.139a11.283 11.283 0 0 0-1.254 0c-.162.023-.377.064-.644.122s-.586.146-.958.261a4.364 4.364 0 0 1-1.114.227c-.418.034-.7.052-.836.052q-.452 0-.522-.123a1.874 1.874 0 0 1-.069-.679 5.229 5.229 0 0 1 .035-.592c0-.185.006-.395.018-.627s.016-.475.016-.731a3.749 3.749 0 0 0 1.01-.1 2.394 2.394 0 0 1 .7-.1 4.965 4.965 0 0 0 .835-.105q.557-.1 1.079-.243.243-2.611.348-4.925t.1-4.2a77.052 77.052 0 0 0-.522-8.981 15.011 15.011 0 0 0-1.566-.243q-1.011-.1-1.254-.557a12.1 12.1 0 0 1 .209-1.567 1.51 1.51 0 0 1 .835-1.009 10.514 10.514 0 0 0 3.063.244 15.744 15.744 0 0 1 2 .156 4.365 4.365 0 0 1 1.236.366" data-name="Path 290774"/><path fill="#3c3c3b" d="M111.715 79.739a6.84 6.84 0 0 1 1.532 3.079 17.161 17.161 0 0 1 .348 3.464 9.821 9.821 0 0 1-2.089 6.336 9.285 9.285 0 0 1-6.858 2.681q-.487 0-1.009-.035t-1.01-.1a8.013 8.013 0 0 1-5.117-3.064 11.287 11.287 0 0 1-1.219-2.8 11.676 11.676 0 0 1-.417-3.195 9.687 9.687 0 0 1 .558-3.272 7.307 7.307 0 0 1 3.028-4.074 10.653 10.653 0 0 1 5.5-1.392 14.354 14.354 0 0 1 3.777.487 5.823 5.823 0 0 1 2.976 1.881m-4.595.347a3.324 3.324 0 0 0-1.062-.383 5.936 5.936 0 0 0-1.062-.105q-2.507 0-3.794 3.272a13.6 13.6 0 0 0-.853 3.2 7.626 7.626 0 0 0 .191 3.133 3.877 3.877 0 0 0 1.585 2.315 4.759 4.759 0 0 0 2.558.679 12.833 12.833 0 0 0 1.288-.069 3.237 3.237 0 0 0 1.5-.626 3.483 3.483 0 0 0 1.305-1.88 9.233 9.233 0 0 0 .4-2.82 13.636 13.636 0 0 0-.156-2.019 15.831 15.831 0 0 0-.418-1.967 8.122 8.122 0 0 0-.644-1.635 3.742 3.742 0 0 0-.835-1.1" data-name="Path 290775"/><path fill="#3c3c3b" d="M117.458 91.748a1.766 1.766 0 0 1 1.636-1.044 2.071 2.071 0 0 1 .749.157 6.916 6.916 0 0 1 .888.435 7.027 7.027 0 0 1 .767 1.393 3.746 3.746 0 0 1 .278 1.392 1.438 1.438 0 0 1-.8 1.323 3.914 3.914 0 0 1-.7.331 2.075 2.075 0 0 1-.7.157 2.778 2.778 0 0 1-1.114-.226 3.063 3.063 0 0 1-.905-.593 2.621 2.621 0 0 1-.592-.835 2.414 2.414 0 0 1-.208-.992 1.678 1.678 0 0 1 .227-.8 3.758 3.758 0 0 1 .469-.7m2.4-22a2.691 2.691 0 0 1 .7.1 1.822 1.822 0 0 1 .7.366 2.087 2.087 0 0 1 .523.679 2.337 2.337 0 0 1 .209 1.044 23.889 23.889 0 0 1-.192 2.419q-.191 1.655-.488 3.847t-.609 4.717q-.314 2.525-.558 5.065h-2.157q-.94-10.165-.94-14.482 0-.7.018-1.149a4.364 4.364 0 0 1 .052-.626 3.09 3.09 0 0 1 .418-.94 2.361 2.361 0 0 1 .731-.749 3.112 3.112 0 0 1 1.6-.3" data-name="Path 290776"/></g></svg>