<svg xmlns="http://www.w3.org/2000/svg" fill="currentColor" viewBox="0 0 24 24">
    <path d="M6.3 13.57c-.16-2.17-.27-4.35-.46-6.53l-.05-.15-3.49.46h-.06L2 7.37v.14.13a67166.65 67166.65 0 00.79 9.69c.02.3.02.61.03.93l.1.74c.03.36.08.7.15 1.05l3.76-.34c-.03-.41-.04-.82-.04-1.23-.15-1.64-.37-3.25-.5-4.9zM17.37 17.49l-.2-2.45c-.3-2.96-.7-5.91-.75-8.86l-.04-.15s-1.58 0-1.96.09a3.41 3.41 0 00-1.03-1.97.42.42 0 00-.1-.05c-.07 0-1.56-.36-4 .29-.6.15-.82 1.25-.9 2.26l-1.94.16v.09l1.03 12.58v.14l9.95-.77c-.01-.45-.03-.91-.06-1.36zM9.47 5.16a8.77 8.77 0 013.57-.3c.33.36.55.8.61 1.29l.04.08-4.55.39c.02-.5.13-1 .33-1.46zm4.76 7.92l-2.3-.16.1-3.43 1.1-.97c-.02-.77.22-1.53.7-2.14l.15-.2.1-.1.08.1.09.08-.15.16c-.48.58-.74 1.3-.72 2.06l.03.03s.02 0 0 0l.99 1.02-.17 3.55zM20.95 5.44l-3.91.45c.46 4.27.63 8.56 1.15 12.82l3.82-.44-1.06-12.83z"/>
</svg>