<svg viewBox="0 0 32 32" fill="none" xmlns="http://www.w3.org/2000/svg">
    <g clip-path="url(#a)">
        <path d="M12.575 4.777s2.091-1.4 2.48-3.51c0 0 .71 3.112 4.67.232 0 0-1.016 3.415 3.052 1.541 0 0-.038 4.76 4.418 2.728 0 0-2.872.847 2.434 3.892 0 0-5.004-1.07-4.1 1.502 0 0-3.278-2.207-3.305.918 0 0-3.622-4.642-4.654-.8 0 0-2.996-4.438-5.026-.164 0 0 .497-4.31-.875-4.75 0 0-.308-.703.906-1.589ZM9.95 11.556s-.128 1.815 2.905 2.02c0 0-3.182 2.9-.506 4.053 0 0-3.326 2.492-.042 4.829 0 0-2.892 1.272-.97 3.308 0 0-3.168-1.463-2.762 3.905 0 0-1.174-3.796-3.893-2.754 0 0 1.954-4.437-2.044-3.285 0 0 2.4-5.55-1.46-4.859 0 0 4.24-2.703.714-4.163 0 0 3.59-.933 3.626-3.368.475 1.119 4.346 1.657 4.433.313Z" fill="#066A3C"/>
        <path d="M11.295 4.234c-.36-.826-1.082-1.562-2.017-1.753-1.172-.239-2.284.229-3.155.974-.22.189-.399.402-.538.635a1.998 1.998 0 0 0-.107-.047c-.504-.206-1.059-.266-1.588-.1-.287.092-.535.229-.74.407a3.07 3.07 0 0 0-1.621 2.526c-.087 1.269.817 2.304 1.97 2.758a3.02 3.02 0 0 0 1.47.162l.07.105c.705 1.02 1.734 1.875 3.072 1.848 1.513-.031 2.774-1.157 2.821-2.645a2.279 2.279 0 0 0-.389-1.349c.886-.942 1.29-2.28.751-3.521Z" fill="#EF6622"/>
        <path d="M12.66 11.896c.072-.23.124-.425.159-.634a3.89 3.89 0 0 0 .049-.71c-.002-.096-.003-.251-.019-.574a13.542 13.542 0 0 0-.03-.473c-.013-.165-.028-.3-.028-.3s-.011-.114-.029-.26a9.006 9.006 0 0 0-.066-.448 5.703 5.703 0 0 0-.201-.832 1.833 1.833 0 0 0-.362-.66 1.096 1.096 0 0 0-.266-.22.794.794 0 0 0-.342-.107.806.806 0 0 1 .236.222c.058.081.102.165.143.252.08.176.151.368.234.623.04.126.114.37.186.782a10.19 10.19 0 0 1 .12.976c.012.16.023.35.028.462.016.317.018.469.02.563.006.277.022.494.05.7.028.207.07.403.117.639h.001Z" fill="#3C3C3B"/>
        <path d="M30 9.649a3.617 3.617 0 0 0-1.362-.34 8.798 8.798 0 0 0-.524-.014h-.057a2.103 2.103 0 0 0-.152.004 6.484 6.484 0 0 0-.406.025 3.986 3.986 0 0 0-.848.164 2.27 2.27 0 0 0-.422.183 1.431 1.431 0 0 0-.374.3c-.108.123-.19.273-.235.427-.047.154-.06.312-.051.462 0 .038.006.074.01.112a.628.628 0 0 0 .006.054l.008.046v-.003h.002l-.026-.013-.06-.031-.118-.06a5.552 5.552 0 0 0-.483-.213 3.255 3.255 0 0 0-1.003-.232 1.666 1.666 0 0 0-.51.052 1.203 1.203 0 0 0-.743.578c-.072.124-.12.25-.157.37-.036.12-.057.234-.075.342-.006.054-.014.106-.019.157l-.006.075-.001.009V12.1v.001l-.002-.002-.083-.092-.153-.167a10.941 10.941 0 0 0-.774-.755l-.038-.033-.072-.061a7.012 7.012 0 0 0-.585-.451 4.42 4.42 0 0 0-.556-.326 2.774 2.774 0 0 0-.369-.149 1.971 1.971 0 0 0-.447-.09 1.34 1.34 0 0 0-.519.057c-.09.026-.174.068-.257.116-.04.025-.081.051-.119.08-.037.03-.076.06-.11.093-.14.132-.252.29-.344.459-.093.169-.166.35-.226.538l-.043.143v-.002s0-.001 0 0h.002l-.08-.096-.104-.125a7.635 7.635 0 0 0-.589-.616c-.225-.21-.48-.42-.773-.604a2.851 2.851 0 0 0-1-.41 1.857 1.857 0 0 0-.572-.016 1.72 1.72 0 0 0-.546.166c-.04.023-.084.043-.123.067-.039.025-.08.048-.116.074l-.076.055a.416.416 0 0 0-.032.024c-.04.034-.082.066-.119.1-.036.034-.073.067-.106.1l-.095.099c-.055.065-.109.125-.148.18a2.504 2.504 0 0 0-.431.795 3.424 3.424 0 0 0-.133.642c.142-.197.261-.358.38-.528.12-.168.236-.348.391-.567.023-.034.054-.075.092-.123.036-.05.083-.1.132-.158l.082-.086c.028-.029.06-.056.091-.085.031-.03.066-.055.1-.084.008-.008.017-.014.027-.02l.062-.045c.03-.022.063-.04.094-.06.032-.02.065-.035.098-.053a1.39 1.39 0 0 1 .88-.117c.304.055.598.19.862.357.265.167.504.363.716.56.213.198.4.399.56.586.034.04.068.08.1.12l.05.059.07.089c.064.083.127.164.19.254l.188.274.047.067.006.008.002.005s.002.003.002 0l.004-.018.008-.037.033-.15c.022-.098.042-.197.066-.294l.069-.29.04-.132c.11-.342.263-.646.472-.843a.894.894 0 0 1 .714-.246c.125.01.245.038.359.073.113.036.22.082.319.13.198.095.366.201.507.297a6.286 6.286 0 0 1 .659.516l.156.14a10.683 10.683 0 0 1 .592.59l.149.162.08.09a17.728 17.728 0 0 1 .167.193c-.02-.023.01.01.086.104.075.09.202.254.369.464l.03.04.009.01.003.004c.002.004 0-.002.001-.003v-.026l-.003-.106c0-.073-.003-.15-.005-.231l-.006-.262c0-.09.003-.177.004-.27l.001-.07.003-.036.002-.026.006-.067a2.229 2.229 0 0 1 .081-.432c.06-.197.159-.403.332-.542a.827.827 0 0 1 .309-.156 1.28 1.28 0 0 1 .391-.038c.28.012.582.092.881.206.15.058.3.125.45.198.037.02.074.038.112.057l.055.03.089.048c.076.043.152.086.23.135.077.048.16.104.243.159l.185.123.091.061c.048.043.013-.02.007-.047l-.146-.418c-.027-.075-.045-.14-.065-.21l-.031-.102a.85.85 0 0 1-.022-.1l-.009-.052c-.003-.015-.004-.03-.005-.044-.003-.03-.008-.06-.008-.089a.859.859 0 0 1 .198-.633c.15-.175.381-.294.626-.373.247-.08.51-.123.766-.148.129-.012.256-.02.381-.024.031 0 .063 0 .094-.002h.106a9.33 9.33 0 0 1 .5.01c.282.015.505.02.718.014.213-.005.418-.022.665-.036l.004.001Z" fill="#3C3C3B"/>
        <path d="M12.37 4.888c.222-.107.4-.215.574-.346.173-.131.34-.287.526-.51.07-.085.191-.234.329-.425l.12-.174a6.399 6.399 0 0 0 .58-1.046c.026-.064.055-.128.08-.194.025-.065.051-.131.075-.199.022-.067.046-.135.067-.203l.057-.196.012-.05v.003l-.002-.003.007.013c.022.041.05.08.074.121.104.159.226.31.369.442a1.872 1.872 0 0 0 1.05.497c.386.048.76-.012 1.087-.117a4.984 4.984 0 0 0 1.071-.506c.06-.038.123-.071.178-.111.112-.077.222-.149.32-.221l.277-.21.02-.014s0-.001 0 0c0 0 0-.004 0 0l-.002.018-.005.07-.005.136c-.002.09-.001.18.004.266.009.173.032.34.072.497.04.157.098.306.178.439.078.133.18.248.295.337.115.088.24.15.36.189.12.039.236.057.342.066.212.015.39-.005.538-.03.294-.052.478-.117.593-.155l.123-.043.037-.014.047-.018a7.876 7.876 0 0 0 .691-.313l.01-.005.009.071c.01.086.023.177.039.273.024.14.075.458.216.9.072.22.168.47.31.736.142.264.331.546.603.798.136.124.293.24.47.333.176.096.374.166.58.21.416.087.861.057 1.286-.047a4.896 4.896 0 0 0 .772-.26h-.001c-.003.002 0 0 0-.002 0 0 .002-.003 0 .001l-.007.02-.031.084c-.01.028-.018.057-.027.086-.02.058-.028.118-.041.177l-.012.09a1.92 1.92 0 0 0 .195 1.049c.145.292.342.546.556.772l.166.163c.055.054.114.102.17.153l.086.074.088.07.069.054c.056.045.111.088.167.125.216.159.406.275.51.342.125.076.24.136.348.19.107.054.213.093.314.131.05.02.102.037.153.053a10.06 10.06 0 0 0 .495.124c-.094-.079-.18-.15-.265-.217l-.126-.098a6.448 6.448 0 0 0-.125-.096c-.084-.064-.175-.122-.27-.188-.096-.066-.203-.132-.321-.206-.1-.065-.282-.177-.487-.328-.053-.036-.104-.077-.157-.119l-.065-.05-.084-.066-.08-.07c-.052-.046-.107-.091-.158-.14l-.152-.15a2.875 2.875 0 0 1-.493-.68 1.563 1.563 0 0 1-.167-.778c0-.025.003-.048.006-.072l.01-.071c.011-.047.017-.094.033-.14l.02-.069.027-.07.006-.017.018-.035.038-.075.038-.075c.015-.027.038-.055.057-.082l.058-.083.03-.041.065-.066.132-.13.065-.065.087-.085.427-.415.13-.126.065-.063c.01-.009-.003 0-.005 0l-.012.007-.025.013-.158.083-.564.296-.315.166-.16.084-.08.041c-.026.014-.05.024-.075.036l-.297.139-.018.009-.012.004-.018.008-.036.014-.072.029a4.516 4.516 0 0 1-.578.186c-.385.095-.77.117-1.115.044a1.823 1.823 0 0 1-.87-.45c-.231-.213-.4-.462-.529-.702a4.18 4.18 0 0 1-.284-.678c-.133-.412-.181-.716-.205-.847a6.054 6.054 0 0 1-.044-.318l-.012-.113a4.317 4.317 0 0 1-.015-.237l-.005-.117-.003-.057-.001-.027c-.001-.004 0-.012-.002-.012l-.011.006-.184.099-.172.092-.082.044-.07.036a7.67 7.67 0 0 1-.7.315l-.034.013a46.46 46.46 0 0 0-.114.04c-.106.034-.277.094-.533.14a1.847 1.847 0 0 1-.444.025.927.927 0 0 1-.498-.176c-.154-.118-.278-.318-.343-.58a2.177 2.177 0 0 1-.062-.428 3.026 3.026 0 0 1 .002-.363l.004-.063.004-.048.007-.068.016-.13.018-.116c.01-.047.018-.098.033-.16l.097-.442.002-.007.001-.004-.003.002-.01.009-.021.017-.042.034-.092.076-.2.164-.218.18-.116.095-.06.05-.043.033-.266.2c-.095.07-.2.138-.306.212-.053.038-.111.07-.169.105l-.177.107a4.57 4.57 0 0 1-.808.36c-.292.094-.61.141-.921.103a1.504 1.504 0 0 1-.449-.13 1.608 1.608 0 0 1-.39-.269 1.973 1.973 0 0 1-.31-.373c-.022-.035-.046-.069-.065-.105l-.026-.045a.958.958 0 0 1-.031-.059c-.021-.038-.039-.084-.058-.127l-.057-.131L14.9.848l-.026-.085-.029-.105-.058-.213-.104-.376-.013-.047-.006-.023-.002.016-.01.065-.014.098-.068.457-.071.474-.004.028-.006.023-.01.046-.02.091-.04.183-.005.022-.004.015-.007.024-.014.048-.028.097c-.02.064-.042.127-.063.19-.022.063-.046.125-.07.186-.023.062-.05.122-.075.182a6.046 6.046 0 0 1-.547.988l-.115.166c-.13.182-.245.324-.312.407-.175.213-.31.383-.431.552-.124.167-.232.335-.377.53h-.002ZM8.628 30a9.956 9.956 0 0 0 .074-.643c.01-.104.015-.209.016-.323.006-.113.008-.235.006-.372-.002-.075.006-.185.009-.32l.003-.105.01-.111.015-.168c.004-.074.018-.146.028-.22l.017-.111.008-.056.012-.056.05-.223c.076-.296.187-.59.352-.851.161-.264.387-.481.647-.637.133-.074.272-.134.417-.178a2.332 2.332 0 0 1 .664-.087h.069c.015 0 .021.002.032.003l.06.005.12.011.03.003.033.007.066.013c.045.009.086.016.135.027.05.012.1.023.149.036l.303.072.038.01h.005l-.005-.006-.01-.01-.034-.04-.077-.087-.15-.17-.085-.096-.042-.047-.037-.044-.145-.177-.073-.088-.018-.022-.009-.014-.014-.023-.06-.093c-.01-.015-.02-.03-.028-.047l-.025-.048-.049-.095c-.014-.032-.025-.064-.039-.097-.012-.032-.027-.063-.034-.096l-.026-.097c-.009-.032-.01-.065-.017-.097-.014-.064-.01-.128-.014-.191a1.31 1.31 0 0 1 .068-.364c.085-.23.227-.431.387-.596.159-.168.333-.302.496-.414.082-.056.162-.105.238-.15.038-.022.075-.044.111-.063l.055-.03.107-.053c.142-.069.295-.129.424-.184l.006-.003-.005-.003-.01-.007-.017-.013a1.516 1.516 0 0 0-.034-.026l-.064-.05-.119-.09-.187-.142-.067-.052-.027-.02-.011-.01a.848.848 0 0 0-.007-.006c-.38-.314-.624-.613-.773-.865a1.827 1.827 0 0 1-.237-.607c-.02-.074-.02-.136-.027-.185l-.006-.066v-.16c.001-.023.007-.058.012-.11a1.86 1.86 0 0 1 .125-.49c.09-.227.25-.52.539-.852.144-.166.321-.34.534-.515l.022-.018a.89.89 0 0 1 .044-.034l.089-.067.045-.034.049-.034.1-.067.1-.069.026-.017.013-.008c.002-.003.013-.006.005-.008l-.055-.025-.22-.102c-.075-.036-.152-.072-.226-.11a6.689 6.689 0 0 0-.061-.036c-.017-.009-.033-.018-.048-.03-.031-.02-.064-.04-.093-.064a2.706 2.706 0 0 1-.045-.035l-.043-.037a1.033 1.033 0 0 1-.219-.268.88.88 0 0 1-.109-.413c-.004-.162.03-.344.1-.533.07-.188.17-.383.295-.578.25-.39.586-.78.962-1.149l.143-.137.11-.102c.05-.046.102-.091.155-.137.104-.091.222-.185.34-.281l.175-.143.043-.035.022-.017.005-.004h-.019l-.114.009-.459.032a8.375 8.375 0 0 1-.425.014H12.991c-.067-.001-.135-.002-.202-.005a7.285 7.285 0 0 1-1.49-.187l-.086-.022-.068-.019-.044-.013a2.779 2.779 0 0 1-.676-.298 1.747 1.747 0 0 1-.47-.421c-.111-.15-.2-.32-.247-.558-.072.23-.077.456.001.678.08.22.245.433.507.604.098.065.273.165.5.251a2.901 2.901 0 0 0 .273.093l.048.015.075.02c.03.01.062.016.093.024.5.124 1.031.18 1.572.2l.21.004h.181-.002.001s.002-.003-.001 0l-.038.036c-.05.047-.1.094-.149.143-.39.384-.743.79-1.014 1.213a3.395 3.395 0 0 0-.33.65c-.081.22-.127.445-.121.662a1.26 1.26 0 0 0 .154.578 1.404 1.404 0 0 0 .351.411l.057.044c.037.03.076.054.114.08l.058.035.045.026-.02.015c-.23.19-.42.377-.578.558-.316.362-.5.693-.602.958-.103.265-.136.459-.149.58-.006.06-.012.104-.013.132v.193l.007.08c.007.06.01.135.032.224.031.18.109.426.28.719.172.292.447.624.856.962-.026-.023-.022-.02.007.007l.013.01.004.003.007.006.02.015.025.02s.002-.001 0 0c-.02.01-.04.02-.06.032-.04.021-.08.045-.121.069-.083.049-.171.102-.26.164-.18.123-.373.271-.556.464-.184.19-.36.43-.467.725a1.656 1.656 0 0 0-.089.475c.004.083 0 .167.017.25.007.041.011.084.022.124l.033.123c.01.042.027.08.042.12.016.04.03.08.048.119l.058.113.03.057c.01.02.021.037.033.055l.068.109.018.027.008.012.002.003.007.009.013.018.004.005v-.001h.005-.016l-.063-.002a2.77 2.77 0 0 0-.777.104 2.474 2.474 0 0 0-.5.214 2.277 2.277 0 0 0-.775.759 3.376 3.376 0 0 0-.398.955l-.054.242-.012.06-.01.06-.017.12c-.012.079-.026.157-.03.234a93.202 93.202 0 0 1-.027.296c0 .038-.002.075-.003.11-.003.141-.01.258-.007.335.003.143.01.27.021.387.016.117.035.224.058.328.011.051.022.103.037.153a6.763 6.763 0 0 0 .161.47L8.628 30Z" fill="#3C3C3B"/>
        <path d="m5.587 11.576-.103.142c-.017.022-.032.045-.048.067l-.05.063a7.76 7.76 0 0 0-.095.123 4.509 4.509 0 0 0-.144.18l-.05.061a4.652 4.652 0 0 0-.102.129c-.073.086-.145.183-.233.287a3.996 3.996 0 0 1-.272.309l-.063.065-.033.034-.136.131a7.922 7.922 0 0 1-1.466 1.064c-.276.157-.562.305-.855.438l-.11.05-.055.023-.028.012-.047.02c-.074.03-.142.06-.219.09l-.119.045c-.04.015-.078.03-.123.045l-.533.18-.132.045-.016.005-.008.003.009.001.032.006.064.013.258.05c.212.043.445.083.638.133l.15.036.037.01.031.01.034.01.067.022.065.024c.174.063.339.14.475.239.07.049.128.104.18.162.05.06.087.123.115.19a.744.744 0 0 1 .025.437 1.666 1.666 0 0 1-.175.444 3.285 3.285 0 0 1-.268.402 6.205 6.205 0 0 1-.614.672 10.133 10.133 0 0 1-1.012.847l-.13.093a22.9 22.9 0 0 0-.129.091l-.244.17-.11.078-.027.019-.013.008-.004.003H0h.01l.06-.005.224-.016.356-.026.287-.02c.075 0 .15-.003.223-.004l.11-.002h.032l.03.002c.039 0 .077.002.115.003l.111.008c.074.004.144.015.213.023a2.64 2.64 0 0 1 .546.13c.105.04.201.082.284.132a1.394 1.394 0 0 1 .582.63c.023.048.038.094.055.134.013.042.027.079.035.114.02.069.03.123.039.165l.018.115a3.063 3.063 0 0 0 .015.157c.007.113.014.296-.015.57-.03.275-.1.642-.252 1.11a7.333 7.333 0 0 1-.254.668l-.043.097c-.014.034-.032.07-.049.107-.066.143-.15.3-.234.462l-.062.12-.008.015-.003.006.008-.003.031-.011.062-.023.255-.096.264-.096c.045-.017.09-.034.134-.048l.066-.021.05-.015a2.36 2.36 0 0 1 .13-.038c.044-.012.089-.023.134-.033a2.45 2.45 0 0 1 .37-.058c.07-.006.143-.006.218-.002.073.006.15.017.22.04a.557.557 0 0 1 .344.286c.078.152.11.357.106.578-.004.221-.04.46-.097.706-.057.245-.134.499-.226.756a8.425 8.425 0 0 1-.15.388l-.035.082-.043.1-.094.203c-.033.07-.066.139-.1.207l-.024.052-.006.013-.003.006-.001.004h.003l.028-.006.11-.025.449-.1c.038-.008.072-.018.118-.023l.053-.008.107-.015c.071-.012.143-.013.215-.017l.109-.005.108.003c.303.008.606.07.887.186.282.115.541.284.77.485l.043.036.04.04.082.08c.054.052.103.11.155.165.05.056.096.115.144.172l.11.148c.04.056.078.112.114.165.142.216.243.41.299.516.124.242.222.433.324.614.1.18.208.35.323.562 0-.241-.02-.445-.065-.654a2.851 2.851 0 0 0-.246-.683c-.059-.113-.165-.319-.317-.551-.04-.057-.079-.118-.122-.178l-.12-.16c-.052-.063-.102-.127-.156-.19-.057-.06-.11-.123-.17-.181l-.091-.088-.046-.044-.048-.041a3.15 3.15 0 0 0-.876-.55 2.883 2.883 0 0 0-1.023-.215c-.041-.001-.082-.005-.123-.004l-.123.006c-.081.005-.163.006-.242.02l-.12.016-.06.008h.007c.001 0 0 0 0 0v.001l.007-.017c.056-.135.108-.269.156-.403.097-.268.177-.534.238-.797a3.77 3.77 0 0 0 .106-.78c.003-.255-.028-.514-.146-.747a.919.919 0 0 0-.563-.47 1.442 1.442 0 0 0-.31-.057 2.023 2.023 0 0 0-.273.003 2.81 2.81 0 0 0-.428.067 3.245 3.245 0 0 0-.291.077l-.017.005c.016-.04.033-.078.05-.116a8.051 8.051 0 0 0 .219-.593c.16-.49.234-.882.267-1.18.032-.3.025-.505.016-.633-.003-.065-.009-.11-.012-.139l-.005-.042-.021-.133c-.01-.05-.023-.114-.046-.196-.01-.041-.027-.086-.042-.137-.02-.05-.04-.104-.068-.163a1.755 1.755 0 0 0-.732-.795 2.188 2.188 0 0 0-.343-.16 2.882 2.882 0 0 0-.404-.112c-.072-.015-.146-.026-.222-.038-.076-.009-.155-.02-.235-.025l-.122-.008-.125-.004-.06-.002h-.049l.001-.001.095-.077c.186-.152.391-.328.606-.534.214-.206.439-.439.65-.713a3.72 3.72 0 0 0 .299-.448c.09-.163.169-.341.212-.542.02-.101.032-.207.027-.316a.992.992 0 0 0-.07-.327 1.069 1.069 0 0 0-.175-.29 1.441 1.441 0 0 0-.245-.224 2.313 2.313 0 0 0-.568-.289l-.074-.026-.074-.024-.038-.011c-.01-.003-.003-.001-.004-.002h.003v.002h-.002l.01-.005.096-.042.115-.05c.304-.138.6-.292.887-.455A8.236 8.236 0 0 0 4.52 13.43l.145-.14.035-.035.067-.07c.044-.046.085-.09.12-.13a3.673 3.673 0 0 0 .398-.529c.03-.053.057-.105.082-.155l.037-.075.03-.077c.02-.05.038-.101.055-.151a4.119 4.119 0 0 0 .06-.237l.014-.083.024-.172v.001ZM10.636 7.621c.106-.06.207-.116.296-.18.045-.031.09-.062.133-.095.042-.034.084-.068.126-.104.162-.147.32-.318.472-.57.028-.041.058-.1.105-.182l.037-.068.039-.08.044-.094.024-.052.023-.057c.029-.076.066-.157.092-.248l.044-.14c.014-.047.025-.097.037-.149.028-.101.04-.21.06-.323.006-.056.009-.114.014-.172l.006-.088-.001-.09a2.708 2.708 0 0 0-.096-.725l-.05-.177c-.019-.059-.042-.115-.063-.172l-.033-.085c-.01-.028-.025-.055-.037-.083l-.078-.16a3.208 3.208 0 0 0-.767-.947c-.03-.025-.058-.051-.087-.072a27.118 27.118 0 0 1-.081-.06c-.052-.037-.095-.07-.132-.094a48.982 48.982 0 0 1-.118-.073l-.025-.016c-.018-.01-.041-.027-.075-.045a10.89 10.89 0 0 1-.122-.063l-.076-.04c-.027-.014-.058-.026-.089-.04a3.632 3.632 0 0 0-1.03-.29 3.77 3.77 0 0 0-1.977.267 3.074 3.074 0 0 0-.524.3c-.19.133-.323.265-.428.367-.05.054-.094.1-.13.141l-.087.105a2.13 2.13 0 0 0-.361.65c-.07.205-.106.41-.12.65.128-.207.246-.366.366-.532.12-.165.242-.336.41-.544l.078-.094.117-.124c.093-.09.21-.208.379-.325a2.71 2.71 0 0 1 1.02-.445c.4-.09.83-.109 1.206-.054.38.048.703.158.924.258l.08.035.067.036.11.056c.03.015.05.03.066.04l.022.014.105.064c.033.021.07.052.117.084l.073.053c.025.02.049.042.076.065.216.18.482.466.678.837l.068.143c.01.024.024.048.033.073l.029.075c.018.051.04.102.056.153l.045.158c.055.21.088.426.083.635l.002.078-.006.078c-.005.05-.007.101-.013.151-.017.099-.027.195-.052.286-.011.045-.02.09-.033.133l-.04.124c-.022.082-.056.155-.082.223a2.406 2.406 0 0 0-.02.051l-.022.047c-.014.03-.027.06-.04.085-.012.026-.023.052-.035.073l-.034.062c-.041.076-.069.13-.094.167-.137.232-.256.408-.362.584a4.462 4.462 0 0 0-.08.132l-.082.132c-.053.092-.115.182-.18.286v.001Z" fill="#3C3C3B"/>
        <path d="M7.285 6.11a2.207 2.207 0 0 0-.07-.658 1.952 1.952 0 0 0-.336-.668 2.491 2.491 0 0 0-.234-.269c-.027-.026-.055-.056-.085-.084l-.097-.086-.017-.015-.023-.02-.047-.037c-.032-.024-.063-.051-.097-.075-.069-.047-.138-.097-.214-.141a3.39 3.39 0 0 0-1.039-.413A3.513 3.513 0 0 0 3.84 3.59a2.996 2.996 0 0 0-1.085.345c-.317.17-.569.392-.75.603-.048.052-.086.106-.125.155-.038.051-.07.102-.1.148-.058.092-.103.173-.142.24l-.11.211-.061.132a4.381 4.381 0 0 0-.31.939c-.025.11-.04.227-.057.35-.007.06-.01.124-.015.188-.002.032-.005.064-.005.097v.099a2.802 2.802 0 0 0 .479 1.614c.324.479.78.85 1.21 1.05.422.202.714.246.86.277l.215.028c.069.003.134.004.197.005.063.003.123-.005.181-.01.059-.007.116-.01.17-.024.055-.011.11-.024.163-.037.053-.013.105-.034.158-.051.106-.034.21-.087.32-.139-.124-.004-.235-.003-.343-.014-.054-.004-.105-.005-.157-.011a3.518 3.518 0 0 0-.154-.015c-.052-.002-.103-.012-.156-.017-.053-.007-.107-.008-.163-.019l-.174-.022a6.124 6.124 0 0 0-.19-.032c-.13-.03-.388-.068-.757-.246a2.732 2.732 0 0 1-1.066-.925 2.459 2.459 0 0 1-.417-1.413V7.01c0-.03.003-.058.004-.087.005-.057.007-.114.013-.17.016-.11.028-.217.052-.317a3.875 3.875 0 0 1 .284-.864l.055-.122.103-.196.13-.22c.028-.04.055-.083.087-.127.034-.042.067-.089.107-.133a2.3 2.3 0 0 1 .647-.518 2.675 2.675 0 0 1 .95-.3 3.134 3.134 0 0 1 1.056.047c.341.075.659.204.92.365.067.039.128.083.188.124.03.02.057.045.085.066l.042.033.02.016.015.013.085.075c.027.025.05.05.074.073.095.094.163.177.206.234.16.209.273.384.382.555.109.171.213.338.323.554h.002Z" fill="#3C3C3B"/>
        <path d="M4.734 8.486c-.094.222-.15.423-.173.64-.021.217-.01.45.064.737.02.076.055.194.113.334.014.035.029.072.047.11l.057.115.004.008.01.018.021.038.045.076c.03.052.064.101.098.152l.11.15c.042.048.08.098.124.145.173.191.376.37.603.526a3.955 3.955 0 0 0 1.592.63c.291.044.589.062.882.037a3.096 3.096 0 0 0 1.574-.573c.429-.309.735-.688.938-1.037.201-.351.302-.671.353-.896.014-.056.022-.106.03-.15.008-.045.015-.082.018-.113l.01-.093s.006-.032.009-.094l.007-.113v-.155c-.002-.058-.007-.122-.011-.192l-.014-.11a2.613 2.613 0 0 0-.008-.057l-.011-.06a2.619 2.619 0 0 0-.493-1.105 5.33 5.33 0 0 0-.484-.549 5.02 5.02 0 0 0-.617-.51 3.91 3.91 0 0 0-.75-.408c-.067-.027-.134-.057-.205-.077l-.105-.034c-.035-.011-.07-.024-.107-.031l-.217-.052-.222-.033a3.077 3.077 0 0 0-.89.029l-.213.045c-.07.02-.14.04-.208.061-.07.018-.134.049-.201.073l-.099.038-.095.046-.094.046-.047.023-.044.026-.176.104-.164.116-.04.029-.038.031a3.185 3.185 0 0 0-.655.713 5.53 5.53 0 0 0-.11.182c-.029.06-.056.119-.08.175l-.019.041-.015.043-.027.083c-.017.054-.035.107-.043.16-.01.054-.02.107-.028.16-.008.053-.01.108-.013.162-.01.107 0 .221.007.34.053-.11.094-.21.146-.301.025-.047.046-.092.072-.137a3.61 3.61 0 0 0 .074-.132c.023-.045.051-.088.077-.133l.039-.069.02-.035c.006-.012.014-.023.021-.035.03-.046.06-.095.09-.147.033-.05.068-.102.103-.158.081-.117.25-.354.52-.58l.059-.049.033-.027.036-.026.143-.102.155-.091.039-.024.041-.02.083-.04.083-.04.087-.034c.058-.021.115-.049.177-.064l.183-.054.19-.04a2.67 2.67 0 0 1 .773-.026l.194.029.191.045c.064.015.125.039.188.057.063.018.123.045.184.07.24.1.47.223.677.368.208.145.398.304.568.47.168.167.32.338.448.508a2.247 2.247 0 0 1 .436 1.004l.007.05.012.095c.004.06.009.117.01.167v.135l-.006.1c-.002.054-.007.082-.007.082l-.01.082c-.002.027-.008.06-.015.099-.007.038-.014.084-.027.133a2.891 2.891 0 0 1-.315.796c-.18.31-.454.65-.833.922-.379.272-.86.465-1.382.502a3.32 3.32 0 0 1-.789-.033 3.586 3.586 0 0 1-1.436-.569 3.107 3.107 0 0 1-.537-.466c-.039-.042-.072-.086-.108-.128a6.727 6.727 0 0 1-.097-.13c-.03-.045-.06-.088-.086-.133a11.87 11.87 0 0 1-.038-.067l-.02-.033-.008-.015-.003-.007a19.957 19.957 0 0 1-.05-.1c-.015-.032-.027-.064-.04-.095-.05-.12-.08-.222-.1-.292-.07-.254-.112-.458-.153-.655-.039-.198-.078-.39-.101-.63l.002.003ZM23.033 7.915a4.75 4.75 0 0 0-.523-.41 4.28 4.28 0 0 0-.641-.346 11.4 11.4 0 0 0-.19-.083c-.085-.037-.197-.086-.35-.149a25.716 25.716 0 0 0-2.196-.796c-.388-.123-.748-.22-1.01-.29-.13-.035-.237-.059-.31-.077l-.116-.028-.096-.024-.267-.06-.185-.04-.215-.042-.238-.047-.26-.044a15.48 15.48 0 0 0-1.143-.148c-.097-.01-.194-.014-.29-.02-.094-.006-.188-.015-.28-.018l-.266-.008c-.086-.002-.168-.006-.248-.003-.448-.001-.725.026-.87.033a6.47 6.47 0 0 0-.395.056c-.06.01-.117.024-.172.038-.055.015-.108.03-.16.047-.21.059-.4.155-.62.26.25.007.452 0 .665.002.054 0 .107-.002.162-.005.054-.003.11-.008.17-.009.116-.004.242-.013.381-.027.14-.005.406-.03.839-.03.076-.002.156.002.24.004l.257.008c.088.002.18.01.272.016.092.007.186.011.28.02.378.036.766.083 1.114.144l.254.042.234.045.21.041.182.04a35.755 35.755 0 0 1 .356.081l.112.028c.072.019.177.042.305.077.257.069.61.165.992.286.767.235 1.648.57 2.163.785.15.061.261.11.346.145l.186.08c.262.113.47.193.675.255.205.063.405.11.645.17l.001.001ZM7.53 21.788c.005-.24.014-.44.009-.648a6.383 6.383 0 0 0-.06-.698c-.011-.093-.032-.244-.066-.56a20.443 20.443 0 0 1-.107-1.703c-.004-.148-.003-.29-.005-.42l.004-.345.01-.32.002-.071.01-.198a17.038 17.038 0 0 1 .148-1.49c.022-.14.04-.278.064-.407l.066-.365c.083-.414.15-.667.18-.8.035-.133.064-.253.086-.366.021-.113.045-.216.059-.319.028-.206.053-.402.072-.643-.132.202-.246.374-.335.566-.045.096-.092.195-.13.306-.04.111-.078.232-.116.368-.033.136-.101.396-.186.82-.023.114-.044.24-.069.373-.025.133-.042.274-.065.416a16.724 16.724 0 0 0-.148 1.522l-.01.202-.003.074-.01.326-.005.35c.001.133 0 .278.004.429a19.8 19.8 0 0 0 .109 1.734c.034.32.057.475.07.57.04.279.091.495.16.696.067.2.15.387.262.601ZM2.485 7.139c.133.069.23.09.333.028.055-.033.218-.144.34-.287a1.168 1.168 0 0 0 .18-.278l.011-.028.012-.028.026-.078a.987.987 0 0 0 .034-.257 1.08 1.08 0 0 0-.042-.276c-.012-.04-.026-.074-.036-.103-.011-.029-.023-.051-.03-.066a.224.224 0 0 0-.113-.112.569.569 0 0 0-.184-.037c-.026.07-.046.122-.055.168a.205.205 0 0 0 .01.127l.02.05c.007.02.017.045.025.073.015.055.027.119.028.18a.677.677 0 0 1-.035.206l-.007.018-.008.017c-.004.012-.013.028-.023.048a.818.818 0 0 1-.1.14 1.376 1.376 0 0 1-.259.22c-.08.053-.092.132-.125.274h-.002ZM7.724 3.15c-.014.145.004.24.102.307.053.037.222.139.404.192.09.028.182.043.252.048.034.002.063.005.083.004h.062l.084-.008c.07-.01.165-.031.257-.07.092-.039.178-.093.245-.144.033-.027.06-.052.085-.073l.05-.052a.216.216 0 0 0 .062-.144.534.534 0 0 0-.036-.18c-.076.004-.134.007-.181.017a.216.216 0 0 0-.117.058l-.038.038-.06.05a.825.825 0 0 1-.16.095.703.703 0 0 1-.158.044l-.052.005h-.04c-.012.001-.03-.001-.053-.002a.864.864 0 0 1-.172-.034 1.42 1.42 0 0 1-.31-.146c-.082-.051-.161-.031-.309-.005Z" fill="#3C3C3B"/>
        <path d="M7.442 9.105c-.012-.027-.02-.053-.013-.07l-.078.06a.1.1 0 0 0 .014.022.099.099 0 0 0 .009.01l.005.008a.423.423 0 0 0 .07.065.57.57 0 0 0 .302.119l.115.01c.025 0 .052.003.081.004.03.002.06.004.1.003a.828.828 0 0 0 .504-.167.52.52 0 0 0 .2-.487c-.01-.069-.03-.118-.041-.154l-.028-.058-.032-.053a.692.692 0 0 0-.105-.119 1.09 1.09 0 0 0-.392-.219 1.222 1.222 0 0 0-.486-.057 1.1 1.1 0 0 0-.323.079.447.447 0 0 0-.219.18.472.472 0 0 0-.064.254c.096-.026.17-.033.235-.045a.964.964 0 0 0 .192-.054.806.806 0 0 1 .544-.011.717.717 0 0 1 .256.139c.026.022.04.042.05.055l.013.021.01.021c.005.017.015.042.018.069.007.054-.003.105-.067.157a.459.459 0 0 1-.267.084l-.077-.002a8.737 8.737 0 0 1-.075-.004l-.108-.008a.657.657 0 0 0-.327.056l-.018.009-.005.002v.006l-.008.008a.09.09 0 0 1-.018.014l-.066.04.01.004a.163.163 0 0 0 .09.01l-.001-.001Z" fill="#3C3C3B"/>
    </g>
    <defs>
        <clipPath id="a">
            <path fill="#fff" d="M0 0h30v30H0z"/>
        </clipPath>
    </defs>
</svg>
