<svg width="36" height="36" fill="none" xmlns="http://www.w3.org/2000/svg">
    <g clip-path="url(#a)">
        <path d="M2.794 34.395v-7.66L.16 6.234l1.162-.542S.934 4.3 2.64 3.45c0 0 2.635.077 2.868 1.547l.93-.31s-.465-2.01 1.705-2.32c0 0 1.938-.155 2.325 1.47h.853s-.465-2.244 1.782-2.32c0 0 1.938 0 2.404 1.392 0 0 .62-2.863 3.255-2.012 0 0 1.085.155 1.318 1.083 0 0 .465-2.088 2.48-1.779 0 0 2.17.077 2.093 1.857l3.023 10.83s1.008 4.565 2.636 6.035l5.659 6.343-8.604 3.482v2.708l-10.542 1.78-2.325.85-1.318-.387s-4.108 1.393-8.217 1.625l-2.17-.928Z" fill="#fff"/>
        <g fill="#1D1D1B">
            <path d="M2.24 5.335h.01l.003-.003a.686.686 0 0 1 .12-.308.851.851 0 0 1 .202-.2 1.07 1.07 0 0 1 .577-.194c.021-.003.046 0 .075 0h.047l.052.008a.913.913 0 0 1 .306.104c.026.016.059.03.091.053.032.024.069.046.104.074.034.03.072.059.105.091l.097.1.08.1c.023.03.04.062.058.086.034.049.05.083.05.083l.037.073c.013.022.024.05.036.082.011.032.027.066.04.104.05.15.07.342.07.48l-.01.143c-.004.045-.016.087-.022.127a2.125 2.125 0 0 1-.165.493c-.12.244-.243.418-.363.6-.06.093-.123.186-.173.302a.423.423 0 0 0-.038.195.29.29 0 0 0 .086.176.252.252 0 0 1 .001-.167.344.344 0 0 1 .088-.115c.074-.067.161-.129.247-.201.173-.143.353-.33.498-.62a2.39 2.39 0 0 0 .169-.446c.013-.042.021-.09.031-.14.01-.051.022-.103.028-.16l.013-.18c0-.044-.003-.092-.005-.142l-.004-.077-.011-.08c-.01-.052-.015-.107-.03-.159l-.041-.15c-.016-.047-.035-.091-.05-.13-.016-.04-.03-.076-.046-.104l-.048-.09s-.02-.043-.061-.105c-.021-.03-.044-.07-.073-.109l-.1-.125c-.037-.042-.08-.084-.12-.126-.043-.04-.09-.078-.133-.116-.045-.035-.093-.066-.134-.095-.042-.03-.086-.049-.12-.07a1.28 1.28 0 0 0-.513-.154c-.024-.002-.046-.001-.066-.002-.04 0-.074-.002-.103.002a1.01 1.01 0 0 0-.76.38.81.81 0 0 0-.153.339.682.682 0 0 0 .03.369l.002-.003-.01.005-.002.002Z"/>
            <path d="M3.715 8.104a.409.409 0 0 0 .1.162.659.659 0 0 0 .148.117.833.833 0 0 0 .353.115 1.04 1.04 0 0 0 .803-.286c.082-.078.226-.211.394-.544.063-.126.12-.28.17-.448.049-.17.085-.356.114-.549.026-.194.044-.393.05-.595a4.189 4.189 0 0 0-.028-.601 2.545 2.545 0 0 0-.316-.976 2.052 2.052 0 0 0-.264-.352l-.069-.072-.086-.08c-.035-.029-.075-.063-.12-.098a2.833 2.833 0 0 0-.79-.405 5.04 5.04 0 0 0-.511-.145l-.133-.03-.066-.014c-.022-.005-.05-.009-.074-.013a1.838 1.838 0 0 0-.296-.024c-.391.002-.75.109-1.028.237a2.377 2.377 0 0 0-.512.316c-.063.05-.113.099-.157.14-.04.044-.077.079-.102.111-.107.127-.184.26-.233.392a1.067 1.067 0 0 0-.065.39c.008.253.11.473.272.668a1.314 1.314 0 0 1 .01-.64c.053-.185.14-.362.31-.56.02-.025.05-.053.082-.088.035-.032.075-.072.127-.112.102-.081.241-.178.432-.264.236-.11.548-.2.864-.202.078.002.158.006.233.019l.058.01.063.013.126.028c.167.038.326.083.473.134.295.1.532.233.683.348.037.028.07.056.1.08l.07.065a10.127 10.127 0 0 0 .073.076l.046.054c.04.047.093.119.15.213.112.19.224.482.264.829.021.173.028.357.024.542a5.479 5.479 0 0 1-.046.551 3.84 3.84 0 0 1-.103.496c-.044.149-.093.28-.145.386-.139.275-.246.37-.306.43a1.13 1.13 0 0 1-.548.287.893.893 0 0 1-.29.014.653.653 0 0 1-.154-.036.402.402 0 0 1-.15-.09ZM7.33 4.146a.708.708 0 0 1 .162-.293.902.902 0 0 1 .228-.178 1.152 1.152 0 0 1 .676-.132c.027.005.058.005.096.018l.062.017c.022.006.045.018.07.028.052.017.107.051.17.087.099.06.252.188.357.321.056.064.094.132.126.178.015.024.024.045.032.06a4.284 4.284 0 0 1 .076.169c.011.028.026.06.034.097.05.141.062.323.065.451l-.01.143c-.003.046-.016.088-.022.128-.013.08-.035.155-.055.218a2.16 2.16 0 0 1-.11.276c-.12.243-.242.417-.363.6-.06.092-.123.184-.173.3a.415.415 0 0 0-.038.195c.007.07.04.131.086.176a.252.252 0 0 1 0-.166.344.344 0 0 1 .089-.115c.074-.068.161-.13.247-.202.172-.143.354-.329.498-.619a2.467 2.467 0 0 0 .2-.587c.008-.05.023-.103.028-.16l.012-.18a1.913 1.913 0 0 0-.082-.572c-.01-.046-.03-.086-.044-.124l-.04-.098-.043-.086-.014-.028c-.01-.017-.021-.043-.04-.073-.04-.058-.087-.143-.156-.223l-.05-.064-.058-.06c-.039-.04-.076-.08-.119-.114-.08-.073-.164-.128-.227-.17-.332-.198-.55-.205-.665-.213a1.051 1.051 0 0 0-.794.304.838.838 0 0 0-.193.32.705.705 0 0 0-.018.372Z"/>
            <path d="M8.799 7.003a.416.416 0 0 0 .1.163.675.675 0 0 0 .147.116.85.85 0 0 0 .354.116 1.04 1.04 0 0 0 .803-.286c.082-.078.227-.212.394-.544.061-.125.117-.275.167-.441.049-.167.086-.35.115-.54.025-.19.046-.387.05-.586.006-.199 0-.399-.021-.59a2.556 2.556 0 0 0-.298-.965c-.064-.117-.13-.203-.175-.263-.048-.059-.076-.09-.076-.09l-.016-.02a9.329 9.329 0 0 0-.133-.132 2.443 2.443 0 0 0-.446-.32 3.13 3.13 0 0 0-.44-.197 4.875 4.875 0 0 0-.503-.15 7.011 7.011 0 0 0-.261-.059 3.09 3.09 0 0 0-.144-.024c-.049-.004-.098-.012-.146-.012a2.437 2.437 0 0 0-1.022.192c-.453.192-.681.416-.794.53a1.21 1.21 0 0 0-.354.756 1.04 1.04 0 0 0 .047.361c.04.115.098.223.173.326a1.45 1.45 0 0 1-.01-.345c.013-.104.037-.199.07-.29.07-.18.171-.35.354-.54.045-.047.114-.114.22-.192s.25-.165.443-.247c.237-.099.547-.178.856-.164.039 0 .076.006.114.01.038.005.072.01.114.019.084.017.167.035.248.055.164.04.32.085.463.137.144.052.273.111.385.172a1.995 1.995 0 0 1 .44.33l.041.043.014.016.06.072c.037.048.09.119.142.214.11.187.21.48.25.82.019.17.023.352.018.535a5.324 5.324 0 0 1-.047.542c-.027.175-.06.34-.103.488a2.544 2.544 0 0 1-.143.379c-.139.276-.247.37-.307.43-.185.17-.362.247-.548.287a.909.909 0 0 1-.29.014.651.651 0 0 1-.154-.034.394.394 0 0 1-.15-.091h-.001ZM12.298 3.101a.768.768 0 0 1 .213-.26.963.963 0 0 1 .255-.143 1.2 1.2 0 0 1 .447-.079c.028 0 .057.003.086.004.03.002.057.008.086.011.01.002.02.002.032.005l.038.01c.027.01.06.014.097.032.037.016.082.03.13.059.024.014.052.026.078.044l.087.059c.082.063.215.183.304.306.022.03.041.062.06.089l.026.039a3.741 3.741 0 0 1 .085.17c.014.04.042.094.056.158l.027.1.017.106.008.053.002.05.004.095c-.006.099-.01.19-.03.27-.013.08-.033.153-.054.216-.04.127-.081.216-.11.276-.119.242-.242.416-.364.598-.06.091-.124.183-.175.298a.425.425 0 0 0-.042.195.28.28 0 0 0 .085.176.242.242 0 0 1 .002-.165.351.351 0 0 1 .09-.114c.076-.067.164-.127.25-.2.174-.141.356-.327.502-.617a2.384 2.384 0 0 0 .199-.59c.024-.1.03-.214.036-.34a1.795 1.795 0 0 0-.075-.515c-.02-.082-.054-.15-.073-.2a.557.557 0 0 0-.036-.08l-.047-.09-.024-.046-.032-.049-.075-.112-.093-.115c-.03-.039-.068-.073-.102-.107a.87.87 0 0 0-.102-.093c-.033-.027-.062-.053-.09-.072l-.11-.076c-.035-.024-.072-.04-.104-.058-.063-.037-.124-.058-.176-.079-.05-.023-.099-.03-.137-.042l-.055-.015-.048-.007c-.045-.005-.088-.012-.13-.014-.04 0-.08-.001-.119.002-.077.006-.15.018-.22.037a1.006 1.006 0 0 0-.357.177.87.87 0 0 0-.238.284.74.74 0 0 0-.084.362v-.003Z"/>
            <path d="M13.748 6.036a.413.413 0 0 0 .101.162.657.657 0 0 0 .149.115.85.85 0 0 0 .354.112c.252.025.547-.053.802-.285l.074-.07c.026-.03.057-.064.092-.106.067-.085.148-.2.23-.367.06-.12.114-.265.164-.425a4.67 4.67 0 0 0 .15-1.655 2.468 2.468 0 0 0-.268-.935 2.084 2.084 0 0 0-.162-.258c-.022-.029-.04-.051-.05-.067l-.02-.022-.034-.04a2.208 2.208 0 0 0-.531-.436 3.18 3.18 0 0 0-.695-.298 5.604 5.604 0 0 0-.412-.108c-.072-.016-.14-.031-.217-.046a1.734 1.734 0 0 0-.244-.027 2.226 2.226 0 0 0-.489.034c-.15.027-.277.064-.36.092a2.467 2.467 0 0 0-.832.458 1.294 1.294 0 0 0-.446.697.979.979 0 0 0 .114.711 1.168 1.168 0 0 1 .153-.615c.097-.168.224-.326.429-.499a2.121 2.121 0 0 1 .704-.383c.072-.024.18-.055.307-.078a1.88 1.88 0 0 1 .403-.029c.065.002.128.01.189.021.066.012.137.028.203.042.135.03.263.064.384.101.242.073.45.165.612.26.163.096.279.196.355.27.036.037.066.066.083.088a8.718 8.718 0 0 1 .043.05l.04.054a1.697 1.697 0 0 1 .27.552c.04.135.069.289.086.453a4.307 4.307 0 0 1-.137 1.505c-.043.14-.09.265-.14.364-.139.275-.246.37-.307.428-.186.17-.364.246-.55.287a.929.929 0 0 1-.29.016.653.653 0 0 1-.155-.033.391.391 0 0 1-.15-.09h-.002ZM16.818 2.321a.717.717 0 0 1 .21-.26.958.958 0 0 1 .256-.141 1.245 1.245 0 0 1 .449-.08c.028-.002.058.002.087.002.03 0 .057.008.087.01l.033.005.038.01.046.012a.276.276 0 0 1 .053.016c.037.016.082.029.13.057.025.014.053.025.08.043l.087.057c.077.059.206.164.29.278.024.026.04.056.058.08.017.026.035.047.046.068a25.684 25.684 0 0 0 .066.122c.013.038.036.088.057.145.014.06.039.124.045.19l.015.094c0 .03.002.06.003.087 0 .024.004.049.003.072l-.006.068c-.004.045-.005.088-.016.127l-.023.113c-.008.036-.02.07-.029.102-.04.126-.08.215-.11.274-.118.242-.244.413-.367.593-.062.09-.127.18-.181.293a.433.433 0 0 0-.049.192.263.263 0 0 0 .083.178.224.224 0 0 1 .003-.164.363.363 0 0 1 .094-.11c.078-.066.168-.125.256-.195.176-.14.362-.325.508-.616.036-.071.085-.178.133-.328.047-.147.096-.355.09-.61l-.005-.113c-.004-.04-.012-.082-.018-.124-.01-.086-.04-.169-.061-.245-.026-.076-.056-.14-.075-.187-.022-.045-.038-.072-.038-.072L19.1 2.28c-.014-.026-.035-.054-.056-.086-.023-.032-.044-.07-.073-.103a1.85 1.85 0 0 0-.37-.354l-.113-.074c-.035-.022-.072-.039-.104-.056-.064-.036-.126-.055-.177-.076a.451.451 0 0 0-.074-.024l-.065-.016-.055-.013-.049-.007c-.044-.004-.088-.012-.129-.011-.04 0-.08-.001-.118.003a1.036 1.036 0 0 0-.576.213.858.858 0 0 0-.24.283.711.711 0 0 0-.082.362l-.001.001Z"/>
            <path d="M18.259 5.128c.02.06.06.115.105.159a.681.681 0 0 0 .151.112.872.872 0 0 0 .355.106.994.994 0 0 0 .397-.047c.137-.044.276-.122.403-.236.02-.02.046-.042.074-.07.026-.03.06-.062.093-.104.07-.083.15-.199.234-.365.12-.232.22-.562.276-.92.026-.178.047-.363.053-.55a3.762 3.762 0 0 0-.019-.557 2.349 2.349 0 0 0-.284-.91 1.84 1.84 0 0 0-.22-.309l-.02-.021-.015-.018a1.925 1.925 0 0 0-.236-.218A2.618 2.618 0 0 0 18.88.79a4.383 4.383 0 0 0-.473-.142 5.99 5.99 0 0 0-.246-.056L18.04.567a2.83 2.83 0 0 0-.134-.02 2.384 2.384 0 0 0-.973.107 2.7 2.7 0 0 0-.547.241c-.136.08-.23.15-.292.201-.252.206-.403.444-.461.688a.935.935 0 0 0 .118.712 1.076 1.076 0 0 1 .147-.613 2.004 2.004 0 0 1 .683-.654c.116-.065.268-.142.469-.205.23-.073.524-.124.81-.092l.106.017.118.023a6.8 6.8 0 0 1 .232.052c.152.037.298.08.432.129.269.097.483.223.62.331a1.54 1.54 0 0 1 .218.207 1.413 1.413 0 0 1 .176.248c.104.173.198.444.234.761.019.16.021.328.016.498-.006.17-.026.343-.05.506a2.79 2.79 0 0 1-.239.806c-.069.138-.133.23-.186.294-.025.032-.05.057-.07.08l-.055.052a1.193 1.193 0 0 1-.553.286.97.97 0 0 1-.292.021.687.687 0 0 1-.156-.03.382.382 0 0 1-.152-.086h.001ZM21.33 1.762a.655.655 0 0 1 .197-.268.92.92 0 0 1 .252-.145 1.26 1.26 0 0 1 .622-.072l.032.004.039.01c.027.008.06.011.098.028.037.015.082.029.13.057.051.022.104.058.167.098.067.053.181.143.257.242l.029.035.024.034.041.058c.013.016.02.032.025.041l.009.016.027.049c.019.03.034.075.055.124.005.013.011.025.015.039l.012.041.024.083c.01.057.019.112.025.158.02.195-.02.352-.05.476a2.028 2.028 0 0 1-.103.276c-.115.242-.238.413-.362.591-.061.09-.127.178-.184.288a.442.442 0 0 0-.055.19.243.243 0 0 0 .08.18c-.02-.061-.02-.12.005-.162a.368.368 0 0 1 .1-.107c.08-.063.17-.122.26-.193.178-.14.363-.328.506-.621.034-.073.081-.18.126-.332.04-.155.091-.363.064-.622a3.093 3.093 0 0 0-.033-.208l-.031-.11-.016-.054c-.006-.018-.014-.034-.02-.05-.028-.065-.05-.124-.074-.163l-.035-.063-.01-.02c-.008-.013-.017-.033-.033-.054l-.052-.076-.031-.045c-.011-.015-.025-.029-.037-.045a1.764 1.764 0 0 0-.33-.31 1.724 1.724 0 0 0-.218-.13c-.065-.036-.126-.056-.178-.076-.05-.022-.1-.029-.139-.04l-.055-.013-.05-.005a1.165 1.165 0 0 0-.466.033c-.136.038-.255.1-.355.178-.1.08-.18.176-.235.288a.66.66 0 0 0-.067.367h-.003Z"/>
            <path d="M22.735 4.395c.021.06.062.114.108.157a.71.71 0 0 0 .153.109c.11.057.23.09.357.098a1.06 1.06 0 0 0 .793-.301.832.832 0 0 0 .073-.073l.043-.047.048-.059a1.85 1.85 0 0 0 .226-.37c.105-.221.2-.53.248-.866.027-.168.04-.342.048-.518A3.634 3.634 0 0 0 24.81 2a2.207 2.207 0 0 0-.278-.854c-.06-.103-.12-.18-.162-.231-.02-.027-.038-.045-.05-.058l-.018-.02-.015-.017a1.935 1.935 0 0 0-.224-.203 2.534 2.534 0 0 0-.682-.366 4.252 4.252 0 0 0-.445-.134 7.774 7.774 0 0 0-.23-.052L22.59.04c-.04-.007-.075-.015-.12-.02a2.253 2.253 0 0 0-.918.066c-.472.131-.727.313-.857.404-.26.195-.425.42-.496.662a.886.886 0 0 0 .092.717.97.97 0 0 1 .168-.603c.106-.16.25-.306.465-.464.055-.038.134-.094.252-.156.119-.06.275-.13.478-.185.217-.06.494-.099.757-.058.03.004.07.012.106.019l.11.022c.074.015.146.031.217.049.142.035.28.075.404.12.251.091.45.209.578.309a1.442 1.442 0 0 1 .207.191 1.47 1.47 0 0 1 .167.229c.099.16.19.41.226.706.018.148.023.305.019.464-.008.159-.02.32-.044.474a2.767 2.767 0 0 1-.215.758c-.065.14-.13.23-.18.297l-.036.045-.033.035a1.18 1.18 0 0 1-.6.354c-.093.022-.19.034-.291.028a.5.5 0 0 1-.31-.11h-.001Z"/>
        </g>
        <path d="M4.168 6.29c-1.042.253-1.828.466-2.131.598l2.13-.598Z" fill="#225C5E"/>
        <path d="M4.168 6.29c-.13-.095-.215-.143-.336-.116a18.895 18.895 0 0 0-.787.2s-.164.043-.344.094c-.18.05-.377.11-.443.133-.12.043-.172.131-.22.286.142.074.224.116.34.081.062-.019.252-.077.428-.127l.338-.094.78-.2c.12-.032.173-.113.244-.257ZM36 25.435c-.29-.419-.48-.698-.895-1.118l-.244-.25-.169-.175-.296-.311-.326-.349a54.142 54.142 0 0 1-2.8-3.272 30.376 30.376 0 0 1-1.25-1.7 13.082 13.082 0 0 1-.906-1.52c-.028-.056-.052-.112-.078-.167-.025-.054-.05-.107-.07-.161l-.122-.305c-.04-.095-.072-.186-.102-.27l-.083-.23a12.421 12.421 0 0 1-.152-.437l-.148-.438-.164-.511-.102-.317-.109-.355c-.306-.99-.701-2.338-1.098-3.757L26.59 8.72l-.291-1.07-.278-1.041-.254-.97-.219-.844c-.148-.573-.293-.882-.529-1.335-.004.51.012.854.155 1.43l.216.847.255.971.279 1.043.292 1.072.297 1.074c.398 1.42.794 2.772 1.103 3.766l.11.356.101.32.166.513a924.33 924.33 0 0 1 .188.558c.024.076.064.185.114.327l.085.234c.03.085.063.178.104.276l.126.315c.021.055.048.112.074.17.027.058.052.119.083.178.47.958 1.284 2.123 2.197 3.29a54.51 54.51 0 0 0 2.82 3.296l.329.35.299.314.17.177c.105.107.19.193.248.25.422.42.715.612 1.17.847H36ZM13.889 34.181c.127.004.247.01.36.003l.17-.01a3.608 3.608 0 0 0 .905-.216c.075-.03.19-.071.33-.129l.23-.093.176-.075.199-.086c.135-.059.272-.12.412-.184 1.121-.51 2.405-1.172 3.646-1.773.62-.3 1.228-.586 1.797-.833a25.482 25.482 0 0 1 1.551-.622c.454-.163.831-.274 1.1-.36l.418-.131.415-.136a78.73 78.73 0 0 0 1.107-.372c.923-.316 2.167-.758 3.464-1.236.65-.239 1.311-.487 1.954-.73l.945-.362.878-.34c.366-.145.666-.263.815-.325a4.77 4.77 0 0 0 .677-.33c.096-.057.187-.119.28-.185.045-.033.092-.065.14-.103l.143-.118-.18.04-.17.032a5.744 5.744 0 0 0-1.035.307l-.812.32c-.28.11-.574.223-.876.34l-.943.361c-.642.243-1.302.491-1.95.73-1.295.478-2.536.92-3.455 1.235-.46.157-.838.286-1.103.37l-.412.136-.415.13c-.261.084-.653.199-1.115.365-.462.166-1 .38-1.575.63-.576.25-1.19.538-1.812.84-1.246.604-2.53 1.265-3.637 1.77-.138.063-.274.123-.406.18a75.951 75.951 0 0 1-.369.158l-.225.092c-.137.056-.248.096-.322.126a9.51 9.51 0 0 0-.682.285l-.616.3h-.002ZM2.037 6.888c-.08.501-.134.84-.093 1.434.006.08.013.2.025.35l.02.244.02.254c.007.096.017.194.025.292l.056.608c.166 1.657.426 3.608.8 5.452l.138.687c.046.228.102.45.151.672l.15.654.163.63.157.604.166.57c.109.369.206.717.315 1.03.104.316.2.603.282.857.09.252.172.47.238.649l.22.553.015.037.044.107.175.404c.153.35.383.846.684 1.439.302.592.682 1.277 1.124 2.005a35.843 35.843 0 0 0 4.16 5.543c.151.167.305.327.455.484l.227.232.113.113.097.095c.14.14.273.262.382.366l.263.238c.229.196.42.337.621.445.098.057.202.102.308.146.054.02.111.038.168.057.057.018.12.028.182.042-.2-.157-.333-.316-.487-.47a10.558 10.558 0 0 0-.535-.508l-.255-.233c-.107-.103-.237-.222-.374-.36-.031-.03-.064-.061-.095-.093l-.111-.11-.224-.229c-.148-.155-.3-.313-.449-.477a31.85 31.85 0 0 1-.902-1.023 35.757 35.757 0 0 1-3.212-4.457 31.055 31.055 0 0 1-1.11-1.98 27.358 27.358 0 0 1-.676-1.419l-.173-.398a2.205 2.205 0 0 1-.043-.105l-.015-.036-.217-.544c-.064-.177-.145-.39-.233-.638l-.28-.847c-.107-.31-.203-.655-.31-1.021l-.165-.565-.155-.599-.161-.624c-.05-.213-.099-.43-.149-.649-.049-.22-.104-.44-.15-.666-.045-.226-.09-.454-.137-.682-.37-1.83-.628-3.768-.793-5.416L2.42 9.43c-.009-.099-.019-.195-.026-.29l-.02-.254-.02-.242-.027-.348a5.036 5.036 0 0 0-.293-1.406l.002-.001Z" fill="#1D1D1B"/>
        <path d="M3.174 17.762c-.052.507-.071.85.01 1.436l.217 1.518c.192 1.334.421 2.907.616 4.413.049.377.095.749.137 1.112.021.181.038.36.058.537.015.175.034.35.044.517.004.084.013.168.015.25l.006.24-.001.48-.002.87c-.002 1.073.006 1.766.006 1.766l.005.48c.004.308.011.75.028 1.287.009.27.02.562.038.875.018.312.04.643.082.992.022.176.047.354.096.544a.678.678 0 0 0 .022.073l.02.06c.008.021.018.04.027.06l.056.122c.001.007.007.007.013.007l.016.002.033.004c.022.002.043.006.065.007l.194.014c.048.002.097.008.144.007l.287.001c.095-.002.19-.008.286-.011.096-.003.192-.011.288-.02.095-.008.192-.014.287-.025.767-.08 1.54-.209 2.288-.343.374-.068.742-.137 1.099-.207l1.018-.2.858-.172c.582-.119.899-.249 1.362-.465-.51-.026-.854-.026-1.438.087l-.858.17-1.017.199c-.356.069-.722.138-1.094.206-.743.133-1.509.26-2.257.34-.094.01-.187.016-.28.024a4.418 4.418 0 0 1-.277.019c-.091.003-.183.01-.273.012l-.268-.002c-.045.002-.088-.004-.131-.007l-.065-.004H4.921l-.001-.004a3.981 3.981 0 0 1-.103-.546c-.04-.333-.062-.66-.08-.967a39.163 39.163 0 0 1-.038-.865 74.855 74.855 0 0 1-.029-1.28l-.005-.478s-.007-.69-.005-1.761c0-.268 0-.56.002-.87l.001-.48c0-.084-.004-.171-.006-.258-.003-.087-.01-.172-.016-.26-.01-.174-.03-.349-.045-.529-.02-.178-.037-.36-.058-.542-.042-.366-.088-.74-.137-1.118-.195-1.511-.424-3.085-.616-4.42l-.22-1.516c-.088-.586-.201-.91-.394-1.382h.003ZM17.637 33.164c.51.037.854.045 1.439-.056l.596-.106c.587-.104 1.575-.285 2.416-.444l1.535-.294s.581-.11 1.322-.26c.371-.075.782-.16 1.18-.245.399-.088.782-.17 1.11-.263.028-.008.059-.02.09-.03.05-.017.1-.03.14-.057l.016-.008.01-.016.018-.032c.013-.02.02-.043.031-.064.01-.02.02-.042.025-.065.005-.02.01-.038.013-.057.02-.107.028-.192.033-.269.011-.15.014-.26.016-.334a4.036 4.036 0 0 0-.051-.756 5.9 5.9 0 0 0-.16-.673c-.053.25-.095.458-.124.678-.03.219-.044.45-.052.74a7.518 7.518 0 0 1-.016.315 2.09 2.09 0 0 1-.027.221l-.003.013h-.002c-.02.006-.042.015-.068.022-.304.085-.69.169-1.084.256-.396.085-.805.17-1.174.244-.74.148-1.32.262-1.32.262l-1.532.292c-.84.157-1.827.337-2.413.443l-.595.108c-.583.107-.903.23-1.371.436h.002Z" fill="#1D1D1B"/>
        <path d="M3.887 5.212c-.51-.01-.854 0-1.434.132l-.342.078-.238.056-.597.14-.664.159-.372.09-.175.042-.043.01L0 5.926V6.501l.006.186c.005.124.007.25.014.376.025.503.064 1.019.11 1.54.092 1.044.216 2.112.344 3.155.257 2.086.54 4.071.749 5.537a7340.184 7340.184 0 0 1 .69 4.818c.104.732.224 1.594.344 2.533.059.47.118.959.168 1.459l.033.377c.007.125.019.253.022.377l.005.188v.194l-.001.393c-.003 1.05-.005 2.125.01 3.17.009.523.02 1.04.042 1.541a27.1 27.1 0 0 0 .067 1.106l.017.179.017.152c.024.2.052.381.09.54.01.04.02.077.033.116.013.037.023.07.044.112.013.026.023.053.037.076.02.018.04.034.06.05l.056.046c.245.194.468.31.69.381.222.07.446.1.7.087a3.943 3.943 0 0 1-.577-.342 8.607 8.607 0 0 1-.57-.425l-.047-.04c-.002-.002-.001 0 0-.001a.747.747 0 0 1-.048-.154 4.402 4.402 0 0 1-.082-.492l-.016-.146-.016-.174a25.993 25.993 0 0 1-.066-1.088 58.18 58.18 0 0 1-.042-1.53 178.688 178.688 0 0 1-.01-3.556v-.195l-.005-.202c-.003-.135-.015-.263-.023-.394l-.034-.384c-.05-.507-.11-.998-.17-1.47-.12-.943-.24-1.806-.344-2.538l-.346-2.41-.346-2.409c-.208-1.464-.49-3.447-.747-5.53A93.847 93.847 0 0 1 .516 8.57a39.122 39.122 0 0 1-.108-1.524C.4 6.92.399 6.798.395 6.675c-.002-.06-.005-.12-.006-.181V6.23l.314-.076L2.54 5.72c.577-.138.889-.278 1.346-.508Z" fill="#1D1D1B"/>
        <path d="M1.133 6.888c-.065.506-.092.848-.026 1.436l.186 1.583.565 4.719.527 4.279a2740.54 2740.54 0 0 1 .303 2.372c.043.324.104.79.184 1.357.018.142.042.29.066.445l.072.474c.048.322.086.669.12 1.03.07.726.122 1.514.164 2.322a87.965 87.965 0 0 1 .112 3.62l.002.569-.004.53c-.005.39-.015.708-.021.868-.011.293-.008.523.004.74l.02.326c.003.054.006.11.006.168 0 .058 0 .117-.02.178a.593.593 0 0 0 .105-.157 2.696 2.696 0 0 0 .171-.487c.054-.22.086-.454.1-.752.008-.162.019-.485.024-.878l.004-.535-.002-.572a86.494 86.494 0 0 0-.112-3.638 57.708 57.708 0 0 0-.166-2.337 20.942 20.942 0 0 0-.196-1.527c-.023-.152-.046-.298-.065-.44-.08-.564-.141-1.03-.184-1.354l-.067-.506-.236-1.864c-.14-1.133-.327-2.669-.524-4.277l-.753-6.301c-.072-.588-.178-.915-.358-1.392h-.001ZM5.492 4.927c.194.089.323.133.53.096.223-.039 1.336-.253 1.336-.253s1.115-.208 1.337-.254c.205-.042.309-.13.458-.283-.195-.088-.324-.132-.53-.096-.223.039-1.337.254-1.337.254s-1.115.208-1.337.253c-.205.042-.309.13-.457.283ZM10.613 3.943c.19.096.316.145.52.116.222-.03 1.331-.202 1.331-.202s1.11-.166 1.331-.203c.204-.034.31-.117.462-.265-.19-.096-.316-.144-.52-.116-.222.03-1.331.203-1.331.203s-1.11.166-1.331.202c-.204.034-.31.118-.462.265ZM15.556 2.983c.162.09.268.135.43.103.176-.036 1.053-.231 1.053-.231s.878-.19 1.052-.231c.161-.039.238-.124.348-.274-.162-.09-.268-.135-.43-.103-.177.036-1.053.231-1.053.231s-.878.19-1.052.231c-.161.039-.239.124-.348.274ZM20.076 2.165c.145.094.24.142.383.113.154-.03.925-.202.925-.202s.771-.166.924-.203c.142-.034.209-.117.3-.262-.145-.095-.24-.142-.382-.114-.155.03-.925.202-.925.202s-.772.166-.925.203c-.142.034-.207.117-.3.263Z" fill="#1D1D1B"/>
        <path d="m9.862 5.197-3.9.754 3.9-.754Z" fill="#225C5E"/>
        <path d="M9.862 5.197c-.206-.086-.343-.127-.562-.088-.238.042-1.424.275-1.424.275s-1.188.226-1.424.275c-.219.046-.33.135-.49.291.206.085.343.127.562.088.238-.043 1.425-.275 1.425-.275s1.187-.227 1.424-.275c.218-.046.33-.135.489-.291Z" fill="#1D1D1B"/>
        <path d="m14.78 4.245-3.608.698 3.607-.698Z" fill="#225C5E"/>
        <path d="M14.78 4.245c-.192-.088-.32-.131-.523-.095-.22.039-1.317.255-1.317.255s-1.099.209-1.317.254c-.202.042-.305.13-.45.284.193.088.32.131.524.095.22-.039 1.317-.255 1.317-.255s1.098-.21 1.317-.255c.201-.041.304-.13.449-.283Z" fill="#1D1D1B"/>
        <path d="M19.07 3.42c-1.026.196-1.815.348-3.009.578l3.01-.579Z" fill="#225C5E"/>
        <path d="M19.07 3.42c-.164-.094-.273-.141-.442-.112-.184.032-1.1.211-1.1.211s-.916.173-1.098.212c-.169.035-.251.119-.37.267.165.094.274.14.443.111.184-.032 1.099-.211 1.099-.211s.916-.173 1.098-.211c.169-.036.251-.12.37-.268Z" fill="#1D1D1B"/>
        <path d="M23.687 2.538c-.173.02-1.496.286-3.137.6l3.137-.6Z" fill="#225C5E"/>
        <path d="M23.687 2.538c-.169-.1-.284-.144-.46-.114-.192.032-1.146.222-1.146.222l-1.144.22c-.176.037-.263.122-.387.271.17.093.283.14.46.109.191-.033 1.145-.222 1.145-.222l1.144-.221c.175-.036.26-.122.388-.265Z" fill="#1D1D1B"/>
        <g fill="#1D1D1B">
            <path d="M4.902 15.318c.42-.01.703-.032 1.175-.16.224-.06.672-.183 1.218-.332 1.071-.294 2.335-.637 3.545-.96 1.21-.324 2.367-.628 3.222-.841a40.883 40.883 0 0 1 1.309-.307l.1-.02 8.985-1.811c.478-.1.74-.208 1.12-.388a4.321 4.321 0 0 0-1.183.076l-8.987 1.812-.1.02a40.418 40.418 0 0 0-1.32.308c-.86.214-2.017.517-3.228.84-1.21.324-2.475.668-3.547.961l-1.219.336c-.47.132-.723.258-1.09.466ZM6.017 18.542c.418-.03.7-.042 1.17-.172.229-.06.687-.183 1.245-.333l3.67-.968c2.505-.656 4.785-1.239 4.785-1.239l.395-.1c.253-.065.617-.157 1.059-.265l3.354-.775 4.386-1.015a4.326 4.326 0 0 0 1.108-.42 4.312 4.312 0 0 0-1.18.11l-4.387 1.014-3.355.777c-.446.109-.809.201-1.063.265l-.395.1s-2.282.583-4.788 1.238c-1.253.328-2.562.672-3.671.968l-1.246.336c-.47.134-.728.255-1.087.479ZM7.457 22.3c.42-.037.7-.076 1.162-.232l1.203-.409c1.061-.36 2.314-.781 3.514-1.178 1.2-.397 2.348-.77 3.198-1.036.424-.135.774-.241 1.018-.316l.38-.115.382-.112c.244-.073.596-.17 1.023-.282l.334-.077c.114-.028.24-.05.367-.076.254-.051.522-.11.802-.17.56-.12 1.163-.256 1.78-.396l1.86-.43 1.74-.407.7-.167a4.27 4.27 0 0 0 1.106-.426 4.35 4.35 0 0 0-1.18.117l-.7.165-1.739.407-1.858.429c-.617.14-1.22.276-1.777.396-.278.06-.546.119-.798.17-.126.026-.247.047-.368.076l-.346.08c-.435.114-.79.213-1.035.286l-.384.113-.382.115c-.244.075-.596.181-1.021.316-.851.267-2.001.639-3.202 1.036a447.727 447.727 0 0 0-4.72 1.59c-.461.16-.706.303-1.06.532ZM9.32 25.85a4.434 4.434 0 0 0 1.144-.307l1.159-.476a197.38 197.38 0 0 1 3.368-1.34c1.153-.446 2.26-.852 3.082-1.14.41-.144.748-.263.985-.338l.37-.122.096-.032a8.38 8.38 0 0 1 .274-.086l.43-.132c.084-.025.173-.053.268-.08l.299-.081c.414-.117.917-.234 1.458-.375.543-.138 1.128-.29 1.727-.45.598-.16 1.21-.328 1.802-.498.296-.085.588-.17.871-.256l.418-.129.39-.124c.308-.1.56-.188.686-.235.232-.086.408-.17.568-.267.079-.05.154-.102.229-.162.072-.062.15-.126.21-.214-.093.049-.186.069-.272.094l-.26.068a6.97 6.97 0 0 0-.583.182c-.123.044-.372.13-.677.23l-.386.122-.415.128c-.281.085-.571.17-.866.255-.59.169-1.2.336-1.797.496-.597.16-1.182.312-1.723.45l-.775.196c-.122.031-.241.059-.356.09l-.332.09-.303.083c-.096.027-.185.056-.27.081l-.435.133a10.174 10.174 0 0 0-.373.119l-.372.123c-.238.076-.578.195-.99.339-.825.29-1.936.696-3.091 1.144-1.156.446-2.358.926-3.374 1.341l-.893.367-.267.112c-.45.19-.686.348-1.022.6l-.003.001ZM10.738 29.135a4.47 4.47 0 0 0 1.136-.333l1.162-.505c1.024-.442 2.238-.95 3.406-1.418.293-.116.58-.233.864-.342l.824-.319c.532-.198 1.02-.384 1.438-.529l.566-.202.436-.146.375-.126.098-.033c.064-.021.158-.049.28-.087l.438-.135c.085-.026.175-.057.271-.082l.305-.084c.421-.12.934-.245 1.483-.402a45.004 45.004 0 0 0 3.543-1.163c.294-.11.584-.22.863-.332l.413-.167.384-.16c.299-.128.542-.238.663-.293.223-.104.392-.201.544-.309a2.56 2.56 0 0 0 .323-.274.852.852 0 0 0 .05-.059.205.205 0 0 0 .021-.035.04.04 0 0 0 .005-.023c-.002-.01-.011-.012-.017-.012.014.008.006.018-.003.024a.704.704 0 0 1-.097.045c-.044.017-.088.031-.132.045-.087.027-.171.053-.258.082a5.911 5.911 0 0 0-.569.227c-.12.054-.36.162-.655.288l-.381.158c-.134.054-.27.11-.41.165a45.07 45.07 0 0 1-2.645.957c-.596.196-1.183.375-1.73.53-.545.156-1.049.278-1.48.402l-.309.085c-.098.026-.188.057-.274.083l-.442.137-.282.088-.099.033-.378.127-.438.147-.57.202c-.42.146-.91.333-1.444.531l-.827.32c-.284.109-.573.226-.866.342a144.326 144.326 0 0 0-4.313 1.812l-.264.117a4.15 4.15 0 0 0-1.008.624ZM13.743 31.095a4.492 4.492 0 0 0 1.137-.334l1.113-.482c.954-.409 2.084-.88 3.172-1.312l.804-.316.768-.295c.495-.185.95-.357 1.338-.494l.527-.19.405-.138.349-.12s.125-.045.35-.116c.225-.072.545-.179.94-.303a154.632 154.632 0 0 0 4.643-1.543l.81-.287.752-.27.677-.248c.458-.172.7-.321 1.044-.563a4.546 4.546 0 0 0-1.154.264l-.676.246-.75.27-.809.285a163.627 163.627 0 0 1-4.633 1.542c-.393.125-.718.232-.943.305-.226.072-.352.117-.352.117l-.35.12-.407.14-.53.189c-.39.137-.845.31-1.343.495l-.77.295-.807.317a130.966 130.966 0 0 0-4.03 1.684l-.265.117a4.14 4.14 0 0 0-1.008.624l-.002.001Z"/>
            <path d="M8.369 14.49c-.057.417-.068.704.015 1.188l.054.286.039.199.064.302c.022.109.05.22.075.333.106.454.231.947.38 1.448l.055.189.059.189.12.38c.086.25.166.504.258.75.354.991.757 1.913 1.082 2.579.158.336.305.603.401.792.05.094.087.168.116.217a22.052 22.052 0 0 0 .204.366c.1.187.259.448.45.766.39.631.95 1.469 1.61 2.29.329.413.684.82 1.04 1.204.181.189.357.378.535.556l.518.498c.057.058.116.108.171.157l.152.134.219.191c.094.08.176.153.26.21.084.06.164.11.243.157.16.094.318.17.508.259a5.815 5.815 0 0 0-.36-.44 3.666 3.666 0 0 0-.2-.201c-.075-.068-.151-.145-.243-.225l-.214-.19-.15-.131a3.23 3.23 0 0 1-.168-.155l-.51-.49c-.175-.175-.348-.362-.527-.547-.35-.38-.7-.779-1.023-1.186a22.924 22.924 0 0 1-1.589-2.257c-.189-.313-.345-.57-.444-.755l-.16-.287-.042-.074c-.027-.048-.065-.12-.113-.214-.095-.187-.24-.45-.396-.783a25.818 25.818 0 0 1-1.069-2.547c-.09-.244-.17-.495-.255-.743l-.117-.375-.059-.187a24.83 24.83 0 0 1-.43-1.617c-.025-.112-.052-.221-.074-.328l-.064-.299-.039-.196a17.08 17.08 0 0 1-.054-.28c-.087-.478-.184-.738-.329-1.132ZM5.322 14.447a3.82 3.82 0 0 0-.058.568c-.004.184.009.378.046.62.01.066.026.165.047.287l.034.2.062.33c.022.12.05.241.074.366a29.05 29.05 0 0 0 .886 3.244c.363 1.089.78 2.104 1.118 2.838.082.185.164.35.233.497.07.147.128.276.182.379a210.168 210.168 0 0 0 .328.645l.2.369c.04.071.08.148.124.228a28.038 28.038 0 0 0 1.794 2.819c.085.115.166.235.254.35l.265.344.265.344.275.332.27.328c.088.109.184.21.274.313l.268.303.13.147c.022.024.043.049.066.071l.058.061c.225.235.41.427.5.523.044.044.084.086.124.124l.12.105c.079.066.153.124.227.178.15.108.3.2.48.305a5.757 5.757 0 0 0-.317-.471 3.623 3.623 0 0 0-.288-.334l-.118-.127-.493-.518-.058-.06-.064-.071-.13-.146-.265-.299c-.088-.102-.183-.2-.27-.31l-.268-.323-.271-.328a282.19 282.19 0 0 0-.262-.34l-.263-.34c-.087-.114-.168-.232-.25-.347a27.657 27.657 0 0 1-1.776-2.786l-.123-.225-.199-.364-.162-.32-.162-.319c-.053-.101-.11-.23-.18-.374-.068-.146-.15-.309-.23-.492a28.73 28.73 0 0 1-1.105-2.809 28.575 28.575 0 0 1-.876-3.207l-.073-.36c-.02-.113-.042-.222-.062-.328l-.034-.196-.048-.282a5.397 5.397 0 0 0-.129-.6c-.05-.175-.107-.34-.174-.539l.004-.003ZM11.516 12.72a3.46 3.46 0 0 0-.004 1.188l.047.286.036.2.027.148c.01.056.02.112.032.169l.068.35a34.034 34.034 0 0 0 .459 1.924l.054.2.057.2.116.4.124.396c.329 1.05.706 2.031 1.017 2.742.075.18.152.339.215.481.065.142.118.267.168.366a89.724 89.724 0 0 1 .306.624l.188.356c.074.137.152.296.25.464a20.826 20.826 0 0 0 1.724 2.622l.13.162.261.327c.043.055.09.107.135.16l.137.156.273.312c.044.052.093.101.14.15l.14.146.278.289.068.07.072.068.14.132.265.25c.06.055.115.11.17.157l.156.131.223.188c.095.08.18.148.264.207.086.056.167.105.248.15.162.089.323.162.515.244a5.903 5.903 0 0 0-.372-.429 3.78 3.78 0 0 0-.206-.194 6.027 6.027 0 0 0-.244-.221l-.218-.185-.152-.13c-.055-.045-.108-.1-.167-.154a76.106 76.106 0 0 1-.398-.375l-.07-.066-.066-.07-.273-.282-.138-.144c-.047-.049-.094-.096-.137-.148l-.268-.306-.136-.155c-.044-.05-.09-.102-.132-.157a105.94 105.94 0 0 1-.257-.32l-.128-.16a20.464 20.464 0 0 1-1.697-2.582c-.098-.165-.175-.322-.248-.458l-.186-.35-.151-.308-.15-.309c-.05-.098-.102-.22-.166-.361-.063-.14-.139-.298-.213-.475a27.508 27.508 0 0 1-1.004-2.713l-.122-.391-.115-.396-.057-.198-.053-.198-.105-.395a33.313 33.313 0 0 1-.349-1.51l-.068-.346a4.679 4.679 0 0 1-.031-.167l-.027-.147-.036-.196-.048-.283c-.077-.479-.171-.742-.31-1.137l-.001.002ZM14.492 12.72c-.048.418-.055.705.035 1.188.012.065.033.163.057.284l.042.198.063.28.072.309c.103.419.221.875.36 1.339.067.233.144.466.217.701.078.234.154.468.237.697a27.289 27.289 0 0 0 1.18 2.821l.162.318.14.275s.012.025.037.07l.108.2.17.314c.066.122.148.256.234.404.347.594.847 1.382 1.44 2.16l.457.58.478.56c.162.182.328.355.485.526.079.087.16.167.241.246l.23.227.165.163c.052.051.104.095.15.137.091.084.166.15.216.195.092.082.176.153.256.216.082.061.162.112.24.16.159.095.317.174.505.264a5.916 5.916 0 0 0-.355-.443c-.06-.068-.126-.133-.197-.203a5.343 5.343 0 0 0-.237-.23l-.211-.192c-.045-.042-.096-.085-.147-.136l-.162-.16a84.544 84.544 0 0 0-.226-.223c-.078-.078-.16-.156-.236-.242-.155-.168-.318-.339-.477-.517l-.47-.55-.45-.57a21.547 21.547 0 0 1-1.42-2.128c-.084-.147-.165-.279-.23-.398l-.169-.31a59.179 59.179 0 0 1-.107-.197c-.025-.045-.037-.07-.037-.07l-.137-.27-.16-.314-.196-.417a26.895 26.895 0 0 1-.968-2.37c-.082-.227-.157-.459-.235-.69-.072-.232-.148-.463-.213-.693a26.774 26.774 0 0 1-.356-1.324L15 14.601l-.061-.277a10.69 10.69 0 0 1-.042-.195c-.025-.12-.046-.216-.058-.28-.094-.476-.194-.736-.347-1.127v-.001ZM17.187 11.549c-.027.42-.022.705.084 1.183l.064.282.048.196.034.14.04.158.084.326c.234.892.541 1.936.886 2.918.34.984.711 1.907 1.007 2.579l.202.455.162.344.14.298.148.293.17.34.236.44c.35.646.856 1.507 1.466 2.357.154.21.306.427.474.631l.246.31c.082.104.17.2.255.3l.254.292c.086.094.176.185.261.275l.256.267c.041.044.086.083.129.124l.121.114c.12.111.228.213.318.298l.225.187c.375.323.646.436 1.03.598a6.259 6.259 0 0 0-.825-.84l-.218-.183-.31-.292-.118-.111c-.042-.04-.087-.078-.127-.122a85.982 85.982 0 0 0-.25-.26c-.083-.09-.171-.176-.255-.27l-.248-.286c-.083-.097-.17-.192-.25-.293l-.242-.304c-.165-.2-.314-.413-.465-.62-.601-.835-1.1-1.685-1.446-2.322l-.233-.435-.17-.337-.145-.29-.139-.294-.16-.34-.2-.452c-.293-.665-.66-1.58-.997-2.555-.34-.974-.645-2.01-.878-2.894l-.084-.325-.039-.156-.034-.138-.047-.194-.066-.28c-.11-.473-.221-.73-.394-1.112ZM20.015 10.904c-.033.419-.033.704.064 1.184l.06.283.044.197.064.284.073.31c.204.85.476 1.845.777 2.785a32.59 32.59 0 0 0 1.221 3.234 152.896 152.896 0 0 0 .163.358l.098.209c.084.18.21.438.37.748.32.62.786 1.445 1.365 2.253.289.404.605.803.936 1.172.083.092.168.18.25.27l.256.257c.086.081.17.163.256.24l.128.114.064.056.031.028.024.02c.128.104.242.2.343.275.1.076.18.137.237.175.102.07.194.133.286.181.09.05.174.095.262.129a3.162 3.162 0 0 0 .547.17 11.22 11.22 0 0 0-.221-.193c-.07-.06-.135-.12-.206-.176-.07-.055-.14-.116-.22-.175-.081-.058-.166-.124-.263-.193a5.563 5.563 0 0 1-.227-.17c-.097-.071-.207-.165-.33-.265l-.023-.02-.03-.027-.062-.054-.124-.11c-.083-.075-.164-.154-.248-.233l-.247-.25c-.08-.086-.163-.172-.244-.262a13.318 13.318 0 0 1-.914-1.143 18.43 18.43 0 0 1-1.342-2.213c-.157-.306-.282-.56-.366-.739l-.097-.206-.033-.072-.127-.281a32.703 32.703 0 0 1-1.207-3.202 39.437 39.437 0 0 1-.844-3.072l-.064-.28-.044-.196-.06-.28c-.102-.475-.208-.734-.375-1.12ZM22.984 11.05a3.38 3.38 0 0 0 .061 1.187l.064.284a66 66 0 0 1 .078.32l.035.138c.025.093.048.189.075.287.104.39.232.813.37 1.245.071.215.141.434.22.65l.116.326.121.322a26.104 26.104 0 0 0 1.312 2.914c.041.082.078.145.1.188l.036.066.138.253c.086.163.222.39.383.668.33.553.799 1.29 1.342 2.024.139.181.274.369.418.55l.432.535.437.507c.07.084.145.16.216.238a47.614 47.614 0 0 1 .363.392c.05.053.1.1.143.144l.205.205c.088.087.168.162.244.229.078.066.155.12.231.174.152.104.304.193.488.294a5.73 5.73 0 0 0-.327-.464c-.057-.071-.119-.14-.186-.215a4.897 4.897 0 0 0-.225-.242l-.201-.204c-.043-.044-.092-.09-.14-.142l-.155-.168-.203-.218c-.07-.077-.143-.152-.213-.235l-.431-.499c-.14-.175-.283-.351-.427-.528-.141-.178-.275-.363-.412-.542a25.24 25.24 0 0 1-1.325-1.996c-.159-.275-.294-.5-.379-.66l-.136-.25-.035-.065c-.023-.043-.059-.104-.1-.186-.04-.08-.091-.18-.15-.293-.058-.113-.125-.242-.192-.386-.281-.57-.633-1.356-.952-2.2l-.12-.318-.113-.322c-.078-.214-.147-.431-.218-.643a27.997 27.997 0 0 1-.365-1.23c-.027-.096-.05-.191-.074-.283a24.083 24.083 0 0 0-.065-.258l-.047-.194-.065-.279c-.106-.473-.21-.73-.372-1.117v-.002ZM25.528 9.846c-.039.418-.042.704.054 1.185.013.065.032.163.06.284l.042.198.061.269c.023.096.045.195.071.295.096.404.215.84.34 1.289.067.223.13.45.204.675l.106.339.111.335c.297.889.626 1.722.892 2.326.128.305.248.549.326.722a5.239 5.239 0 0 0 .128.267l.131.265c.081.17.211.41.367.702.317.58.776 1.353 1.33 2.115l.208.286c.07.096.147.186.22.28l.223.279c.074.092.154.179.23.267l.23.263c.076.086.158.165.235.247.078.081.155.16.23.24.038.039.076.078.115.113l.11.103c.12.11.228.213.32.298.09.084.171.145.222.189a5.564 5.564 0 0 0 .388.29 5.362 5.362 0 0 0 .643.307 5.785 5.785 0 0 0-.477-.518l-.103-.102a4.79 4.79 0 0 0-.245-.219c-.049-.043-.127-.102-.216-.185l-.311-.291-.107-.1c-.039-.035-.075-.072-.112-.11l-.225-.234c-.075-.08-.156-.157-.23-.242l-.224-.256c-.075-.088-.154-.172-.226-.263l-.218-.272c-.072-.092-.148-.18-.216-.275-.07-.094-.137-.188-.206-.28a19.797 19.797 0 0 1-1.308-2.08c-.153-.288-.281-.524-.362-.692l-.13-.262-.034-.068a4.85 4.85 0 0 1-.091-.195c-.077-.17-.196-.412-.322-.713a28.198 28.198 0 0 1-.99-2.632l-.106-.335c-.071-.223-.134-.448-.2-.67a33.122 33.122 0 0 1-.338-1.275l-.07-.292-.06-.267-.043-.195c-.027-.12-.047-.216-.06-.28-.1-.476-.204-.735-.366-1.122v-.003Z"/>
        </g>
        <path d="M10.59 8.829s1.25-.86 1.483-2.159c0 0 .423 1.914 2.792.143 0 0-.608 2.1 1.824.948 0 0-.023 2.926 2.64 1.676 0 0-1.716.52 1.456 2.394 0 0-2.991-.658-2.451.923 0 0-1.96-1.357-1.976.565 0 0-2.165-2.855-2.782-.493 0 0-1.79-2.728-3.004-.1 0 0 .297-2.65-.523-2.92 0 0-.184-.432.542-.977ZM9.02 12.996s-.076 1.116 1.737 1.243c0 0-1.902 1.783-.303 2.492 0 0-1.988 1.532-.025 2.97 0 0-1.729.781-.58 2.034 0 0-1.893-.9-1.65 2.4 0 0-.702-2.334-2.328-1.693 0 0 1.168-2.728-1.221-2.019 0 0 1.434-3.412-.873-2.988 0 0 2.535-1.662.426-2.559 0 0 2.147-.574 2.168-2.071.284.688 2.598 1.019 2.65.193v-.002Z" fill="#008848"/>
        <path d="M9.824 8.495c-.214-.508-.646-.96-1.205-1.078-.7-.147-1.366.14-1.886.599a1.579 1.579 0 0 0-.322.39 1.355 1.355 0 0 0-1.013-.09c-.171.056-.32.14-.442.25-.567.308-.925.895-.969 1.554-.052.78.488 1.416 1.178 1.695.28.113.583.137.879.1l.042.065c.42.627 1.036 1.152 1.836 1.136.905-.02 1.659-.712 1.687-1.627.01-.312-.08-.591-.233-.83.53-.578.771-1.401.448-2.164Z" fill="#E52330"/>
        <path d="M10.64 13.206c.085-.284.128-.48.125-.827-.001-.06-.002-.154-.011-.353-.003-.07-.01-.19-.018-.291l-.017-.185-.017-.16a5.606 5.606 0 0 0-.04-.275 3.62 3.62 0 0 0-.12-.511c-.056-.17-.125-.3-.217-.406a.596.596 0 0 0-.16-.134.48.48 0 0 0-.202-.068.51.51 0 0 1 .14.138c.017.025.034.048.047.076.014.025.028.05.039.078a3.62 3.62 0 0 1 .252.863 8.471 8.471 0 0 1 .056.42l.015.18c.008.1.014.216.018.285.009.194.01.289.012.346.006.34.041.534.1.823h-.001Z" fill="#44403D"/>
        <path d="M21.007 11.824a2.118 2.118 0 0 0-.814-.209c-.045-.001-.109-.006-.187-.006a2.873 2.873 0 0 0-.126-.002h-.069l-.058.003c-.08.002-.16.007-.243.015a2.276 2.276 0 0 0-.508.102c-.17.058-.344.147-.475.3-.018.017-.03.04-.044.06-.014.022-.03.042-.04.064l-.03.069-.015.034-.009.036c-.012.047-.025.095-.026.143l-.006.071c0 .024.002.047.003.07l.005.068c0 .012.002.023.004.034l.004.022v.002c0-.002 0 0 0 0l-.055-.03a3.178 3.178 0 0 0-.36-.168 1.905 1.905 0 0 0-.6-.14.998.998 0 0 0-.305.033.735.735 0 0 0-.266.142c-.02.014-.036.033-.052.05-.017.017-.034.034-.048.053-.026.038-.056.074-.075.113a1.172 1.172 0 0 0-.136.438c-.004.033-.01.066-.012.097l-.003.047-.005-.005-.049-.057-.091-.102a6.542 6.542 0 0 0-.365-.373l-.12-.11s-.056-.051-.17-.146c-.117-.092-.29-.233-.554-.368a1.346 1.346 0 0 0-.487-.147.747.747 0 0 0-.6.213c-.168.163-.27.382-.343.613l-.025.088v-.002a3.797 3.797 0 0 0-.924-.885 1.713 1.713 0 0 0-.596-.253 1.035 1.035 0 0 0-.668.094c-.025.013-.052.024-.075.04l-.068.046-.047.032a17.828 17.828 0 0 1-.09.077c-.021.021-.045.04-.064.06l-.054.062c-.073.078-.118.15-.15.195-.101.149-.16.278-.198.404-.043.124-.058.25-.08.395.088-.12.153-.222.228-.324.07-.105.141-.214.233-.349.03-.04.072-.105.135-.172l.047-.054c.017-.018.037-.034.056-.051l.059-.053c.004-.005.01-.008.015-.012l.039-.026.055-.039c.019-.013.04-.02.06-.03a.806.806 0 0 1 .524-.074c.182.035.358.119.516.22a3.575 3.575 0 0 1 .823.778l.03.037.014.018.028.037c.076.1.15.212.226.323l.027.04s.005.01.007.009l.002-.012.005-.023.019-.091c.013-.061.025-.122.04-.181l.04-.178.025-.08c.066-.21.157-.398.282-.519a.528.528 0 0 1 .428-.151c.149.013.287.066.405.124.236.12.402.253.511.341.11.09.164.14.164.14s.02.016.114.105a6.667 6.667 0 0 1 .353.361l.089.1.048.054.096.116.052.062c.045.056.12.156.22.285l.018.024.008.01V13.752l-.002-.152c0-.052-.002-.113 0-.169l.008-.123c.002-.028.008-.056.011-.085.006-.06.022-.119.037-.181a.68.68 0 0 1 .197-.335.508.508 0 0 1 .183-.097.779.779 0 0 1 .233-.024c.168.007.348.055.527.125a2.956 2.956 0 0 1 .336.157l.033.018.048.027c.09.051.183.11.281.178l.11.075c.031.017.094.077.06.009l-.076-.244c-.023-.08-.06-.177-.069-.249l-.007-.038c-.002-.01-.004-.018-.004-.027l-.003-.055a.537.537 0 0 1 .115-.39.835.835 0 0 1 .374-.231c.147-.05.304-.077.457-.092.077-.007.154-.012.229-.014l.056-.002h.184c.076.001.138.005.18.006.168.01.301.012.429.009.127-.004.25-.014.397-.023h.004Z" fill="#44403D"/>
        <path d="M10.467 8.896c.133-.065.24-.132.344-.212.103-.081.204-.176.314-.313.02-.027.05-.062.084-.107l.113-.155.073-.11a3.03 3.03 0 0 0 .123-.2c.042-.069.08-.141.116-.215.018-.037.04-.074.056-.112l.05-.117c.016-.04.035-.078.05-.12l.042-.122c.014-.042.03-.082.042-.125l.033-.128.005-.021v.001c0 .002 0 .002 0 0l.008.014.044.075c.062.098.136.19.222.27a1.09 1.09 0 0 0 .628.303c.23.03.453-.008.649-.072.196-.065.369-.154.526-.242.075-.048.15-.092.218-.139.067-.047.132-.091.19-.136.06-.045.114-.088.166-.128.006-.005.015-.011.01-.009v.01l-.003.043c0 .029-.002.057-.003.085a1.72 1.72 0 0 0 .045.47c.023.096.06.187.106.269a.78.78 0 0 0 .176.208.79.79 0 0 0 .42.157c.062.002.122.005.175-.002l.077-.006.069-.012c.177-.03.286-.071.355-.095l.074-.026.021-.009.157-.065c.033-.014.072-.034.12-.056.047-.023.103-.049.165-.084l.006-.002v.005l.005.04c.006.052.014.108.023.167.016.086.045.282.13.553.044.135.1.289.186.452.085.163.198.337.36.49.161.153.378.285.628.334.248.053.513.034.767-.03.128-.028.252-.075.377-.122l.088-.039h-.001c-.002.002 0 0 0 0l-.005.014a1.06 1.06 0 0 0-.035.105c-.012.036-.017.073-.025.11-.005.036-.011.073-.013.11-.014.205.038.41.122.59.086.179.205.336.332.474l.099.1c.033.034.068.064.102.094.034.032.069.061.104.09l.041.032c.034.028.067.055.1.078.13.098.243.168.306.21.149.092.272.153.395.198.121.047.244.074.388.108-.112-.098-.208-.173-.309-.252a5.429 5.429 0 0 0-.353-.242c-.06-.04-.169-.11-.291-.202a1.468 1.468 0 0 1-.094-.073l-.039-.031a1.223 1.223 0 0 1-.097-.084c-.032-.029-.065-.056-.095-.087l-.091-.092a1.768 1.768 0 0 1-.295-.418.982.982 0 0 1-.1-.478c.002-.03.007-.058.01-.088.007-.028.01-.058.02-.086a.83.83 0 0 1 .027-.084l.004-.01.01-.022.023-.046.022-.045c.009-.016.022-.033.033-.05l.034-.05.018-.026.038-.039.163-.167.244-.243.074-.074.037-.037c.006-.005-.002 0-.003 0l-.007.004-.014.007-.09.047-.329.171-.364.19c-.03.015-.063.034-.093.046l-.089.04-.088.038c-.115.043-.23.087-.345.113-.23.057-.46.071-.666.028a1.061 1.061 0 0 1-.52-.278 1.598 1.598 0 0 1-.316-.43 2.608 2.608 0 0 1-.17-.417c-.08-.253-.108-.44-.122-.52a3.955 3.955 0 0 1-.023-.159 7.149 7.149 0 0 0-.011-.105c-.003-.05-.007-.097-.009-.146l-.003-.07-.002-.035v-.017s0-.007-.003-.007l-.007.004-.11.059-.193.104c-.06.033-.113.057-.157.079-.045.021-.083.04-.114.053l-.146.061-.02.009-.069.023c-.063.022-.165.06-.319.086a4.25 4.25 0 0 1-.06.01l-.064.005c-.045.006-.09.003-.14.002a.566.566 0 0 1-.299-.109.556.556 0 0 1-.121-.145.826.826 0 0 1-.083-.211 1.434 1.434 0 0 1-.037-.264 2.026 2.026 0 0 1 .001-.223l.003-.039v-.01l.002-.02.005-.043.009-.079c.002-.02.008-.045.012-.072l.018-.096.056-.267.002-.01-.006.006-.013.01a3.031 3.031 0 0 0-.08.067l-.119.102-.13.11-.07.059-.035.03-.026.021-.159.123c-.056.043-.118.084-.182.13-.065.044-.135.085-.206.13a2.753 2.753 0 0 1-.482.221 1.27 1.27 0 0 1-.55.064.88.88 0 0 1-.502-.243 1.207 1.207 0 0 1-.186-.228l-.039-.064-.01-.02-.02-.036a1.209 1.209 0 0 1-.035-.077l-.034-.079-.031-.1-.016-.052c-.005-.016-.01-.041-.017-.06l-.034-.129-.06-.227-.008-.029-.004-.014-.002.011-.006.036-.01.059-.043.267-.045.269-.024.138-.026.104-.031.12c-.011.04-.027.078-.04.116l-.039.115c-.013.038-.032.075-.047.112l-.047.11c-.015.036-.035.07-.052.106a2.68 2.68 0 0 1-.11.203 2.8 2.8 0 0 1-.117.19l-.069.104-.107.149-.08.102c-.104.132-.186.235-.258.34-.074.102-.139.205-.225.325h-.003ZM8.23 24.337c.023-.147.033-.268.046-.395a2.65 2.65 0 0 0 .009-.198c.003-.07.005-.145.004-.23-.001-.046.003-.114.005-.196 0-.042.003-.086.008-.134l.01-.103c.001-.045.01-.09.016-.136.011-.09.031-.182.051-.273.046-.182.113-.363.211-.523.096-.163.232-.296.387-.392.08-.045.163-.082.249-.11a1.388 1.388 0 0 1 .397-.053h.032l.01.001.018.001.036.004c.048.004.093.007.149.02l.08.017.09.022.18.045.023.005c.005.002.002-.001 0-.003l-.006-.006-.021-.025-.046-.053-.09-.104c-.071-.082-.126-.153-.184-.225l-.043-.054-.011-.013-.006-.008-.008-.015-.036-.058c-.024-.037-.04-.078-.061-.116-.015-.04-.033-.08-.044-.12a.845.845 0 0 1-.034-.236.822.822 0 0 1 .04-.224c.051-.142.136-.265.232-.367.095-.103.199-.185.296-.254.049-.035.097-.065.142-.093l.067-.038.033-.018.063-.032c.085-.043.176-.08.254-.114l.003-.002-.003-.002-.005-.004-.01-.008-.021-.016a9.032 9.032 0 0 0-.04-.03l-.07-.055-.112-.088a1.613 1.613 0 0 0-.056-.044l-.007-.007a2.05 2.05 0 0 1-.466-.536 1.137 1.137 0 0 1-.142-.372c-.011-.046-.012-.084-.016-.114a.363.363 0 0 1-.003-.072v-.046s-.001-.026.006-.088c.005-.062.023-.161.075-.302.053-.139.149-.32.321-.523a2.68 2.68 0 0 1 .32-.317l.011-.01.026-.02.053-.042c.034-.028.076-.055.115-.083l.061-.043.015-.01.008-.005s.007-.004.002-.005l-.031-.016a12.92 12.92 0 0 1-.26-.13l-.066-.043c-.04-.023-.073-.053-.109-.083-.025-.019-.043-.046-.068-.072-.013-.012-.021-.028-.032-.043l-.031-.049A.595.595 0 0 1 10.18 16c-.009-.2.088-.445.235-.683.149-.24.35-.479.575-.706l.086-.085.064-.062.093-.084.048-.043.051-.043.104-.087.105-.088.025-.021c.007-.007.025-.018.006-.014l-.067.005-.273.02-.128.005-.126.002h-.139a4.25 4.25 0 0 1-1.012-.118l-.092-.025-.026-.008-.051-.017c-.035-.01-.065-.024-.096-.035a1.373 1.373 0 0 1-.257-.132 1.038 1.038 0 0 1-.281-.258.844.844 0 0 1-.149-.343.661.661 0 0 0 .002.416.742.742 0 0 0 .302.37c.06.042.164.101.3.156.033.012.069.027.106.038l.056.02.03.008.1.028c.298.075.616.11.94.121.041.002.083.003.124.003h.108-.001s.002-.003-.001 0l-.023.022-.088.088a4.32 4.32 0 0 0-.606.747c-.08.13-.149.264-.197.4a1.095 1.095 0 0 0-.071.407c.004.134.04.257.092.355.014.024.03.046.043.067.015.022.028.044.045.06.032.035.06.071.09.095.045.038.088.077.136.104l.059.038-.013.011a2.862 2.862 0 0 0-.346.343 2.035 2.035 0 0 0-.36.589 1.353 1.353 0 0 0-.087.357c-.01.074-.008.105-.008.105v.057c0 .021 0 .05.004.086.004.037.006.084.02.138.018.111.065.262.167.442.103.18.267.384.511.59-.015-.013-.013-.011.005.005l.01.008a.025.025 0 0 0 .005.004l.012.01.015.011-.036.02-.072.042c-.05.03-.102.063-.156.101a2.049 2.049 0 0 0-.332.285c-.11.117-.215.265-.28.446-.03.092-.048.19-.052.292 0 .102.012.206.043.306.014.05.034.097.053.146.024.046.045.095.073.139l.041.067.01.017.005.007.001.001.004.006.01.014h.003-.009l-.037-.001a1.59 1.59 0 0 0-.464.063 1.443 1.443 0 0 0-.3.132 1.382 1.382 0 0 0-.464.467 2.11 2.11 0 0 0-.237.587c-.022.1-.044.199-.056.296-.007.048-.015.096-.018.144l-.01.11c-.004.05-.007.096-.007.14-.002.086-.006.158-.005.205.002.088.006.166.013.238.01.072.02.138.034.201.025.128.07.246.12.384v.004Z" fill="#44403D"/>
        <path d="M6.412 13.01c-.044.06-.079.115-.12.165l-.057.076-.058.073c-.076.099-.154.202-.258.331-.021.03-.055.068-.095.115-.02.024-.043.05-.067.075l-.038.04-.02.021-.081.08c-.247.237-.548.46-.877.654a6.324 6.324 0 0 1-.511.27l-.066.03-.078.034c-.044.018-.084.037-.13.055-.049.019-.093.037-.145.056l-.319.11-.079.028-.01.003-.004.002.005.001.019.004.038.008.154.03c.127.027.266.052.381.082l.09.022.022.007.02.006.02.006c.026.008.052.018.079.028.103.039.202.086.283.146a.5.5 0 0 1 .176.217.468.468 0 0 1 .016.268c-.04.188-.15.365-.264.52a3.747 3.747 0 0 1-.366.412c-.122.121-.241.226-.348.317-.035.027-.067.055-.1.08-.047.04-.1.082-.15.12-.102.076-.209.15-.3.216l-.066.048-.015.011c-.004.004-.016.01-.005.007a.787.787 0 0 0 .035-.002l.132-.008.205-.012.165-.01c.054-.003.108-.007.157-.004a3.657 3.657 0 0 1 .218.008l.128.012c.04.006.08.016.117.023.078.01.144.039.21.058.032.011.06.026.09.04a.841.841 0 0 1 .43.43c.014.027.022.056.03.08.009.026.019.048.023.07l.024.101a4.815 4.815 0 0 0 .013.094 2.097 2.097 0 0 1-.002.425c-.018.168-.06.394-.151.681a4.632 4.632 0 0 1-.126.349l-.026.063-.025.058-.03.067c-.039.088-.09.184-.14.284-.011.024-.024.049-.037.073l-.004.01s-.003.003-.002.004l.005-.002.018-.007.038-.015.152-.058.158-.06.08-.029.04-.013.028-.01a2 2 0 0 1 .158-.043c.063-.015.138-.029.222-.036a.687.687 0 0 1 .262.023c.085.029.16.082.205.177.047.093.066.219.064.354-.006.274-.084.584-.194.9-.027.078-.058.158-.09.238l-.046.112a3.82 3.82 0 0 1-.056.125l-.06.128-.014.032c-.001.004-.007.012-.005.014l.016-.005.067-.015.267-.06c.024-.005.043-.012.071-.015l.032-.004.065-.01c.042-.008.085-.008.128-.01l.065-.004c.022 0 .043.002.065.003.181.004.362.043.53.114.168.071.323.175.46.298.069.061.131.129.192.197.03.035.057.071.086.107l.066.09.067.102c.085.133.145.252.18.317.073.15.132.267.193.378.06.11.124.215.192.345a1.779 1.779 0 0 0-.186-.822 3.652 3.652 0 0 0-.19-.338l-.072-.11-.072-.098-.094-.117a2.41 2.41 0 0 0-.212-.218 1.886 1.886 0 0 0-.523-.338 1.683 1.683 0 0 0-.611-.132l-.074-.003-.074.004c-.049.003-.098.003-.145.012l-.072.01-.035.005h.004c0-.001-.001.005.005-.01.033-.084.064-.166.093-.249.113-.33.198-.653.205-.97a1.004 1.004 0 0 0-.087-.459.559.559 0 0 0-.337-.289.908.908 0 0 0-.348-.033c-.1.008-.186.024-.256.041-.06.014-.118.03-.174.048l-.01.003.003-.006.027-.066a5.053 5.053 0 0 0 .131-.364c.096-.302.14-.542.16-.726a2.327 2.327 0 0 0 .002-.474l-.003-.025-.012-.083-.027-.12c-.006-.026-.017-.053-.028-.084-.01-.03-.02-.065-.04-.1a1.061 1.061 0 0 0-.148-.242c-.037-.042-.074-.09-.125-.128-.025-.02-.05-.044-.077-.063l-.088-.057a.558.558 0 0 0-.098-.05c-.034-.016-.07-.035-.107-.048-.076-.023-.156-.054-.242-.067-.043-.009-.088-.019-.133-.025l-.14-.014a1.236 1.236 0 0 0-.148-.008l-.065-.001h.001l.002-.001.06-.05c.111-.093.234-.202.362-.328.128-.127.263-.27.389-.439.124-.17.25-.362.304-.609a.692.692 0 0 0-.026-.394.658.658 0 0 0-.105-.178.902.902 0 0 0-.146-.137 1.379 1.379 0 0 0-.34-.177 1.24 1.24 0 0 0-.088-.031l-.022-.007c-.006-.002-.001 0-.002 0l.007-.002.125-.057c.182-.084.36-.178.53-.279a4.91 4.91 0 0 0 .92-.686c.028-.03.057-.058.085-.086l.021-.022a2.284 2.284 0 0 0 .112-.123c.043-.05.079-.093.102-.125a1.47 1.47 0 0 0 .282-.578c.017-.064.024-.133.035-.206l-.002.002ZM9.431 10.577a1.51 1.51 0 0 0 .614-.583c.03-.052.082-.137.162-.328.018-.047.04-.097.056-.152a7.82 7.82 0 0 0 .026-.086l.022-.092c.017-.062.024-.13.035-.199.004-.035.006-.07.009-.106l.003-.054v-.054c.002-.147-.02-.3-.058-.447l-.03-.109c-.01-.036-.025-.07-.038-.106-.023-.07-.058-.136-.088-.201a1.958 1.958 0 0 0-.56-.664c-.03-.022-.056-.043-.078-.058l-.07-.044s-.02-.014-.06-.038c-.04-.02-.096-.056-.171-.088a2.197 2.197 0 0 0-1.798-.015c-.119.054-.222.12-.313.185-.224.169-.33.308-.385.378a1.318 1.318 0 0 0-.216.399 1.492 1.492 0 0 0-.072.4c.077-.127.148-.225.219-.327.072-.101.144-.207.245-.334.05-.063.146-.186.343-.334a1.588 1.588 0 0 1 .61-.274c.239-.055.496-.066.721-.033.227.03.42.097.552.159.067.029.117.06.153.078.035.02.053.033.053.033l.063.04c.02.013.043.032.07.052a1.747 1.747 0 0 1 .494.587c.114.229.193.504.189.76v.048l-.003.048c-.003.031-.004.063-.008.093-.01.06-.016.12-.031.176-.007.028-.012.055-.02.082l-.023.077c-.014.05-.034.094-.05.137-.072.172-.12.25-.147.298-.081.143-.152.25-.216.359-.064.108-.126.212-.205.338h.001Z" fill="#44403D"/>
        <path d="M7.428 9.649a1.383 1.383 0 0 0-.042-.405 1.207 1.207 0 0 0-.2-.41 1.565 1.565 0 0 0-.25-.27l-.024-.022-.028-.022c-.019-.016-.037-.032-.058-.046A2.004 2.004 0 0 0 5.367 8.1c-.235.03-.46.105-.648.212-.19.104-.34.24-.449.37-.028.032-.05.065-.074.095l-.06.091-.085.147-.066.13s-.012.03-.036.081a2.876 2.876 0 0 0-.185.577 2.16 2.16 0 0 0-.046.452 1.74 1.74 0 0 0 .286.993c.195.294.467.522.725.645.252.125.426.151.513.17.18.033.325.023.457 0 .132-.025.252-.072.384-.139a4.29 4.29 0 0 1-.392-.025c-.123-.015-.25-.024-.408-.055-.077-.018-.232-.042-.453-.152a1.649 1.649 0 0 1-.637-.568 1.553 1.553 0 0 1-.249-.869c0-.145.016-.284.041-.407a2.465 2.465 0 0 1 .17-.531l.033-.075.061-.121.078-.136.052-.078c.02-.025.04-.055.064-.082.094-.111.222-.227.387-.318.163-.092.36-.158.568-.185a1.81 1.81 0 0 1 1.181.254c.04.024.076.05.112.076.018.013.034.028.051.04l.025.02.021.018a1.413 1.413 0 0 1 .219.235c.096.129.163.237.228.342.065.105.127.208.194.34h-.001Z" fill="#44403D"/>
        <path d="M5.903 11.109c-.057.137-.09.26-.104.394-.013.133-.007.277.038.453.007.024.014.053.026.088l.043.117c.009.022.016.045.027.068l.036.07.045.087c.018.032.04.061.061.093l.064.093.075.088a2.118 2.118 0 0 0 .808.567c.16.069.331.111.504.144l.13.017.066.007.067.003.132.003.132-.009c.352-.022.686-.161.94-.35a2.047 2.047 0 0 0 .8-1.35 6.19 6.19 0 0 1 .006-.058s.003-.02.005-.058l.004-.07v-.095c0-.035-.004-.075-.007-.118-.006-.043-.009-.09-.02-.14a1.643 1.643 0 0 0-.295-.68 3.273 3.273 0 0 0-.289-.337 2.588 2.588 0 0 0-.817-.564 1.771 1.771 0 0 0-1.044-.122c-.171.031-.336.09-.487.162-.076.036-.146.08-.216.123l-.098.071a.59.59 0 0 0-.047.037l-.04.034a1.934 1.934 0 0 0-.35.405 1.245 1.245 0 0 0-.197.827c.06-.136.114-.242.175-.35.061-.107.12-.22.209-.355.049-.072.15-.217.312-.357l.035-.03a.37.37 0 0 1 .041-.032l.086-.063c.06-.037.122-.077.19-.108.132-.063.277-.116.43-.143a1.56 1.56 0 0 1 .915.108c.29.12.54.313.744.515.1.104.19.208.268.313a1.413 1.413 0 0 1 .256.586c.009.042.011.083.017.12.002.038.005.072.005.103v.083a2.848 2.848 0 0 1-.003.061c-.001.033-.004.05-.004.05l-.006.052a1.81 1.81 0 0 1-.712 1.199 1.575 1.575 0 0 1-.825.306l-.117.008-.119-.003-.06-.002-.058-.007-.118-.014a2.16 2.16 0 0 1-.859-.35 1.884 1.884 0 0 1-.32-.288l-.066-.077c-.02-.027-.037-.055-.055-.082-.018-.027-.038-.052-.053-.08l-.04-.075-.032-.06c-.01-.02-.015-.041-.023-.06a36.764 36.764 0 0 1-.038-.1c-.01-.03-.017-.058-.023-.079-.041-.157-.066-.281-.091-.403-.023-.121-.047-.24-.06-.387v.001ZM16.842 10.758a2.442 2.442 0 0 0-.696-.464c-.054-.025-.14-.065-.323-.142a15.103 15.103 0 0 0-1.916-.668l-.255-.065-.057-.015-.16-.036a5.299 5.299 0 0 0-.239-.052 8.76 8.76 0 0 0-1.322-.17c-.109-.001-.213-.008-.307-.006-.268 0-.434.016-.52.02-.087.01-.165.021-.237.035-.071.012-.136.034-.198.052-.126.037-.239.096-.37.16.149.005.27 0 .397.002.064 0 .128-.007.198-.009.07-.003.145-.008.228-.017.083-.003.242-.018.501-.018.091 0 .192.005.298.007.106.005.217.014.33.023a8.706 8.706 0 0 1 .957.142c.09.017.169.035.235.05l.156.035.056.014.25.065c.153.042.364.101.593.175a15.05 15.05 0 0 1 1.612.622c.311.14.501.19.788.261ZM7.574 19.288c.01-.296.016-.49-.03-.828-.005-.058-.02-.15-.039-.344a13.385 13.385 0 0 1-.064-1.047c-.002-.183 0-.35 0-.47l.008-.197.007-.166c.001-.104.016-.247.03-.407.008-.08.012-.165.024-.25l.035-.26c.013-.085.02-.17.036-.25l.043-.223c.044-.256.09-.41.108-.492.02-.083.036-.157.048-.226.012-.07.028-.132.037-.195.02-.126.031-.248.041-.397a3.755 3.755 0 0 0-.198.349c-.027.059-.058.12-.08.188a3.816 3.816 0 0 0-.065.227c-.02.084-.067.242-.112.504l-.044.23c-.016.08-.024.167-.037.255l-.035.264c-.013.087-.017.174-.025.256-.014.164-.028.31-.03.415l-.007.17-.008.2c0 .123-.002.293 0 .48.008.372.036.808.065 1.066.02.197.035.291.042.35.05.342.12.533.252.798h-.002ZM4.558 10.28c.08.043.137.056.198.018a.938.938 0 0 0 .204-.175l.05-.066c.014-.022.025-.044.035-.061.01-.018.018-.033.021-.044l.007-.018s.01-.025.023-.065c.007-.041.023-.098.019-.158.003-.06-.014-.118-.024-.17-.015-.047-.032-.084-.04-.104-.012-.036-.04-.053-.067-.068a.342.342 0 0 0-.109-.024c-.016.043-.03.076-.035.104-.007.029 0 .051.007.077l.028.075c.005.034.019.074.015.11.004.039-.007.072-.01.098l-.014.04s-.004.018-.019.04c-.007.012-.013.026-.024.041l-.034.046a.824.824 0 0 1-.155.135c-.048.033-.055.081-.075.17ZM7.69 7.827c-.008.09.003.148.062.19a.919.919 0 0 0 .24.118l.08.02c.026.005.05.006.071.008a.27.27 0 0 0 .05.003h.018s.028 0 .07-.005c.04-.01.098-.017.152-.044.058-.02.104-.06.147-.088.038-.033.066-.063.08-.077.029-.026.034-.057.037-.09a.323.323 0 0 0-.02-.108c-.046.001-.082.002-.11.008-.029.005-.047.02-.068.037l-.06.055c-.028.017-.06.046-.095.057-.034.018-.07.02-.094.029-.026 0-.043.002-.043.002s-.017.004-.044-.002c-.013-.002-.03-.002-.047-.006a.793.793 0 0 1-.24-.104c-.05-.03-.097-.018-.185-.002Z" fill="#44403D"/>
        <path d="M7.521 11.49c-.007-.017-.011-.033-.007-.043l-.047.037c.003.008.014.02.017.024a.256.256 0 0 0 .041.04.336.336 0 0 0 .18.073l.07.006c.03.002.062.005.109.005a.485.485 0 0 0 .3-.103.336.336 0 0 0 .105-.146.331.331 0 0 0 .015-.154c-.006-.042-.017-.072-.024-.095a6.371 6.371 0 0 1-.017-.035l-.019-.033a.444.444 0 0 0-.063-.073.646.646 0 0 0-.234-.135.69.69 0 0 0-.484.014c-.125.056-.168.15-.169.267.057-.017.102-.02.14-.028a.587.587 0 0 0 .115-.034.456.456 0 0 1 .326-.006.43.43 0 0 1 .153.085c.016.014.024.026.03.034l.008.013s.001.005.006.013c.002.01.008.026.01.042.005.034-.002.065-.04.098a.27.27 0 0 1-.16.05 1.578 1.578 0 0 1-.155-.008.387.387 0 0 0-.171.024l-.025.01-.01.006s-.004.001-.004.003v.001l-.004.005a.04.04 0 0 1-.011.009l-.04.024.005.002a.1.1 0 0 0 .054.006v.001Z" fill="#44403D"/>
    </g>
    <defs>
        <clipPath id="a">
            <path fill="#fff" d="M0 0h36v35.438H0z"/>
        </clipPath>
    </defs>
</svg>
