<svg xmlns="http://www.w3.org/2000/svg" fill="currentColor" viewBox="0 0 24 24">
  <defs/>
  <path d="M16.835 6.82c.165 0 .33.067.462.198.857.792 2.67 3.759 2.703 3.924 0 .099-.099.132-.297.165-.264-.033-.56-.033-.824-.033h-.082c.104 1.085.088 2.19.07 3.37-.015 1.094-.032 2.253.045 3.52-1.286.165-4.78.33-5.011.198.017-.467-.038-1.742-.09-2.934-.047-1.08-.09-2.092-.075-2.374-.198-.165-2.902-.099-3.495 0-.027.19-.02.882-.013 1.738.01 1.234.025 2.807-.053 3.702-1.023.062-2.3-.017-3.413-.085-.68-.042-1.3-.08-1.763-.08-.347-2.867-.061-5.914.08-7.129-.396.008-.83.007-1.036-.025-.363-.066 1.681-3.297 2.637-4.022a.776.776 0 01.429-.165h6.396V5.073s2.209-.165 2.176 0c-.033.1 0 1.154.033 1.748h1.12zm-7.88 8.276c.066 0 .1-.89.1-1.22v-1.055s-1.452.132-1.65.1c-.164-.034-1.22 0-1.22 0s.067 1.944 0 2.175c-.055.112.434.082.625.07l.068-.004c.112-.009.222-.02.331-.03.307-.03.606-.06.922-.036.118.015.249.003.378-.008.16-.014.318-.028.446.008zm7.682-.033c.165.033 1.22 0 1.22 0s-.066-1.912.033-2.143c.029-.143-.515-.112-.701-.101l-.057.002c-.396.033-.792.066-1.187.033a3.48 3.48 0 00-.249.014c-.197.015-.417.031-.575-.014-.034-.033-.1.857-.1 1.187-.032.33-.032 1.088-.032 1.088s1.45-.099 1.648-.066z" clip-rule="evenodd"/>
</svg>
