<svg xmlns="http://www.w3.org/2000/svg" xml:space="preserve" id="Layer_1" x="0" y="0" style="enable-background:new 0 0 729.9 730.7" version="1.1" viewBox="0 0 729.9 730.7"><style>.st0{fill:#6a0f5a}</style><path id="Layer_3_00000016070685182191259180000004531855413265714575_" d="M317.9 646.4C251.6 640 153.7 584 149.3 360.3c0-23.5 0-46.8 4.3-70.3 6.4-27.6 12.8-157.8 198.5-166.2 123.8 1.5 159.1 239.1 159.1 239.1 30.4-16.6 97.7-47.6 140.1-79.3 0 0 .8 5.6-.3.8-8.7-39.1-25.6-76.5-49.4-111.8-29.9-40.4-63.9-74.7-106.6-98.2-49-27.7-98.1-42.5-151.3-42.5-55.5 0-108.9 14.8-162.1 44.8-42.7 25.6-76.7 55.5-102.3 89.5-36.3 47-53.5 134.2-49.1 262.3 2 63.9 21.2 117.4 61.9 159.8 89.3 93.6 144.2 109.2 191.6 110.2 19.4.5 29.4 1 39.4 1 7.2 0 14.1-.3 20.7-.5 1 0 20.7-2.8 20.7-2.8-11.5-8.4-17.6-23 1.3-56-.4.1-26.2 6-47.9 6.2z" class="st0"/><g id="Layer_2_00000094601716658554462000000007845462376293284511_"><path id="_x2E_svg_00000103228028265407402310000005806022721621639564_" d="M682.1 297.6c-38.4 38.4-99 66.2-145.8 95.9-66.2 42.7-117.4 95.9-125.8 177 4.3 8.4 8.4 2 23.5-14.8 42.7-53.2 85.4-61.9 147.1-93.9-4.3 51.1-48.1 51.1-86.7 130.2-8.4 21.2-14.8 49.1 17.1 49.1 192.1-10.7 188.2-148.6 188.2-294.4-.2-15.1-6.9-49.1-17.6-49.1z" class="st0"/><path id="_x2E_svg_00000050637069760231679080000001688825997499410846_" d="M504.1 520.1s-7.2 2.6-9.5 4.6c-25.6 19.2-51.9 52.9-71.4 78.5-14.8 19.2-63.7 72.1-32 74.7 46.5 0 84.1-97.7 116.1-144.5 2.4-6.4 1.1-13.3-3.2-13.3z" class="st0"/></g><path d="M329.8-112.2H400V843h-70.2z" style="fill:#00964f" transform="rotate(-45.001 364.935 365.36)"/></svg>