<svg xmlns="http://www.w3.org/2000/svg" viewBox="0 0 729.9 730.7">
    <path d="M386.2 83.3 442.4 48c17.5-4.7 32.7 10.6 23.9 26.3-8.6 15.2-65.6 38.5-80.1 54v61.2c0 .5-2.2 1.2-1.8 2.5 4.4 3.2 51.1-34.2 63.3-35.3s24.5 15.3 18 27.5c-8.2 15.3-66.4 40.1-81.3 54.6v97.7l84.9-46.9c1.1-1.5 1.6-3.2 1.8-5 3.9-24.7 1.4-59.7 7.6-82.7 5.1-18.9 32.4-17.5 37.8.3l-4.6 64.7 56.8-31.3c1.7-2.4 2.9-13.2 3.4-17.1 2.9-21.5 1.5-48.7 5.7-69.3 4.2-20.4 39.8-24.9 38.6 11.5-.2 7.1-6.9 49.7-5.3 51.8l63.7-34.9c16.8-3.8 28.2 7.5 24.8 23.8s-44.6 29.1-55.4 35.2l-10.1 7.3c2.3 4.7 50.6 22.5 59.1 30 14.8 13.1 1.8 35.6-17.4 31.9l-84.4-39.9-58.3 33.2c16.8 7.9 37.3 15.4 53.2 24.6 23.5 13.6 11.9 41.8-12.5 35.8-21.8-5.4-53.7-29.7-76.7-37-1.8-.6-3.5-1.6-5.6-1.3l-82.5 45 84.2 47.8 77.1-34.1c19.6-8.2 37.7 14.1 22.2 29.8-6.8 6.8-57.7 24.4-57.7 28l56.2 31.2 5.8-.5c22.6-7.2 56-30.2 77.9-34.3 19.1-3.6 30.8 20.6 16.1 32.6-8.3 6.8-41.1 18.2-53.3 23.8-1.9.9-4.5-.1-3.6 3.3.9 3.1 52.2 26.2 57.7 33.1 11.6 14.5.4 34.2-19.2 30.3-8.7-1.7-57.5-34.4-59.8-31.9l3.4 67c-3.3 18.7-32.1 19.8-37.7 2.4-1.8-5.6-2.4-20.7-2.9-27.8-.8-11.2.3-60.5-5.3-66.2l-56.7-31.4 3.1 68.4c-6.1 21.1-35.3 17.7-38.4-3.2-3.6-24.7-1.2-54.5-3.7-79.7-.3-3-.9-6.1-2.3-8.9L384 397.8v97.7l72.5 49.4c13.5 12 2.3 36-16.2 32.6-13.7-2.5-41.5-29.7-56.3-35.4v63.7l73.8 50.7c12 12.5-.5 34.2-17.5 31.4-14.2-2.3-41.2-29.5-56.3-35.4v63.7c0 1.3-6.1 9.8-7.9 11.1-6.5 4.5-16.6 4.5-23.1 0s-7.9-9.8-7.9-11.1v-63.7c-19.4 7.3-37.7 25.9-55.7 34-17.5 7.9-35.2-6.4-28-23.4 7.2-17 70.8-43.6 83.7-57.4V542c-18.9 7.9-36.5 25.4-54.4 33.7-23.6 11-39.8-13.6-24.5-28.6l78.5-49.6c-1.2-32.2 3.5-64.6.4-96.5l-85.8 47.7c-1.9 2.8-2.3 6-2.8 9.2-3.3 22.7-2.1 48.2-5.8 70.9-2.4 14.7-11.8 22-27.4 17-12.7-4.1-11.5-17.7-11.1-28.4.5-14.3 4-30.6 5.3-45l-60 30.8-7.9 85.1c-3.4 11-11.6 14.9-23.4 13.1-26.6-4.2-6.7-57.1-9.9-74.7-2-2.6-51.2 30.2-60.2 31.6-18.2 2.9-30.8-19.1-16.1-32.5l58.6-33c-12.8-6.6-64.5-25.6-68.3-37.3s6-28.1 22.7-25.2l86.8 40.1 58-30.3c.9-1.1-3.1-3.1-4.1-3.7-13.3-7.9-51.4-20.9-59.8-29.4-14.5-14.7 1.7-37.2 21.4-30.7l83.8 39.6 89.8-49.7-85.9-48.3-82.8 36.1c-18.7 6.5-33.3-18.1-19.9-31 10.3-10 46.9-19.6 61-27.3L145 262l-85.4 36.4c-15.3 2.9-26.2-9.4-22.7-23.6 3.5-14.7 52.3-26.8 65.2-36L40 203.2c-15.2-13.8-3.5-35.6 16.5-32.9l63.3 35.3c-.3-7.6.4-15.4 0-23-.5-12.7-6.1-38.4.2-49s30.5-9.6 34.3 4c3.8 13.6 2.3 12 2.6 16.2 1 12.5.3 68.3 5.2 74.9L219 260l-3.2-63.3c4.9-19.8 34.9-20.9 38.6-.3 3.9 21.8 1.9 48.8 3.7 71.2.4 5.3 2.1 10.8 2.6 16.2l86 47.6v-89.2c-25.2-20.2-55.8-34.7-79.3-56.5-7.3-13.6 3.9-29 19.5-27.3 14.1 1.5 44.4 31.5 59.8 37.1v-63.7l-74.5-50.9c-14.4-11.8-2.8-34.8 14.7-32.9s44.6 31 59.8 37.1V12.8c0-6.1 13.7-13 20.3-12.8 7.1.2 18.7 8.1 18.7 14.5v68.8h.5Z" style="fill:#3c3c3c"/>
    <path d="M332.6-113h69.2v956.8h-69.2z" style="fill:#00964f" transform="rotate(-45 367.125 365.332)"/>
</svg>
