<svg viewBox="0 0 50 50" fill="none" xmlns="http://www.w3.org/2000/svg">
    <path d="m50 25-2.601 2.525 1.981 3.038-3.099 1.885 1.25 3.404-3.44 1.143.458 3.596-3.612.35-.346 3.608-3.596-.457-1.143 3.439-3.404-1.25-1.885 3.1-3.038-1.982L25 50l-2.525-2.601-3.038 1.981-1.885-3.099-3.403 1.25-1.138-3.44-3.597.458-.35-3.612-3.608-.346.457-3.596-3.444-1.143 1.25-3.404-3.1-1.885 1.982-3.038L0 25l2.601-2.525L.62 19.437l3.099-1.885-1.25-3.403 3.444-1.138-.457-3.597 3.607-.35.35-3.608 3.598.457 1.138-3.444 3.403 1.25 1.885-3.1 3.038 1.982L25 0l2.525 2.601L30.563.62l1.885 3.099 3.404-1.25 1.143 3.444 3.596-.457.35 3.607 3.608.35-.457 3.598 3.439 1.138-1.25 3.403 3.1 1.885-1.982 3.038L50 25Z" fill="#CD4D10"/>
    <path d="M13.924 19.928c.394.223.744.484 1.049.782.305.3.566.649.776 1.062.21.414.362.852.445 1.31.082.464.14.941.178 1.437.012.178.019.369.025.56.007.19.007.394.007.604 0 1.227-.147 2.193-.446 2.893-.299.7-.635 1.15-1.017 1.348-.54.318-1.106.56-1.691.73-.585.172-1.285.255-2.092.255-.649 0-1.29-.044-1.927-.14a4.506 4.506 0 0 1-1.43-.47 4.493 4.493 0 0 1-1.208-.916 4.609 4.609 0 0 1-.859-1.297 4.119 4.119 0 0 1-.35-1.628c-.063-2.34.242-3.954.903-4.832.465-.623 1.094-1.17 1.876-1.64.973-.56 1.965-.846 2.97-.846a5.583 5.583 0 0 1 2.79.788Zm-1.545 9.41c.527-.146.909-.425 1.144-.826.14-.21.255-.464.35-.756.095-.293.152-.624.178-.992.032-.401.063-.782.095-1.139.032-.356.045-.654.045-.896 0-.89-.121-1.621-.356-2.2-.242-.579-.573-1.017-.992-1.31-.528-.254-1.05-.381-1.558-.381-.973 0-1.85.451-2.62 1.348-.572.648-.909 1.214-1.017 1.697a8.864 8.864 0 0 0-.095 1.285c0 1.354.26 2.441.775 3.255.56.814 1.33 1.183 2.302 1.1.426-.044.788-.076 1.087-.095.306-.013.528-.045.662-.09ZM28.93 21.645c-.242.19-.522.286-.827.286-.496 0-.846-.178-1.03-.54-.013-.051-.013-.134-.013-.242 0-.082.006-.172.013-.26a.438.438 0 0 1 .127-.261l.242-.414c-.21-.159-.42-.241-.617-.241-.3 0-.572.082-.833.254-.26.172-.42.445-.483.827-.051.318-.077.636-.07.947.006.312.006.623.006.928.267.083.56.134.89.147.33.012.712-.013 1.164-.064.032.146.05.28.05.394 0 .096-.018.255-.063.484a3.212 3.212 0 0 0-.064.61c-.082.013-.171.013-.26.013h-.26a.688.688 0 0 0-.262-.058c-.114-.006-.241-.006-.387-.006a3.89 3.89 0 0 0-.668-.032l.095 2.29c.032.572.077 1.08.134 1.532.057.451.133.858.229 1.214.032.02.14.038.33.051.191.013.426.02.7.032.286.012.502.044.648.095-.012.242-.012.433-.012.56v.178c0 .171.044.318.14.445-.636.044-1.196.07-1.68.089-.482.019-.921.025-1.309.025-.337 0-.661.02-.96.057-.299.039-.572 0-.82-.101a.688.688 0 0 1-.14-.395 4.91 4.91 0 0 1-.02-.368c0-.064 0-.115.007-.153.006-.038.013-.108.026-.216h.686c.096 0 .16 0 .197-.006.039-.007.096-.013.166-.026.019-.318.031-.68.038-1.093.006-.414.006-.77.006-1.069 0-.54-.032-1.055-.089-1.551-.057-.49-.14-1.011-.248-1.552a1.38 1.38 0 0 0-.286-.006c-.108.006-.222.013-.35.025-.146.032-.26.051-.343.058-.083.006-.146.006-.197.006-.127 0-.235 0-.324-.006a3.833 3.833 0 0 1-.267-.026c-.09-.012-.185-.019-.287-.032-.101-.012-.222-.012-.356-.012a3.892 3.892 0 0 0-.667-.032l.095 2.289c.02.604.064 1.144.127 1.621.064.477.14.903.242 1.285.032.032.165.057.394.076.21.02.369.051.458.096 0 .082.006.158.025.222a.976.976 0 0 1 .026.19c0 .115 0 .23-.007.331-.006.108-.019.217-.038.331-.394.02-.763.032-1.106.038-.343.007-.655.007-.928.007-1.05 0-1.92-.108-2.607-.318-.02-.096-.045-.178-.064-.255a.964.964 0 0 1-.032-.241c0-.21.09-.47.267-.776.108.019.21.032.318.032.032 0 .083 0 .16-.007.076-.006.177-.019.317-.038a3.66 3.66 0 0 1 .426-.031c.127 0 .242.006.337.012.02-.299.038-.591.045-.89.012-.299.019-.585.019-.858a12.979 12.979 0 0 0-.33-3.001 1.393 1.393 0 0 0-.287-.007c-.108.006-.223.013-.35.026a2.73 2.73 0 0 1-.343.057c-.083.006-.146.006-.197.006-.051 0-.102 0-.153-.006a.41.41 0 0 1-.133-.038c-.21-.395-.318-.738-.318-1.03 0-.083.012-.166.031-.242.02-.076.045-.146.064-.223l.763-.05c.35-.032.617-.09.795-.172a5.126 5.126 0 0 1-.076-.858c0-.776.324-1.47.966-2.08.649-.616 1.373-.922 2.175-.922.095 0 .203.007.324.026.12.019.248.038.375.07.127.032.254.07.375.108.121.044.223.089.312.146.082.064.203.159.356.286.152.127.292.267.42.426l.095-.146c.172-.178.362-.33.579-.445.216-.115.445-.21.674-.286.235-.077.47-.127.712-.153.241-.025.483-.038.712-.038.49 0 .94.14 1.367.413.254.16.483.4.68.732.108.178.19.35.248.515.057.165.09.33.09.502-.007.19-.039.35-.103.483Zm-8.445 1.29c.242.084.522.147.833.192.312.044.668.038 1.075-.013l.381-.064c.35-.032.617-.089.795-.171a10.297 10.297 0 0 1-.082-1.158v-.413c-.267-.369-.522-.642-.763-.807a1.441 1.441 0 0 0-.859-.255c-.432 0-.788.255-1.062.763a4.831 4.831 0 0 0-.318 1.927Z" fill="#fff"/>
    <path d="M30.277 26.477c-.114.267-.178.503-.178.713 0 .616.274 1.125.814 1.538.49.382 1.043.573 1.666.573.477 0 .877-.121 1.208-.363.096-.076.184-.165.26-.28.077-.114.16-.254.249-.438a.729.729 0 0 1 .21-.032c.4 0 .724.14.966.413-.14.528-.324.922-.56 1.176a4.115 4.115 0 0 1-.743.61 2.243 2.243 0 0 1-.903.312c-.204.02-.375.038-.528.045-.146.013-.273.019-.382.019-.464 0-.94-.108-1.43-.318a32.11 32.11 0 0 1-.98-.687 7.86 7.86 0 0 1-.514-.394c-.445-.4-.744-.846-.89-1.335a5.242 5.242 0 0 1-.242-1.539c0-1.157.394-2.098 1.176-2.83.744-.699 1.672-1.048 2.798-1.048.146 0 .292.006.426.025.14.013.28.032.426.057.648.108 1.252.464 1.812 1.081.585.649.877 1.335.877 2.067 0 .19-.019.362-.057.521a2.015 2.015 0 0 1-.184.49l-5.297-.376Zm.274-.807c.114-.02.318-.038.604-.045.286-.006.661-.019 1.131-.031.808-.013 1.425-.07 1.857-.172.045-.49-.095-.871-.413-1.145-.286-.222-.668-.33-1.145-.33a2.67 2.67 0 0 0-1.411.381c-.445.287-.668.623-.668 1.018a.953.953 0 0 0 .045.324ZM42.04 24.112a2.303 2.303 0 0 0-.7-.127c-.19 0-.38.05-.565.159a2.892 2.892 0 0 0-.54.42 5.16 5.16 0 0 0-.51.584 5.94 5.94 0 0 0-.438.662c-.044.337-.07.763-.076 1.271-.013.509-.02 1.03-.02 1.558v.712c.115.083.21.134.287.146.076.013.19.013.35.013.076 0 .19-.006.35-.013.158-.006.28-.018.368-.018.108 0 .197 0 .28.006a.598.598 0 0 1 .229.07c.019.082.038.178.05.273.013.096.02.178.02.255 0 .05-.007.127-.02.222a1.385 1.385 0 0 1-.05.254c-.02.083-.032.147-.038.172-.007.032-.007.076-.007.127-.082.02-.184.038-.292.045-.108.006-.223.019-.344.019a5.87 5.87 0 0 1-.387-.02c-.172-.012-.363-.018-.566-.031-.204-.013-.395-.02-.573-.032a6.2 6.2 0 0 0-.394-.019c-.203 0-.508.02-.922.05-.14.033-.26.058-.375.077-.114.02-.197.032-.26.032-.147 0-.261-.006-.344-.013a.572.572 0 0 1-.229-.076 2.079 2.079 0 0 1 .013-.445c.019-.146.05-.305.076-.464.051.012.134.012.248 0 .115-.013.23-.02.356-.032.267-.05.445-.127.54-.223.052-.305.102-.667.153-1.08a11.966 11.966 0 0 0 0-2.607 11.58 11.58 0 0 1-.07-1.348c-.095-.14-.356-.223-.775-.255-.178-.012-.318-.019-.414-.032-.095-.012-.165-.038-.203-.076.032-.235.095-.566.19-1.004a1.67 1.67 0 0 1 .427-.147 2.86 2.86 0 0 1 .527-.044c.083 0 .197 0 .344.006.146.006.305.013.483.026.21.019.375.031.496.031.114 0 .26-.012.426-.031.013.05.019.171.025.368.007.191 0 .445-.006.763.223-.298.432-.54.636-.73.203-.192.4-.338.598-.446.197-.108.394-.178.597-.222.204-.045.413-.064.636-.064.299 0 .598.064.91.19.508.21.839.471.985.783.108.21.14.598.108 1.163a.95.95 0 0 1-.12.477 1.392 1.392 0 0 1-1.215.719c-.54 0-.846-.26-.91-.782-.012-.236.077-.452.255-.649.21-.229.35-.432.4-.623Z" fill="#fff"/>
</svg>