<svg width="153" height="91" viewBox="0 0 153 91" fill="none" xmlns="http://www.w3.org/2000/svg">
<g clip-path="url(#clip0)">
<path d="M87.8358 74.3218C86.8412 69.1458 83.6802 18.643 84.6074 7.14777C85.0985 1.02553 5.63952 0.432829 4.96405 9.79647C4.96405 9.79647 2.79404 29.3187 4.96405 46.2415C7.13406 63.1643 6.81849 75.6268 10.2916 75.9979C11.2525 76.0999 19.4113 76.413 28.1977 76.7014C28.1634 76.3004 28.1469 75.8942 28.1481 75.4826C28.1481 67.482 35.2591 64.1298 42.9907 64.1298C50.7222 64.1298 53.69 72.8374 54.4275 75.4826C54.5889 76.0613 54.3921 76.6786 54.3229 77.2625C72.0695 77.3469 88.3021 76.7454 87.8358 74.3218Z" fill="#FDC500"/>
<path d="M29.9618 48.8935L29.9139 48.948L30.0717 49.0975L30.1355 49.0096L29.9583 48.8935H29.9618ZM42.7088 48.7634H42.6291C42.6168 48.811 42.6114 48.8602 42.6131 48.9093C42.6131 48.9463 42.6539 48.9762 42.7266 49.0852C42.7266 48.9181 42.7124 48.8443 42.7088 48.7704V48.7634ZM35.5606 42.2102L35.5446 42.1557L35.3248 42.212C35.3336 42.2366 35.3443 42.263 35.3514 42.2894L35.5606 42.2102ZM32.6211 34.3187L32.5679 34.3468L32.6477 34.5227L32.7133 34.491L32.6211 34.3151V34.3187ZM34.511 41.6632C34.4583 41.6254 34.4026 41.5919 34.3444 41.563C34.3444 41.563 34.2859 41.6263 34.2947 41.6421C34.3139 41.6852 34.3478 41.7201 34.3905 41.7406C34.41 41.7406 34.4525 41.7037 34.511 41.6632ZM38.5745 48.6508L38.6117 48.5435L38.3812 48.4855C38.3731 48.51 38.3678 48.5354 38.3653 48.5611C38.4326 48.5945 38.5053 48.6227 38.5745 48.6508ZM31.2383 47.0187L31.1762 47.0626L31.2791 47.2385L31.3677 47.1699C31.3234 47.1224 31.2808 47.0714 31.2383 47.0222V47.0187ZM38.9698 44.7041L38.9042 44.7252L38.9503 44.9011L39.0549 44.8466C39.0266 44.7991 38.9964 44.7534 38.9698 44.7077V44.7041ZM40.8455 44.6338L40.9519 44.6039C40.9235 44.5371 40.897 44.4685 40.8704 44.4016L40.8065 44.421C40.8189 44.4913 40.8331 44.5617 40.8455 44.6338ZM50.3908 46.1938L50.3252 46.2941L50.5237 46.4119L50.5751 46.3328L50.3978 46.1938H50.3908ZM31.5237 40.2527C31.5042 40.2158 31.4918 40.1947 31.4812 40.1718C31.4495 40.1905 31.4198 40.2123 31.3925 40.2369C31.3925 40.2369 31.4191 40.2984 31.4244 40.2949C31.459 40.2846 31.4923 40.2705 31.5237 40.2527ZM33.9082 34.899C33.9189 34.9307 33.9295 34.9641 33.9384 34.9975C34.0022 34.9659 34.0678 34.9377 34.1281 34.9008C34.1281 34.9008 34.1157 34.8551 34.1086 34.8305C34.0412 34.8516 33.9756 34.8744 33.9082 34.899ZM49.2756 49.8855L49.3465 49.8591C49.3252 49.8063 49.304 49.7535 49.2845 49.699C49.2606 49.7069 49.2374 49.717 49.2153 49.7289C49.2313 49.7817 49.2543 49.8345 49.2756 49.8855ZM39.741 37.4915L39.5921 37.3684C39.557 37.4039 39.5272 37.4441 39.5035 37.4879C39.5035 37.4985 39.546 37.5565 39.5673 37.5565C39.6288 37.5418 39.6883 37.52 39.7446 37.4915H39.741ZM34.7805 37.8221L34.8284 37.7131L34.6227 37.6234C34.6068 37.6515 34.5926 37.6796 34.5784 37.7078L34.7805 37.8221ZM30.7844 41.5735L30.8837 41.5577C30.8706 41.4982 30.8541 41.4395 30.8341 41.3818C30.8341 41.373 30.7862 41.3818 30.7614 41.3818C30.7614 41.4487 30.7756 41.5155 30.7844 41.5823V41.5735ZM36.7555 49.896C36.7555 49.8573 36.7697 49.8186 36.7768 49.7799L36.5144 49.7553C36.5144 49.7799 36.5144 49.8046 36.5144 49.8274L36.7644 49.896H36.7555ZM32.2417 41.3994H32.318C32.318 41.3326 32.3268 41.2658 32.3321 41.1989C32.3062 41.1957 32.28 41.1957 32.2541 41.1989C32.2453 41.2605 32.2453 41.3238 32.2417 41.3871V41.3994ZM30.4192 41.2112L30.3625 41.1778L30.2685 41.315L30.3572 41.3695C30.3784 41.3168 30.3997 41.264 30.4192 41.2112ZM36.8441 48.5083L36.7626 48.4292L36.6349 48.5928C36.6491 48.6086 36.6668 48.6244 36.681 48.6385L36.8441 48.5083ZM41.0494 33.8069C41.0264 33.7858 41.0016 33.7611 40.9803 33.7383L40.8562 33.8913L40.9094 33.937L41.0494 33.8069ZM37.2998 50.0209L37.3583 49.9241C37.2962 49.8925 37.2324 49.8608 37.1686 49.8345C37.1686 49.8345 37.1313 49.8925 37.1367 49.8978C37.1881 49.9417 37.2448 49.9804 37.2998 50.0209ZM37.9256 49.787C37.8984 49.8347 37.8787 49.8863 37.8671 49.94C37.8671 49.9628 37.9061 49.9892 37.9309 50.0156C37.9667 49.9698 37.9992 49.9216 38.0284 49.8714C38.0284 49.8714 37.9752 49.8274 37.9256 49.787ZM36.4116 50.1387L36.4541 50.1792L36.58 50.0789L36.5073 50.0033L36.4116 50.1387ZM39.7924 46.542C39.7517 46.4488 39.718 46.3662 39.679 46.2765C39.5123 46.4928 39.5123 46.4928 39.7924 46.542ZM37.1207 37.3068C37.0782 37.3982 37.0516 37.4545 37.0214 37.5161L37.2661 37.5776L37.1207 37.3068ZM33.3303 40.3283L33.4047 40.3196C33.4047 40.2351 33.3852 40.1437 33.3746 40.0645H33.3019C33.3019 40.1507 33.3214 40.2404 33.3303 40.3213V40.3283ZM39.663 43.969L39.7623 44.0182C39.8013 43.9162 39.8403 43.8177 39.8811 43.7175L39.8031 43.6841L39.663 43.969ZM40.4147 43.9831C40.397 43.9619 40.381 43.9391 40.3651 43.918L40.2091 44.0358C40.225 44.0552 40.2516 44.0921 40.2569 44.0886C40.3101 44.0569 40.3615 44.02 40.4147 43.9831ZM31.0628 44.6866C30.9918 44.4913 30.9387 44.3735 30.7543 44.523L31.0628 44.6866ZM33.0484 33.9018C32.958 34.0777 32.958 34.0777 33.1459 34.1498L33.0484 33.9018ZM39.8297 48.6332C39.8297 48.7722 39.8421 48.8601 39.8492 48.985C40.0495 48.8759 40.0265 48.7827 39.8297 48.6332ZM38.0178 50.7332H38.1259C38.1259 50.6593 38.1259 50.5854 38.1135 50.5098H38.0444L38.0178 50.7349V50.7332ZM36.1811 49.1521C36.1811 49.2875 36.1722 49.3631 36.1687 49.4598C36.4027 49.3297 36.4027 49.3297 36.1811 49.1521ZM30.0575 42.9647L29.976 42.9524C29.9618 43.0298 29.9494 43.1037 29.937 43.1811L30.0274 43.1934C30.038 43.1177 30.0469 43.0404 30.0575 42.9647ZM45.1678 48.482L45.2104 48.3835L45.0189 48.2639C45.0083 48.3114 44.971 48.3923 44.987 48.4046C45.0418 48.4391 45.1016 48.4652 45.1643 48.482H45.1678ZM39.3138 41.7987C39.2461 41.7613 39.1732 41.734 39.0975 41.7178C39.0709 41.7178 39.039 41.7899 39.0106 41.8286C39.0653 41.866 39.1249 41.8956 39.1879 41.9165C39.2145 41.9165 39.2553 41.8585 39.3209 41.7987H39.3138ZM40.2073 45.2511C40.186 45.376 40.1718 45.4674 40.1594 45.5589C40.3491 45.4938 40.4325 45.4147 40.2073 45.2511ZM32.029 42.0484C32.029 42.0097 32.0166 41.9693 32.0095 41.9306L31.7826 41.9904C31.7826 42.0185 31.795 42.0449 31.8003 42.0713L32.029 42.0484ZM39.7517 42.8346C39.9644 42.7625 39.9644 42.7625 39.8226 42.5848C39.796 42.6763 39.7765 42.7466 39.7517 42.8346ZM38.6011 45.1122C38.5833 45.2089 38.5532 45.2722 38.5709 45.2881C38.616 45.3294 38.6675 45.3632 38.7234 45.3883C38.7429 45.3461 38.7872 45.2881 38.773 45.2617C38.7213 45.2018 38.6616 45.1492 38.5957 45.1051L38.6011 45.1122ZM36.3335 43.1248L36.4488 43.218C36.4878 43.1476 36.5286 43.0773 36.5658 43.0069C36.5658 43.0069 36.5073 42.963 36.502 42.9682C36.4417 43.0175 36.3885 43.072 36.3335 43.1248ZM32.7789 46.5755C32.7789 46.7056 32.7612 46.8006 32.7505 46.9272C32.9385 46.79 32.9385 46.79 32.7789 46.5755ZM39.89 32.4456H39.9751C39.9751 32.3664 39.9751 32.289 39.9751 32.2117H39.89C39.89 32.289 39.89 32.3664 39.89 32.4438V32.4456ZM47.1978 48.8935C47.1613 48.9447 47.1315 49.0002 47.1091 49.0588C47.1067 49.1464 47.1108 49.234 47.1216 49.3209C47.1678 49.2279 47.208 49.1322 47.2421 49.0342C47.2421 49.0061 47.2208 48.9639 47.1978 48.8935ZM37.7501 41.5771L38.0586 41.7125C38.0586 41.5894 38.0462 41.5032 38.0391 41.3906L37.7501 41.5771ZM49.7631 49.5829C49.7507 49.6322 49.7366 49.6797 49.7241 49.7289C49.811 49.7535 49.9014 49.7782 49.9883 49.7958C50.0036 49.7652 50.0144 49.7326 50.0202 49.699C49.9369 49.6568 49.8429 49.6199 49.7631 49.5829ZM39.4911 46.1164L39.5868 46.1463C39.6059 46.0487 39.6189 45.95 39.6258 45.8509C39.6258 45.8333 39.5673 45.8122 39.5301 45.7875L39.4911 46.1164ZM36.6544 38.0578L36.9399 38.2055C36.9186 38.0683 36.9044 37.991 36.8849 37.8766L36.6544 38.0525V38.0578ZM38.0603 36.7264L38.11 37.0289L38.4043 36.8143L38.0603 36.7264ZM52.3267 46.3257L52.4881 46.6634C52.5537 46.4875 52.5679 46.3503 52.3267 46.3257ZM30.0026 47.7574L29.8891 47.7785C29.9068 47.8682 29.9246 47.9543 29.9441 48.0475L30.0806 48.0106C30.054 47.9262 30.0292 47.8347 30.0026 47.7574ZM31.4351 34.8885C31.3251 35.2121 31.3251 35.2121 31.6017 35.1875L31.4351 34.8885ZM38.4557 40.3407C38.2784 40.1648 38.1649 40.1472 38.0231 40.2685L38.4557 40.3407ZM30.8482 42.2929C30.7735 42.2487 30.693 42.215 30.6089 42.1926C30.5805 42.1926 30.5433 42.2612 30.5096 42.2999C30.5687 42.3439 30.6323 42.3817 30.6993 42.4125C30.7241 42.4125 30.772 42.3562 30.8482 42.2929ZM52.9472 44.5142L52.7487 44.7921C52.9845 44.7815 52.9845 44.7815 52.9472 44.5142ZM42.0511 46.9131C41.904 47.1963 41.911 47.2157 42.161 47.3704C42.1273 47.2332 42.099 47.1172 42.0511 46.9131ZM41.6628 48.1566C41.6628 48.489 41.6628 48.489 41.927 48.4011L41.6628 48.1566ZM34.6883 48.7405C34.9808 48.8812 34.9808 48.8812 35.0978 48.7405C35.0345 48.7082 34.9643 48.6914 34.8931 48.6914C34.8219 48.6914 34.7517 48.7082 34.6883 48.7405ZM33.0076 49.0201C33.2753 49.1081 33.2753 49.1081 33.3303 48.8671L33.0076 49.0201ZM37.0852 50.5292L37.2484 50.1774L36.9541 50.042C37.0055 50.2267 37.0338 50.3357 37.0852 50.5239V50.5292ZM35.2326 42.6341L35.5038 42.875C35.6208 42.5743 35.6208 42.5743 35.2326 42.6341ZM42.0706 45.376L41.9199 44.9451C41.8649 45.1069 41.8118 45.2669 42.0706 45.376ZM30.2224 45.9265C30.2969 46.1375 30.3501 46.2782 30.3997 46.4312L30.5043 46.3908C30.421 46.2536 30.4529 46.0725 30.2206 45.9265H30.2224ZM28.0932 45.9933C28.1198 46.1797 28.1357 46.2782 28.1535 46.3873C28.3627 46.2554 28.3627 46.2554 28.0932 45.9933ZM52.0714 46.4998C51.8711 46.7425 51.8711 46.7425 51.9846 46.9096C52.0058 46.8938 52.0413 46.878 52.0431 46.8586C52.0573 46.739 52.0644 46.6194 52.0714 46.5069V46.4998ZM31.2489 43.1951C31.2915 43.0931 31.3393 43.0333 31.3287 42.9876C31.3181 42.9419 31.2489 42.9014 31.2046 42.8592C31.1709 42.9102 31.1124 42.9612 31.1124 43.0122C31.1124 43.0632 31.178 43.1072 31.2489 43.1881V43.1951ZM35.1333 38.2372L35.0358 38.2987C35.0766 38.3656 35.1032 38.4553 35.1634 38.494C35.2237 38.5326 35.2911 38.4729 35.4241 38.443C35.284 38.3445 35.2078 38.2917 35.1333 38.2372ZM33.0661 48.0475C32.9917 47.9033 32.9367 47.8013 32.8729 47.68C32.724 47.9209 32.724 47.9209 33.0661 48.0475ZM44.8115 50.0262C44.6466 50.2952 44.8239 50.3146 44.9764 50.3427C44.9976 50.3427 45.0295 50.2917 45.0756 50.246L44.8115 50.0262ZM30.3341 48.8372C30.2827 48.985 30.2295 49.1327 30.1568 49.3525C30.4564 49.1626 30.4564 49.1626 30.3341 48.8372ZM40.4041 48.744L40.5105 48.7036C40.4679 48.5277 40.5388 48.3202 40.2587 48.1988C40.3137 48.4046 40.358 48.5734 40.4041 48.744ZM39.601 42.0449C39.7073 41.9183 39.858 41.8321 39.7038 41.6527C39.5389 41.7371 39.4184 41.8163 39.601 42.0449ZM33.3516 38.9741V38.8703C33.2753 38.8492 33.1424 38.7929 33.1299 38.8141C33.0677 38.9386 33.0196 39.0695 32.9863 39.2045L33.3409 38.9741H33.3516ZM37.9841 37.6427C37.7235 37.9716 37.7235 37.9716 37.8352 38.1246C38.0408 38.0173 38.0125 37.845 37.9841 37.6427ZM32.8303 49.1608H32.7151C32.7151 49.2892 32.7151 49.4176 32.7062 49.6304C32.9332 49.4335 32.942 49.3051 32.8303 49.1661V49.1608ZM35.9896 43.1125C36.0322 43.3059 36.0534 43.4044 36.0818 43.5293L36.3655 43.3763L35.9896 43.1125ZM40.2995 36.7158C39.8563 36.7 39.7552 36.7721 39.796 37.0236L40.2995 36.7158ZM33.1743 50.9354L33.7061 51.0673C33.7203 50.9688 33.7292 50.8915 33.7522 50.7314C33.5749 50.9196 33.3551 50.6488 33.1796 50.9354H33.1743ZM37.3281 38.6435C37.5054 38.4799 37.6136 38.3867 37.5285 38.2249C37.4735 38.1229 37.4469 37.9628 37.2413 38.0683C37.2661 38.2266 37.2891 38.3884 37.3281 38.6435ZM45.7139 50.2161C45.8823 50.086 46.189 50.144 46.2582 49.8309C45.9869 49.8696 45.7529 49.903 45.7139 50.2161ZM40.2623 34.4189C40.1683 34.8269 40.2623 34.9465 40.5814 34.9008C40.4821 34.7531 40.4041 34.6229 40.2623 34.4189ZM39.4857 42.8785C39.6134 42.7027 39.6967 42.5919 39.5797 42.4529C39.4981 42.3562 39.3935 42.3492 39.2712 42.4529L39.4857 42.8768V42.8785ZM40.5601 36.088C40.4803 36.4942 40.4821 36.496 40.7835 36.5787C40.7161 36.4028 40.9023 36.146 40.5601 36.088ZM44.854 48.9938C44.7903 48.9069 44.6975 48.8454 44.5923 48.8203C44.487 48.7952 44.3762 48.808 44.2796 48.8566C44.2477 49.0114 44.2424 49.1362 44.448 49.101C44.5792 49.0782 44.7087 49.0325 44.854 48.9938ZM40.4218 44.5142L39.9751 44.2451C39.8066 44.4087 39.8066 44.4087 39.8775 44.6268L40.4218 44.5142ZM46.8361 49.7553C46.9177 49.8907 46.985 49.9998 47.0684 50.1334C47.1942 49.9664 47.4105 49.8661 47.2793 49.685C47.1481 49.5038 47.0134 49.6937 46.8361 49.7553ZM37.7625 40.8612C37.5214 40.5499 37.4274 40.5587 37.2466 40.8771C37.4097 41.0283 37.5692 40.9861 37.7625 40.8612ZM44.4002 48.139L44.2814 48.0335C44.1662 48.1144 44.0013 48.1689 43.9463 48.2797C43.9269 48.3135 43.9151 48.3511 43.9117 48.3899C43.9083 48.4287 43.9135 48.4677 43.9268 48.5043C43.9401 48.541 43.9613 48.5743 43.9888 48.602C44.0164 48.6297 44.0496 48.6512 44.0864 48.6649C44.1998 48.4749 44.3009 48.3131 44.4002 48.1372V48.139ZM33.8621 49.4422C33.8302 49.8309 33.8958 49.9048 34.2788 49.9488C34.254 49.5618 34.254 49.5618 33.8621 49.4422ZM33.8444 48.7229C34.0589 49.1907 34.0589 49.1907 34.3993 49.0483C34.2664 48.6438 34.222 48.6121 33.8444 48.7229ZM39.2358 48.482L39.1843 48.5189C39.2021 48.6948 39.2216 48.8706 39.2393 49.036C39.7144 48.5189 39.7144 48.5189 39.5939 48.1724C39.5318 48.3641 39.4769 48.5347 39.4166 48.7423C39.3634 48.6649 39.3404 48.6332 39.3173 48.6016C39.2943 48.5699 39.2641 48.5207 39.2358 48.482ZM41.755 44.2768C41.6123 44.3442 41.4783 44.4287 41.3561 44.5283C41.3295 44.5529 41.4483 44.7217 41.4997 44.8273C41.9217 44.5863 41.9217 44.5863 41.755 44.2768ZM29.3005 43.1969C29.2136 43.3534 29.1605 43.5012 29.3236 43.5838C29.3785 43.612 29.5008 43.5047 29.5984 43.4589L29.7916 43.7826C29.781 43.1898 29.781 43.1898 29.3005 43.1969ZM35.9754 40.316C35.7981 40.5429 35.6581 40.7276 35.3851 40.6678C35.3691 40.6678 35.3265 40.7821 35.2964 40.8437C35.5748 40.6906 35.885 41.0512 36.1173 40.7522C36.0765 40.6273 36.0375 40.5025 35.9754 40.3178V40.316ZM32.458 47.9192C32.5148 47.6465 32.7328 47.344 32.3339 47.1611L32.5378 46.6704C32.3694 46.8463 32.263 46.9729 32.1318 47.1136C32.1318 47.3915 32.5201 47.5674 32.458 47.9192ZM50.9847 47.9649C50.9545 48.2727 51.146 48.5593 50.9847 48.8443C50.9687 48.8742 51.0644 48.9674 51.1088 49.0307C51.1797 48.9815 51.2861 48.9463 51.3162 48.8777C51.4438 48.584 51.0644 48.3659 51.1708 48.0616C51.1708 48.0458 51.1141 48.0053 51.0822 47.9807C51.051 47.9713 51.0189 47.9654 50.9864 47.9631L50.9847 47.9649ZM39.2287 36.4063C39.367 36.102 39.6488 35.9297 39.4485 35.5533L38.9166 35.9297L39.2375 36.4063H39.2287ZM36.4222 38.9635C36.4222 38.9213 36.4399 38.8774 36.4488 38.8334C36.2059 38.6857 35.963 38.5344 35.7272 38.3884C35.5499 38.61 35.5978 38.8246 35.651 39.0269C35.6829 39.1447 35.8283 39.1851 35.8815 39.0902C36.018 38.8756 36.1846 38.8404 36.4133 38.9635H36.4222ZM41.5175 49.0923C41.3863 48.9357 41.2834 48.8126 41.1735 48.6842C41.2285 48.591 41.2817 48.4978 41.3313 48.4099L41.0122 48.0704C40.7356 48.2938 40.7214 48.3149 40.8473 48.533C40.9677 48.6835 41.0361 48.8685 41.0423 49.0606C41.0423 49.1274 41.1558 49.2013 41.2196 49.2734L41.5192 49.0887L41.5175 49.0923ZM35.5393 34.4453C35.3514 34.5666 35.3088 34.6528 35.4205 34.8445C35.7219 35.3722 35.9914 35.9103 36.4417 36.3377C36.49 36.3996 36.5577 36.4438 36.6341 36.4632C36.7105 36.4826 36.7913 36.4762 36.8636 36.445C37.1988 36.2982 37.511 36.1045 37.7909 35.8699C38.2128 35.4619 38.5372 34.9764 38.4291 34.3345C38.422 34.2926 38.422 34.2498 38.4291 34.2079C38.5089 33.7101 38.2252 33.339 37.8884 33.0822C37.2519 32.5933 36.2183 32.7059 35.6989 33.1632C35.5067 33.3288 35.3721 33.5504 35.3141 33.7963C35.2787 33.9722 35.4418 34.1955 35.534 34.4453H35.5393ZM33.7753 41.5753C33.598 41.7213 33.4615 41.8356 33.325 41.9534C33.2399 42.0255 33.1246 42.0889 33.0803 42.1821C32.8569 42.6569 32.4953 43.0703 32.4687 43.6331C32.4545 43.9637 32.2914 44.3225 32.38 44.6144C32.4899 44.9855 32.3924 45.3936 32.6459 45.7383C32.8995 46.083 33.0378 46.4752 33.3055 46.7848C33.7575 47.3124 34.3532 47.6342 34.995 47.9156C35.9559 48.3342 36.8991 48.139 37.8476 47.9578C38.1313 47.9033 38.3795 47.7204 38.6613 47.6237C38.7595 47.6029 38.8457 47.545 38.9016 47.4623C38.9576 47.3796 38.9788 47.2785 38.961 47.1805C38.7495 46.9774 38.527 46.786 38.2944 46.6071C37.9398 46.3627 37.5338 46.1903 37.3423 45.7612C37.3015 45.6697 37.165 45.6169 37.0817 45.5466C36.9044 45.4059 36.6686 45.3021 36.5711 45.121C36.2875 44.581 35.862 44.1466 35.4843 43.6929C35.0482 43.1793 34.6653 42.6376 34.2699 42.0924C34.1352 41.9165 34.082 41.607 33.7824 41.5841L33.7753 41.5753ZM30.2614 45.8333C30.421 45.4534 30.5309 45.0752 30.1745 44.6549C30.1409 44.7694 30.1213 44.8875 30.116 45.0066C30.1533 45.2828 30.2118 45.5536 30.2614 45.828C30.5203 45.7823 30.4476 46.0689 30.5859 46.1463L30.8855 46.1657C30.8287 46.2976 30.7897 46.3926 30.7543 46.4787C31.0433 46.6441 31.139 46.3996 31.3021 46.2536C31.1035 45.9951 31.3287 45.8051 31.4794 45.5853L31.1461 45.3039C31.1579 45.2182 31.1478 45.131 31.1168 45.0502C31.0859 44.9694 31.035 44.8976 30.9688 44.8413C30.9688 45.0366 30.8872 45.2353 31.1603 45.2933C31.0503 45.5061 30.9422 45.7154 30.8181 45.9599C30.6568 45.8702 30.4919 45.7031 30.2738 45.828L30.2614 45.8333ZM35.4595 49.9136C35.4294 49.7623 35.3975 49.6111 35.3549 49.3983L34.8071 49.692L35.1617 49.9277C35.1457 50.0842 35.0748 50.3058 35.1244 50.3357C35.4152 50.5116 35.151 50.6769 35.1244 50.8281C35.2344 50.9143 35.3248 50.9829 35.4436 51.0726L35.6333 50.8967C35.5446 50.7771 35.4666 50.7209 35.456 50.6435C35.4116 50.406 35.2875 50.1669 35.4329 49.9241C35.4507 50.0209 35.4702 50.1159 35.4879 50.2126H35.5889C35.6031 50.1053 35.6191 49.9963 35.6333 49.8855C35.5938 49.8802 35.5539 49.8802 35.5145 49.8855C35.4892 49.8972 35.4659 49.9126 35.4453 49.9312L35.4595 49.9136ZM36.7732 42.2894C36.5055 42.4213 36.2839 42.2067 36.0268 42.1522C36.1421 42.6693 36.1421 42.6693 36.2963 42.7976C36.4085 42.7182 36.5152 42.6312 36.6154 42.5373C36.6748 42.4589 36.7225 42.3724 36.7573 42.2806L37.1012 42.2243L36.6934 42.1082C36.6832 42.1269 36.6743 42.1463 36.6669 42.1663L36.7732 42.2894ZM50.7046 48.8689C50.5663 49.1732 50.5663 49.1732 50.9652 49.3965C50.8464 49.1696 50.7719 49.0237 50.6957 48.8689C50.9935 48.489 50.9935 48.489 50.6691 48.2656C50.6602 48.394 50.6514 48.5224 50.6443 48.6051C50.4758 48.6508 50.3216 48.6473 50.2666 48.7194C50.2117 48.7915 50.2666 48.9322 50.2666 49.0571L50.6975 48.8619L50.7046 48.8689ZM39.0319 49.5355C39.0514 49.3737 38.9166 49.3297 38.7943 49.2787C38.8776 49.3631 38.9574 49.4458 39.0407 49.5284L39.3155 49.801L39.5744 49.2734C39.4148 49.2734 39.3102 49.2453 39.2517 49.2822C39.1668 49.3532 39.0927 49.4362 39.0319 49.5284V49.5355ZM38.7128 41.5612L38.4504 41.505C38.4532 41.6303 38.5032 41.7501 38.5904 41.8409C38.654 41.8331 38.7119 41.8009 38.7518 41.7512C38.7695 41.6967 38.7199 41.6193 38.6968 41.5507C38.7553 41.4944 38.8741 41.4153 38.8617 41.3854C38.8103 41.2552 38.7092 41.2622 38.5887 41.3643L38.7128 41.5612ZM40.1098 35.5814C39.9644 35.5357 39.8226 35.5217 39.7659 35.7028C39.7659 35.7362 39.8137 35.8242 39.8421 35.8259C39.8774 35.8304 39.9132 35.8268 39.947 35.8156C39.9807 35.8043 40.0114 35.7856 40.0368 35.7609C40.0622 35.7362 40.0817 35.7062 40.0937 35.6729C40.1057 35.6397 40.11 35.6042 40.1062 35.5691C40.3615 35.694 40.3615 35.694 40.4342 35.4636L40.1098 35.5814ZM36.9452 40.9721L37.025 40.6942H36.9399C36.9399 40.7927 36.9523 40.8911 36.9541 40.9861C36.8353 40.9597 36.7236 40.9509 36.6775 41.1075C36.8548 41.213 36.8991 41.0934 36.9452 40.9791V40.9721ZM52.1636 44.866C52.2168 45.0067 52.2842 45.1051 52.5182 44.9222L52.1512 44.8765C52.247 44.7639 52.2647 44.6672 52.0378 44.567L52.1601 44.866H52.1636ZM42.512 44.2222C42.6893 44.3577 42.9163 44.4579 43.0333 44.632C43.3613 45.1245 43.8719 45.4129 44.2867 45.8051C44.386 45.9001 44.597 45.9353 44.5136 46.1569C44.5136 46.1692 44.5402 46.2132 44.5509 46.2114C44.9054 46.1745 45.0242 46.5262 45.2884 46.6423C45.5568 46.7328 45.8083 46.8665 46.033 47.038C46.3876 47.3652 46.8379 47.4038 47.2634 47.5938C47.3603 47.531 47.4713 47.4928 47.5865 47.4824C47.7018 47.4719 47.8179 47.4897 47.9247 47.534C48.0063 47.558 48.0925 47.5622 48.1761 47.5463C48.2597 47.5304 48.3383 47.4948 48.4051 47.4425C48.7863 47.1805 49.2756 47.1084 49.6284 46.783C49.8662 46.5767 50.0587 46.324 50.194 46.0408C50.3484 45.7124 50.4455 45.3603 50.4812 44.9996C50.4918 44.8765 50.4812 44.7516 50.4812 44.6285C50.4743 44.5791 50.4789 44.5288 50.4947 44.4814C50.5106 44.4341 50.5372 44.391 50.5725 44.3554C50.6078 44.3199 50.6508 44.2929 50.6983 44.2765C50.7458 44.2601 50.7965 44.2548 50.8464 44.2609C51.2222 44.2609 51.5963 44.275 51.9704 44.275C52.0379 44.2618 52.1042 44.2435 52.169 44.2205C52.3923 44.1835 52.6175 44.1519 52.8426 44.1167C52.9411 44.1075 53.0384 44.0893 53.1334 44.0622C53.4472 43.9461 53.7592 43.8212 54.073 43.6981C54.2698 43.8547 54.3319 44.0235 54.1865 44.2258C54.0748 44.3735 54.0996 44.5335 54.0695 44.6954C53.984 45.1367 53.8618 45.5702 53.7043 45.9916C53.5259 46.5105 53.3139 47.0175 53.0696 47.5094C52.8581 47.8914 52.6118 48.2534 52.3338 48.591C52.1441 48.832 51.903 49.0325 51.692 49.2593C51.5676 49.401 51.4157 49.5164 51.2455 49.5989C51.0753 49.6814 50.8901 49.7292 50.701 49.7395C50.6177 49.5777 50.5397 49.4053 50.295 49.5267C50.4386 49.7025 50.4386 49.7025 50.7116 49.7272C50.5574 50.1475 50.1532 50.1704 49.8075 50.2706C49.5065 50.3739 49.1984 50.4556 48.8856 50.5151C48.3112 50.5925 47.7598 50.9038 47.1499 50.7367C47.0103 50.7039 46.8643 50.7099 46.728 50.7543C46.3876 50.8616 46.0543 50.7982 45.7174 50.7543C45.3221 50.7086 44.9267 50.6734 44.5314 50.6259C43.9694 50.5571 43.4269 50.3777 42.9358 50.0983C42.5581 49.8872 42.1433 49.7465 41.7497 49.5583C41.6829 49.5204 41.6065 49.5026 41.5297 49.507C41.4529 49.5113 41.3791 49.5377 41.3171 49.5829C40.9111 49.8362 40.4803 50.0508 40.0619 50.2865C39.991 50.3287 39.9431 50.4096 39.874 50.4623C39.7635 50.5522 39.6381 50.6224 39.5035 50.6699C38.6028 50.8704 37.7465 51.2415 36.814 51.3171C36.5463 51.3382 36.2821 51.4261 36.0162 51.4384C35.6368 51.4578 35.2556 51.4279 34.8745 51.4384C34.4933 51.449 34.1104 51.449 33.7292 51.4719C33.1299 51.5123 32.5626 51.3417 31.9847 51.2432C31.6425 51.1852 31.3305 51.0884 31.2099 50.6892C31.1124 50.3691 30.6639 50.1897 30.2685 50.3568C30.1501 50.4177 30.0155 50.4406 29.8834 50.4224C29.7512 50.4041 29.6281 50.3455 29.531 50.2548C28.8648 49.7374 28.2917 49.1118 27.8361 48.4046C27.4815 47.8629 27.3557 47.2332 27.0543 46.6775C27.0188 46.6124 27.0543 46.5139 27.0401 46.433C27.0366 46.2927 27.0194 46.1531 26.9887 46.0162C26.7564 45.2687 26.8327 44.5107 26.8823 43.7509C26.9466 43.064 27.1718 42.4015 27.54 41.8163C27.751 41.4645 27.9584 41.0477 28.368 40.8243C28.4561 40.756 28.5375 40.6794 28.6109 40.5957C28.7243 40.4972 28.8413 40.4005 28.9654 40.3055C28.9867 40.2879 29.0275 40.2914 29.0417 40.2721C29.3962 39.8306 29.9281 39.6758 30.3873 39.4068C30.7419 39.201 31.0964 39.0163 31.451 38.8158C31.5544 38.7478 31.6527 38.6725 31.7453 38.5907C31.5897 38.5182 31.4591 38.4017 31.3699 38.256C31.2806 38.1102 31.2367 37.9415 31.2436 37.7711C31.2411 37.7428 31.2317 37.7156 31.2163 37.6917C31.2008 37.6678 31.1798 37.648 31.155 37.6339C30.8234 37.5214 30.8004 37.2822 30.7809 36.9726C30.7809 36.7844 30.6142 36.591 30.499 36.4151C30.3878 36.2549 30.3427 36.0585 30.3731 35.8664C30.4281 35.3634 30.3891 34.8498 30.444 34.3468C30.4996 33.8856 30.5909 33.4293 30.717 32.982C30.7454 32.88 30.928 32.8061 31.0504 32.7498C31.1542 32.7119 31.2617 32.6848 31.3712 32.6689C31.0574 32.3049 31.2861 32.0428 31.4829 31.7896C31.9013 31.2531 32.4899 30.9102 33.0431 30.5461C33.3356 30.3544 33.6919 30.1135 34.1068 30.1944C34.6121 29.9358 35.206 30.1346 35.7166 29.8936C35.7846 29.876 35.856 29.876 35.924 29.8936C36.6722 29.9974 37.431 30.0695 38.1685 30.2207C38.803 30.3488 39.4056 30.6005 39.9414 30.9612C40.3136 31.1849 40.6535 31.4577 40.9519 31.772C41.3437 32.238 41.5334 32.8008 41.771 33.3443C41.7848 33.3689 41.7903 33.3972 41.7869 33.4252C41.6433 33.9335 41.9642 34.4084 41.8986 34.9043C41.8596 35.191 41.9376 35.5269 41.6203 35.7257C41.597 35.7429 41.5806 35.7679 41.5742 35.796C41.3455 36.8706 41.1487 37.2593 40.436 37.8889C40.013 38.2675 39.5594 38.611 39.0797 38.9161C38.6454 39.1904 38.6365 39.3997 38.9822 39.7954C39.2588 40.1138 39.4911 40.4655 39.7534 40.7962C39.9609 41.0565 40.1807 41.3045 40.3988 41.5577C40.4254 41.5894 40.4679 41.6087 40.4945 41.6421C40.8184 42.0631 41.1428 42.4852 41.4678 42.9084C41.7231 43.2426 41.9766 43.5785 42.2319 43.9145L41.9164 43.9619C42.0499 44.1063 42.1926 44.242 42.3436 44.3682C42.4695 44.4579 42.5209 44.3682 42.505 44.2433" fill="#3C3C3B"/>
<path d="M49.5043 31.6294L49.4263 31.6153C49.4138 31.6769 49.3997 31.7402 49.3908 31.8035C49.415 31.8125 49.4399 31.8196 49.4653 31.8246C49.4777 31.7595 49.4901 31.6945 49.5043 31.6294ZM53.8248 31.712C54.0021 31.8334 54.0606 31.7771 54.0553 31.5854L53.8248 31.712ZM55.0321 29.0739C55.2094 28.8664 55.2094 28.8664 54.9718 28.8013C54.9896 28.8892 55.0091 28.9772 55.0321 29.0739ZM46.5542 33.8314C46.4372 33.9932 46.2581 34.0072 46.3326 34.206C46.3393 34.2179 46.3491 34.2279 46.3609 34.235C46.3727 34.2421 46.3861 34.246 46.3999 34.2464C46.5772 34.2112 46.5772 34.0793 46.5542 33.8314ZM46.9424 34.3344C47.1197 33.9439 47.1197 33.9052 46.907 33.7082C46.9176 33.9052 46.93 34.1057 46.9424 34.3344ZM37.8777 26.7154C38.0896 26.8676 38.3137 27.0023 38.5478 27.1182C38.895 27.2628 39.2562 27.3719 39.6257 27.4435C39.8485 27.4641 40.0727 27.4246 40.2746 27.3292C40.365 27.2905 40.4058 27.1041 40.436 26.9775C40.436 26.9546 40.287 26.8843 40.2002 26.8544C40.1133 26.8245 39.9644 26.8403 39.8988 26.7787C39.5105 26.4147 39.1382 26.033 38.7553 25.6637C38.6292 25.5552 38.4972 25.4536 38.3599 25.3594C38.3209 25.8378 38.874 26.0365 38.6897 26.5026L37.8777 26.7154ZM47.2545 34.6017C46.9265 35.3544 47.1392 36.0492 47.4318 36.7316C47.5718 37.0587 47.5683 37.1062 47.2545 37.2381C47.1392 37.2856 47.0346 37.3577 46.9194 37.4139C46.8473 37.4572 46.7643 37.4792 46.6801 37.4773C46.1849 37.3663 45.6754 37.3313 45.1696 37.3735C44.9568 37.3946 44.815 37.1976 44.7529 37.0006C44.5756 36.3956 44.4072 35.7941 44.4427 35.1469C44.4526 34.8089 44.5477 34.4788 44.7192 34.1866C44.7574 34.1272 44.7895 34.0642 44.815 33.9984C44.9391 33.6572 45.0437 33.2949 45.3699 33.1103L45.0543 32.5246C45.3699 32.2362 45.3965 32.1728 45.2316 31.8527C44.799 30.947 44.3221 30.0711 43.4818 29.4608C43.309 29.3401 43.1284 29.2308 42.941 29.1337C42.1627 28.6975 42.0546 28.6624 41.0742 28.5533C41.0173 28.6242 40.9702 28.7022 40.9341 28.7855C40.8949 28.9071 40.8239 29.0163 40.7283 29.1019C40.6326 29.1875 40.5159 29.2464 40.3899 29.2726C40.0831 29.3701 39.7601 29.4065 39.4391 29.38C39.1182 29.3534 38.8057 29.2644 38.5195 29.1179C38.2996 29.0053 38.055 28.942 37.844 28.8083C37.5071 28.6078 37.188 28.3739 36.8618 28.1541C36.7492 28.0686 36.6307 27.991 36.5072 27.9219C36.0977 27.7201 35.7473 27.4173 35.4896 27.0425C35.4393 26.9568 35.3695 26.8839 35.2857 26.8297C34.6173 26.529 34.3585 25.8308 33.8373 25.3875C33.7504 25.0235 33.3852 24.8195 33.3178 24.4308C33.2239 23.8803 33.6174 23.3755 34.1688 23.4511C34.5203 23.4891 34.8601 23.5987 35.1669 23.773C35.2807 23.8529 35.4162 23.8965 35.5556 23.8981C35.6949 23.8997 35.8315 23.8591 35.947 23.7818L36.3317 23.9577C36.5516 23.919 36.7342 23.8873 36.9132 23.8504C37.1115 23.8356 37.3064 23.7912 37.4912 23.7185C37.6461 23.6331 37.8182 23.5828 37.9951 23.5713C38.172 23.5597 38.3492 23.5872 38.5141 23.6516C38.6222 23.6873 38.7353 23.7057 38.8492 23.7062C39.5779 23.6921 40.0796 24.0808 40.5051 24.6084C40.5335 24.6577 40.5649 24.7053 40.5991 24.7509C41.0086 25.1396 40.9536 25.6725 41.0246 26.1579C41.0476 26.3496 40.9235 26.5589 40.865 26.7664C40.9312 26.8677 41.0239 26.9492 41.1332 27.0022C41.2425 27.0552 41.3643 27.0776 41.4855 27.0672C41.8401 27.0672 42.106 27.243 42.3914 27.4084C42.7378 27.6018 43.0841 27.7947 43.4304 27.987C43.4712 27.9996 43.5109 28.0155 43.5491 28.0345C43.9764 28.3862 44.4179 28.738 44.8221 29.1126C45.116 29.3929 45.383 29.6997 45.6199 30.0289C45.8379 30.3332 45.9922 30.6797 46.1854 31.0033C46.2711 31.1254 46.3634 31.2429 46.462 31.355C46.5272 31.2331 46.5835 31.1068 46.6304 30.9769C46.7954 30.3785 47.043 29.8056 47.3662 29.2744C47.5647 28.9385 47.7491 28.5709 48.109 28.3247C48.4689 28.0784 48.6551 27.63 48.8448 27.2184C49.0566 26.77 49.1318 26.27 49.061 25.7797C49.0149 25.4579 49.2933 25.1448 49.6603 25.085C49.9173 25.0446 50.1088 25.2293 50.2152 25.5476C50.311 25.8126 50.352 26.094 50.3355 26.3751C50.3191 26.6562 50.2456 26.931 50.1195 27.1832C50.0131 27.4101 49.9776 27.6722 49.8766 27.9043C49.7665 28.1307 49.644 28.3508 49.5096 28.5639C49.3128 28.9033 49.1089 29.241 48.9121 29.5822C48.8283 29.7105 48.7559 29.8459 48.6958 29.9867C48.6284 30.1667 48.5791 30.3529 48.5487 30.5425C48.5026 30.852 48.4795 31.1651 48.4405 31.5309C48.6497 31.4975 48.7951 31.4799 48.9405 31.45C49.4263 31.3462 49.9085 31.2372 50.3943 31.1369C50.4914 31.12 50.5899 31.1112 50.6886 31.1106C50.7861 31.1106 50.9208 31.144 50.9775 31.0947C51.3782 30.743 51.9118 30.8626 52.3657 30.6814C52.7536 30.5154 53.1267 30.3172 53.4808 30.0887C53.7769 29.9128 53.8868 29.6209 54.2148 29.4081C53.8602 29.3078 53.6298 29.452 53.3904 29.4767C53.2273 29.4925 53.0571 29.503 52.9773 29.3377C52.8976 29.1724 52.9773 29.0493 53.0837 28.8892C53.317 28.5724 53.4735 28.2065 53.5411 27.8199C53.5411 27.8023 53.5039 27.7812 53.4613 27.739C53.1298 27.9413 53.0553 28.3229 52.8515 28.6184C52.6476 28.9139 52.5625 29.3324 52.1778 29.5189C52.0802 29.5792 52.0049 29.6693 51.9633 29.7757C51.786 30.1555 51.4314 30.2716 51.0662 30.3437C50.818 30.3912 50.5769 30.1784 50.5095 29.8636C50.3786 29.2009 50.5169 28.5138 50.8942 27.9518C51.1277 27.6053 51.4061 27.2907 51.7221 27.0162C52.0413 26.7084 52.4526 26.58 52.8479 26.4463C53.494 26.2572 54.1573 26.1317 54.8282 26.0717C55.5164 25.9826 56.1867 25.7892 56.8156 25.4983C56.9357 25.422 57.0485 25.3349 57.1525 25.2381C57.5762 24.9355 57.9716 24.9461 58.257 25.1624C58.3313 25.2057 58.3898 25.2713 58.4242 25.3496C58.4586 25.428 58.4671 25.5152 58.4485 25.5986C58.4166 25.838 58.3607 26.0737 58.2818 26.3021C58.1045 26.682 58.0177 27.0953 57.7163 27.4259C57.5266 27.6335 57.4663 27.9536 57.3422 28.2209C57.3132 28.3009 57.2659 28.3732 57.2039 28.432C56.7571 28.7521 56.6224 29.285 56.3175 29.6965C56.0125 30.1081 55.681 30.5759 55.33 30.9857C55.0215 31.3462 54.6705 31.6751 54.3265 32.0075C53.8944 32.4138 53.3656 32.7048 52.7894 32.8535C52.2753 32.9942 51.6955 33.1067 51.2115 32.6952C51.0772 32.595 50.9614 32.4724 50.8694 32.3329C50.8526 32.2934 50.8278 32.2577 50.7966 32.228C50.7654 32.1983 50.7284 32.1753 50.6879 32.1603C50.6474 32.1453 50.6042 32.1387 50.561 32.1409C50.5179 32.143 50.4756 32.1539 50.4368 32.1728C49.9891 32.3502 49.5506 32.5498 49.1231 32.7708C48.8235 32.9291 48.8607 33.0083 49.0451 33.2985C49.3997 33.8472 50.0237 34.104 50.4049 34.621C50.5059 34.7565 50.7134 34.8075 50.8481 34.9253C51.0343 35.1012 51.0112 35.1997 50.7949 35.3017C50.7081 35.3511 50.6143 35.3873 50.5166 35.409C50.1189 35.4579 49.7411 35.6095 49.4209 35.8487C49.3519 35.896 49.27 35.9214 49.186 35.9214C49.1021 35.9214 49.0202 35.896 48.9511 35.8487C48.4529 35.6079 48.0164 35.2579 47.6746 34.8251C47.5736 34.6949 47.4849 34.5788 47.2545 34.6263" fill="#3C3C3B"/>
<path d="M49.5965 19.1845L49.7099 19.1529C49.6798 19.0702 49.6532 18.9876 49.6231 18.9049L49.5486 18.9225L49.5965 19.1845ZM45.1855 22.1111C45.4461 22.2676 45.4461 22.2676 45.4798 21.9915L45.1855 22.1111ZM47.547 24.9603C47.4282 25.3121 47.4282 25.3121 47.6055 25.4C47.6321 25.2435 47.7704 25.0869 47.547 24.9603ZM50.4049 21.9018C50.4049 21.6837 50.4049 21.5606 50.4049 21.3548L50.0947 21.6099L50.4067 21.9018H50.4049ZM49.6142 24.8671L49.1603 24.5787C48.9494 23.7925 49.0167 23.0046 49.1479 22.2254C49.2261 21.8799 49.3268 21.5397 49.4493 21.2071C49.5114 21.0101 49.6532 20.8272 49.5185 20.5529C49.1332 20.8618 48.8748 21.2995 48.7916 21.784C48.7437 22.0953 48.6852 22.3978 48.3076 22.5702C47.9211 22.2624 47.5204 21.9722 47.4956 21.3847C47.4597 21.0996 47.4004 20.8179 47.3183 20.5423C47.0878 20.974 47.0247 21.4746 47.141 21.9493C47.1926 22.121 47.2236 22.2981 47.2332 22.4769C47.2557 22.7998 47.3305 23.1169 47.4548 23.4161C47.5696 23.7129 47.7165 23.9966 47.8927 24.2621C48.0207 24.4966 48.1859 24.7092 48.382 24.8917C48.5454 25.0467 48.6793 25.2296 48.7774 25.4317C48.9228 25.6884 48.8731 25.8063 48.687 26.0437C48.3927 26.4218 47.9778 26.5274 47.5488 26.6804C47.1202 26.8286 46.6528 26.823 46.228 26.6645C46.1059 26.6304 45.9963 26.562 45.9124 26.4676C45.6731 26.1633 45.3362 25.9399 45.2033 25.5407C45.1111 25.2523 44.9728 24.9761 44.8841 24.6859C44.583 23.772 44.4885 22.8034 44.6076 21.8491C44.6395 21.6134 44.6076 21.3724 44.6413 21.135C44.6749 20.8976 44.7193 20.6654 44.7654 20.4315C44.7965 20.3397 44.8202 20.2456 44.8363 20.1501C44.8522 19.6225 45.0614 19.1441 45.2086 18.6499C45.2457 18.5459 45.2702 18.4378 45.2813 18.328C45.2746 18.0324 45.3655 17.7428 45.5401 17.5032C45.6748 17.3273 45.6624 17.0476 45.7458 16.8278C45.9337 16.3424 46.1181 15.8552 46.3503 15.3909C46.4713 15.1681 46.6438 14.977 46.8538 14.8334C46.9666 14.759 47.0955 14.7122 47.23 14.6968C47.3646 14.6814 47.5009 14.6977 47.6278 14.7446C47.7547 14.7914 47.8686 14.8674 47.9603 14.9662C48.0519 15.0651 48.1187 15.1841 48.1551 15.3135C48.1908 15.421 48.2186 15.5309 48.2384 15.6424C48.2911 16.007 48.437 16.3521 48.6622 16.6449C48.8926 16.9509 49.0167 17.3203 49.4139 17.5243C49.6745 17.6509 49.8394 17.9604 50.0574 18.1785C50.5095 18.6235 50.9722 19.0579 51.4243 19.5046C51.4801 19.5689 51.5266 19.6405 51.5626 19.7174C51.5892 19.7667 51.591 19.8318 51.6247 19.874C51.9633 20.3119 52.0661 20.8325 52.1796 21.3531C52.2317 21.5696 52.2431 21.7938 52.2133 22.0144C52.1178 22.6291 51.8779 23.2129 51.513 23.7186C51.3386 24.002 51.1033 24.2435 50.8237 24.426C50.5442 24.6084 50.2274 24.7272 49.8961 24.7739C49.7964 24.7958 49.6991 24.827 49.6053 24.8671" fill="#3C3C3B"/>
<path d="M51.3693 39.8923C51.5058 39.6847 51.5058 39.6847 51.3534 39.6091C51.3534 39.6812 51.3534 39.7463 51.3693 39.8923ZM49.7188 38.7684C49.7046 38.7333 49.6922 38.6998 49.6798 38.6647L49.4156 38.8001L49.4493 38.8757L49.7188 38.7684ZM48.8837 41.8674C48.7898 42.0626 48.7295 42.191 48.6462 42.3668C49.0008 42.3106 48.8873 42.1066 48.8837 41.8674ZM52.449 36.8971L52.1671 37.1521C52.3444 37.4494 52.5447 37.3966 52.7557 37.3192C52.8142 37.0431 52.6086 36.9938 52.449 36.8971ZM48.7774 40.2915C48.7062 40.4069 48.6597 40.5356 48.6409 40.6697C48.6533 40.8455 48.694 41.1041 48.8181 41.1973C49.0681 41.3907 49.4652 41.2852 49.7046 41.549C49.7046 41.549 49.7241 41.5244 49.7347 41.5244C50.2577 41.4989 50.7817 41.5059 51.3037 41.5455C51.7392 41.6022 52.182 41.5415 52.5855 41.3696C52.9756 41.2043 53.3071 40.8948 53.6493 40.6274C53.9347 40.4006 54.2024 40.1508 54.4683 39.8993C54.6302 39.7211 54.732 39.4973 54.7597 39.259C54.7873 39.0207 54.7394 38.7797 54.6226 38.5697C54.4754 38.3411 54.268 38.3463 54.1315 38.589C54.0978 38.6506 54.0925 38.728 54.0552 38.786C53.9258 38.9848 53.8265 39.2327 53.6422 39.3629C53.2807 39.5998 52.9034 39.8119 52.5128 39.9978C52.1317 40.1965 51.6654 40.2089 51.3179 40.4903C51.1282 40.6433 50.9474 40.8051 50.6708 40.7031C50.6441 40.7011 50.6174 40.7051 50.5925 40.7149C50.5676 40.7246 50.5453 40.7398 50.5272 40.7593C50.3499 40.9669 50.1726 40.8983 49.9617 40.8139C49.8322 40.7611 49.6904 40.7418 49.5645 40.6855C49.3234 40.5764 49.0912 40.4516 48.7738 40.2915H48.7774ZM54.3832 41.8586C54.3354 41.9342 54.3017 42.0591 54.2254 42.096C53.6794 42.3598 53.183 42.7256 52.5802 42.8646C52.2048 42.9692 51.8228 43.0491 51.4367 43.1038C51.0852 43.1472 50.7289 43.1293 50.3836 43.051C49.8287 42.9085 49.2224 42.9472 48.7224 42.599C48.6267 42.5322 48.4671 42.5586 48.3678 42.497C48.1161 42.3457 47.8572 42.2138 47.7562 41.8832C47.6941 41.6845 47.5027 41.5314 47.3591 41.3309L47.6675 41.0284L47.3626 40.9563C47.2137 40.2212 47.313 39.5493 47.8377 38.9637C48.1551 38.6119 48.4299 38.2109 48.7366 37.8398C49.0433 37.4687 49.4599 37.2366 49.8553 36.9604C50.2419 36.7074 50.666 36.5157 51.1123 36.3924C51.982 36.1364 52.888 36.0224 53.7946 36.0547C54.1894 36.0779 54.571 36.2041 54.9009 36.4205C55.2431 36.6331 55.5499 36.8971 55.8104 37.2031C56.4646 37.9225 56.5107 38.786 56.3104 39.6566C56.1549 40.3046 55.7793 40.8797 55.2466 41.2852C55.1225 41.3819 55.0197 41.5033 54.892 41.5877C54.7644 41.6721 54.5658 41.7636 54.3815 41.8568" fill="#3C3C3B"/>
<path d="M45.3858 41.6087C45.3358 41.587 45.2825 41.5739 45.228 41.57C45.1961 41.57 45.1713 41.6193 45.1429 41.6474C45.1972 41.6766 45.2535 41.7018 45.3114 41.723C45.339 41.6868 45.3639 41.6486 45.3858 41.6087ZM45.189 43.4273C45.3025 43.3833 45.4266 43.3182 45.228 43.2391C45.2156 43.3042 45.2014 43.3675 45.189 43.4273ZM45.9992 43.2373C46.1233 43.1336 46.1765 43.0333 45.9815 42.9419L45.9992 43.2373ZM44.8593 40.0469C44.5792 39.9748 44.5384 40.068 44.6022 40.3319L44.8593 40.0469ZM45.8237 42.0167C45.8816 42.1279 45.9246 42.2462 45.9514 42.3685C45.9602 42.5004 45.9514 42.6112 46.1287 42.6182C46.1287 42.2172 46.0808 42.1328 45.8184 42.0203L45.8237 42.0167ZM44.7068 43.6172C44.8504 43.5873 44.8841 43.5803 44.9302 43.5697C44.9763 43.5592 45.0064 43.5434 45.0437 43.5328C45.0206 43.2127 45.0206 43.2127 44.6377 43.079L44.9089 43.4589L44.7068 43.6172ZM44.8841 41.1831C44.8628 41.4751 44.4285 41.7107 44.7263 42.0765C45.1483 41.825 44.9851 41.4962 44.8841 41.1831ZM45.2085 42.977C45.6128 42.6481 45.5507 42.2735 45.4355 41.8989C45.0809 41.7899 45.2724 42.2243 45.0596 42.2507C45.2369 42.4441 45.072 42.6481 45.0827 42.8451C45.0827 42.8873 45.1518 42.9243 45.2085 42.9858V42.977ZM48.4919 43.969C48.4063 44.225 48.3069 44.4763 48.1941 44.7217C47.9991 45.0981 47.4246 45.3373 46.9903 45.2493C46.9493 45.2369 46.9071 45.2287 46.8644 45.2247C46.2013 45.2247 45.6447 44.9293 45.1128 44.5687C44.858 44.4266 44.6106 44.2716 44.3717 44.1044C44.0073 43.8252 43.6776 43.504 43.3896 43.1476C43.1449 42.817 43.035 42.3949 42.84 42.0203C42.551 41.4504 42.6857 40.87 42.8045 40.2984C42.8579 40.1085 42.9613 39.9361 43.1041 39.799C43.4133 39.4557 43.7717 39.1594 44.1679 38.9196C44.2447 38.8909 44.3253 38.8738 44.4072 38.8686C44.5171 38.8492 44.6572 38.8686 44.7369 38.8035C45.0667 38.5432 45.4266 38.6153 45.79 38.6698C45.9017 38.6857 46.0134 38.6945 46.1251 38.7103C46.4318 38.7525 46.4797 38.8615 46.3325 39.1394C46.2723 39.252 46.212 39.3628 46.1553 39.4771C45.8627 40.1208 46.0241 40.754 46.2102 41.3854C46.27 41.5875 46.3417 41.786 46.4247 41.9798C46.4848 42.133 46.5666 42.2769 46.6676 42.4072C47.0789 42.9348 47.5843 43.3831 48.1586 43.7298C48.274 43.8027 48.3847 43.8825 48.4901 43.969" fill="#3C3C3B"/>
<path d="M3.60605 75.6268C3.64236 75.7989 3.71955 75.9599 3.83121 76.0964C3.93904 76.2329 4.06282 76.3563 4.19997 76.464C4.46051 76.6697 4.74288 76.8466 5.04209 76.9916C5.60466 77.2652 6.19475 77.4792 6.80256 77.63C8.15068 77.9546 9.53588 78.1024 10.9227 78.0697C11.4723 78.0609 12.3694 78.0592 14.2203 77.9431C14.4118 77.9431 14.8639 77.8921 14.8639 77.8921L15.1972 77.8727L15.4879 77.8499C16.0233 77.8041 16.5322 77.7531 17.0144 77.6968C17.2537 77.6687 17.4877 77.6388 17.7235 77.6089L18.0568 77.5597L18.1384 77.5456H18.2058L18.3316 77.5315C18.4167 77.5227 18.4947 77.5087 18.5798 77.5034L18.8298 77.4893C18.9876 77.477 19.1489 77.4752 19.2961 77.4735C19.5886 77.4647 19.8545 77.4735 20.0584 77.4735C21.6026 77.5122 22.8738 77.5192 24.0811 77.382C24.689 77.309 25.2913 77.1962 25.8841 77.0443C26.52 76.8948 27.1363 76.6729 27.7208 76.3831C27.092 76.3644 26.4659 76.2944 25.8487 76.1738C25.2672 76.0753 24.7052 75.9539 24.129 75.8554C22.803 75.6015 21.4593 75.4486 20.1098 75.3981C19.8829 75.3981 19.6081 75.3823 19.2677 75.3981C19.0993 75.3981 18.9131 75.3981 18.7181 75.414L18.4132 75.4316C18.3068 75.4316 18.1898 75.4544 18.0763 75.4667L17.8991 75.4878L17.8122 75.4984L17.7395 75.5089L17.4363 75.5529C17.2289 75.5811 17.0091 75.6092 16.7804 75.6356C16.3247 75.6866 15.8336 75.7358 15.3177 75.7798L15.0376 75.8044L14.7149 75.8361C14.7149 75.8361 14.2753 75.8554 14.0909 75.873C12.2985 75.9873 11.4316 75.9926 10.8997 76.0067C9.33779 76.0295 8.12513 76.077 6.97808 76.1245C6.40366 76.1456 5.84698 76.1685 5.27611 76.1456C4.9866 76.1384 4.69829 76.1061 4.41448 76.0489C4.26726 76.0195 4.1239 75.9734 3.98722 75.9117C3.83895 75.8485 3.70821 75.7507 3.60605 75.6268Z" fill="#1B1B1B"/>
<path d="M2.65933 2.12999C2.47803 2.12706 2.30111 2.18536 2.1576 2.29531C2.01299 2.39841 1.88352 2.52094 1.77289 2.65937C1.56636 2.91843 1.38807 3.19846 1.24102 3.49479C0.96786 4.05088 0.748802 4.63155 0.586825 5.22892C0.240854 6.55071 0.0545746 7.90863 0.0319119 9.27407C0.0195017 9.82456 0 10.7075 0 12.5348C0.0124102 14.5222 0.0886443 17.1815 0.225156 20.05C0.361669 22.9185 0.549594 25.9928 0.742839 28.8192C0.936083 31.6455 1.13287 34.2221 1.2747 36.0916C1.41654 37.9612 1.50341 39.1237 1.50341 39.1237C1.50341 39.1237 1.57255 40.0963 1.6807 41.6898C1.78884 43.2832 1.91472 45.4957 2.03527 47.9809C2.27461 52.9511 2.38985 59.0118 2.44304 63.3401C2.4714 65.7567 2.48736 67.2516 2.49622 68.0342C2.54054 71.2 2.91285 72.9869 3.6025 75.6215C4.2372 72.9728 4.58291 71.1789 4.5705 68.0149C4.5705 67.234 4.55277 65.7285 4.53149 63.3173C4.48717 58.9784 4.35421 52.8878 4.11664 47.8841C3.99786 45.3832 3.86666 43.1566 3.76206 41.5526C3.65746 39.9486 3.57414 38.976 3.57414 38.976C3.57414 38.976 3.48727 37.8117 3.34898 35.9404C3.2107 34.0691 3.01391 31.4942 2.82421 28.6785C2.63451 25.8627 2.44481 22.7989 2.30475 19.9533C2.16469 17.1076 2.10264 14.4747 2.08846 12.5207C2.07605 10.7233 2.0991 9.86502 2.10973 9.33739C2.14696 7.77913 2.12924 6.56734 2.10087 5.42239C2.08846 4.85079 2.07073 4.29326 2.10087 3.72518C2.1082 3.43808 2.14023 3.15212 2.1966 2.87043C2.2259 2.72721 2.27356 2.58831 2.33844 2.45712C2.40485 2.31509 2.51802 2.19972 2.65933 2.12999Z" fill="#1B1B1B"/>
<path d="M83.8912 2.08237C82.5686 1.71831 81.4605 1.43515 80.294 1.20299C79.7089 1.09219 79.1115 0.995458 78.4679 0.90752C77.8244 0.819582 77.14 0.731644 76.3529 0.650741C75.9274 0.605014 75.2749 0.531146 74.4576 0.462554C74.0499 0.430896 73.6013 0.395721 73.1262 0.367581L72.5323 0.332406L71.887 0.298989L70.5431 0.24095C66.8803 0.102008 62.5651 0.043969 58.4485 0.0211051L52.5164 0H47.4974L42.7265 0.0281402L39.7836 0.0474865L32.5715 0.110802C26.8752 0.174117 19.9432 0.286678 14.9951 0.437931C13.7753 0.469589 12.7878 0.501247 12.006 0.532904L10.2544 0.599737C9.45657 0.627877 8.7421 0.692952 8.08259 0.775613C7.42308 0.858275 6.81852 0.93566 6.22815 1.05526C5.63778 1.17485 5.06514 1.32611 4.48009 1.49319C4.18933 1.57057 3.88794 1.66906 3.58478 1.78338C3.28161 1.8977 2.97136 2.01026 2.65933 2.12986L3.64328 2.25121C3.95531 2.28639 4.25316 2.31805 4.55455 2.36729C5.15556 2.45347 5.73174 2.5203 6.32743 2.56779C6.92312 2.61528 7.52945 2.661 8.18542 2.67332C8.84138 2.68563 9.55054 2.67332 10.3448 2.65573L12.0875 2.59769C12.8658 2.56955 13.8498 2.53965 15.066 2.50975C19.9964 2.36729 26.9177 2.24594 32.6051 2.17735L42.7478 2.08589L47.5133 2.0683H52.5253L58.4449 2.09292C62.558 2.11755 66.8449 2.17735 70.4687 2.3198L71.793 2.37784L72.4277 2.4095L73.0074 2.44292C73.4719 2.4693 73.9027 2.50272 74.2963 2.53261C75.0799 2.59417 75.7146 2.66452 76.1472 2.70849C76.8792 2.7854 77.6148 2.82356 78.3509 2.82281C78.981 2.82123 79.6106 2.78777 80.2372 2.72256C81.4669 2.5807 82.687 2.36693 83.8912 2.08237Z" fill="#1B1B1B"/>
<path d="M55.2023 75.2944C55.2069 75.3854 55.2324 75.474 55.277 75.5536C55.3216 75.6332 55.384 75.7016 55.4594 75.7535C55.5991 75.861 55.7523 75.9503 55.915 76.019C56.2163 76.1473 56.5284 76.2491 56.8476 76.3233C57.4442 76.4653 58.0503 76.5647 58.6612 76.6205C59.8668 76.7419 61.1326 76.7173 62.6609 76.6909C62.8949 76.6909 63.1732 76.6909 63.5118 76.7032L64.7351 76.7595L64.9124 76.7683H65.0135C65.0725 76.7728 65.1318 76.7728 65.1908 76.7683L65.4035 76.7472L65.5666 76.7366L65.9212 76.7155L66.781 76.6803L67.71 76.6522C68.0256 76.6522 68.3447 76.6328 68.6461 76.6311C69.2666 76.6311 69.9155 76.6311 70.5715 76.6504C73.2042 76.7085 75.9699 76.8034 78.6062 76.77C79.8981 76.7666 81.1889 76.6938 82.4729 76.5519C82.7902 76.5115 83.1058 76.4622 83.432 76.3919C83.5933 76.3567 83.76 76.3145 83.9302 76.2635C84.0153 76.2354 84.1075 76.2072 84.1943 76.1721L84.2812 76.1386L84.3805 76.0964L84.5666 76.0014C84.8071 75.8778 85.0181 75.7045 85.1854 75.4932C85.3415 75.2832 85.4421 75.0377 85.4779 74.7791C85.5275 74.4784 85.5772 74.1829 85.625 73.8997C85.8463 72.256 85.976 70.6014 86.0133 68.9435C86.0629 67.3941 86.0718 65.9449 86.0505 64.5959C86.0169 61.8997 85.9016 59.6045 85.7899 57.7367C85.6782 55.8689 85.5524 54.432 85.4637 53.47C85.3751 52.5079 85.3325 52.0155 85.3325 52.0155L85.18 50.2567C85.0861 49.1311 84.9549 47.5148 84.8148 45.5503C84.5418 41.6212 84.2493 36.2939 84.3131 30.7239C84.3131 30.3722 84.322 30.0204 84.3273 29.6775C84.3326 29.3345 84.345 28.974 84.3521 28.6222C84.3663 27.9187 84.3964 27.2328 84.439 26.5346C84.5223 25.1434 84.657 23.7452 84.7776 22.3487C84.8982 20.9523 85.0099 19.5646 85.0542 18.1963C85.079 17.5121 85.0772 16.8315 85.0737 16.1825C85.0737 15.8554 85.0701 15.5318 85.063 15.2117C85.063 14.9092 85.0524 14.6102 85.0471 14.3129C84.9921 12.2235 84.946 10.5087 84.9248 9.65222C84.8343 6.50756 84.4851 4.7488 83.8912 2.08252C83.159 4.69955 82.7902 6.53042 82.8505 9.70323C82.87 10.558 82.9108 12.271 82.9586 14.3587C82.9586 14.6506 82.9639 14.9437 82.9746 15.238C82.9746 15.5529 82.9746 15.8712 82.9852 16.1913C82.9852 16.8368 82.9852 17.4734 82.9639 18.1259C82.9232 19.4309 82.8168 20.7834 82.6962 22.1711C82.5757 23.5587 82.4392 24.9745 82.3541 26.415C82.3115 27.129 82.2778 27.8642 82.2654 28.5712L82.2388 29.6388C82.2388 29.9905 82.23 30.3423 82.2264 30.694C82.1626 36.3484 82.4622 41.7285 82.7406 45.6875C82.8824 47.6661 83.0154 49.2912 83.1129 50.422L83.2653 52.1808C83.2653 52.1808 83.3097 52.6803 83.3965 53.6423C83.4834 54.6044 83.604 56.0043 83.7156 57.8475C83.8273 59.6907 83.9373 61.9542 83.9692 64.6047C83.9887 65.9308 83.9798 67.3501 83.9302 68.8556C83.8921 70.4371 83.766 72.0154 83.5525 73.5832C83.5171 73.7907 83.4816 74.0053 83.4444 74.2251C83.4444 74.2339 83.4444 74.2251 83.4444 74.2251H83.432L83.2955 74.2708C83.1944 74.3007 83.0845 74.3306 82.9639 74.3552C82.7264 74.4062 82.4622 74.4485 82.1874 74.4836C80.9833 74.6141 79.7731 74.681 78.5619 74.6841C75.9947 74.7158 73.2521 74.6226 70.5981 74.5645C69.9332 74.5505 69.2737 74.5382 68.6071 74.5452C68.2667 74.5452 67.9494 74.5593 67.6338 74.5681L66.6906 74.5962L65.8042 74.6331L65.4142 74.656L65.2156 74.6718L65.072 74.6841H64.9975L64.8202 74.6753L63.5881 74.6243C63.2051 74.6085 62.8683 74.612 62.6219 74.6243C61.8835 74.6436 61.1466 74.7023 60.4146 74.8002C59.7551 74.8864 59.1594 74.9902 58.5815 75.1045C58.0035 75.2188 57.4486 75.3419 56.8742 75.4457C56.586 75.5011 56.2947 75.5387 56.0019 75.5582C55.8543 75.5668 55.7062 75.5586 55.5605 75.5336C55.4863 75.5237 55.4154 75.497 55.3532 75.4555C55.2911 75.414 55.2395 75.3589 55.2023 75.2944Z" fill="#1B1B1B"/>
<path d="M132.702 64.673C131.785 63.798 130.72 63.0901 129.555 62.5819C128.96 62.3216 128.344 62.1116 127.713 61.954C127.354 61.8605 126.989 61.7871 126.621 61.7342C126.412 61.7131 126.196 61.6919 125.99 61.6867C125.784 61.6814 125.566 61.6867 125.347 61.6867C124.927 61.7001 124.508 61.7389 124.093 61.8027C123.332 61.9199 122.585 62.1102 121.861 62.3708C121.297 62.574 120.748 62.8161 120.218 63.0954C119.937 63.2432 119.647 63.4103 119.368 63.5809C119.393 63.5668 119.368 63.5809 119.391 63.5685L119.273 63.6213C119.193 63.66 119.11 63.6934 119.028 63.7339C118.868 63.8183 118.702 63.8957 118.542 63.9906C117.866 64.3741 117.245 64.8475 116.698 65.3977C116.125 65.9772 115.633 66.6316 115.238 67.3428C115.188 67.4325 115.135 67.5187 115.09 67.6137L114.986 67.8212L114.858 68.0217C114.805 68.1079 114.748 68.1976 114.699 68.2803C114.493 68.632 114.294 68.9838 114.121 69.3619C113.759 70.1126 113.479 70.8998 113.287 71.7098C113.092 72.5269 112.995 73.3641 112.998 74.2038C113.002 74.6202 113.032 75.0361 113.087 75.449L113.11 75.602L113.121 75.6794V75.7128V75.6776L113.147 75.9572C113.169 76.1507 113.181 76.3424 113.211 76.5324C113.383 77.9853 113.748 79.4093 114.296 80.7675C114.545 81.3691 114.836 81.9532 115.165 82.5157C115.462 83.0078 115.791 83.4806 116.149 83.9315C116.68 84.5878 117.285 85.182 117.952 85.7025C118.072 85.7922 118.177 85.8784 118.271 85.9435L118.514 86.1088L118.716 86.246L118.893 86.3515C119.008 86.4201 119.173 86.5274 119.402 86.6452C120.036 86.9926 120.707 87.2703 121.402 87.4736C122.432 87.7773 123.501 87.9337 124.575 87.9379C124.726 87.9379 124.88 87.9379 125.038 87.9379C125.196 87.9379 125.357 87.9379 125.506 87.9168L126.433 87.8324L127.392 87.7075C127.717 87.6636 128.045 87.595 128.38 87.5316C129.795 87.2743 131.171 86.8357 132.472 86.2266C133.821 85.5741 135.143 84.6649 136.122 83.432L136.299 83.2033L136.392 83.089L136.473 82.9677L136.796 82.4805C136.85 82.3999 136.898 82.3159 136.941 82.229L137.078 81.974C137.172 81.8065 137.256 81.6339 137.329 81.4569C137.402 81.281 137.473 81.1051 137.544 80.9293L137.606 80.7745L137.654 80.5986L137.718 80.3506C137.803 80.02 137.882 79.6917 137.955 79.3657C138.235 78.1402 138.432 76.8975 138.546 75.6459C138.558 75.4824 138.572 75.3223 138.583 75.1658V74.6962C138.583 74.5432 138.583 74.3937 138.583 74.2495C138.583 74.1053 138.562 73.9716 138.553 73.8379C138.544 73.7043 138.531 73.5741 138.523 73.4475C138.514 73.3209 138.487 73.1995 138.471 73.0817C138.436 72.846 138.413 72.6226 138.363 72.4169C138.313 72.2111 138.28 72.0194 138.243 71.84C138.205 71.6606 138.15 71.5006 138.11 71.3511C138.033 71.0486 137.945 70.8041 137.876 70.6036C137.806 70.4031 137.737 70.2061 137.656 70.0214C137.574 69.8368 137.5 69.6539 137.418 69.4797C137.257 69.1504 137.08 68.8293 136.886 68.5177C136.542 67.96 136.145 67.4369 135.698 66.9559C134.825 66.0436 133.812 65.2722 132.699 64.6695C133.341 65.6851 133.925 66.7362 134.447 67.8177C134.688 68.3313 134.945 68.8431 135.184 69.4094C135.315 69.6855 135.424 69.9845 135.555 70.2888C135.613 70.4435 135.672 70.6018 135.732 70.7636C135.792 70.9254 135.851 71.0925 135.909 71.2666C135.968 71.4408 136.041 71.6448 136.104 71.9016L136.214 72.3166C136.246 72.4679 136.278 72.6297 136.314 72.8038C136.349 72.9779 136.374 73.1555 136.404 73.3613C136.418 73.4622 136.432 73.5642 136.447 73.6673C136.447 73.7746 136.463 73.8819 136.47 73.9945C136.477 74.107 136.487 74.2214 136.496 74.3462C136.505 74.4711 136.496 74.5801 136.496 74.698C136.496 74.8158 136.496 74.9424 136.496 75.0691C136.496 75.1957 136.475 75.3346 136.464 75.4718C136.357 76.6316 136.174 77.7831 135.915 78.919C135.846 79.2227 135.772 79.5305 135.691 79.8424L135.631 80.0745L135.613 80.1413L135.581 80.2187C135.526 80.3541 135.471 80.4896 135.415 80.625C135.36 80.7606 135.295 80.8923 135.221 81.019L135.119 81.2159C135.087 81.2821 135.049 81.3456 135.007 81.4059L134.769 81.7823L134.709 81.8755L134.638 81.9617L134.496 82.1375C133.75 83.082 132.699 83.8154 131.562 84.3676C130.423 84.9008 129.219 85.2839 127.979 85.5073C127.676 85.5583 127.38 85.6216 127.082 85.6621L126.206 85.7764L125.362 85.8538C125.221 85.8714 125.098 85.8679 124.971 85.8731C124.843 85.8784 124.717 85.8837 124.591 85.8731C123.713 85.8713 122.839 85.7451 121.996 85.4985C121.441 85.336 120.906 85.1136 120.4 84.8355C120.223 84.744 120.085 84.6596 119.992 84.6016L119.852 84.5171L119.693 84.4063L119.498 84.2744C119.422 84.2199 119.338 84.1531 119.241 84.0792C118.7 83.6562 118.21 83.1735 117.78 82.6405C117.483 82.2667 117.212 81.8742 116.966 81.4657C116.688 80.9892 116.443 80.4944 116.232 79.9848C115.755 78.7947 115.438 77.5476 115.289 76.2756C115.262 76.0997 115.252 75.9344 115.232 75.762L115.207 75.4929L115.165 75.1728C115.121 74.8463 115.097 74.5174 115.094 74.1879C115.092 73.5128 115.171 72.8398 115.328 72.183C115.488 71.5156 115.719 70.8671 116.018 70.2483C116.163 69.937 116.331 69.6363 116.503 69.3408C116.546 69.2652 116.594 69.1948 116.638 69.1227L116.815 68.8519L116.963 68.5634C116.998 68.4896 117.041 68.421 117.08 68.3489C117.66 67.2807 118.53 66.395 119.592 65.7916C119.712 65.7195 119.84 65.6597 119.962 65.5946L120.15 65.5085L120.248 65.4645L120.368 65.41L120.48 65.3449C120.732 65.1884 120.967 65.0547 121.209 64.9263C121.654 64.6913 122.114 64.4874 122.588 64.316C123.179 64.1009 123.789 63.9425 124.41 63.8429C124.746 63.7888 125.085 63.7547 125.425 63.7409C125.602 63.7409 125.779 63.7268 125.944 63.7303C126.109 63.7339 126.268 63.7304 126.419 63.7391C126.724 63.755 127.047 63.8007 127.364 63.8306L129.137 64.0346C130.34 64.1563 131.532 64.3697 132.702 64.673Z" fill="#1B1B1B"/>
<path d="M126.111 78.8593C124.515 78.9596 123.426 78.0573 123.001 76.9053C122.879 76.4006 122.832 75.8811 122.861 75.3629C122.926 74.9244 123.087 74.5052 123.332 74.1344C123.577 73.7636 123.9 73.4501 124.279 73.2155C125.394 72.735 126.656 72.7128 127.788 73.1539C128.715 73.7765 129.362 74.8722 129.561 76.0295C129.355 77.528 127.811 78.7626 126.118 78.8593" fill="#1D1D1B"/>
<path d="M126.111 78.8592C125.728 78.6198 125.382 78.3266 125.084 77.9886C125.02 77.9288 124.969 77.855 124.907 77.8004C124.845 77.7459 124.795 77.6826 124.744 77.6246L124.403 77.2552C124.305 77.1476 124.219 77.0296 124.146 76.9035C124.12 76.8617 124.096 76.8182 124.075 76.7733C124.049 76.7263 124.027 76.6776 124.008 76.6274C123.99 76.5763 124.008 76.6397 123.992 76.5676C123.976 76.4954 123.964 76.4198 123.95 76.3442C123.926 76.1912 123.907 76.0347 123.898 75.8764C123.898 75.799 123.898 75.7198 123.898 75.6407C123.898 75.5615 123.898 75.4525 123.898 75.4877V75.449C123.898 75.4314 123.898 75.4138 123.911 75.3962C123.923 75.3786 123.925 75.3259 123.935 75.2907C123.954 75.2221 123.977 75.1546 124.003 75.0884C124.049 74.959 124.108 74.8346 124.18 74.7173C124.326 74.4931 124.515 74.2999 124.737 74.1493L124.761 74.1317L124.783 74.1229C124.841 74.0965 124.903 74.0771 124.96 74.0543C125.076 74.0159 125.195 73.9836 125.315 73.9576C125.499 73.9149 125.686 73.8849 125.875 73.8679H126.082H126.137C126.173 73.8679 126.224 73.8679 126.291 73.8679C126.475 73.8768 126.657 73.9003 126.836 73.9382C126.956 73.9594 127.075 73.99 127.19 74.0297C127.221 74.0384 127.251 74.0489 127.281 74.0613H127.295L127.316 74.0771L127.357 74.107C127.589 74.2934 127.792 74.5134 127.958 74.7595C128.141 75.0289 128.287 75.3218 128.391 75.6301C128.419 75.7058 128.437 75.7831 128.46 75.8588C128.483 75.9344 128.488 75.9713 128.501 76.0259C128.501 76.0259 128.501 76.0364 128.501 76.01C128.501 76.01 128.501 76.0206 128.501 76.0259C128.502 76.0399 128.502 76.054 128.501 76.0681C128.49 76.0962 128.483 76.1226 128.474 76.1507C128.405 76.3545 128.307 76.5472 128.181 76.7223C128.086 76.8466 127.982 76.9642 127.869 77.0741C127.594 77.3277 127.333 77.5972 127.089 77.8814C126.802 78.2391 126.48 78.5683 126.128 78.8645C126.586 79.1536 127.121 79.2983 127.664 79.2796C128.268 79.2407 128.839 78.9916 129.277 78.5761C129.49 78.3846 129.685 78.1738 129.859 77.9464C130.124 77.5877 130.33 77.1886 130.467 76.7645C130.486 76.7047 130.504 76.6414 130.523 76.5799C130.534 76.5482 130.538 76.5148 130.546 76.4831L130.571 76.3512L130.63 76.0487C130.62 75.9511 130.604 75.8542 130.582 75.7585L130.554 75.6108L130.532 75.5158C130.518 75.456 130.504 75.3945 130.488 75.3399C130.452 75.2203 130.422 75.099 130.378 74.9794C130.213 74.4909 129.982 74.0269 129.69 73.6005C129.403 73.1812 129.053 72.8076 128.653 72.4925L128.58 72.4362L128.488 72.3711L128.357 72.285C128.322 72.2549 128.282 72.2316 128.238 72.2164L128.002 72.1267C127.949 72.1056 127.896 72.088 127.845 72.0722C127.654 72.0102 127.46 71.9597 127.263 71.9209C126.979 71.8638 126.691 71.8291 126.401 71.8171C126.299 71.8171 126.224 71.8171 126.164 71.8171H126.079C126.079 71.8171 125.964 71.8171 125.758 71.8277C125.469 71.8447 125.181 71.8835 124.898 71.9438C124.702 71.9851 124.509 72.038 124.32 72.1021C124.219 72.1372 124.113 72.1724 124.006 72.2181L123.902 72.2621C123.861 72.2815 123.817 72.2955 123.776 72.3184L123.567 72.4573C123.122 72.7624 122.741 73.1515 122.448 73.6023C122.294 73.8396 122.165 74.0926 122.065 74.3568C122.014 74.4867 121.971 74.6194 121.936 74.7543C121.914 74.8193 121.902 74.8862 121.886 74.953C121.877 74.9861 121.87 75.0195 121.865 75.0533L121.843 75.1693C121.827 75.2587 121.818 75.3493 121.817 75.4402C121.817 75.5053 121.817 75.5686 121.817 75.6301C121.817 75.755 121.817 75.8781 121.826 75.9977C121.84 76.2387 121.868 76.4655 121.902 76.6784C121.92 76.7839 121.939 76.8877 121.96 76.9861C121.982 77.0846 121.992 77.1321 122.006 77.2042C122.019 77.2447 122.038 77.2834 122.051 77.3203L122.092 77.4153C122.13 77.5146 122.174 77.6115 122.225 77.7055C122.268 77.7941 122.316 77.8804 122.368 77.964C122.521 78.2185 122.703 78.4546 122.911 78.6675C123.149 78.9185 123.438 79.1174 123.758 79.2514C123.897 79.3106 124.042 79.3559 124.191 79.3869C124.33 79.413 124.471 79.4266 124.613 79.4273C125.162 79.4121 125.691 79.2118 126.111 78.8592Z" fill="#1B1B1B"/>
<path d="M43.4357 65.9764C42.2524 65.4626 40.9629 65.2353 39.6736 65.3133C39.0049 65.354 38.3432 65.472 37.7021 65.6651C37.5249 65.7161 37.3582 65.7706 37.1845 65.841C37.0107 65.9113 36.8299 65.9746 36.6526 66.052C36.564 66.089 36.4753 66.1277 36.3849 66.1716L36.1296 66.293C36.1385 66.293 36.1296 66.293 36.1296 66.293H36.1438L36.1083 66.3053L35.9541 66.3598C35.8513 66.395 35.7484 66.4354 35.6438 66.4812C35.2442 66.644 34.8583 66.8381 34.4897 67.0616C33.8065 67.4745 33.1857 67.9814 32.6459 68.5671C32.2232 69.0246 31.8478 69.5231 31.5254 70.055L31.4616 70.1605L31.4297 70.215C31.4297 70.2238 31.4474 70.1886 31.4297 70.215L31.3924 70.2643L31.3198 70.3627C31.2205 70.4947 31.1212 70.6301 31.0272 70.7708C30.9333 70.9115 30.834 71.0522 30.7436 71.2017C30.6532 71.3512 30.5574 71.4989 30.4705 71.6554C29.6838 72.9984 29.1852 74.4881 29.0061 76.0312C28.9866 76.2352 28.9654 76.4428 28.9601 76.6521C28.9547 76.8614 28.9476 77.0689 28.9601 77.28C28.9725 77.491 28.9796 77.7021 28.992 77.9131V77.9518V77.9764V78.1259V78.4267C29.0262 79.2305 29.1133 80.0313 29.2526 80.8239C29.5092 82.4349 30.0436 83.9901 30.8322 85.4213C31.5773 86.7591 32.5939 87.9293 33.8178 88.8579C34.8344 89.6144 35.9803 90.1828 37.2004 90.5357C38.0168 90.7723 38.8568 90.9197 39.7055 90.9754C40.0069 90.9877 40.248 91.0036 40.4005 91H40.6327L41.3862 90.986C41.8702 90.9614 42.5705 90.9279 43.4427 90.8224C44.4795 90.6944 45.5036 90.4809 46.5045 90.184C47.7849 89.8059 48.992 89.2167 50.0751 88.4411C50.6818 88.0011 51.2336 87.491 51.7186 86.9215C51.9651 86.6229 52.1925 86.3092 52.3994 85.9823C52.4986 85.8152 52.6139 85.6552 52.7008 85.4811C52.7876 85.3069 52.878 85.1293 52.9631 84.9534L53.0323 84.811C53.0623 84.7486 53.0872 84.6839 53.1067 84.6175L53.1918 84.3642L53.3691 83.8542C53.4755 83.5112 53.589 83.17 53.6847 82.8201C53.8904 82.1289 54.0641 81.4218 54.2166 80.7095C54.369 79.9972 54.4825 79.2867 54.5711 78.5762C54.6507 77.8714 54.6874 77.1625 54.6811 76.4533C54.6756 75.768 54.6163 75.0841 54.5038 74.4079C54.4595 74.0773 54.3708 73.7554 54.3017 73.4406C54.2556 73.2841 54.2112 73.1293 54.1652 72.978C54.1421 72.9006 54.1208 72.825 54.0978 72.7494C54.0747 72.6738 54.0428 72.6017 54.0162 72.5295C53.6463 71.4859 53.0982 70.5132 52.3958 69.654C52.2646 69.4781 52.121 69.3392 51.9969 69.1985L51.8196 68.9962L51.6423 68.8203C51.4537 68.6299 51.2548 68.4497 51.0466 68.2804C50.4387 67.7737 49.7678 67.3464 49.0504 67.0088C48.4558 66.7224 47.8332 66.4973 47.1924 66.3369C45.963 66.0449 44.6987 65.9236 43.4357 65.9764C44.6607 66.5902 45.6323 67.153 46.6109 67.7352C47.102 68.0254 47.5877 68.3349 48.0983 68.6691C48.6474 69.0309 49.1737 69.4256 49.6744 69.8509C49.8415 69.9887 50.0013 70.1348 50.1531 70.2889L50.2985 70.4296L50.4421 70.5914C50.5396 70.7039 50.6548 70.8165 50.7594 70.9537C51.3108 71.6339 51.7412 72.4023 52.0324 73.226C52.0554 73.2841 52.0767 73.3438 52.098 73.4019C52.1192 73.4599 52.1352 73.525 52.1529 73.5866C52.1884 73.7097 52.2256 73.8345 52.2628 73.9594C52.316 74.2197 52.3923 74.487 52.4277 74.7544C52.5241 75.3258 52.5751 75.9039 52.5802 76.4832C52.5846 77.106 52.5527 77.7285 52.4845 78.3475C52.4082 78.986 52.3072 79.6349 52.1653 80.2822C52.0235 80.9294 51.864 81.5907 51.6707 82.2414C51.5803 82.5668 51.4739 82.8922 51.3746 83.2158L51.2133 83.6994L51.1317 83.9404C51.1105 84.0019 51.1317 83.958 51.114 83.9896L51.0679 84.0811L50.8658 84.4856C50.8002 84.621 50.7098 84.7406 50.6336 84.869C50.4769 85.1196 50.3039 85.3599 50.1159 85.5883C49.7394 86.0315 49.3102 86.4277 48.8376 86.7685C47.9421 87.4076 46.945 87.8933 45.8876 88.2054C45.0034 88.4666 44.0992 88.6555 43.1839 88.7699C42.3967 88.8649 41.7514 88.8966 41.31 88.9194L40.6256 88.9335H40.4147C40.2781 88.9335 40.0938 88.9212 39.8456 88.9124C39.1482 88.8663 38.458 88.7448 37.7872 88.5501C36.8083 88.2655 35.8889 87.8085 35.073 87.2011C34.0816 86.4498 33.2576 85.5031 32.653 84.4205C31.9819 83.197 31.5285 81.8678 31.3127 80.4915C31.1951 79.7822 31.1252 79.066 31.1035 78.3475V78.0767V77.943V77.841L31.0946 77.7232C31.0946 77.5561 31.0662 77.3908 31.0698 77.2254C31.0733 77.0601 31.0698 76.8948 31.0698 76.7295C31.0698 76.5641 31.0893 76.4006 31.1052 76.2388C31.2537 74.9792 31.6629 73.7637 32.3073 72.6685C32.3782 72.5383 32.458 72.4117 32.536 72.2886C32.614 72.1655 32.6937 72.0424 32.7753 71.9245C32.8569 71.8067 32.9384 71.6906 33.0217 71.5728C33.0785 71.4989 33.1334 71.4233 33.1884 71.3494L33.3249 71.1208C33.5742 70.7058 33.8659 70.3175 34.1954 69.9618C34.8276 69.2792 35.6003 68.7394 36.4611 68.3789C36.5409 68.3437 36.6189 68.3103 36.6987 68.2821L36.8157 68.2364L36.9292 68.1942C36.9749 68.176 37.0193 68.1549 37.0621 68.1309L37.3068 68.0007C37.3795 67.9603 37.4539 67.9216 37.5284 67.8847C37.6756 67.809 37.8192 67.7352 37.9628 67.6683C38.1064 67.6015 38.2446 67.5311 38.3829 67.4678C38.9361 67.2128 39.4573 66.9982 39.9785 66.8048C40.5054 66.6086 41.0421 66.4396 41.5865 66.2983C42.1927 66.1395 42.8112 66.0318 43.4357 65.9764Z" fill="#1B1B1B"/>
<path d="M41.7196 82.018C41.0541 82.0342 40.4023 81.8295 39.8675 81.4363C39.3327 81.0431 38.9457 80.484 38.7677 79.8477C38.6811 79.3354 38.6722 78.8131 38.7411 78.2982C38.8348 77.8642 39.0245 77.4562 39.2964 77.1037C39.5684 76.7511 39.9158 76.4629 40.3137 76.2598C41.4597 75.8577 42.7194 75.9209 43.8187 76.4357C44.7051 77.1234 45.2529 78.263 45.3593 79.4256C45.0526 80.9135 43.4215 82.0233 41.7196 82.0074" fill="#1D1D1B"/>
<path d="M41.7195 82.018C41.3553 81.7516 41.0327 81.4334 40.7622 81.0735C40.7054 81.0084 40.6576 80.9328 40.6044 80.873C40.5512 80.8132 40.5033 80.7464 40.4572 80.6778L40.1434 80.2821C40.0524 80.1686 39.9745 80.0453 39.9112 79.9145C39.888 79.8714 39.8679 79.8267 39.8509 79.7808C39.8284 79.732 39.81 79.6814 39.7959 79.6296V79.6102V79.5645C39.7853 79.4924 39.7782 79.4185 39.7711 79.3446C39.7568 79.1909 39.7515 79.0365 39.7552 78.8821C39.7552 78.8047 39.7552 78.7256 39.7676 78.6447L39.78 78.5268C39.78 78.4653 39.78 78.5022 39.78 78.4881C39.8457 78.2187 39.9664 77.9655 40.1346 77.7442C40.2954 77.5304 40.498 77.3509 40.7303 77.2165C40.7728 77.1937 40.7586 77.2007 40.7604 77.199C40.7622 77.1972 40.7498 77.199 40.7923 77.1884C40.8349 77.1779 40.9164 77.1515 40.9696 77.1321C41.0919 77.1005 41.2125 77.0776 41.3242 77.06C41.5057 77.0352 41.6888 77.0235 41.872 77.0248H42.0262H42.0812H42.1344C42.1861 77.0273 42.2375 77.0326 42.2886 77.0407C42.4715 77.0617 42.6524 77.0976 42.8294 77.148C42.9459 77.179 43.0602 77.2178 43.1715 77.264L43.2602 77.3027L43.2814 77.3203C43.2956 77.3309 43.3063 77.3432 43.3187 77.3537C43.5362 77.5558 43.7215 77.7894 43.8683 78.0467C44.027 78.3302 44.1462 78.6337 44.2228 78.9489C44.2459 79.0281 44.2583 79.1072 44.276 79.1846C44.2938 79.262 44.2938 79.2954 44.3026 79.3482C44.3026 79.3482 44.3026 79.3587 44.3026 79.3341V79.3534C44.3001 79.3679 44.296 79.3821 44.2902 79.3956L44.2583 79.4748C44.1776 79.6733 44.0657 79.8579 43.9268 80.0218C43.8246 80.1389 43.7125 80.2472 43.5917 80.3454C43.2977 80.5787 43.0177 80.8289 42.7531 81.0946C42.4394 81.4303 42.0946 81.7359 41.7231 82.0074C42.1586 82.3281 42.6811 82.5119 43.2229 82.535C43.8276 82.541 44.4152 82.3369 44.8841 81.9582C45.1108 81.7822 45.3203 81.5855 45.51 81.3707C45.8029 81.0327 46.0371 80.6488 46.2032 80.2346C46.2262 80.1748 46.2493 80.1132 46.2741 80.0587C46.2852 80.0275 46.2946 79.9958 46.3024 79.9637L46.3344 79.8424C46.3609 79.7439 46.3875 79.6436 46.4124 79.5434L46.423 79.5082V79.4713L46.4141 79.3992L46.3964 79.2532L46.3804 79.1055V79.0474V79.0034C46.3716 78.9419 46.3609 78.8803 46.3521 78.8276C46.3255 78.7062 46.3042 78.5831 46.2688 78.4617C46.1436 77.9618 45.9485 77.4816 45.689 77.0354C45.4361 76.5938 45.1155 76.1939 44.7388 75.85C44.7175 75.8306 44.6962 75.8095 44.6714 75.7902L44.5863 75.7181L44.4728 75.6249C44.4407 75.5925 44.4028 75.5663 44.3611 75.5475L44.1218 75.4384C44.0721 75.4147 44.0212 75.3935 43.9693 75.3751C43.7843 75.2998 43.5949 75.2358 43.402 75.1834C43.1238 75.1062 42.8398 75.0509 42.5528 75.0181C42.45 75.004 42.3755 74.9987 42.3152 74.9952H42.2319C42.2319 74.9952 42.1167 74.9952 41.9092 74.9829C41.4182 74.9748 40.9284 75.034 40.4537 75.1588C40.3491 75.1887 40.2409 75.2151 40.131 75.2555L39.9023 75.3347L39.686 75.4543C39.216 75.7231 38.8044 76.0818 38.4751 76.5095C38.136 76.963 37.8946 77.4808 37.766 78.0309C37.744 78.1187 37.7286 78.2081 37.7199 78.2982C37.7199 78.3615 37.7075 78.4231 37.7004 78.4846C37.7004 78.6095 37.6844 78.7308 37.6809 78.8504C37.6764 79.0811 37.6846 79.3119 37.7057 79.5416C37.7164 79.6507 37.727 79.7562 37.7429 79.86L37.7749 80.071C37.7812 80.1115 37.7926 80.1511 37.8085 80.1889L37.8405 80.2891C37.8741 80.3946 37.9114 80.4931 37.9521 80.5881C37.9885 80.68 38.03 80.7698 38.0763 80.8572C38.2095 81.1218 38.3731 81.3703 38.5638 81.5976C38.7822 81.8655 39.0545 82.0854 39.3634 82.2431C39.497 82.3145 39.6371 82.3734 39.7818 82.419C39.9193 82.456 40.0599 82.4807 40.2019 82.4928C40.7474 82.5092 41.2823 82.3418 41.7195 82.018Z" fill="#1B1B1B"/>
<path d="M90.052 22.6123C90.3773 22.6036 90.7028 22.6213 91.0253 22.665C91.3373 22.6984 91.6405 22.7389 91.9383 22.7776C92.5322 22.8567 93.1049 22.9271 93.6952 22.9869C95.0268 23.1127 96.3647 23.1615 97.702 23.1329C98.2338 23.1329 99.1203 23.11 100.932 23.1012C102.235 23.1012 104.435 23.1012 106.297 23.1276C106.76 23.1364 107.206 23.1469 107.595 23.1628C107.701 23.1628 107.772 23.1768 107.845 23.1821C107.918 23.1854 107.992 23.1942 108.064 23.2085C108.197 23.2274 108.328 23.2538 108.458 23.2876C108.579 23.3175 108.687 23.3545 108.781 23.3826L109.022 23.4723L109.226 23.5638C109.283 23.5889 109.34 23.6171 109.394 23.6482C109.55 23.7308 109.701 23.8212 109.848 23.919C110.357 24.2582 110.822 24.658 111.233 25.1097C111.772 25.7037 112.248 26.3521 112.651 27.0443C113.039 27.7028 113.373 28.3909 113.651 29.1021C113.837 29.5739 113.992 30.0574 114.114 30.5496C114.215 31.0033 114.325 31.4025 114.376 31.7666C114.516 32.4859 114.553 33.0259 114.605 33.3917C114.734 34.8849 114.782 36.0668 114.835 37.21C114.913 38.4103 114.925 39.6138 114.872 40.8154C115.54 39.749 116.037 38.5869 116.347 37.37C116.687 36.0115 116.796 34.6065 116.672 33.2123C116.622 32.8043 116.58 32.2045 116.427 31.4026C116.37 30.998 116.25 30.5496 116.136 30.043C115.998 29.4701 115.82 28.9072 115.605 28.3581C115.288 27.5412 114.905 26.7513 114.459 25.9961C113.98 25.1774 113.415 24.411 112.773 23.7097C112.243 23.1292 111.641 22.6164 110.983 22.1831C110.779 22.0518 110.568 21.9309 110.351 21.8208C110.201 21.7382 110.112 21.7012 110.112 21.7012L109.82 21.5711L109.465 21.4374C109.323 21.3917 109.164 21.3389 108.981 21.2914C108.798 21.244 108.6 21.2 108.38 21.1683C108.268 21.1485 108.155 21.1344 108.041 21.1261C107.928 21.1173 107.791 21.1033 107.687 21.0997C107.258 21.0804 106.8 21.0698 106.332 21.0593C104.439 21.0206 102.23 21.0206 100.914 21.0311C99.0813 21.0435 98.1984 21.0646 97.6559 21.0751C96.2999 21.0939 94.9481 21.2287 93.6155 21.4779C93.0233 21.5922 92.4471 21.7346 91.8585 21.9088C91.5642 21.9967 91.2664 22.0934 90.9615 22.2042C90.6463 22.3122 90.3418 22.4488 90.052 22.6123Z" fill="#1B1B1B"/>
<path d="M114.872 40.8033C112.172 40.3196 110.344 40.0822 107.162 40.2757L106.685 40.3056L106.54 40.3144C106.517 40.3144 106.49 40.3144 106.465 40.3144L106.387 40.3249L106.313 40.3337L105.98 40.3742C105.483 40.4252 104.824 40.4885 103.921 40.55C102.475 40.6556 100.021 40.7963 97.9466 40.8279C96.9077 40.8508 95.9663 40.8385 95.2873 40.8279L94.4859 40.7963C94.298 40.7875 94.1969 40.7769 94.1969 40.7769L93.9523 40.7593C93.7963 40.747 93.5658 40.7312 93.2999 40.6925C93.1669 40.6749 93.0073 40.6626 92.8637 40.6327L92.6421 40.5887H92.6049C92.5305 40.4494 92.4682 40.3041 92.4187 40.1543C92.2823 39.742 92.1727 39.3214 92.0908 38.8951C91.9986 38.4378 91.9135 37.9576 91.8496 37.488C91.7131 36.5366 91.6156 35.5956 91.5429 34.8095C91.332 32.4334 91.2752 30.9402 91.2309 30.1716C91.1771 28.8429 91.0433 27.5185 90.8302 26.2056C90.6352 25.0413 90.3693 23.9403 90.0519 22.616C89.7261 23.8048 89.478 25.0132 89.3091 26.2337C89.1439 27.5661 89.0935 28.9099 89.1584 30.2507C89.1956 31.0387 89.2488 32.5371 89.4616 34.9836C89.536 35.7926 89.6389 36.7634 89.7825 37.7712C89.8551 38.276 89.9402 38.7913 90.0466 39.3031C90.1468 39.8204 90.2818 40.3304 90.4508 40.8297C90.5443 41.1037 90.663 41.3687 90.8054 41.6211C90.9106 41.8045 91.0393 41.9736 91.1884 42.1241C91.3272 42.2698 91.4959 42.3843 91.683 42.4601C91.7063 42.4674 91.7284 42.478 91.7486 42.4917L91.816 42.5163C91.8599 42.5322 91.905 42.5452 91.9507 42.555L92.1971 42.606L92.5109 42.6676C92.7113 42.7063 92.8797 42.7168 93.0428 42.7397C93.3672 42.7854 93.6154 42.7995 93.7892 42.8118L94.0569 42.8329C94.0569 42.8329 94.1721 42.8435 94.3742 42.854L95.227 42.891C95.9361 42.9085 96.9201 42.9244 97.9856 42.9033C100.113 42.8751 102.595 42.7274 104.081 42.6201C105.001 42.5515 105.687 42.4847 106.208 42.4284L106.584 42.3809L106.673 42.3686H106.818L107.295 42.3352C110.477 42.1083 112.259 41.6352 114.872 40.8033Z" fill="#1B1B1B"/>
<path d="M86.6781 73.7992C86.6795 73.8222 86.6859 73.8447 86.6969 73.8651C86.7079 73.8855 86.7233 73.9032 86.742 73.917C86.774 73.9468 86.8091 73.9733 86.8466 73.9962C86.9196 74.0427 86.9954 74.085 87.0735 74.1228C87.226 74.1967 87.3784 74.2617 87.5309 74.3215C87.8341 74.4394 88.1319 74.5414 88.4173 74.6328C88.9932 74.8127 89.5778 74.9635 90.1689 75.0848C91.4997 75.3478 92.851 75.4955 94.2076 75.5263C94.7501 75.5439 95.6259 75.572 97.4644 75.6019C97.8189 75.6142 98.6522 75.6125 98.6522 75.6125C98.6522 75.6125 99.3489 75.63 99.7372 75.63C102.182 75.6494 103.694 75.6406 104.485 75.63C105.838 75.631 107.189 75.5216 108.524 75.3029C108.82 75.2537 109.112 75.1974 109.41 75.127C109.708 75.0567 109.953 74.9951 110.242 74.9512C110.812 74.8615 111.467 74.8175 112.137 74.6662C111.472 74.4904 110.913 74.2494 110.3 74.0806C110.146 74.0401 109.986 74.0049 109.823 73.9768L109.371 73.9065C109.079 73.8625 108.788 73.822 108.493 73.7851C107.162 73.6268 105.821 73.5528 104.48 73.5635C103.694 73.5635 102.191 73.5635 99.7602 73.5477C99.3755 73.5477 98.6823 73.5477 98.6823 73.5477C98.6823 73.5477 97.8526 73.5248 97.5034 73.5266L94.2732 73.4615C92.9366 73.4215 91.5988 73.4579 90.2664 73.5705C89.6761 73.6215 89.1017 73.6901 88.5077 73.7587C88.2099 73.7921 87.9085 73.8273 87.5983 73.8554C87.4422 73.8678 87.2845 73.8783 87.1249 73.8818C87.0452 73.8871 86.9652 73.8871 86.8856 73.8818C86.8455 73.879 86.8057 73.8725 86.7668 73.8625C86.7313 73.8519 86.6941 73.8343 86.6781 73.7992Z" fill="#1B1B1B"/>
<path d="M139.427 74.0243C140.637 74.0696 141.844 74.183 143.042 74.3638C143.694 74.4726 144.356 74.5127 145.017 74.4834C145.435 74.4516 145.847 74.3671 146.244 74.2319C146.451 74.165 146.642 74.0701 146.85 73.9821C147.057 73.8942 147.235 73.7764 147.433 73.6673C147.632 73.5583 147.88 73.3789 148.171 73.1907C148.311 73.0922 148.449 72.9832 148.603 72.8688C148.757 72.7545 148.922 72.6367 149.078 72.503C149.401 72.2339 149.747 71.9754 150.142 71.5885L150.268 71.4689C150.33 71.4073 150.396 71.351 150.456 71.293L150.81 70.8885C151.045 70.6101 151.261 70.3163 151.456 70.0091C151.509 69.9341 151.557 69.8553 151.599 69.7734L151.734 69.5289L151.867 69.2845C151.913 69.2031 151.955 69.1192 151.991 69.033C152.149 68.6898 152.286 68.3374 152.401 67.9777C152.885 66.5373 153.012 64.9966 153.009 63.47C152.995 62.7085 152.956 61.9417 152.888 61.1836C152.855 60.8037 152.817 60.4221 152.778 60.044L152.746 59.759L152.732 59.6166V59.5445C152.732 59.5058 152.722 59.4548 152.713 59.409L152.66 59.1206L152.633 58.9799C152.621 58.9078 152.633 58.9957 152.622 58.9113C152.453 57.3216 152.143 55.7497 151.697 54.2137C151.246 52.6348 150.566 51.1293 149.678 49.7447C148.79 48.3812 147.68 47.174 146.392 46.1726C145.191 45.2499 143.893 44.458 142.52 43.8106C141.221 43.1862 139.957 42.6815 138.767 42.2277C137.578 41.774 136.463 41.3765 135.448 40.9966C133.415 40.2579 131.78 39.6089 130.662 39.127L129.913 38.8052L129.369 38.5572L128.919 38.3514L128.809 38.2969L128.493 38.1333L127.981 37.8713C127.882 37.8167 127.768 37.7693 127.658 37.6954L127.304 37.4791C125.928 36.6753 124.74 35.5901 123.82 34.2957C123.205 33.3723 122.671 32.3979 122.224 31.3832C121.709 30.2734 121.186 29.0405 120.569 27.7654C120.411 27.4471 120.249 27.127 120.088 26.8016C119.927 26.4763 119.734 26.1597 119.556 25.8343L119.422 25.5898L119.278 25.3489L118.987 24.867L118.693 24.3798C118.599 24.2268 118.503 24.0738 118.409 23.919C118.025 23.3087 117.658 22.6685 117.28 22.0178C116.902 21.3671 116.516 20.6829 116.028 19.9917C115.901 19.8158 115.785 19.64 115.635 19.4764C115.494 19.2997 115.343 19.1323 115.181 18.9751C115.021 18.8069 114.848 18.6516 114.663 18.5108L114.383 18.291C114.288 18.2224 114.189 18.159 114.087 18.101C113.319 17.6464 112.48 17.3219 111.605 17.1408C111.396 17.0862 111.194 17.0599 110.988 17.0194C110.782 16.979 110.577 16.9403 110.376 16.9174C109.974 16.8664 109.563 16.8066 109.176 16.7714C108.394 16.6905 107.614 16.6237 106.843 16.5656C105.297 16.4513 103.778 16.3739 102.308 16.3054L98.0938 16.1119C95.9663 16.0275 94.2306 16.0134 93.3655 16.0081C92.0167 15.9907 90.6685 16.0736 89.3322 16.2561C88.756 16.337 88.1621 16.432 87.5593 16.5604C87.2597 16.6254 86.9565 16.6958 86.6445 16.7802C86.4885 16.8224 86.3307 16.8664 86.1711 16.9174C86.0055 16.9628 85.8469 17.0302 85.6995 17.1179C85.8642 17.1095 86.0293 17.1225 86.1906 17.1566C86.3502 17.183 86.5062 17.2129 86.6604 17.2445L87.5628 17.4327C88.155 17.5558 88.7117 17.6737 89.3198 17.7669C90.6502 17.959 91.9926 18.0589 93.3371 18.0659C94.1987 18.0799 95.9149 18.0975 98.0033 18.1837L102.196 18.3737C103.661 18.4422 105.16 18.5196 106.673 18.6322C107.429 18.6885 108.187 18.7547 108.947 18.8309C109.334 18.8661 109.69 18.9206 110.061 18.9664C110.238 18.9857 110.415 19.0244 110.593 19.0561C110.77 19.0877 110.947 19.1141 111.124 19.1598C111.775 19.29 112.399 19.5278 112.97 19.8633C113.505 20.2087 113.963 20.6602 114.314 21.1894C114.711 21.7505 115.082 22.3977 115.459 23.0484C115.837 23.6992 116.218 24.3622 116.62 25.0042L116.918 25.4843L117.191 25.9381L117.463 26.3883L117.597 26.6117L117.723 26.8421L118.218 27.7496C118.37 28.058 118.522 28.3622 118.673 28.6624C119.264 29.8795 119.778 31.0912 120.317 32.2503C120.813 33.3724 121.406 34.4499 122.09 35.4706C122.256 35.7097 122.444 35.9331 122.607 36.1565C122.696 36.2655 122.774 36.3798 122.866 36.4801C122.958 36.5803 123.044 36.6806 123.141 36.7791C123.318 36.9725 123.496 37.1748 123.673 37.3436L124.219 37.8361C124.829 38.3612 125.485 38.8321 126.178 39.2431L126.579 39.4893C126.705 39.5667 126.829 39.6212 126.933 39.681L127.506 39.9747L127.86 40.1506L127.981 40.2122L128.451 40.425L129.016 40.6818L129.788 41.0177C130.947 41.5154 132.635 42.1837 134.681 42.9295C135.702 43.3058 136.808 43.7051 137.975 44.1483C139.141 44.5915 140.352 45.0804 141.561 45.6626C142.799 46.2447 143.969 46.9576 145.052 47.7889C146.16 48.649 147.114 49.687 147.876 50.8597C148.657 52.0797 149.255 53.4064 149.649 54.7976C150.061 56.2152 150.346 57.6658 150.502 59.1329C150.502 59.1417 150.527 59.3246 150.534 59.3457L150.559 59.4864L150.608 59.7573L150.662 60.2497C150.701 60.6226 150.736 60.9884 150.768 61.3525C150.832 62.0788 150.867 62.7911 150.881 63.4858C150.881 64.8682 150.764 66.1908 150.378 67.3287C150.289 67.6089 150.182 67.8832 150.059 68.1501C150.032 68.2169 150 68.2816 149.963 68.3435L149.86 68.53L149.759 68.7164C149.729 68.7783 149.693 68.8372 149.651 68.8923C149.504 69.1235 149.341 69.3445 149.163 69.5536L148.903 69.8596C148.859 69.9088 148.805 69.9528 148.759 69.9985L148.662 70.09C148.39 70.3661 148.034 70.6387 147.743 70.8832C147.594 71.0116 147.451 71.1101 147.316 71.2156C147.181 71.3211 147.054 71.4161 146.935 71.5005C146.697 71.6553 146.495 71.8065 146.332 71.8962C146.169 71.9859 146.04 72.0721 145.9 72.1442C145.76 72.2163 145.627 72.2867 145.495 72.3377C145.248 72.4448 144.99 72.5278 144.726 72.5857C144.206 72.7018 143.595 72.7475 142.989 72.846C141.747 73.0537 140.545 73.4512 139.427 74.0243Z" fill="#1B1B1B"/>
<path d="M113.977 19.4942C114.362 18.9563 114.636 18.3478 114.781 17.704C114.927 17.0603 114.942 16.3942 114.826 15.7445C114.605 14.4325 113.94 13.1433 112.803 11.8752C112.608 11.6607 112.351 11.3828 111.956 11.0082C111.422 10.5038 110.861 10.0294 110.273 9.5871C109.789 9.21248 109.125 8.73762 108.385 8.26275C107.646 7.78789 106.834 7.31127 106.081 6.90147C105.327 6.49168 104.614 6.14521 104.1 5.90074L103.26 5.51205L102.551 5.19548C102.104 5.00025 101.487 4.7382 100.778 4.46207C99.3596 3.90806 97.6204 3.32064 96.3457 2.95833C93.9594 2.2689 92.4453 1.97519 91.6546 1.82042C90.3014 1.5504 88.9207 1.44117 87.5415 1.49505C86.2888 1.56172 85.0476 1.76821 83.8415 2.11061C85.18 2.40608 86.2597 2.71914 87.3873 2.98999C88.5148 3.26084 89.7133 3.53169 91.2415 3.83244C91.995 3.98897 93.447 4.27389 95.7411 4.9387C96.9555 5.29045 98.6398 5.85325 99.996 6.38088C100.673 6.64469 101.273 6.89268 101.7 7.08438L102.397 7.38689L103.198 7.76151C103.689 7.99542 104.359 8.32959 105.077 8.72003C105.795 9.11048 106.563 9.55896 107.252 10.0039C107.942 10.4489 108.557 10.8833 109.002 11.2245C109.53 11.6262 110.036 12.0554 110.518 12.5102C110.873 12.8408 111.093 13.0818 111.263 13.2629C111.707 13.7433 112.122 14.2502 112.504 14.7807C112.827 15.2269 113.114 15.6973 113.364 16.1877C113.604 16.6613 113.782 17.163 113.895 17.6809C114.026 18.2765 114.053 18.8895 113.977 19.4942Z" fill="#1B1B1B"/>
<path d="M143.091 56.4738C142.821 56.6263 142.516 56.7081 142.205 56.7112C141.941 56.7064 141.682 56.6433 141.446 56.5266C140.989 56.2856 140.573 55.9732 140.216 55.6015C139.339 54.7006 138.511 53.7549 137.734 52.7681C137.409 52.3636 136.874 51.7128 135.853 50.246L135.209 49.3069L134.876 48.825C134.821 48.7476 134.769 48.6772 134.699 48.5963C134.681 48.5752 134.668 48.5576 134.645 48.5312L134.631 48.5066C134.558 48.3817 134.5 48.2674 134.454 48.1637C134.431 48.1127 134.404 48.0599 134.388 48.0177L134.344 47.9069H134.379C134.445 47.9069 134.516 47.9192 134.592 47.9315C134.95 47.9926 135.301 48.0832 135.643 48.2024C136.012 48.3237 136.372 48.4679 136.67 48.5963C137.534 48.9744 138.37 49.4135 139.171 49.9101C139.801 50.2988 140.235 50.6136 140.533 50.8352C141.057 51.2197 141.556 51.6374 142.026 52.0857C142.203 52.2558 142.366 52.4399 142.513 52.6362L142.559 52.696L142.597 52.754C142.609 52.7709 142.619 52.7885 142.629 52.8068V52.8191C142.629 52.8279 142.629 52.8191 142.641 52.8437L142.662 52.9018V52.9158V52.9387V52.9493C142.724 53.0653 142.786 53.1814 142.84 53.301C143.077 53.7689 143.249 54.2673 143.348 54.7819C143.399 55.0533 143.409 55.3306 143.379 55.605C143.343 55.9157 143.234 56.2135 143.059 56.4738C143.365 56.3042 143.625 56.0626 143.815 55.7703C144.001 55.4838 144.14 55.1689 144.224 54.8382C144.385 54.1942 144.411 53.5244 144.3 52.8701C144.276 52.7065 144.242 52.5412 144.201 52.3759V52.3618V52.3777C144.201 52.3864 144.201 52.3583 144.201 52.3495L144.192 52.3073C144.18 52.251 144.166 52.1965 144.15 52.1473L144.102 51.9925L144.045 51.8483C143.893 51.4887 143.694 51.1504 143.453 50.8423C142.964 50.2206 142.393 49.6664 141.756 49.1943C141.423 48.9393 140.934 48.584 140.239 48.1514C139.353 47.5983 138.426 47.111 137.468 46.6933C136.637 46.3175 135.762 46.0463 134.863 45.8861C134.743 45.8667 134.621 45.8544 134.498 45.8456H134.454H134.388H134.259C134.174 45.8439 134.09 45.8475 134.005 45.8562C133.713 45.8637 133.426 45.9307 133.161 46.0532C133.063 46.0967 132.97 46.1491 132.881 46.2097C132.807 46.266 132.745 46.3187 132.695 46.3609C132.601 46.4542 132.553 46.5069 132.553 46.5069L132.518 46.5526C132.497 46.5843 132.458 46.6283 132.419 46.6951C132.298 46.8952 132.218 47.1169 132.183 47.3476C132.135 47.7525 132.184 48.1629 132.326 48.5453C132.383 48.7138 132.45 48.8788 132.527 49.0395C132.603 49.1978 132.686 49.3631 132.78 49.5267C132.77 49.5074 132.78 49.5373 132.846 49.641C132.879 49.6886 132.914 49.7344 132.952 49.7782C132.972 49.8011 132.991 49.8345 133.007 49.8556L133.02 49.8732C133.043 49.9031 133.085 49.9629 133.13 50.0244L133.442 50.4764C133.672 50.8088 133.917 51.1641 134.098 51.4279C135.161 52.9405 135.734 53.6422 136.085 54.0661C137.136 55.3253 138.138 56.2241 139.304 56.8361C139.599 56.9904 139.907 57.117 140.225 57.2142C140.554 57.3187 140.897 57.375 141.242 57.3813C141.602 57.3904 141.96 57.3145 142.285 57.1597C142.611 57.0074 142.89 56.7704 143.091 56.4738Z" fill="#1B1B1B"/>
</g>
<defs>
<clipPath id="clip0">
<rect width="153" height="91" fill="white"/>
</clipPath>
</defs>
</svg>
