<svg xmlns="http://www.w3.org/2000/svg" fill="none" viewBox="0 0 24 24">
  <defs/>
  <g clip-path="url(#clip0)">
    <path fill="#00964F" d="M21.873 13.274c-.374.066-1.833.04-3.12.966 1.97.815 3.571 2.21.684 6.454-1.59 2.336-6.033 2.999-8.023.996-1.996-2.003-1.687-6.994.319-8.987 1.352-1.34 3.363-.455 4.326.293-1.799-1.633-.35-4.036-.35-4.036s1.651.486 2.264 1.76c.42.885.233 1.907.076 2.453.532-.44 2.447-1.026 3.637-.976l.187 1.078z"/>
    <path fill="#fff" d="M21.843 13.153c-1.145.167-2.163.309-3.15.976-.097.066-.071.187.03.233 1.418.597 2.436 1.578 2.087 3.226-.466 2.195-2.011 4.218-4.19 4.876-1.838.556-4.284.394-5.48-1.305-1.144-1.628-1.144-4.01-.648-5.861.294-1.083.851-2.377 1.9-2.924 1.175-.612 2.633-.005 3.606.729.116.085.253-.102.152-.198-.775-.748-1.008-1.73-.765-2.766.07-.299.172-.592.304-.865.03-.066.08-.131.101-.202.036-.112-.056.02-.096.015.522.03 1.256.602 1.606.936.87.834.921 2.012.628 3.115-.026.096.09.212.187.142.71-.537 1.748-.764 2.609-.896.182-.03.623-.141.81-.07.056.02-.035-.102.04-.02.026.025.02.136.03.171.067.273.102.557.148.83.03.162.273.09.243-.066-.066-.36-.127-.718-.193-1.072-.01-.056-.07-.091-.121-.091-1.18-.02-2.735.263-3.698.991.061.046.122.096.188.142.294-1.103.273-2.301-.527-3.192-.496-.55-1.195-.966-1.904-1.178a.127.127 0 00-.142.056c-.796 1.345-.79 3.065.37 4.187l.151-.197c-.88-.663-2.066-1.173-3.19-.956-1.095.207-1.809 1.148-2.255 2.104-.916 1.972-1.068 4.587-.141 6.585.957 2.063 3.287 2.655 5.389 2.276 2.527-.456 4.158-2.291 4.969-4.663.299-.875.395-1.872-.122-2.686-.45-.708-1.226-1.112-1.98-1.426l.03.233c.973-.658 1.965-.79 3.09-.951.162-.015.091-.258-.066-.238z"/>
    <path fill="#00964F" d="M7.007 18.226c-.36-2.923-.815-5.842-1.362-8.74-.132-.692-.269-1.39-.335-2.093-.04-.405 0-1.81-1.509-1.614l-.101.016c.167-.39.299-.794.47-1.184.234-.536 1.014-1.573.826-2.19-1.236.253-.927 2.428-1.469 3.207-.273-.299-.09-1.634-.238-2.003-.466-1.184-.48-3.07-.81-2.342-.081.582.101 1.234.187 1.816.132.875.35 1.704.553 2.559-.31-.36-.623-.718-.882-1.123C2.135 4.222 1.487 2.77 1 2.897c.081.465.41.819.684 1.193.309.425.744 1.507 1.215 1.937-.121.05-.238.101-.36.152 0 0-.116 0-.334.313-.131.188-.172.425-.167.653.005.48.188.936.36 1.38.218.567.425 1.144.613 1.725.324-.086.638-.207.952-.334.05-.02.086.036.076.076-.07.39-.547.48-.82.713a.456.456 0 01-.051.046c.167.541.324 1.082.466 1.628.365-.136.694-.369 1.079-.455.045-.01.09.03.076.076-.137.445-.608.703-1.029.885l.061.248c.162.678.304 1.36.44 2.048 0 0 0-.005.006-.005.233-.131.415-.339.684-.404.05-.01.086.03.076.075-.056.314-.436.491-.704.628.415 2.088.8 4.177 1.575 6.155.07.177.147.359.279.5.131.142.334.233.516.182.82-.146.451-2.979.314-4.086z"/>
    <g>
      <path fill="#00964F" d="M11.86 2.25c-1.5-.163 2.755-1.503 4.183-1.027 1.429.475 2.498 2.007 2.224 3.49-.152.824-.669 1.537-1.282 2.108-1.691 1.588-4.224 2.22-6.463 1.624-.602-.162-1.195-.415-1.636-.85-.526-.52-.78-1.26-.911-1.988-.097-.54-.132-1.117.055-1.638.375-1.037 1.545-1.593 2.644-1.664 1.1-.066 1.758.248 2.852.4 0 .01-.218-.299-1.666-.456z"/>
      <path fill="#fff" d="M11.86 2.123c-.264-.036-.137-.05.045-.152.253-.137.537-.217.81-.303a10.36 10.36 0 011.96-.395c.74-.07 1.399-.015 2.037.41.881.581 1.52 1.593 1.469 2.67-.096 2.21-2.715 3.692-4.63 4.061a6.67 6.67 0 01-3.094-.121c-1.328-.38-2.087-1.275-2.34-2.62-.127-.678-.168-1.41.212-2.023.335-.541.917-.885 1.515-1.067 1.236-.374 2.426.056 3.652.248.131.02.202-.111.121-.213-.34-.424-1.286-.44-1.757-.495-.162-.02-.162.232 0 .253.37.045 1.296.065 1.575.424l.121-.212c-1.337-.207-2.613-.662-3.955-.192-1.07.374-1.819 1.224-1.84 2.382-.02 1.234.457 2.63 1.54 3.302 1.115.693 2.62.82 3.896.643 2.188-.299 5.298-1.978 5.232-4.552-.03-1.128-.72-2.18-1.671-2.761-.765-.466-1.57-.47-2.432-.354-.85.11-1.864.283-2.618.723-.42.248-.314.526.146.587.168.03.163-.223.006-.243z"/>
    </g>
  </g>
  <defs>
    <clipPath id="clip0">
      <path fill="#fff" d="M0 0h21v22H0z" transform="translate(1 1)"/>
    </clipPath>
  </defs>
</svg>
