<svg xmlns="http://www.w3.org/2000/svg" width="36" height="36" fill="none">
  <path d="M16.12.204c-3.226.484-6.286 1.803-9.178 3.957-2.165 1.658-4.555 4.49-5.335 5.815-1.776 2.962-2.08 7.941-.911 14.94.278 1.777.875 3.35 1.792 4.724a13.866 13.866 0 0 0 3.284 3.475 14.378 14.378 0 0 0 4.248 2.163c1.558.497 3.15.738 4.777.721 2.076-.02 4.15-.183 6.222-.494 2.58-.387 4.778-.976 6.593-1.767a24.954 24.954 0 0 0 5.122-3.008c1.14-.787 2.04-2.303 2.703-4.544.662-2.242.74-5.207.234-8.898a62.48 62.48 0 0 0-.274-1.809 1.58 1.58 0 0 1-.019-.293c.01-.429-.978-4.256-1.44-5.599a13.59 13.59 0 0 0-1.967-3.723 12.002 12.002 0 0 0-2.935-2.822 16.523 16.523 0 0 0-3.682-1.834C22.32.071 19.244-.263 16.12.204Z" fill="#F3F2F1"/>
  <path d="M10.219 27.027a6.34 6.34 0 0 1-.96.179 25.24 25.24 0 0 0 2.153-3.722 8.359 8.359 0 0 0 1.258-3.667c-1.021-.038-1.723-.072-2.11-.11a3.968 3.968 0 0 1-1.534-.27A1.188 1.188 0 0 1 9 19.194c.025-.283.113-.557.258-.803a2.35 2.35 0 0 0 .289-.853l1.973.136c-.038-.25-.266-1.346-.685-3.287a7.547 7.547 0 0 1 2.718-4.866 7.11 7.11 0 0 1 4.552-1.52A7.898 7.898 0 0 1 23.15 9.71a6.098 6.098 0 0 1 1.77 2.059 6.04 6.04 0 0 1 .694 2.615 2.49 2.49 0 0 1-1.068 1.6 3.037 3.037 0 0 1-1.538.325 3.392 3.392 0 0 1-1.615-.35 2.515 2.515 0 0 1-.43-1.6c0-.498.075-.992.219-1.469.085-.265.252-.497.478-.662.226-.166.499-.257.78-.26h.861a3.849 3.849 0 0 0-1.904-1.374 7.744 7.744 0 0 0-2.838-.53 4.458 4.458 0 0 0-2.714.735 3.196 3.196 0 0 0-.577 1.792 6.277 6.277 0 0 0 1.042 2.937 13.88 13.88 0 0 1 1.314 2.69 9.09 9.09 0 0 0 1.508.08 19.46 19.46 0 0 1 1.425 0c.147.826.238 1.66.272 2.498a29.512 29.512 0 0 0-3.235-.244c-.256.507-.622 1.258-1.098 2.254a8.23 8.23 0 0 1 2.662 1.413 4.865 4.865 0 0 0 2.683 1.088c.44-.005.875-.079 1.292-.217a1.729 1.729 0 0 0 1.098-.816 8.304 8.304 0 0 0 .22-1.6c.457-.125 1.307-.306 2.55-.542C26.69 26.044 25.145 28 22.365 28a8.403 8.403 0 0 1-1.92-.273 17.632 17.632 0 0 1-5.019-1.93 95.076 95.076 0 0 0-2.153-.162 2.2 2.2 0 0 0-1.206.296c-.365.212-.66.524-.849.9-.342.028-.68.086-1.012.174" fill="#3C3C3B"/>
</svg>
