<svg xmlns="http://www.w3.org/2000/svg" fill="none" viewBox="0 0 24 24">
  <defs/>
  <path fill="#3C3C3B" stroke="#5D7734" stroke-width=".5" d="M17.75 12.059c0 3.42-2.564 5.691-5.75 5.691s-5.75-2.27-5.75-5.691c0-3.392 3.282-5.809 6.5-5.809 1.589 0 2.83.594 3.676 1.602.852 1.013 1.324 2.465 1.324 4.207z"/>
  <path stroke="#3C3C3B" d="M20.5 12.088c0 5.058-3.785 8.412-8.5 8.412s-8.5-3.354-8.5-8.412C3.5 7.09 8.345 3.5 13.125 3.5c2.35 0 4.174.877 5.419 2.358 1.253 1.491 1.956 3.64 1.956 6.23z"/>
</svg>
