<svg xmlns="http://www.w3.org/2000/svg" fill="none" viewBox="0 0 24 24">
  <defs/>
  <path fill="#282828" fill-rule="evenodd" d="M4.114 9.559l1.833-.086c.085.115.171.2.286.286.4.344.801.544 1.23.601.43.03.83-.114 1.174-.457l.373-.373.171-.171h.23c1.745-.058 3.377-.086 4.894-.086h2.404c.316 0 .63 0 .946.028H18.8c0-.114 0-.286.028-.515.029-.229.086-.458.172-.687-.258-.086-.859-.172-1.832-.2-.973-.058-2.376-.058-4.265-.058-.43 0-.86 0-1.289.029-.404 0-.858.025-1.34.052l-.09.005c-.193.015-.4.022-.616.03-.2.007-.408.014-.616.028a1.712 1.712 0 00-.171-.2 1.258 1.258 0 00-.126-.14.79.79 0 01-.103-.118 2.586 2.586 0 00-.802-.458 1.328 1.328 0 00-.744-.03 2.87 2.87 0 00-.659.402c-.229.2-.372.43-.458.687a47.9 47.9 0 01-.705.068c-.196.018-.354.032-.468.046A6.948 6.948 0 004 8.328c.013.131.02.257.027.373.008.138.015.263.03.371.013.088.02.17.026.245.008.095.015.178.031.242zm10.752 1.97c-.034-.054-.06-.096-.103-.138a1.941 1.941 0 01-.171-.258c-.172-.2-.373-.314-.573-.343-.114-.029-.229-.029-.343-.029-.144 0-.258.029-.401.086a2.06 2.06 0 01-.203.065 1.376 1.376 0 00-.227.078c-.1.02-.185.054-.257.083l-.086.032a2.232 2.232 0 00-.744.486h-.143c-.405 0-.86.026-1.34.053l-.092.005a160.7 160.7 0 01-1.689.086c-.25.012-.517.029-.796.046-.389.025-.803.051-1.236.068-.83.086-1.431.143-1.746.172a6.954 6.954 0 00-.716.086c.013.131.02.256.027.373.008.137.015.262.03.371.013.088.02.17.026.245.008.095.015.177.031.242 1.747-.086 3.493-.172 5.268-.23l.16-.005c.77-.027 1.493-.052 2.216-.052.229.315.544.573.973.716.372.143.658.172.859.143.171-.028.343-.086.486-.172.458-.2.773-.429.974-.744H16.68c.315 0 .63 0 .945.029h1.145c0-.115 0-.287.029-.515.028-.23.085-.458.171-.688-.257-.085-.858-.171-1.832-.2-.252 0-.539-.005-.858-.012a68.105 68.105 0 00-1.374-.017c-.016-.022-.03-.043-.041-.063zm-3.28 3.698c.43-.029.859-.029 1.288-.029 1.89 0 3.292 0 4.265.086.974.029 1.575.115 1.832.2a3.017 3.017 0 00-.171.688c-.029.229-.029.4-.029.515h-1.145c-.315-.029-.63-.029-.945-.029h-2.404c-1.489 0-3.12.029-4.895.086h-.143c0 .015-.008.036-.015.057-.007.022-.014.043-.014.058-.029.171-.172.343-.4.486l-.056.03c-.055.031-.128.072-.231.113-.078.031-.163.07-.258.114-.08.037-.165.076-.257.115-.43.2-.86.2-1.26.029-.372-.172-.658-.487-.859-.887l-1.775.085a1.666 1.666 0 01-.03-.241c-.007-.075-.014-.157-.027-.245-.015-.109-.022-.234-.03-.371-.007-.117-.014-.242-.027-.373.143-.029.372-.058.716-.086.123-.014.28-.028.473-.045.21-.018.46-.04.758-.07.229-.4.543-.658.973-.83a2.35 2.35 0 01.801-.143c.258.029.487.114.687.258.172.143.344.315.458.543.222-.013.437-.02.645-.027.222-.008.437-.015.644-.03l.09-.005a25.09 25.09 0 011.34-.052z" clip-rule="evenodd"/>
</svg>
