<svg xmlns="http://www.w3.org/2000/svg" fill="none" viewBox="0 0 24 24">
  <defs/>
  <path fill="#FF913D" fill-rule="evenodd" d="M4.946 9.091c-.168-.869-.112-1.493.022-2.518.36.034 1.789.003 3.504-.033 2.857-.06 6.507-.139 7.336.033.008-.186-.006-.471-.022-.793-.03-.598-.065-1.323.022-1.78.959.2 3.49 2.25 4.192 3.008-1.026 1.66-2.598 3.13-4.058 3.977-.036-.297-.048-.634-.065-1.054-.009-.242-.02-.512-.036-.818-.95.124-3.421.067-5.846.011a329.12 329.12 0 00-2.363-.05l-.887 1.911c-.218.055-.394.375-.572.7-.236.432-.477.87-.824.697-.529-.264-.469-1.317-.417-2.235.023-.405.045-.783.014-1.056zm11.422 5l.19-2.332c.185-.046.432-.228.7-.425.47-.345 1.006-.74 1.393-.546.529.263.469 1.315.417 2.232-.023.404-.045.782-.014 1.054.168.868.112 1.49-.022 2.514-.36-.033-1.789-.003-3.504.034-2.857.06-6.507.138-7.336-.034-.008.187.006.471.022.792.03.598.065 1.322-.022 1.778-.959-.2-3.49-2.247-4.192-3.004 1.026-1.657 2.598-3.126 4.058-3.971.035.296.048.633.065 1.053.009.241.02.51.035.816.95-.124 3.422-.067 5.847-.01.813.018 1.62.037 2.363.048z" clip-rule="evenodd"/>
</svg>
