<svg xmlns="http://www.w3.org/2000/svg" fill="currentColor" viewBox="0 0 24 24">
  <defs/>
  <path d="M14.825 5.964c-.153-.115-.268-.268-.421-.382-.382-.344-.765-.612-1.147-.88a3.972 3.972 0 00-1.3-.573c-.458-.115-.917-.153-1.376-.115-.459.039-.917.153-1.414.306-1.109.382-2.065.956-2.867 1.759-.842.84-1.453 1.835-1.874 3.02-.306.956-.458 1.873-.42 2.714.076 1.185.955 2.561 2.638 4.167.42.42.917.688 1.414.88a5.82 5.82 0 001.606.229 6.314 6.314 0 001.643-.345c.536-.19 1.033-.497 1.53-.84.152-.115.305-.268.458-.383a48.328 48.328 0 011.109 1.147c.612.65 1.185 1.223 1.72 1.72l.612.612c.191-.115.344-.23.535-.344.191-.115.42-.306.65-.573l.306-.306c.114-.115.459-.497.573-.65l-1.3-1.3c-.229-.23-.42-.42-.65-.612a8.967 8.967 0 01-.611-.573l-.994-1.07.459-.497c.153-.192.306-.383.42-.612.383-.612.65-1.223.88-1.912.19-.458.152-1.07-.115-1.796-.23-.727-.803-1.53-1.644-2.409-.153-.114-.306-.23-.42-.382zM12.95 8.258c.191.23.383.497.612.764.191.23.344.497.459.727.114.229.153.497.19.726.077.42-.076.88-.381 1.376-.077.115-.23.306-.46.535-.229.23-.458.536-.764.88-.688.764-1.49 1.147-2.408 1.07-.88-.115-1.72-.573-2.523-1.376a4.734 4.734 0 01-.688-.841c-.23-.383-.306-.956-.23-1.797.038-1.109.459-2.064 1.185-2.79.383-.383.841-.689 1.415-.956.497-.153.994-.115 1.529.038.535.153 1.07.535 1.606 1.07.114.153.267.344.458.574z"/>
</svg>
