<svg xmlns="http://www.w3.org/2000/svg" width="54" height="55" fill="currentColor">
    <path opacity=".3" d="M46.924 38.54c.667 1.075 1.238 2.036 1.852 2.97.401.604.621 1.19-.07 1.663-.684.468-1.183.02-1.595-.533-1.215-1.615-2.411-3.24-3.653-4.83-.334-.427-.736-.953-1.207-1.096-3.484-1.101-6.996-2.124-11.028-3.33.598 1.1.878 1.728 1.252 2.288 1.206 1.82 2.576 3.547 3.644 5.444 1.103 1.953 2.737 2.863 4.769 3.238 1.178.217 2.367.315 3.549.495.546.088 1.119.15 1.617.363.767.334 1.047 1.03.767 1.796-.28.766-.895 1.044-1.73.822-1.515-.39-3.035-.762-5.03-1.255.418.96.581 1.441.828 1.88.469.85 1.061 1.64 1.439 2.52.14.322-.05 1.041-.317 1.198-.27.168-.894-.019-1.228-.256-.375-.263-.583-.761-.88-1.143-.432-.559-.882-1.106-1.627-2.046-.44 1.763-.79 3.112-1.11 4.47-.203.874-.624 1.563-1.606 1.32-1.027-.26-.948-1.102-.801-1.96.34-2.048.67-4.099.922-6.163.081-.608.127-1.394-.171-1.862-2.29-3.576-4.675-7.102-7.384-11.176-.542 2.514-.998 4.417-1.353 6.345-.297 1.639-.446 3.298-.703 4.947-.215 1.388.397 2.497 1.118 3.59a295.362 295.362 0 0 1 2.39 3.655c.464.72.431 1.447-.283 1.881-.735.457-1.31.048-1.784-.66-.784-1.166-1.639-2.282-2.709-3.76-.455 1.563-.694 2.653-1.112 3.66-.172.421-.744.907-1.155.928-.795.032-.988-.676-.96-1.381.022-.553.08-1.103.148-2.112-.711.685-1.173 1.103-1.612 1.558-.488.512-.916 1.092-1.448 1.561-.73.654-1.601.769-2.352.024-.762-.763-.612-1.614.072-2.343 1.3-1.374 2.535-2.83 3.969-4.06 1.889-1.617 2.981-3.532 3.313-6.072.358-2.756 1.037-5.46 1.63-8.467-.78.206-1.234.253-1.633.43-3.234 1.46-6.442 2.975-9.69 4.4-1.006.442-1.677 1.068-2.037 2.128-.57 1.651-1.243 3.271-1.833 4.917-.538 1.51-1.306 2.118-2.302 1.718-.985-.398-1.227-1.389-.703-2.908.153-.451.355-.89.521-1.334.132-.36.25-.73.534-1.585-1.117.441-1.857.753-2.61 1.03-.81.293-1.626.756-2.456.758-.524.003-1.256-.56-1.587-1.078-.42-.663.12-1.189.732-1.5 1.543-.767 3.09-1.527 5.117-2.525-1.114-.292-1.763-.42-2.383-.627-.88-.298-1.305-.94-1.123-1.863.184-.933.853-1.427 1.731-1.215 1.075.255 2.222.571 3.11 1.195 1.528 1.08 2.852.972 4.41.203 2.742-1.337 5.567-2.499 8.753-3.912-.908-.411-1.366-.684-1.867-.834-3.145-.938-6.31-1.785-9.433-2.798-1.387-.444-2.458-.24-3.45.742a29.893 29.893 0 0 1-2.115 1.896c-.766.624-1.65.73-2.327-.113-.668-.83-.39-1.665.34-2.336.517-.478 1.046-.937 1.768-1.577-.617-.27-1.053-.522-1.526-.655C.794 24.514.069 23.866.462 22.682c.37-1.127 1.292-1.212 3.727-.365.757.262 1.518.503 2.283.725.114.033.268-.088.584-.207L5.57 20.441c-.732-1.165-.711-1.979.09-2.52.87-.593 1.75-.2 2.434 1.092.825 1.56 1.595 3.155 2.518 4.654.343.553.99 1.075 1.594 1.283 3.943 1.348 7.905 2.605 11.87 3.878.202.066.445.02 1.059.04-.437-.705-.731-1.219-1.066-1.716-1.495-2.216-3.088-4.37-4.462-6.651-1.057-1.756-2.484-2.934-4.3-3.713-2.14-.918-4.27-1.833-6.414-2.73-1.374-.575-1.9-1.354-1.471-2.274.36-.772 1.462-1.239 2.676-.486 1.224.755 2.55 1.333 4.15 2.16-.168-1.377-.98-2.057-1.5-2.866-.395-.608-.912-1.14-1.242-1.78-.374-.726-.212-1.462.454-1.92.748-.516 1.556-.418 2.114.343.623.84 1.12 1.777 1.668 2.673.582.936 1.164 1.872 2.183 2.694-.012-1.317-.076-2.636-.025-3.947.057-1.438.143-2.884.379-4.294.053-.338.832-.804 1.202-.729.353.077.908.82.843 1.166-.679 3.853.005 7.686.367 11.52.063.701.125 1.498.48 2.07 1.573 2.533 3.266 5 5.099 7.771.3-.691.541-1.068.624-1.467.83-3.99 1.677-7.983 2.39-11.997.155-.87.022-1.946-.343-2.765-.81-1.839-1.825-3.595-2.801-5.357-.645-1.176-.594-2.009.258-2.494.842-.489 1.752-.13 2.309 1.013.488 1.003.88 2.057 1.423 3.357.943-1.091.822-2.244 1.037-3.248.401-1.896.939-2.56 2.048-2.318 1.136.244 1.445 1.124 1.05 2.962-.2.934-.386 1.877-.562 2.823-.025.137.083.297.244.789.92-1.06 1.73-1.98 2.523-2.917.362-.416.62-.97 1.065-1.237.325-.201.98-.199 1.288.01.312.216.58.868.49 1.212-.156.584-.534 1.15-.958 1.587a77.833 77.833 0 0 1-3.598 3.428c-1.455 1.305-2.41 2.839-2.772 4.84-.653 3.619-1.464 7.205-2.203 10.808-.123.608-.18 1.227-.33 2.27 2.714-1.19 5.12-2.249 7.525-3.308.286-.125.55-.342.85-.406 3.682-.902 5.809-3.53 7.44-6.737.36-.703.793-1.373 1.22-2.038 1.035-1.584 1.045-1.581 3.213-.524-.757 1.515-1.519 3.033-2.518 5.03 1.507-.605 2.5-1.03 3.52-1.394.723-.257 1.56-.247 1.75.646.094.438-.34 1.213-.763 1.475-1.31.814-2.724 1.448-4.469 2.34l5.868 2.835c-.034 1.354-.72 1.519-1.74 1.16-1.738-.61-3.49-1.177-5.205-1.862-1.419-.564-2.708-.591-4.112.072-3.982 1.881-8.018 3.648-12.409 5.635.883.41 1.396.718 1.949.897 3.573 1.177 7.166 2.29 10.728 3.517 1.175.402 2.132.33 3.11-.39 1.331-.984 2.71-1.893 4.065-2.84.262-.18.47-.43.734-.594.746-.464 1.528-.558 2.125.239.6.802.306 1.517-.423 2.065-.692.525-1.403 1.02-2.102 1.532-.567.413-1.132.842-1.987 1.487 1.618.693 3.005 1.286 4.82 2.065-2.142 1.714-3.8-.356-5.736.176l.02.005Z" fill="currentColor"/>
</svg>
