<svg xmlns="http://www.w3.org/2000/svg" width="160" height="162.735">
  <defs>
    <clipPath id="a">
      <path fill="none" d="M0 0h160v162.735H0z" data-name="Rectangle 1750"/>
    </clipPath>
  </defs>
  <g data-name="Group 101911">
    <g clip-path="url(#a)" data-name="Group 101910">
      <path fill="#fdc400" d="M98.941 39.149a50 50 0 0 0-4.33-12.907 60.913 60.913 0 0 0-4.3-7.348 56.615 56.615 0 0 0-5.5-6.492C78.381 5.681 69.268.899 60.05.153A35.769 35.769 0 0 0 45.4 1.728c-5.508 1.883-10.034 5.345-14.187 9.3A67.144 67.144 0 0 0 16.5 31.719c-3.387 7.508-5.286 16.353-3.665 24.663q.237 1.214.538 2.392L5.208 75.211l15.136-2.533a37.107 37.107 0 0 0 6.369 6.066 42.683 42.683 0 0 0 25.154 8.48 38.036 38.036 0 0 0 11.349-1.658 49.283 49.283 0 0 0 10.438-2.594 43.9 43.9 0 0 0 11.934-6.573 39.477 39.477 0 0 0 9.784-11.4c4.373-7.538 5.335-17.267 3.569-25.849" data-name="Path 290777"/>
    </g>
  </g>
  <g data-name="Group 101913">
    <g fill="#525251" clip-path="url(#a)" data-name="Group 101912">
      <path d="M114.599 70.617a27.122 27.122 0 0 0-7.4-1l-3.134-.006c-.33-.006-1.113.006-1.113.006l-1.018-.007-4.573.007a27.132 27.132 0 0 0-7.4 1 27.127 27.127 0 0 0 7.4 1l4.573.007c.363 0 1.018-.007 1.018-.007s.783.012 1.113.005l3.134-.005a27.131 27.131 0 0 0 7.4-1" data-name="Path 290778"/>
      <path d="M112.642 132.936a27.125 27.125 0 0 0-7.4-1l-3.134-.006-16.813.006-15.382-.007-4.573.007a27.115 27.115 0 0 0-7.4 1 27.134 27.134 0 0 0 7.4 1l4.573.007 15.382-.007 16.813.006 3.134-.006a27.135 27.135 0 0 0 7.4-1" data-name="Path 290779"/>
      <path d="M121.392 117.356a27.123 27.123 0 0 0-7.4-1l-3.134-.006-25.952.006-23.743-.007-4.573.007a27.118 27.118 0 0 0-7.4 1 27.13 27.13 0 0 0 7.4 1l4.573.007 23.743-.007 25.952.006 3.134-.006a27.135 27.135 0 0 0 7.4-1" data-name="Path 290780"/>
      <path d="M130.856 101.776a27.124 27.124 0 0 0-7.4-1h-76.33a27.131 27.131 0 0 0-7.4 1 27.125 27.125 0 0 0 7.4 1h76.332a27.129 27.129 0 0 0 7.4-1" data-name="Path 290781"/>
      <path d="M128.924 86.197a27.123 27.123 0 0 0-7.4-1l-3.134-.006-19.173.006-17.541-.007-4.573.007a27.131 27.131 0 0 0-7.4 1 27.13 27.13 0 0 0 7.4 1l4.573.007 17.541-.007 19.173.006 3.134-.006a27.138 27.138 0 0 0 7.4-1" data-name="Path 290782"/>
      <path d="M11.191 60.531c.076-1.32.223-2.4.279-3.547a33.833 33.833 0 0 0-.022-3.871c-.022-.414-.055-1.035-.1-1.805l-.057-1.26-.038-.956-.04-1.265c-.01-.424-.019-.851-.021-1.275s.019-.853.027-1.284.011-.865.045-1.3l.1-1.315.053-.663.087-.664.174-1.34a42.405 42.405 0 0 1 1.221-5.409c.241-.913.587-1.8.892-2.711.17-.448.357-.892.536-1.342l.272-.674.306-.662a42.366 42.366 0 0 1 6.413-10.063l1.013-1.144c.342-.379.709-.735 1.063-1.1l.537-.549.563-.524c.379-.345.742-.711 1.136-1.041a45.474 45.474 0 0 1 4.927-3.737 46.119 46.119 0 0 1 5.415-3.007 47.94 47.94 0 0 1 5.756-2.205c.989-.265 1.963-.573 2.961-.774l.743-.168c.247-.057.495-.114.745-.152l1.494-.261a45.2 45.2 0 0 1 17.369.687c.454.092.893.228 1.335.347s.881.237 1.313.372l1.281.424.635.212.62.239 1.229.474c.4.168.8.349 1.19.521.795.331 1.545.729 2.294 1.1a42.731 42.731 0 0 1 7.792 5.166 44.021 44.021 0 0 1 5.546 5.514 46.414 46.414 0 0 1 3.508 4.839c.416.713.8 1.342 1.109 1.9l.751 1.434c.212.385.333.7.434.9l.143.311.144.31c.089.208.25.5.406.914l.605 1.5c.224.6.453 1.3.726 2.074l.366 1.252c.129.438.266.9.371 1.385l.356 1.518.3 1.653a42.594 42.594 0 0 1 .554 7.79 42 42 0 0 1-1.244 9.254c-.086.409-.214.81-.331 1.217l-.355 1.229-.425 1.227c-.14.412-.282.827-.455 1.234l-.5 1.235c-.169.414-.371.815-.557 1.227-.361.83-.807 1.629-1.231 2.449a42.3 42.3 0 0 1-3.043 4.755l-.424.583c-.146.191-.3.376-.451.565l-.914 1.132c-.651.723-1.278 1.479-1.983 2.17l-.517.531-.259.266-.272.254-1.092 1.018c-.368.337-.76.65-1.14.978l-.575.487-.6.461a42.117 42.117 0 0 1-5.056 3.4 43.887 43.887 0 0 1-11.443 4.58l-1.512.341c-.5.117-1.016.185-1.523.28l-.762.133c-.254.045-.511.067-.766.1l-1.53.194-1.538.115c-.256.017-.512.043-.768.053l-.769.019c-.512.009-1.024.033-1.534.03l-1.531-.041-.762-.022-.759-.061-1.513-.12-1.5-.2-.746-.1c-.249-.032-.493-.089-.739-.132l-1.47-.276c-.488-.095-.966-.228-1.447-.34-.966-.211-1.9-.516-2.837-.792-.471-.127-.921-.315-1.379-.471s-.915-.313-1.358-.5l-1.325-.552c-.219-.094-.442-.177-.656-.28l-.64-.307-1.269-.603-1.227-.667c-.407-.221-.815-.435-1.2-.684l-.983-.6c-.43-.251-.818-.524-1.186-.776l-1.024-.7c-.611-.448-1.093-.826-1.42-1.069l-.441-.328-.408-.325c-.267-.21-.525-.406-.778-.591s-.5-.352-.739-.528-.467-.343-.7-.505-.468-.318-.707-.471l-.361-.23-.356-.242a67.794 67.794 0 0 0-1.554-1.005c.327.572.637 1.1.951 1.6l.237.374c.082.12.169.236.255.353a24.07 24.07 0 0 0 1.104 1.384c.2.232.427.446.658.676s.48.459.743.7c.132.119.266.242.409.363l.453.354c.339.258.841.656 1.48 1.126l1.069.735c.384.264.79.55 1.24.814l1.028.63c.4.259.831.484 1.257.715l1.284.7 1.33.638.67.321c.224.107.457.194.686.293l1.386.577c.464.193.946.346 1.421.521s.95.358 1.443.492c.978.29 1.956.606 2.967.828.5.117 1 .256 1.514.355l1.537.289c.257.045.513.1.773.137l.78.1 1.566.206 1.581.127.793.063.8.024 1.6.042c.533 0 1.068-.021 1.6-.031l.8-.02c.268-.011.535-.037.8-.055l1.607-.12 1.6-.2c.267-.036.536-.06.8-.107l.8-.139c.53-.1 1.066-.172 1.593-.293l1.581-.357a45.9 45.9 0 0 0 11.97-4.793 44.127 44.127 0 0 0 5.289-3.558l.626-.482.6-.51c.4-.343.807-.671 1.192-1.023l1.143-1.066.285-.266.272-.278.542-.556c.737-.725 1.395-1.514 2.075-2.273l.956-1.185c.157-.2.319-.392.472-.592l.444-.61a44.278 44.278 0 0 0 3.187-4.982c.446-.859.911-1.7 1.29-2.567.194-.432.406-.854.583-1.287l.522-1.3c.181-.426.33-.861.478-1.293l.445-1.286.375-1.289c.122-.427.255-.848.347-1.277a44.018 44.018 0 0 0 1.3-9.7 44.624 44.624 0 0 0-.576-8.168l-.317-1.732-.374-1.592c-.111-.512-.254-.993-.389-1.452l-.384-1.312c-.286-.816-.527-1.548-.762-2.175l-.635-1.573c-.165-.43-.332-.74-.426-.958l-.151-.325-.15-.325c-.105-.212-.233-.541-.454-.944l-.787-1.5c-.327-.583-.725-1.243-1.161-1.989a48.4 48.4 0 0 0-3.672-5.068 46.052 46.052 0 0 0-5.8-5.772 44.735 44.735 0 0 0-8.15-5.406c-.783-.389-1.568-.8-2.4-1.152-.413-.18-.824-.37-1.245-.545l-1.285-.5-.649-.25-.663-.222-1.34-.443c-.452-.141-.913-.258-1.373-.389s-.922-.267-1.4-.364a47.212 47.212 0 0 0-18.153-.721l-1.562.273c-.262.041-.52.1-.779.159l-.778.175c-1.043.211-2.063.531-3.1.81a49.951 49.951 0 0 0-6.022 2.306 48.132 48.132 0 0 0-5.665 3.145 47.49 47.49 0 0 0-5.156 3.91c-.413.346-.793.728-1.189 1.089l-.589.549-.563.574c-.371.387-.755.76-1.113 1.156l-1.061 1.2a44.374 44.374 0 0 0-6.718 10.543l-.321.694-.285.706c-.188.471-.383.937-.562 1.407-.321.954-.681 1.886-.935 2.843a44.384 44.384 0 0 0-1.28 5.673l-.183 1.4-.09.7-.056.7-.107 1.378c-.035.457-.03.912-.047 1.363s-.029.9-.028 1.345.011.883.022 1.317.027.861.04 1.287l.038.969.06 1.275c.041.779.078 1.408.107 1.826a22.408 22.408 0 0 0 .56 3.885 18.6 18.6 0 0 0 1.185 3.41" data-name="Path 290783"/>
      <path d="M21.462 75.294a27.119 27.119 0 0 0-7.454-.425l-3.125.238-5.092.4-2.159.172.1-.17.45-.78 1.912-3.32 2.275-3.967a27.121 27.121 0 0 0 2.821-6.913 27.138 27.138 0 0 0-4.558 5.913l-2.287 3.964-3.94 6.861-.367.639c-.013.023-.029.048-.038.069l.078-.006.147-.012.267-.021.738-.058.4-.031 9.409-.727 3.124-.249a27.141 27.141 0 0 0 7.3-1.573" data-name="Path 290784"/>
      <path d="M145.077 120.627a27.12 27.12 0 0 0 2.557 7.014l1.454 2.777 7.357 13.98-12.559-1.559-4.539-.554a27.129 27.129 0 0 0-7.465.087 27.135 27.135 0 0 0 7.22 1.9l4.537.568 14.8 1.822 1.011.125.416.051.1.012c.012 0 .041.01.037 0l-.021-.041-.082-.155-.459-.872-.23-.437-8.336-15.866-1.464-2.771a27.139 27.139 0 0 0-4.33-6.082" data-name="Path 290785"/>
      <path d="M103.217 36.708a61.72 61.72 0 0 0 1.594.947l1.5.836c.5.274 1.028.522 1.6.788s1.182.556 1.882.845c.383.149.935.422 1.632.734.345.162.732.324 1.133.526l1.518.766c.549.264 1.087.581 1.647.888a60.67 60.67 0 0 1 6.9 4.443 64.553 64.553 0 0 1 6.611 5.651l.765.761c.256.251.508.5.746.768l1.434 1.549 1.341 1.562c.44.513.838 1.047 1.248 1.553a60.474 60.474 0 0 1 4.012 5.772c.263.435.528.842.756 1.243l.639 1.138c.2.358.393.686.555 1l.439.861.612 1.2.2.429.76 1.653a70.158 70.158 0 0 1 1.786 4.528c.184.474.329.985.5 1.508s.355 1.065.509 1.634l.483 1.754c.088.3.16.606.23.917l.218.942a60.71 60.71 0 0 1 1.31 8.2l.056.539.034.542.068 1.087c.021.363.049.726.065 1.09l.023 1.093c.046 1.457.026 2.912-.034 4.346s-.177 2.843-.33 4.209c-.082.682-.159 1.356-.26 2.014l-.146.978-.155.9a66.771 66.771 0 0 1-.923 4.368c-.368 1.47-.605 2.636-.792 3.762s-.3 2.218-.448 3.537a23.282 23.282 0 0 0 1.85-3.092 19.178 19.178 0 0 0 1.334-3.719c.21-.821.608-2.47.966-4.506l.161-.931.151-1.01c.1-.679.184-1.374.268-2.078.159-1.41.268-2.866.341-4.344s.082-2.98.034-4.483l-.024-1.127c-.016-.375-.045-.75-.067-1.125s-.047-.749-.07-1.122l-.035-.559-.058-.556a62.674 62.674 0 0 0-1.356-8.464l-.226-.972a15.38 15.38 0 0 0-.238-.946l-.5-1.81c-.16-.587-.358-1.143-.526-1.686s-.329-1.067-.519-1.557a72.49 72.49 0 0 0-1.847-4.673l-.786-1.706-.206-.443-.631-1.238-.453-.888c-.167-.323-.368-.662-.571-1.032l-.659-1.175c-.235-.413-.507-.835-.779-1.283a62.382 62.382 0 0 0-4.137-5.958c-.422-.524-.833-1.074-1.287-1.6l-1.383-1.613-1.479-1.6a18.54 18.54 0 0 0-.77-.793l-.789-.785a66.494 66.494 0 0 0-6.821-5.834 62.522 62.522 0 0 0-7.12-4.585c-.579-.317-1.135-.644-1.7-.916l-1.568-.79c-.414-.207-.813-.374-1.17-.54-.72-.32-1.292-.6-1.689-.748-.726-.291-1.381-.531-2-.733s-1.206-.322-1.777-.441c-.286-.058-.569-.11-.854-.158s-.577-.07-.871-.1c-.589-.057-1.2-.1-1.856-.14" data-name="Path 290786"/>
      <path d="M131.448 141.958a62.06 62.06 0 0 0-1.578.976c-.245.158-.482.315-.716.475s-.462.325-.7.48c-.477.318-.95.659-1.445 1.046-.248.194-.5.4-.762.62s-.554.429-.848.668l-1.388 1.131c-.292.247-.64.481-1 .752l-1.1.813-.628.463-.659.439-1.345.9c-.229.148-.452.309-.689.45l-.716.427a63.623 63.623 0 0 1-13 6.007 62.4 62.4 0 0 1-14.886 2.938 62.623 62.623 0 0 1-26.368-3.629l-2.365-.932c-.378-.14-.733-.305-1.08-.463l-1.009-.456-.944-.426c-.3-.134-.584-.293-.86-.429l-1.5-.769a18.307 18.307 0 0 1-1.189-.65l-.865-.5-.718-.412-.183-.105a7.951 7.951 0 0 1-.525-.323l-1.981-1.271c-.431-.271-.879-.616-1.384-.967l-.784-.557c-.271-.194-.557-.388-.833-.615l-1.794-1.411c-.322-.242-.625-.525-.948-.8l-.984-.853a64.026 64.026 0 0 1-8.358-8.988 61.942 61.942 0 0 1-7.398-12.467c-.545-1.138-.976-2.332-1.45-3.511l-.175-.443-.154-.451-.306-.9c-.2-.6-.419-1.2-.6-1.812l-.521-1.836-.26-.916-.22-.931-.427-1.848c-.138-.615-.229-1.238-.345-1.854l-.165-.924c-.054-.307-.115-.613-.148-.923l-.234-1.842-.116-.914-.072-.913-.138-1.809c-.06-.6-.05-1.2-.071-1.787s-.03-1.179-.045-1.76 0-1.158.015-1.729c0-.285.015-.569.026-.851l.016-.422.015-.3c.094-2 .274-3.636.366-4.451.176-1.505.274-2.69.309-3.832s.012-2.24 0-3.565a22.912 22.912 0 0 0-1.447 3.3 19.469 19.469 0 0 0-.852 3.858c-.1.84-.293 2.527-.392 4.591l-.016.31-.016.435a42.24 42.24 0 0 0-.027.878c-.014.589-.023 1.184-.015 1.783s.03 1.206.045 1.816.013 1.226.074 1.844l.142 1.867.075.942.12.943.242 1.9c.034.319.1.635.152.952l.17.953c.12.636.214 1.279.357 1.914l.44 1.908.222.957.268.946.538 1.9c.189.629.415 1.247.621 1.871l.316.933.16.465.18.458c.488 1.217.935 2.449 1.5 3.624a63.941 63.941 0 0 0 7.636 12.862 66.027 66.027 0 0 0 8.627 9.272l1.016.88c.333.283.647.574.979.824l1.852 1.455c.286.234.581.434.86.634l.809.575c.521.363.985.717 1.429 1l2.045 1.31c.234.153.416.264.542.333l.189.108.74.426.893.514c.351.2.755.44 1.227.671l1.551.795c.285.141.573.3.888.443l.974.441 1.041.471c.358.162.725.333 1.114.478l2.441.963a65.939 65.939 0 0 0 12.265 3.172 65.259 65.259 0 0 0 14.946.582 64.383 64.383 0 0 0 15.366-3.031 65.582 65.582 0 0 0 13.417-6.2l.739-.441c.245-.146.475-.311.711-.465l1.388-.925.68-.453.648-.478 1.134-.839c.368-.28.727-.523 1.028-.778l1.426-1.174c.3-.249.583-.489.847-.722s.491-.484.716-.718c.45-.467.847-.914 1.218-1.364a8.168 8.168 0 0 0 .522-.7 28.8 28.8 0 0 0 .488-.728c.322-.5.641-1.014.981-1.579" data-name="Path 290787"/>
    </g>
  </g>
  <g data-name="Group 101915">
    <g clip-path="url(#a)" data-name="Group 101914">
      <path fill="#525251" d="M53.787 75.46c-.138-.3-.275-.587-.414-.871s-.307-.532-.461-.791l-.24-.38c-.084-.121-.171-.238-.258-.355a26.139 26.139 0 0 0-.538-.7 21.472 21.472 0 0 0-2.828-2.736l-1.4-1.156-.967-.809-.492-.414c-.212-.176-.419-.358-.629-.541-.417-.368-.852-.731-1.273-1.118l-1.284-1.172-1.283-1.235a73.818 73.818 0 0 1-5.042-5.53c-.792-1.019-1.623-2.031-2.381-3.117a45.63 45.63 0 0 1-2.241-3.3 34.4 34.4 0 0 1-3.441-7.246 22.905 22.905 0 0 1-.931-3.875 17.492 17.492 0 0 1-.166-3.907 14.149 14.149 0 0 1 .767-3.732 12.862 12.862 0 0 1 1.745-3.28l.276-.369.3-.357.607-.71c.211-.225.434-.436.649-.654l.324-.324.346-.293a12.765 12.765 0 0 1 2.928-1.951 12.214 12.214 0 0 1 6.392-1.171 14.75 14.75 0 0 1 1.54.2c.252.041.5.1.746.152s.461.122.688.189a12.379 12.379 0 0 1 2.537 1.167 15.2 15.2 0 0 1 2.089 1.526 13.771 13.771 0 0 1 1.6 1.662c.209.291.439.555.607.84l.265.41c.043.067.076.138.114.206l.206.379a4.541 4.541 0 0 1 .217.464 4.283 4.283 0 0 1 .2.5l.362 1.068.64 1.906.145.436c.024.067.048.152.071.2l.066-.214.255-.822.489-1.577.226-.726a2.052 2.052 0 0 1 .112-.289l.11-.253.389-.9.085-.195a.826.826 0 0 1 .052-.094l.085-.144.132-.224.107-.183.027-.046a1.3 1.3 0 0 1 .087-.133l.353-.511c.152-.227.377-.479.621-.793.128-.152.28-.3.433-.472l.24-.259.275-.254a11.858 11.858 0 0 1 3.034-2.1 11.639 11.639 0 0 1 4.676-1.123c.452 0 .9-.03 1.392.017.485.031.982.053 1.477.125l.753.092.753.14.381.07c.126.027.25.064.376.1l.759.2a13.5 13.5 0 0 1 2.917 1.29 10.654 10.654 0 0 1 2.476 2.184c.171.227.366.436.523.679l.477.728a15.236 15.236 0 0 1 .8 1.594l.183.416c.061.139.105.287.159.431.1.29.211.578.307.874.167.6.36 1.2.479 1.827l.2.934.139.946.071.475.035.478.071.959v1.447l-.041.482c-.031.321-.045.645-.087.966l-.157.962a19.731 19.731 0 0 1-1.1 3.78c-.225.624-.526 1.225-.8 1.833-.135.305-.309.6-.461.9s-.305.6-.479.89a61.32 61.32 0 0 1-4.562 6.733c-1.649 2.147-3.331 4.225-5.054 6.155l-1.3 1.421-1.312 1.365c-.445.439-.878.882-1.322 1.305l-.664.631-.33.312-.237.217c-1.478 1.361-2.743 2.434-3.373 2.982a20.493 20.493 0 0 0-4.81 5.746 40.476 40.476 0 0 0 6.115-4.226c.633-.54 1.917-1.624 3.435-3.019l.243-.222.339-.32.682-.648c.456-.435.9-.891 1.359-1.342l1.347-1.4 1.331-1.457c1.765-1.978 3.474-4.089 5.153-6.275a63.247 63.247 0 0 0 4.714-6.965c.182-.3.338-.629.508-.943s.343-.626.49-.954c.3-.654.618-1.3.865-1.976a21.719 21.719 0 0 0 1.211-4.155l.173-1.07c.047-.357.065-.718.1-1.076l.044-.537c.006-.179 0-.358.005-.537v-1.072l-.077-1.061-.046-.533-.076-.521-.154-1.038c-.068-.34-.146-.677-.219-1.014-.13-.677-.339-1.335-.524-1.992-.105-.326-.227-.648-.34-.97-.06-.16-.109-.323-.178-.48l-.206-.47a17.266 17.266 0 0 0-.921-1.822l-.558-.852c-.184-.283-.414-.537-.618-.8a12.669 12.669 0 0 0-2.966-2.611 15.457 15.457 0 0 0-3.4-1.508l-.858-.223c-.142-.035-.283-.076-.424-.106l-.424-.079-.837-.154-.824-.1c-.545-.077-1.078-.1-1.6-.135-.515-.049-1.058-.02-1.574-.018a13.643 13.643 0 0 0-5.473 1.321 13.847 13.847 0 0 0-3.542 2.454l-.318.3-.279.3c-.178.195-.352.372-.5.548-.284.362-.542.657-.719.919l-.41.595a1.773 1.773 0 0 0-.1.155l-.032.054-.433.737-.022.044-.011.022v-.006l-.034-.062c-.046-.082-.087-.167-.138-.248l-.314-.488c-.2-.339-.467-.648-.715-.988a16.262 16.262 0 0 0-4.225-3.656 14.406 14.406 0 0 0-2.959-1.357c-.275-.082-.563-.16-.844-.231s-.553-.125-.838-.172a16.914 16.914 0 0 0-1.746-.225 15.214 15.214 0 0 0-3.7.162 13.574 13.574 0 0 0-3.722 1.2 14.8 14.8 0 0 0-3.37 2.24l-.391.334-.364.362c-.241.244-.491.482-.727.733l-.673.786-.336.4-.319.425a14.879 14.879 0 0 0-2.019 3.794 16.176 16.176 0 0 0-.88 4.263 19.5 19.5 0 0 0 .181 4.349 24.922 24.922 0 0 0 1.009 4.207 36.376 36.376 0 0 0 3.64 7.677 48.097 48.097 0 0 0 2.326 3.424c.779 1.116 1.634 2.158 2.45 3.206a75.786 75.786 0 0 0 5.192 5.694l1.319 1.269 1.317 1.2c.432.4.875.767 1.3 1.143.215.186.427.374.642.551l.5.42.982.817 1.411 1.154a36.18 36.18 0 0 0 3.116 2.279c.231.159.463.313.7.464l.359.227.349.239c.233.164.493.315.73.5l.757.575" data-name="Path 290788"/>
    </g>
  </g>
</svg>
