<svg width="74" height="56" viewBox="0 0 74 56" fill="none" xmlns="http://www.w3.org/2000/svg">
<g clip-path="url(#clip0)">
<rect y="0.206589" width="74" height="55" rx="6" fill="#ECECEC"/>
<mask id="mask0" mask-type="alpha" maskUnits="userSpaceOnUse" x="0" y="0" width="74" height="56">
<rect y="0.206589" width="74" height="55" rx="6" fill="#ECECEC"/>
</mask>
<g mask="url(#mask0)">
</g>
    <path d="M35.3283 31.0866C35.4883 30.8733 35.8883 30.4466 36.5283 29.8066C37.1683 29.1399 37.8216 28.2999 38.4883 27.2866C39.2883 26.0066 39.8483 24.8199 40.1683 23.7266C40.4883 22.6333 40.6483 21.6333 40.6483 20.7266C40.6483 20.5933 40.6483 20.4599 40.6483 20.3266C40.6483 20.1933 40.6349 20.0599 40.6083 19.9266C40.4483 18.9933 39.7416 18.1266 38.4883 17.3266C37.4749 16.6066 36.4216 16.2466 35.3283 16.2466C34.6083 16.2466 34.0216 16.4199 33.5683 16.7666C32.1549 17.7799 31.3549 18.7799 31.1683 19.7666C31.5149 19.6066 31.9283 19.5266 32.4083 19.5266C33.8749 19.5266 34.8083 20.0066 35.2083 20.9666C35.4216 22.7266 35.1683 23.8199 34.4483 24.2466C33.8083 24.5666 33.1816 24.7266 32.5683 24.7266C31.6349 24.7266 30.7549 24.3799 29.9283 23.6866C29.2083 23.0999 28.7283 22.3399 28.4883 21.4066C28.3016 19.0066 29.0749 17.0199 30.8083 15.4466C32.5949 13.8733 34.8083 13.1266 37.4483 13.2066C39.6883 13.2599 41.5016 13.8199 42.8883 14.8866C44.5149 16.0066 45.3283 17.5133 45.3283 19.4066C45.3283 19.6199 45.3149 19.8733 45.2883 20.1666C45.2616 20.4333 45.2216 20.6733 45.1683 20.8866C45.0349 21.6333 44.8483 22.3399 44.6083 23.0066C44.3683 23.6733 44.0349 24.3399 43.6083 25.0066C43.3416 25.3799 42.9816 25.8599 42.5283 26.4466C42.0749 27.0333 41.5549 27.6866 40.9683 28.4066C40.2483 29.2066 39.6083 29.9533 39.0483 30.6466C38.4883 31.3133 37.9416 31.8999 37.4083 32.4066C36.8749 32.2466 36.4216 32.0733 36.0483 31.8866C35.6749 31.6733 35.4349 31.4066 35.3283 31.0866ZM33.9683 36.8866C34.4749 36.0866 35.1149 35.6866 35.8883 35.6866C36.1816 35.6866 36.4883 35.7533 36.8083 35.8866C37.1283 36.0199 37.4616 36.1933 37.8083 36.4066C38.6349 37.5266 39.0483 38.6199 39.0483 39.6866C39.0483 40.3799 38.7416 40.8999 38.1283 41.2466C37.8883 41.3533 37.6083 41.4733 37.2883 41.6066C36.9949 41.7133 36.7283 41.7666 36.4883 41.7666C36.0349 41.7666 35.5949 41.6866 35.1683 41.5266C34.7683 41.3399 34.4216 41.1133 34.1283 40.8466C33.8349 40.5533 33.5949 40.2199 33.4083 39.8466C33.2483 39.4733 33.1683 39.0866 33.1683 38.6866C33.1683 38.3933 33.2483 38.0866 33.4083 37.7666C33.5949 37.4199 33.7816 37.1266 33.9683 36.8866Z" fill="#FF913D"/>
</g>
<defs>
<clipPath id="clip0">
<rect y="0.206589" width="74" height="55" rx="6" fill="#ECECEC"/>
</clipPath>
</defs>
</svg>
