<svg xmlns="http://www.w3.org/2000/svg" fill="currentColor" viewBox="0 0 24 24">
    <defs/>
    <path d="M8.233 16.233L8 15.967a20.859 20.859 0 00-.867-.834c-.3-.3-.6-.566-.866-.8l-.7-.7C5.333 13.4 4.033 12.033 4 11.9c.1-.167.233-.367.367-.533.133-.167.333-.3.5-.467.133-.167.3-.3.433-.433.133-.134.233-.2.333-.267.1.133 1.334 1.367 1.467 1.5l.333.333c.267.267.634.634 1.034 1.067.4.433.866.867 1.366 1.267.1-.134.234-.3.4-.434.134-.166.3-.3.434-.466.366-.367.766-.734 1.166-1.1.334-.334 6.367-6.234 6.734-6.367.133.067.233.167.333.267l.267.266c.233.234.4.4.5.567.1.167.233.3.333.467-.133.1-5.9 5.866-6.033 6l-.334.333c-.233.233-.533.533-.866.9-.334.367-.734.767-1.2 1.2 0 0-1.034 1-1.767 1.7l-1.567-1.467z"/>
</svg>
