<svg preserveAspectRatio="xMinYMin slice" width="100%" height="6" viewBox="0 0 220 6" fill="none" xmlns="http://www.w3.org/2000/svg">
    <path d="M3.443 5.125c-2.073-.08-3.601-.293-3.43-.473.194-.932.619-2.325.962-3.114C1.318.75.52.311.975.14c.26-.095 2.982-.154 6.032-.133 5.562.038 18.826-.037 26.797.01 7.97.046 17.514.087 28.646.123C75.871.184 171.085.341 216.045.63c4.526.029 4.526.029 3.154 3.751-.321.874-1.395 1.598-2.394 1.618-1.812.034-64.599-.744-81.151-.663-42.5-.012-87.937-.17-101.477-.35-13.54-.18-26.984.287-30.734.141" fill="#FDC500"/>
</svg>
