<svg xmlns="http://www.w3.org/2000/svg" fill="none" viewBox="0 0 24 24">
    <defs/>
    <path fill="#777678" fill-rule="evenodd"
          d="M6.5 6.5a3 3 0 01-3.426 2.97c-.096-1.586-.138-3.223.123-3.264.438-.08 1.823-.147 3.266-.181.024.154.037.313.037.475zm-3.32 4.489l.047.606.037.475c.1 1.6.133 2.832.167 4.398.128.257.629.173 1.023.107l.043-.007c.137-.03.295-.02.458-.008.194.014.394.029.575-.026.1-.266.266-.633.433-.866 0 .034.033 0 .033 0 .8-1.166 2.799-1.566 3.831.666.134.067.334.067.7.067h.233c.034 0 .167 0 .433-.033.142-.01.354-.008.582-.006.523.006 1.128.012 1.15-.127.134-.733.034-2.166-.033-2.766-.133-1.132-.233-2.298-.2-3.465 0-.214.019-.428.037-.642a5.63 5.63 0 00.03-.857c0-.206-.009-.478-.018-.775-.017-.519-.036-1.112-.015-1.557v-.1c-.019-.019-.747-.027-1.604-.037-.653-.007-1.38-.015-1.928-.03C8.834 6 8.417 6 7.973 6.001a4.5 4.5 0 01-4.793 4.987zm4.682 4.013c-.3-.034-.633.033-.9.166-.266.1-.433.267-.566.467-.2.266-.333.6-.3.966 0 .966.566 1.6 1.366 1.6.766 0 1.333-.234 1.566-.767.366-1.066.333-2.099-1.166-2.432zM7.595 17.4c-.4 0-.7-.267-.766-.567a.812.812 0 010-.4c.033-.2.167-.4.4-.533.266-.1.633-.1.9.034.232.166.366.466.4.8-.068.366-.5.666-.934.666zm13.795-5.728c1.1.553 2.02 1.015 2.097 2.83.033.632.033 1.365-.4 1.765-.39.369-.893.342-1.4.315-.27-.014-.543-.028-.799.018-.033-.666-.066-1.066-.5-1.466-.3-.333-.999-.6-1.532-.666-1.2-.167-1.799.833-2.199 1.966-.157.02-.339-.008-.508-.033a2.343 2.343 0 00-.325-.034c-.607 0-1.022-.02-1.537-.043l-.528-.024c-.1 0-.2-.1-.2-.233.028-1.198-.01-2.401-.047-3.606-.05-1.643-.102-3.289.013-4.923v-.133c0-.133.1-.2.2-.2.02-.019.048-.027.082-.037a.463.463 0 00.085-.03c.338-.096.78 0 1.175.085.151.032.295.063.424.082a2.7 2.7 0 01.585.11c.095.026.203.056.348.09.733.166 1.333.466 1.9 1.066.315.33.563.716.808 1.098.35.545.695 1.081 1.223 1.434.35.225.7.401 1.035.569zm-5.069-.443c.197.046.407.095.603.074 1.2-.1.9-.833.366-1.566l-.135-.175c-.198-.26-.415-.542-.631-.758-.4-.366-.5-.433-1-.5l-.179-.038c-.271-.059-.535-.116-.753-.062-.008.1-.018.21-.03.328-.084.899-.207 2.21.53 2.504.257.117.432.12.64.121.089.002.183.003.292.013.093.011.193.035.297.06zm5.047 1.666c.234.389.906 1.507 1.386 1.14.167-.133.167-.4.133-.6-.1-.5-2.099-1.6-1.599-.666.01.01.038.056.08.126zm-2.345 1.873c-.3-.034-.633.033-.9.166-.266.1-.433.267-.566.467-.2.266-.333.6-.3.966 0 .966.566 1.599 1.366 1.599.766 0 1.333-.233 1.566-.766.066-.233.133-.467.166-.7.067-.566-.2-1.066-.566-1.433-.167-.133-.433-.233-.766-.3zm-.233 2.398c-.4 0-.7-.266-.767-.566a.812.812 0 010-.4c.034-.2.167-.4.4-.533.267-.1.633-.1.9.034.233.166.366.466.4.8-.067.366-.5.665-.933.665z"
          clip-rule="evenodd"/>
    <path fill="#B71C54" d="M6.5 6.25a3.25 3.25 0 11-6.5 0 3.25 3.25 0 016.5 0z"/>
</svg>
