<svg width="58" height="58" viewBox="0 0 58 58" fill="none" xmlns="http://www.w3.org/2000/svg">
    <path fill-rule="evenodd" clip-rule="evenodd"
          d="M15.5105 14.9512C15.6829 19.6424 12.0197 23.5852 7.32842 23.7576C6.52555 23.7871 5.74461 23.7043 5.00073 23.5232C5.10092 25.0307 5.21365 26.4598 5.29954 27.5486C5.33395 27.9849 5.36406 28.3665 5.38732 28.6767C5.6247 32.4747 5.70383 35.4024 5.78295 39.1214C6.08827 39.732 7.27714 39.5327 8.21315 39.3758L8.31499 39.3587C8.64087 39.2863 9.01645 39.3133 9.40383 39.3412C9.86299 39.3742 10.3387 39.4084 10.7679 39.2796C11.0053 38.6466 11.4009 37.7762 11.7965 37.2223C11.7965 37.3014 11.8757 37.2223 11.8757 37.2223C13.7747 34.4529 18.5223 33.5034 20.9752 38.8048C21.2917 38.9631 21.7665 38.9631 22.6368 38.9631H23.1907C23.2699 38.9631 23.5864 38.9631 24.2194 38.884C24.5558 38.8599 25.0601 38.8651 25.6014 38.8706C26.8426 38.8833 28.2788 38.898 28.3339 38.5675C28.6504 36.8267 28.4131 33.4243 28.2548 32C27.9383 29.3097 27.7009 26.5403 27.7801 23.7709C27.7801 23.2622 27.8237 22.7535 27.8673 22.2449L27.8673 22.2448C27.9254 21.5666 27.9835 20.8884 27.9383 20.2102C27.9383 19.7204 27.9173 19.0733 27.8945 18.3682L27.8945 18.368C27.8545 17.1365 27.8089 15.7279 27.8592 14.6713V14.434C27.8143 14.389 26.0859 14.3696 24.0499 14.3467C22.4998 14.3293 20.7714 14.3099 19.4718 14.2757C18.3214 14.2552 16.9256 14.256 15.4589 14.2739C15.4848 14.497 15.5021 14.7229 15.5105 14.9512ZM14.1704 36.0354C14.8034 35.7189 15.5947 35.5607 16.3068 35.6398C19.8675 36.4311 19.9466 38.884 19.0762 41.416C18.5223 42.682 17.1772 43.2359 15.3573 43.2359C13.4583 43.2359 12.1131 41.7325 12.1131 39.4379C12.034 38.5675 12.3505 37.7762 12.8252 37.1432C13.1418 36.6684 13.5374 36.2728 14.1704 36.0354ZM13.8539 39.9918C14.0121 40.7039 14.7243 41.3369 15.6738 41.3369C16.7024 41.3369 17.7311 40.6248 17.8893 39.7544C17.8102 38.9631 17.4937 38.251 16.9398 37.8553C16.3068 37.5388 15.4364 37.5388 14.8034 37.7762C14.2495 38.0927 13.933 38.5675 13.8539 39.0422C13.7748 39.3587 13.7748 39.6752 13.8539 39.9918ZM53.4171 34.453C53.235 30.1433 51.0506 29.0466 48.4358 27.7336C47.6419 27.335 46.8084 26.9165 45.9792 26.3821C44.7233 25.5448 43.9049 24.2701 43.074 22.9758C42.4914 22.0683 41.9026 21.1512 41.1525 20.3685C39.8073 18.9442 38.3831 18.2321 36.6423 17.8365C36.2968 17.7567 36.0406 17.6859 35.8167 17.6241L35.8167 17.6241C35.3739 17.5017 35.0574 17.4143 34.4268 17.3617C34.1207 17.318 33.7785 17.2441 33.42 17.1666C32.4808 16.9638 31.4304 16.737 30.6287 16.9661C30.5593 17.0008 30.4899 17.0202 30.4272 17.0379C30.3469 17.0604 30.2775 17.0799 30.2331 17.1243C29.9957 17.1243 29.7583 17.2826 29.7583 17.5991V17.6782V17.9156C29.4843 21.7971 29.6056 25.7049 29.7268 29.6086C29.8156 32.4692 29.9044 35.3276 29.8374 38.1719C29.8374 38.4884 30.0748 38.7258 30.3122 38.7258C30.7684 38.7448 31.179 38.7638 31.5659 38.7817L31.5665 38.7818L31.5666 38.7818C32.7896 38.8384 33.7755 38.884 35.218 38.884C35.4441 38.884 35.7097 38.9236 35.988 38.965L35.988 38.965C36.3915 39.0251 36.8215 39.0891 37.1962 39.0423C38.1457 36.352 39.57 33.9782 42.4185 34.3738C43.6845 34.5321 45.3462 35.1651 46.0583 35.9564C47.087 36.9059 47.1661 37.8554 47.2452 39.4379C47.8529 39.3274 48.4991 39.3616 49.1435 39.3956C50.3451 39.4591 51.5404 39.5223 52.4675 38.6467C53.4962 37.6971 53.4962 35.9564 53.4171 34.453ZM37.8292 26.8568C37.3641 26.9085 36.8652 26.7914 36.3987 26.6819C36.1509 26.6238 35.9123 26.5678 35.6928 26.5403C35.4336 26.5168 35.2096 26.5143 34.9997 26.5119H34.9997C34.5046 26.5064 34.0885 26.5017 33.4772 26.2238C31.728 25.5241 32.0206 22.4113 32.2211 20.2777C32.2474 19.9985 32.272 19.7361 32.2903 19.4981C32.8096 19.3683 33.4353 19.5047 34.0802 19.6452L34.0802 19.6453C34.2215 19.6761 34.3637 19.707 34.5059 19.7355C35.6928 19.8937 35.9302 20.052 36.8797 20.9224C37.3935 21.4362 37.9074 22.1066 38.3789 22.7216C38.4883 22.8642 38.5953 23.0039 38.6996 23.1379C39.9656 24.8787 40.6777 26.6195 37.8292 26.8568ZM51.6763 33.3452C50.5357 34.2174 48.9399 31.5623 48.3845 30.6382C48.2849 30.4725 48.2188 30.3625 48.1947 30.3384C47.0078 28.1229 51.7554 30.734 51.9928 31.9209C52.0719 32.3957 52.0719 33.0287 51.6763 33.3452ZM40.6777 35.4816C41.3107 35.1651 42.102 35.0068 42.8141 35.086C43.6054 35.2442 44.2384 35.4816 44.634 35.7981C45.5044 36.6685 46.1374 37.8554 45.9792 39.2005C45.9 39.7544 45.7418 40.3083 45.5835 40.8622C45.0296 42.1282 43.6845 42.6821 41.8646 42.6821C39.9656 42.6821 38.6204 41.1787 38.6204 38.884C38.5413 38.0136 38.8578 37.2224 39.3326 36.5894C39.6491 36.1146 40.0447 35.719 40.6777 35.4816ZM40.4403 39.4379C40.5986 40.15 41.3107 40.7831 42.2602 40.7831C43.2889 40.7831 44.3175 40.0709 44.4758 39.2005C44.3966 38.4093 44.0801 37.6971 43.5262 37.3015C42.8932 36.985 42.0229 36.985 41.3898 37.2224C40.836 37.5389 40.5195 38.0136 40.4403 38.4884C40.3612 38.8049 40.3612 39.1214 40.4403 39.4379Z"
          fill="#777678"/>
    <path d="M12.5129 15.0613C12.6245 18.0968 10.2542 20.648 7.21864 20.7596C4.18313 20.8711 1.63192 18.5008 1.52036 15.4653C1.4088 12.4298 3.77913 9.87856 6.81465 9.767C9.85017 9.65544 12.4014 12.0258 12.5129 15.0613Z"
          fill="#B71C54"/>
</svg>
