<svg xmlns="http://www.w3.org/2000/svg" fill="currentColor" viewBox="0 0 24 24">
    <defs/>
    <path d="M12.73 9.362c-.019.214-.037.428-.037.642-.034 1.167.066 2.333.2 3.465.066.6.166 2.033.033 2.766-.023.139-.628.133-1.15.127-.229-.002-.441-.004-.583.006-.266.033-.4.033-.433.033h-.233c-.366 0-.566 0-.7-.067-1.032-2.232-3.031-1.832-3.831-.666 0 0-.033.034-.033 0-.167.233-.333.6-.433.866-.181.055-.381.04-.575.026-.163-.011-.321-.023-.458.008l-.043.007c-.394.066-.895.15-1.023-.107a98.86 98.86 0 00-.167-4.398l-.037-.475c-.133-1.69-.42-5.329-.03-5.389.733-.133 4.132-.233 5.997-.2.548.015 1.275.023 1.928.03.857.01 1.585.018 1.604.037v.1c-.021.445-.002 1.038.015 1.557.01.297.018.569.018.775a5.63 5.63 0 01-.03.857zm-5.768 5.806c.267-.133.6-.2.9-.166 1.499.333 1.532 1.366 1.166 2.432-.233.533-.8.766-1.566.766-.8 0-1.366-.633-1.366-1.599-.033-.366.1-.7.3-.966.133-.2.3-.367.566-.467zm-.133 1.666c.067.3.366.567.766.567.433 0 .866-.3.933-.667-.033-.333-.167-.633-.4-.8-.266-.132-.633-.132-.9-.033a.774.774 0 00-.4.534.812.812 0 000 .4zm16.658-2.332c-.077-1.814-.996-2.276-2.097-2.83-.335-.167-.686-.343-1.035-.568-.528-.353-.873-.89-1.223-1.434-.245-.382-.493-.769-.809-1.098-.566-.6-1.166-.9-1.899-1.066-.145-.034-.253-.064-.348-.09a2.7 2.7 0 00-.585-.11 6.367 6.367 0 01-.424-.082c-.395-.086-.837-.181-1.175-.085a.463.463 0 01-.085.03c-.034.01-.063.018-.082.037-.1 0-.2.066-.2.2v.133c-.115 1.634-.064 3.28-.013 4.923.038 1.205.075 2.408.047 3.606 0 .133.1.233.2.233l.528.024c.515.024.93.043 1.537.043.095 0 .207.017.325.034.17.025.35.052.508.032.4-1.132 1-2.132 2.2-1.965.532.067 1.232.333 1.532.666.433.4.466.8.5 1.466.255-.046.527-.032.799-.018.506.027 1.009.054 1.4-.315.432-.4.432-1.133.4-1.766zm-6.563-3.198c-.196.021-.406-.028-.602-.074a2.965 2.965 0 00-.298-.06 3.526 3.526 0 00-.292-.011c-.208-.003-.383-.005-.64-.122-.737-.294-.614-1.605-.53-2.503.012-.118.022-.228.03-.329.218-.054.482.003.753.062l.18.038c.5.067.6.134.999.5.216.216.433.499.631.758l.135.175c.533.733.833 1.466-.366 1.566zm5.83 2.732c-.48.367-1.152-.751-1.386-1.14-.042-.07-.07-.116-.08-.126-.5-.933 1.5.166 1.6.666.033.2.033.466-.134.6zm-4.63.9c.266-.134.599-.2.899-.167.333.066.6.166.766.3.366.366.633.866.566 1.432-.033.233-.1.466-.166.7-.233.533-.8.766-1.566.766-.8 0-1.366-.633-1.366-1.6-.033-.366.1-.699.3-.965.133-.2.3-.367.566-.467zm-.1 1.665c.066.3.366.566.765.566.434 0 .867-.3.933-.666-.033-.333-.166-.633-.4-.8-.266-.133-.633-.133-.899-.033a.774.774 0 00-.4.533.812.812 0 000 .4z"
          clip-rule="evenodd"/>
</svg>
