<svg fill="none" xmlns="http://www.w3.org/2000/svg" viewBox="0 0 24 24">
    <path fill-rule="evenodd" clip-rule="evenodd"
          d="M14.863 6.313c-.196.04-.353.04-.51.04-.117 0-.235 0-.274-.079-.078-.274-.078-.588-.04-.94l.08-.981L20.587 4a8.106 8.106 0 01-.04 2.392l-2.038-.04c-.236.51-.51 1.138-.785 1.883-.482.585-1.145 1.14-1.804 1.691l-.274.23c-.314.244-.628.52-.914.77l-.105.092c.33-1.11.637-2.267.957-3.47.098-.368.196-.74.298-1.117-.157-.118-.51-.157-1.02-.118zm-3.137 11.292c.04 0 .275.275.275.275-.353.588-.627 1.098-.745 1.568-.118-.039-.235-.078-.353-.157-.157-1.019-.902-3.215-2.156-6.626-1.255-3.333-2-5.215-2.275-5.567l-.039-.04-.039-.039c-.04 0-.04-.04-.04-.04a.396.396 0 00-.058.01 1.47 1.47 0 01-.294.03c-.15 0-.323.023-.537.051-.065.01-.135.018-.208.028l-.941.117c-.04-.117-.078-.235-.078-.392v-.51c0-.51-.04-.901-.079-1.176a8.112 8.112 0 00-.157-.863c-.039-.078.432-.117 1.451-.117.173 0 .362.007.572.016.266.01.568.023.918.023.32.021.688.031 1.096.042.34.009.708.019 1.1.036l2.98.118a3.733 3.733 0 00-.118.98v.863c-.081 0-.176.007-.287.015a7.703 7.703 0 01-.576.024c-.139.014-.282.023-.431.032-.271.017-.559.035-.863.086.056.276.13.513.197.725.028.089.055.174.078.255.078.274.157.51.274.784.079.275.196.588.314.902.053.239.142.513.242.823a46.632 46.632 0 01.378 1.232c.105.353.206.698.321 1.043.157.588.314 1.097.47 1.607 0 .093.025.162.055.245l.024.069c-.274.588-.47 1.176-.549 1.803-.078.353-.078.667-.078 1.02 0 .235.039.51.156.706zM18.55 8.47c-.627.883-1.607 1.663-2.531 2.4-.348.277-.688.547-.998.815-1.608 1.45-2.745 3.097-2.627 5.332.146.182.223.06.516-.397l.072-.112c.704-1.233 1.497-1.763 2.492-2.428.334-.224.692-.462 1.076-.748.061.73-.235 1.136-.628 1.672-.366.5-.815 1.113-1.136 2.21-.157.627-.196 1.372.666 1.254 5.024-1.112 4.46-4.662 3.845-8.522l-.041-.26c-.079-.393-.432-1.295-.706-1.216zm-4.078 6.94c.04-.04.235-.157.235-.157.118 0 .157.157.157.314-.178.376-.35.854-.531 1.355-.497 1.376-1.058 2.932-1.978 3.075-.732.067-.053-1.108.361-1.825.074-.128.14-.242.188-.331.392-.784.94-1.804 1.568-2.431z"
          fill="#708E40"/>
</svg>