<svg fill="none" xmlns="http://www.w3.org/2000/svg" viewBox="0 0 24 24">
    <path d="M19.905 4c.102.881.102 1.705-.05 2.474H17.67c-.61 1.373-1.321 3.685-2.238 6.763s-1.674 5.39-2.283 6.763c-.509-.052-1.065-.052-1.574-.052a4.583 4.583 0 01-1.37-.33c-.151-1.044-.863-3.298-2.033-6.763C7 9.445 6.238 7.52 5.932 7.08c0-.053-.05-.053-.102-.053-.05 0-.306.053-.66.22-.353.11-.659.165-.862.165.103-.165.103-.44.103-.824 0-1.101-.15-1.87-.406-2.312-.05-.11.406-.11 1.268-.11.712 0 1.88.053 3.453.11 1.83.053 2.897.11 3.25.11-.102.33-.102.659-.102 1.043v.934c-.306 0-.815.053-1.574.165.103.604.353 1.925.862 4.014.559 2.422.965 3.795 1.27 4.18 1.066-1.925 1.983-4.676 2.795-8.194-.254-.11-.66-.165-1.321-.11-.66.053-1.118 0-1.32 0-.05-.275-.103-.604-.05-.99.05-.33.05-.66.102-.992C14.873 4.22 17.31 4.11 19.905 4z"
          fill="#708E40"/>
</svg>