<svg fill="none" xmlns="http://www.w3.org/2000/svg" viewBox="0 0 24 24">
    <path d="M22 5.43c0 .74-.078 1.248-.273 1.482-.117-.04-.273-.04-.468-.04h-.703c-.624 2.03-1.209 3.98-1.794 5.853-.585 1.873-1.132 3.706-1.56 5.462-.04 0-.196 0-.469.039-.273 0-.741.039-1.444.117-.312-.624-.663-1.522-1.014-2.731a11.48 11.48 0 01-.312-1.092c-.117-.352-.195-.664-.273-.976a9.814 9.814 0 00-.234-.78c-.078-.234-.117-.39-.156-.507-.156.312-.39.819-.703 1.521a43.114 43.114 0 01-1.17 2.42c-.702 1.599-1.17 2.457-1.287 2.496a10.547 10.547 0 00-.898-.117c-.39-.039-.819-.117-1.326-.195-.04-.195-.117-.43-.195-.78-.078-.313-.195-.742-.312-1.21-.117-.507-.312-1.092-.508-1.794-.195-.703-.429-1.522-.702-2.42L4.6 6.835c-.624-.04-1.17 0-1.599.117V5.936v-.234c0-.078 0-.156.039-.195 0-.078.039-.117.039-.195h3.316c1.327 0 2.146 0 2.38.04 0 .233.04.467.078.701.04.234.078.469.156.703H7.487a9.2 9.2 0 00.156 1.092c.078.351.156.663.234 1.014.078.352.195.742.312 1.17.117.43.234.898.39 1.444.117.469.234.937.351 1.366.117.468.234.858.312 1.248.078.39.195.703.273.937.078.273.156.429.195.468.196-.234.43-.546.625-1.014.195-.43.429-.976.624-1.6.234-.702.507-1.327.78-1.873s.468-.936.624-1.17c0-.078-.039-.234-.078-.43-.039-.194-.117-.468-.156-.74a28.795 28.795 0 01-.234-.898c-.078-.312-.156-.663-.273-.975-.234 0-.429-.04-.663-.04-.195 0-.39 0-.585.04-.195-.351-.312-.703-.312-1.054v-.195-.195C10.647 5.117 11.427 5 12.48 5h.469c.195 0 .429 0 .663.039h1.404c.04 0 .117 0 .235-.039.039.117.078.234.117.39.039.117.039.234.039.39 0 .234-.079.43-.196.664H14.9c-.195-.04-.312-.04-.39-.04h-.273c.078.118.078.196.078.313v.312c0 .507.078 1.092.234 1.794.156.703.39 1.522.624 2.458.117.43.235.82.313 1.21.117.39.195.741.273 1.053.078.312.156.585.234.78.078.196.156.352.234.469.195-.703.39-1.444.624-2.146.234-.702.43-1.405.663-2.068.195-.663.39-1.326.586-1.95.195-.625.312-1.21.39-1.717-.117-.04-.195-.04-.273-.04h-.235c-.078 0-.195.04-.35.079-.157.078-.274.117-.39.117h-.313c-.039-.078-.039-.156-.078-.234-.039-.117-.039-.234-.039-.351 0-.157.04-.508.156-1.054a12 12 0 012.068-.156c.507 0 .975.04 1.482.078.469-.078.976 0 1.483.078z"
          fill="#DA9220"/>
    <path d="M6.086 4l-1.38 1.38 14.235 14.234 1.38-1.38L6.086 4z" fill="#3F6B37"/>
</svg>