<svg fill="none" xmlns="http://www.w3.org/2000/svg" viewBox="0 0 24 24">
    <g clip-path="url(#clip0)" fill="#DA9220">
        <path d="M22.68 6.21a4.613 4.613 0 00-.271-1.142c-.23-.248-.94.256-1.305.508l-.282.202-.042.032c-1.943 1.44-3.422 2.64-4.187 5.038a25.241 25.241 0 00-.47 5.092c-.187.36-.553 1.093-.722 1.462-.17.369.939.683 1.38.697.44.014.67-.702.877-1.35 2.023-1.196 3.286-2.32 4.431-4.421 1.146-2.1 1.08-3.905.592-6.118zm-4.923 8.812s0 .027-.033.04c-.023-.323-.047-.633-.06-.94a7.103 7.103 0 011.032-3.17v-.028a11.5 11.5 0 01.737-1.088c-.066 1.875-.043 3.742-1.676 5.186z"/>
        <path d="M16.086 14.05c-.967-1.583-1.699-3.84-2.445-6.747h2.013a6.47 6.47 0 00.038-1.988c-2.413.09-4.65.183-6.712.279l-.075.814a1.98 1.98 0 00.037.796 7.13 7.13 0 001.24 0c.404-.03.81.008 1.201.113-.748 2.894-1.605 5.132-2.572 6.716-.272-.321-.667-1.465-1.183-3.432-.457-1.695-.723-2.79-.798-3.284.474-.071.952-.115 1.432-.13a6.545 6.545 0 000-.76 2.797 2.797 0 01.117-.838l-2.985-.108a107.56 107.56 0 00-3.211-.076c-.814 0-1.208.038-1.183.112.307.593.442 1.253.39 1.912.016.234-.024.468-.118.684.28-.03.556-.093.822-.184.204-.074.414-.13.629-.167.051 0 .075 0 .075.054.272.36.95 1.93 2.032 4.71 1.111 2.846 1.737 4.688 1.878 5.528.392.174.817.27 1.248.279.498.024.999.042 1.503.054a49.57 49.57 0 002.088-5.537c.313-.972.612-1.84.897-2.605.253.765.535 1.633.854 2.605a49.552 49.552 0 002.112 5.542c.504 0 1.005-.018 1.502-.055a3.256 3.256 0 001.249-.292"/>
    </g>
    <defs>
        <clipPath id="clip0">
            <path fill="#fff" transform="translate(1 5)" d="M0 0h22v13.391H0z"/>
        </clipPath>
    </defs>
</svg>