<svg xmlns="http://www.w3.org/2000/svg" viewBox="0 0 100 100">
  <path data-name="Wobbly Circle" d="M98.96 32.371a67.361 67.361 0 0 0-5.132-15.538c-1.5-3.493-5.06-7.555-10.833-10.62-5.7-3.065-13.827-4.918-24.232-5.7-1.781-.144-3.492-.216-5.131-.287a2.562 2.562 0 0 1-.782-.143c-1.143-.285-12.261.214-16.181.713a39.389 39.389 0 0 0-11.4 3.207c-3.635 1.639-6.771 4.49-9.479 7.056a47.181 47.181 0 0 0-7.27 8.909A50.29 50.29 0 0 0 .107 44.346a55.529 55.529 0 0 0 5.274 27.013 54.942 54.942 0 0 0 12.686 17.677c7.056 6.481 20.455 10.121 40.34 10.905a33.815 33.815 0 0 0 14.043-2.139 40.114 40.114 0 0 0 11.546-6.914 40.754 40.754 0 0 0 8.481-10.264 41.638 41.638 0 0 0 4.846-12.473 125.11 125.11 0 0 0 2.423-17.106 71.077 71.077 0 0 0-.786-18.674Z" fill="#f5f5f5"/>
</svg>
