<svg xmlns="http://www.w3.org/2000/svg" fill="none" preserveAspectRatio="none" viewBox="0 0 375 6"><path fill="#FDC500" d="M0 0h375v2.06l-.04-.1-.105-.1-.105-.05-.25-.08-.199-.05-.301-.04-.5-.05-.5-.03-1-.03-1.187-.01h-6.453l-.922.01-.719.02-.719.03-1.005.05-1.245.1-1.75.16-2 .19-1 .08-1 .06-.802.04-.802.02-.396.01-.708.01-1.104-.02-1.094-.03L348 2.2l-3-.19-3-.21-1.5-.09-1.5-.08-1.5-.05-.75-.02H336l-9 .02-6 .02h-6l-2.875-.01-2.875-.03-2.875-.03-2.875-.05-2.75-.02h-1.375L298 1.47l-2.75.06-2.75.1-4 .2-2 .12-2 .09-2 .09-2 .07-2 .05-2 .03-1.26.01-1.261.01-2.479-.03-2.5-.07-2.5-.08-5-.2-5-.2-6-.25-3-.1-3-.08-2-.02-2 .02-2 .05-2 .11-2.5.17-2.5.26-1.5.19-1.5.19-3 .43-3 .41-2.5.28-2.5.22-1.5.09-1.5.08-3 .08h-3l-3.5-.04-3.5-.07-7-.22-7-.27-7-.3-5-.21-4-.15-8-.24-4-.05-4-.02-8-.02-8 .02h-7l-6 .01h-2.719l-3.281-.02-2-.05-2-.07-2-.1-9.5-.45-2.875-.11-2.875-.08-2.875-.04H93.5l-13-.05-10-.08-12-.06-12-.01-24.188-.11L0 1V0Z"/></svg>
