<svg xmlns="http://www.w3.org/2000/svg" fill="none" viewBox="0 0 375 6" preserveAspectRatio="none">
    <path fill="#fff"
          d="M50.7.3L.2.1v.6c-.4.2 0 .5 0 .7v3.7c0 .3 1.3.5 3 .4H64l16 .2h11c4.1.2 9.2.1 13.4.1h27c14.7-.2 29-.2 43.7-.2h22.7c10.9 0 22.1-.7 33-.7 15.9 0 31.2.5 47.1.5l23.2.2h37.5l12.7-.1c6.3-.2 13.4 0 19.8 0 4 0 3.9 0 3.9-.6V1.2c0-.5-2-.5-5.2-.5h-5.4c-5.1 0-8 .7-13.1.7-4.3 0-10.5-.7-14.9-.7h-31.9c-14-.3-16.8.7-31 .7-6.1 0-24.3-1-30.4-1C228.1.4 225 3 210 3c-15.5 0-35-1.4-50.5-1.6h-36c-8.7 0-18.6-.9-27.2-.9L50.7.3z"/>
    <path fill="#fff" d="M0 3h375v3H0z"/>
</svg>
